<?xml version="1.0" standalone="no"?>
<!DOCTYPE svg PUBLIC "-//W3C//DTD SVG 20010904//EN"
 "http://www.w3.org/TR/2001/REC-SVG-20010904/DTD/svg10.dtd">
<svg version="1.0" xmlns="http://www.w3.org/2000/svg"
 width="451.000000pt" height="451.000000pt" viewBox="0 0 451.000000 451.000000"
 preserveAspectRatio="xMidYMid meet">
<metadata>
Created by potrace 1.14, written by Peter Selinger 2001-2017
</metadata>
<g transform="translate(0.000000,451.000000) scale(0.100000,-0.100000)"
fill="#000000" stroke="none">
<path d="M1910 4485 c-165 -30 -230 -44 -241 -50 -5 -3 -64 -26 -131 -49 -253
-90 -511 -242 -710 -420 -186 -166 -468 -486 -523 -593 -36 -70 -91 -163 -105
-177 -6 -6 -10 -17 -10 -25 0 -9 -9 -38 -19 -66 -106 -276 -141 -402 -160
-577 -23 -202 -8 -479 33 -643 71 -281 104 -373 210 -585 156 -311 406 -635
633 -820 153 -125 364 -252 517 -310 39 -15 115 -44 168 -64 121 -46 276 -86
348 -91 30 -1 161 -6 290 -9 248 -6 284 -3 490 45 99 23 285 79 403 123 74 27
269 136 357 200 213 154 553 494 626 626 10 19 25 41 31 48 34 35 104 171 203
387 59 129 125 342 145 465 8 47 19 117 26 155 15 89 3 454 -16 516 -8 25 -24
123 -35 213 -5 43 -16 86 -23 95 -8 9 -24 45 -37 81 -54 150 -187 415 -272
544 -19 28 -156 215 -192 261 -88 114 -268 276 -396 356 -51 32 -196 108 -240
125 -25 10 -56 28 -70 41 -14 13 -31 21 -37 18 -13 -4 -57 9 -228 70 -149 53
-182 61 -470 117 -27 5 -138 11 -245 13 -170 3 -211 0 -320 -20z m100 -120
c110 -15 110 -15 109 -38 0 -18 -27 -35 -163 -101 -158 -76 -164 -78 -187 -62
-35 24 -53 20 -159 -33 -53 -27 -120 -59 -149 -70 l-52 -20 3 32 c2 23 12 37
36 52 18 11 109 70 202 132 93 61 182 114 197 116 29 5 87 2 163 -8z m1015
-138 c191 -68 394 -158 403 -179 2 -5 8 -8 14 -8 19 0 167 -111 242 -181 76
-71 182 -198 252 -300 89 -130 132 -196 149 -229 10 -19 21 -37 25 -40 17 -12
89 -168 146 -312 29 -75 34 -102 38 -195 2 -59 11 -137 20 -173 31 -130 16
-145 -38 -37 -32 64 -114 218 -120 224 -1 2 -47 14 -102 28 l-99 25 -18 -21
c-16 -20 -21 -21 -60 -9 -23 7 -60 20 -82 30 -157 70 -215 93 -247 97 -30 4
-37 2 -43 -17 -13 -41 6 -71 119 -186 99 -103 116 -116 137 -109 13 4 32 14
41 22 9 8 22 12 27 8 15 -9 14 -44 -6 -148 -17 -86 -19 -91 -58 -119 -72 -53
-175 -109 -186 -102 -17 10 -59 111 -59 140 0 19 -25 50 -99 122 -156 152
-225 215 -243 224 -20 8 -88 -17 -88 -33 0 -5 12 -31 26 -57 15 -26 52 -94 82
-152 31 -58 81 -143 112 -190 32 -47 83 -124 114 -172 61 -95 69 -99 132 -73
19 8 59 17 87 20 29 3 71 8 95 11 36 5 42 3 42 -14 0 -20 -57 -109 -159 -247
-95 -128 -221 -325 -221 -344 0 -5 -12 -23 -26 -40 l-26 -31 16 -123 c9 -68
16 -132 16 -143 0 -12 -45 -68 -112 -139 l-113 -118 4 -64 c2 -54 0 -64 -16
-69 -91 -30 -108 -42 -172 -117 -75 -88 -114 -111 -212 -122 -35 -4 -98 -13
-139 -21 -57 -9 -76 -10 -82 -1 -12 19 -53 150 -94 297 -20 74 -40 140 -44
145 -15 21 -28 73 -20 81 15 17 50 153 50 196 0 36 -11 61 -61 143 -34 55 -79
121 -100 147 l-40 46 26 38 c14 20 25 43 25 51 0 22 -60 123 -80 133 -10 5
-40 7 -68 3 -41 -4 -59 -1 -92 16 -38 20 -53 21 -155 17 -169 -7 -326 8 -378
36 -23 13 -46 32 -52 43 -5 12 -24 43 -42 70 -38 61 -96 202 -112 274 -9 43
-8 57 4 81 9 17 19 30 23 30 4 0 15 15 25 33 15 27 16 40 7 86 -5 29 -10 71
-10 92 0 34 5 43 43 70 23 17 53 35 66 40 13 5 43 23 67 39 24 17 64 44 88 60
24 17 52 30 61 30 10 0 27 23 45 63 16 35 35 68 42 75 8 6 45 14 84 17 100 8
139 14 234 39 66 18 101 21 158 17 74 -6 92 -16 92 -54 0 -13 30 -32 107 -68
59 -28 122 -61 140 -75 17 -13 35 -24 38 -24 4 0 36 23 72 51 54 44 68 50 86
42 12 -6 49 -23 81 -38 53 -25 63 -27 90 -16 49 19 146 49 146 45 0 -2 15 5
33 15 38 22 38 27 -1 141 -19 55 -35 86 -45 88 -9 2 -45 -10 -79 -26 -103 -49
-99 -49 -136 12 -17 30 -32 59 -32 65 0 22 -47 42 -84 35 -46 -8 -50 -16 -36
-60 7 -19 10 -37 8 -40 -3 -2 -26 13 -51 33 -39 32 -48 45 -53 83 -4 24 -12
49 -18 55 -29 29 -143 95 -163 95 -29 0 -31 -30 -3 -55 46 -41 91 -122 92
-163 0 -49 -11 -72 -24 -48 -12 21 -27 20 -44 -1 -11 -15 -15 -16 -23 -4 -5 7
-7 21 -5 30 15 82 17 78 -39 119 -28 21 -78 53 -109 71 l-57 32 -63 -30 c-197
-95 -205 -103 -207 -182 -1 -45 -10 -49 -110 -49 -89 0 -97 5 -131 83 -16 37
-19 51 -10 62 11 14 176 97 217 109 21 7 22 13 20 77 -2 78 5 89 59 89 50 0
124 27 165 59 21 17 45 31 53 31 14 0 46 38 72 85 6 11 25 22 42 26 26 5 36 1
58 -22 34 -35 50 -36 104 -5 51 29 64 47 80 114 12 51 11 53 -13 72 -14 11
-27 30 -31 42 -3 13 -14 28 -25 35 -16 10 -23 9 -40 -5 -16 -13 -21 -32 -24
-85 -2 -37 -7 -70 -11 -74 -3 -4 -22 8 -41 27 l-34 33 -43 -16 c-57 -22 -58
-22 -58 10 0 21 19 46 83 108 158 155 218 188 290 162 23 -9 61 -21 84 -27 43
-11 43 -11 27 -35 -25 -38 -5 -55 67 -55 l58 0 40 86 c23 47 41 92 41 99 0 8
-12 24 -27 36 -34 26 -29 25 112 -24z m-1815 -101 c0 -9 -129 -335 -144 -363
-9 -19 -27 -33 -50 -40 -39 -12 -46 -9 -46 22 0 29 -36 45 -73 32 -31 -10 -52
-44 -62 -99 -9 -47 -34 -73 -98 -102 -29 -13 -96 -44 -149 -70 -54 -25 -98
-42 -98 -37 0 27 310 363 428 462 144 122 292 220 292 195z m570 -146 c0 -14
-35 -30 -67 -30 l-28 1 24 19 c24 21 71 27 71 10z m248 -207 c6 -38 14 -82 18
-99 6 -30 4 -32 -27 -39 -19 -3 -42 -9 -51 -11 -23 -7 -23 14 -2 37 14 15 15
26 7 58 -9 36 -8 73 2 109 3 6 13 12 23 12 16 0 21 -12 30 -67z m-120 -35 c-2
-17 -11 -24 -30 -26 -24 -3 -28 0 -28 22 0 22 4 26 31 26 26 0 30 -3 27 -22z
m382 -529 c0 -39 -1 -40 -32 -37 -26 2 -34 8 -36 26 -6 37 5 52 38 52 28 0 30
-2 30 -41z m-2032 -633 c27 -26 42 -131 42 -292 0 -89 3 -105 23 -135 12 -19
45 -70 72 -114 27 -44 87 -118 133 -165 47 -48 97 -111 115 -144 23 -43 40
-63 64 -73 44 -18 43 -38 -7 -129 -39 -70 -40 -74 -26 -102 22 -42 46 -114 46
-137 0 -11 -12 -40 -26 -65 -31 -54 -74 -196 -74 -245 0 -19 -4 -35 -8 -35
-28 0 -153 191 -248 380 -60 120 -136 308 -158 393 -8 31 -17 61 -20 66 -15
24 -49 207 -65 352 -17 151 -17 182 -5 333 7 92 16 171 19 177 8 11 87 -31
123 -65z m3477 -1366 c4 -6 1 -19 -7 -30 -71 -100 -150 -225 -168 -268 -23
-54 -43 -72 -79 -72 -15 0 -21 6 -21 21 0 12 -8 23 -20 26 -30 8 -24 38 15 70
28 24 36 38 41 79 10 72 17 81 72 89 47 6 49 8 76 65 l28 59 29 -14 c15 -8 31
-20 34 -25z"/>
<path d="M3244 3669 c-51 -15 -59 -31 -47 -97 6 -31 26 -88 44 -127 28 -56 44
-76 86 -105 60 -41 80 -65 118 -140 15 -30 33 -59 39 -63 17 -12 99 3 117 21
16 16 15 22 -13 87 -51 120 -75 198 -80 258 -3 31 -2 57 1 57 3 0 21 -22 40
-49 56 -83 73 -95 126 -87 25 4 48 13 51 20 10 25 -26 191 -44 204 -25 20 -96
7 -151 -26 l-46 -29 -48 33 c-72 50 -127 62 -193 43z"/>
<path d="M2883 3531 c-26 -24 -83 -169 -83 -210 0 -45 23 -61 88 -62 31 -1 75
-3 97 -5 130 -11 245 -12 254 -1 5 7 12 32 16 57 8 55 -5 74 -60 92 -39 13
-40 14 -40 60 0 73 -15 82 -143 86 -97 3 -109 2 -129 -17z"/>
</g>
</svg>
