<?xml version="1.0" encoding="UTF-8" standalone="no"?><!DOCTYPE svg PUBLIC "-//W3C//DTD SVG 1.1//EN" "http://www.w3.org/Graphics/SVG/1.1/DTD/svg11.dtd"><svg width="100%" height="100%" viewBox="0 0 945 694" version="1.1" xmlns="http://www.w3.org/2000/svg" xmlns:xlink="http://www.w3.org/1999/xlink" xml:space="preserve" xmlns:serif="http://www.serif.com/" style="fill-rule:evenodd;clip-rule:evenodd;"><path d="M472.069,8.59l-463.479,676.041l926.958,0l-463.479,-676.041Z" style="fill:none;fill-rule:nonzero;stroke:#00656c;stroke-width:4.17px;"/><g><g><g transform="matrix(4.16667,0,0,4.16667,-1355.69,-1368.69)"><g transform="matrix(11,0,0,11,425.628,397.176)"><path d="M0.244,-0l0.171,-0l0.234,-0.684l-0.145,0l-0.118,0.368c-0.019,0.061 -0.033,0.112 -0.049,0.183l-0.01,-0c-0.015,-0.071 -0.029,-0.122 -0.049,-0.183l-0.118,-0.368l-0.154,0l0.238,0.684Z" style="fill:#00656c;fill-rule:nonzero;"/></g><g transform="matrix(11,0,0,11,432.842,397.176)"><rect x="0.055" y="-0.684" width="0.144" height="0.684" style="fill:#00656c;fill-rule:nonzero;"/></g><g transform="matrix(11,0,0,11,435.642,397.176)"><path d="M0.01,-0l0.543,-0l-0,-0.102l-0.255,0c-0.027,0 -0.052,0.001 -0.076,0.002l-0.003,-0.006c0.02,-0.03 0.033,-0.054 0.048,-0.082l0.276,-0.491l-0.001,-0.005l-0.523,0l0,0.101l0.238,0c0.03,0 0.054,-0 0.082,-0.001l0.004,0.007c-0.016,0.023 -0.028,0.042 -0.043,0.069l-0.291,0.503l0.001,0.005Z" style="fill:#00656c;fill-rule:nonzero;"/></g><g transform="matrix(11,0,0,11,441.82,397.176)"><path d="M0.199,-0.1l0,-0.212l0.331,0l-0,-0.09l-0.331,-0l0,-0.181l0.353,-0l0,-0.101l-0.497,0l0,0.684l0.507,-0l0,-0.1l-0.363,-0Z" style="fill:#00656c;fill-rule:nonzero;"/></g><g transform="matrix(11,0,0,11,394.862,421.156)"><path d="M0.343,0.012c0.183,0 0.294,-0.076 0.294,-0.208c0,-0.119 -0.09,-0.16 -0.201,-0.189l-0.11,-0.029c-0.114,-0.03 -0.136,-0.055 -0.136,-0.1c0,-0.055 0.048,-0.087 0.136,-0.087c0.108,-0 0.157,0.053 0.161,0.156l0.13,-0.021c-0.001,-0.144 -0.104,-0.23 -0.289,-0.23c-0.171,0 -0.274,0.07 -0.274,0.196c-0.001,0.109 0.074,0.157 0.187,0.188l0.109,0.03c0.111,0.031 0.145,0.055 0.145,0.107c-0,0.059 -0.052,0.092 -0.144,0.092c-0.118,-0 -0.172,-0.05 -0.179,-0.161l-0.141,0.022c0.007,0.153 0.122,0.234 0.312,0.234Z" style="fill:#00656c;fill-rule:nonzero;"/></g><g transform="matrix(11,0,0,11,402.162,421.156)"><path d="M0.263,0.011c0.053,0 0.104,-0.01 0.139,-0.027l0.008,-0.093c-0.032,0.013 -0.064,0.02 -0.094,0.02c-0.051,0 -0.076,-0.022 -0.076,-0.076l0,-0.255l0.17,-0l0,-0.093l-0.17,0l0,-0.15l-0.142,0.037l0,0.113l-0.082,0l0,0.093l0.082,-0l0,0.278c0,0.104 0.055,0.153 0.165,0.153Z" style="fill:#00656c;fill-rule:nonzero;"/></g><g transform="matrix(11,0,0,11,406.873,421.156)"><path d="M0.049,-0l0.142,-0l-0,-0.214c-0,-0.134 0.041,-0.183 0.15,-0.191l0.07,-0.006l-0.017,-0.118c-0.115,0.009 -0.168,0.045 -0.221,0.152l-0.009,-0.005c0.023,-0.068 0.028,-0.096 0.027,-0.131l-0.142,0l-0,0.513Z" style="fill:#00656c;fill-rule:nonzero;"/></g><g transform="matrix(11,0,0,11,411.401,421.156)"><path d="M0.188,0.013c0.115,-0 0.198,-0.052 0.229,-0.138l0.01,0.002c-0.019,0.095 0.001,0.136 0.113,0.136c0.014,-0 0.028,-0.002 0.04,-0.004l0.017,-0.084l-0.025,-0.001c-0.027,-0 -0.034,-0.007 -0.034,-0.041l-0,-0.235c-0,-0.116 -0.078,-0.172 -0.242,-0.172c-0.175,0 -0.263,0.069 -0.256,0.188l0.14,0.012c-0.006,-0.079 0.034,-0.114 0.113,-0.114c0.07,-0 0.103,0.025 0.103,0.084l0,0.029l-0.138,0.026c-0.139,0.026 -0.231,0.07 -0.231,0.177l0,0.001c0,0.085 0.058,0.134 0.161,0.134Zm0.057,-0.095c-0.048,-0 -0.074,-0.017 -0.074,-0.052l-0,-0.001c-0,-0.051 0.045,-0.071 0.135,-0.089l0.09,-0.017l0,0.024c0,0.078 -0.07,0.135 -0.151,0.135Z" style="fill:#00656c;fill-rule:nonzero;"/></g><g transform="matrix(11,0,0,11,417.798,421.156)"><path d="M0.263,0.011c0.053,0 0.104,-0.01 0.139,-0.027l0.008,-0.093c-0.032,0.013 -0.064,0.02 -0.094,0.02c-0.051,0 -0.076,-0.022 -0.076,-0.076l0,-0.255l0.17,-0l0,-0.093l-0.17,0l0,-0.15l-0.142,0.037l0,0.113l-0.082,0l0,0.093l0.082,-0l0,0.278c0,0.104 0.055,0.153 0.165,0.153Z" style="fill:#00656c;fill-rule:nonzero;"/></g><g transform="matrix(11,0,0,11,422.407,421.156)"><path d="M0.453,-0.177c-0.013,0.071 -0.059,0.101 -0.133,0.101c-0.086,0 -0.139,-0.046 -0.142,-0.143l0.41,0c0.003,-0.024 0.004,-0.043 0.004,-0.064c0,-0.154 -0.098,-0.241 -0.273,-0.241c-0.183,-0 -0.285,0.091 -0.285,0.253l-0,0.029c-0,0.166 0.102,0.254 0.283,0.254c0.16,-0 0.255,-0.059 0.277,-0.175l-0.141,-0.014Zm-0.133,-0.26c0.083,0 0.129,0.044 0.129,0.123l-0,0.007l-0.27,0c0.008,-0.085 0.057,-0.13 0.141,-0.13Z" style="fill:#00656c;fill-rule:nonzero;"/></g><g transform="matrix(11,0,0,11,429.266,421.156)"><path d="M0.371,-0.121l-0.105,-0.01c-0.105,-0.011 -0.127,-0.021 -0.127,-0.045c-0,-0.017 0.011,-0.027 0.046,-0.031c0.031,0.008 0.067,0.011 0.107,0.011c0.162,0 0.247,-0.057 0.247,-0.164c-0,-0.072 -0.039,-0.122 -0.114,-0.147c-0.003,-0.036 0.018,-0.052 0.072,-0.055l0.056,-0.004l-0.015,-0.11c-0.127,0.006 -0.18,0.068 -0.161,0.157c-0.025,-0.004 -0.053,-0.006 -0.085,-0.006c-0.161,0 -0.247,0.058 -0.247,0.165c-0,0.058 0.025,0.101 0.074,0.129l0,0.009c-0.063,0.01 -0.091,0.037 -0.091,0.081c-0,0.041 0.028,0.069 0.076,0.087l0,0.009c-0.072,0.014 -0.1,0.053 -0.1,0.105c-0,0.089 0.081,0.123 0.282,0.123c0.211,-0 0.295,-0.044 0.295,-0.153c-0,-0.115 -0.106,-0.14 -0.21,-0.151Zm-0.079,-0.329c0.072,-0 0.105,0.029 0.105,0.09c0,0.061 -0.033,0.089 -0.105,0.089c-0.072,0 -0.106,-0.028 -0.106,-0.089c0,-0.061 0.034,-0.09 0.106,-0.09Zm0.001,0.548c-0.13,-0 -0.181,-0.02 -0.181,-0.069c-0,-0.03 0.016,-0.051 0.063,-0.066c0.014,0.003 0.029,0.004 0.045,0.006l0.11,0.01c0.109,0.01 0.136,0.025 0.136,0.062c0,0.04 -0.046,0.057 -0.173,0.057Z" style="fill:#00656c;fill-rule:nonzero;"/></g><g transform="matrix(11,0,0,11,435.696,421.156)"><path d="M0.045,-0.573l0.153,-0l-0,-0.103l-0.153,0l-0,0.103Zm0.005,0.573l0.142,-0l0,-0.513l-0.142,0l0,0.513Z" style="fill:#00656c;fill-rule:nonzero;"/></g><g transform="matrix(11,0,0,11,438.366,421.156)"><path d="M0.316,0.012c0.167,0 0.261,-0.067 0.275,-0.198l-0.143,-0.016c-0.006,0.082 -0.051,0.124 -0.132,0.124c-0.09,-0 -0.137,-0.057 -0.137,-0.169l0,-0.024c0,-0.109 0.048,-0.164 0.136,-0.164c0.081,-0 0.124,0.045 0.13,0.136l0.142,-0.016c-0.011,-0.138 -0.102,-0.21 -0.272,-0.21c-0.184,0 -0.281,0.09 -0.281,0.263l-0,0.007c-0,0.175 0.096,0.267 0.282,0.267Z" style="fill:#00656c;fill-rule:nonzero;"/></g><g transform="matrix(11,0,0,11,445.225,421.156)"><path d="M0.049,-0l0.142,-0l-0,-0.177l0.069,-0.069l0.13,0.246l0.148,-0l-0.178,-0.324l0.18,-0.189l-0.155,0l-0.202,0.213l-0.008,-0.003c0.012,-0.059 0.016,-0.099 0.016,-0.164l-0,-0.217l-0.142,0l-0,0.684Z" style="fill:#00656c;fill-rule:nonzero;"/></g><g transform="matrix(11,0,0,11,450.828,421.156)"><path d="M0.478,-0.684l-0.136,0l-0.081,0.125l0.103,0l0.114,-0.125Zm-0.025,0.507c-0.013,0.071 -0.059,0.101 -0.133,0.101c-0.086,0 -0.139,-0.046 -0.142,-0.143l0.41,0c0.003,-0.024 0.004,-0.043 0.004,-0.064c0,-0.154 -0.098,-0.241 -0.273,-0.241c-0.183,-0 -0.285,0.091 -0.285,0.253l-0,0.029c-0,0.166 0.102,0.254 0.283,0.254c0.16,-0 0.255,-0.059 0.277,-0.175l-0.141,-0.014Zm-0.133,-0.26c0.083,0 0.129,0.044 0.129,0.123l-0,0.007l-0.27,0c0.008,-0.085 0.057,-0.13 0.141,-0.13Z" style="fill:#00656c;fill-rule:nonzero;"/></g><g transform="matrix(11,0,0,11,460.019,421.156)"><path d="M0.316,0.012c0.167,0 0.261,-0.067 0.275,-0.198l-0.143,-0.016c-0.006,0.082 -0.051,0.124 -0.132,0.124c-0.09,-0 -0.137,-0.057 -0.137,-0.169l0,-0.024c0,-0.109 0.048,-0.164 0.136,-0.164c0.081,-0 0.124,0.045 0.13,0.136l0.142,-0.016c-0.011,-0.138 -0.102,-0.21 -0.272,-0.21c-0.184,0 -0.281,0.09 -0.281,0.263l-0,0.007c-0,0.175 0.096,0.267 0.282,0.267Z" style="fill:#00656c;fill-rule:nonzero;"/></g><g transform="matrix(11,0,0,11,466.878,421.156)"><path d="M0.102,-0.684l-0.036,0.125l0.108,0l0.058,-0.125l-0.13,0Zm-0.053,0.684l0.142,-0l-0,-0.513l-0.142,0l-0,0.513Z" style="fill:#00656c;fill-rule:nonzero;"/></g><g transform="matrix(11,0,0,11,469.516,421.156)"><rect x="0.049" y="-0.684" width="0.142" height="0.684" style="fill:#00656c;fill-rule:nonzero;"/></g><g transform="matrix(11,0,0,11,472.153,421.156)"><path d="M0.453,-0.177c-0.013,0.071 -0.059,0.101 -0.133,0.101c-0.086,0 -0.139,-0.046 -0.142,-0.143l0.41,0c0.003,-0.024 0.004,-0.043 0.004,-0.064c0,-0.154 -0.098,-0.241 -0.273,-0.241c-0.183,-0 -0.285,0.091 -0.285,0.253l-0,0.029c-0,0.166 0.102,0.254 0.283,0.254c0.16,-0 0.255,-0.059 0.277,-0.175l-0.141,-0.014Zm-0.133,-0.26c0.083,0 0.129,0.044 0.129,0.123l-0,0.007l-0.27,0c0.008,-0.085 0.057,-0.13 0.141,-0.13Z" style="fill:#00656c;fill-rule:nonzero;"/></g><g transform="matrix(11,0,0,11,397.572,445.136)"><path d="M0.343,0.012c0.183,0 0.294,-0.076 0.294,-0.208c0,-0.119 -0.09,-0.16 -0.201,-0.189l-0.11,-0.029c-0.114,-0.03 -0.136,-0.055 -0.136,-0.1c0,-0.055 0.048,-0.087 0.136,-0.087c0.108,-0 0.157,0.053 0.161,0.156l0.13,-0.021c-0.001,-0.144 -0.104,-0.23 -0.289,-0.23c-0.171,0 -0.274,0.07 -0.274,0.196c-0.001,0.109 0.074,0.157 0.187,0.188l0.109,0.03c0.111,0.031 0.145,0.055 0.145,0.107c-0,0.059 -0.052,0.092 -0.144,0.092c-0.118,-0 -0.172,-0.05 -0.179,-0.161l-0.141,0.022c0.007,0.153 0.122,0.234 0.312,0.234Z" style="fill:#00656c;fill-rule:nonzero;"/></g><g transform="matrix(11,0,0,11,404.947,445.136)"><path d="M0.386,-0.522c-0.106,0 -0.175,0.049 -0.209,0.137l-0.01,-0.003c0.016,-0.054 0.025,-0.096 0.025,-0.125l-0.143,0l-0,0.684l0.142,-0l-0,-0.139c-0,-0.054 -0.007,-0.097 -0.025,-0.157l0.01,-0.003c0.034,0.087 0.104,0.138 0.21,0.138c0.146,0 0.223,-0.089 0.223,-0.26l0,-0.012c0,-0.171 -0.077,-0.26 -0.223,-0.26Zm-0.054,0.088c0.088,-0 0.134,0.056 0.134,0.167l0,0.022c0,0.112 -0.046,0.168 -0.134,0.168c-0.091,0 -0.141,-0.059 -0.141,-0.17l-0,-0.018c-0,-0.11 0.05,-0.169 0.141,-0.169Z" style="fill:#00656c;fill-rule:nonzero;"/></g><g transform="matrix(11,0,0,11,412.021,445.136)"><path d="M0.453,-0.177c-0.013,0.071 -0.059,0.101 -0.133,0.101c-0.086,0 -0.139,-0.046 -0.142,-0.143l0.41,0c0.003,-0.024 0.004,-0.043 0.004,-0.064c0,-0.154 -0.098,-0.241 -0.273,-0.241c-0.183,-0 -0.285,0.091 -0.285,0.253l-0,0.029c-0,0.166 0.102,0.254 0.283,0.254c0.16,-0 0.255,-0.059 0.277,-0.175l-0.141,-0.014Zm-0.133,-0.26c0.083,0 0.129,0.044 0.129,0.123l-0,0.007l-0.27,0c0.008,-0.085 0.057,-0.13 0.141,-0.13Z" style="fill:#00656c;fill-rule:nonzero;"/></g><g transform="matrix(11,0,0,11,418.934,445.136)"><path d="M0.316,0.012c0.167,0 0.261,-0.067 0.275,-0.198l-0.143,-0.016c-0.006,0.082 -0.051,0.124 -0.132,0.124c-0.09,-0 -0.137,-0.057 -0.137,-0.169l0,-0.024c0,-0.109 0.048,-0.164 0.136,-0.164c0.081,-0 0.124,0.045 0.13,0.136l0.142,-0.016c-0.011,-0.138 -0.102,-0.21 -0.272,-0.21c-0.184,0 -0.281,0.09 -0.281,0.263l-0,0.007c-0,0.175 0.096,0.267 0.282,0.267Z" style="fill:#00656c;fill-rule:nonzero;"/></g><g transform="matrix(11,0,0,11,425.793,445.136)"><path d="M0.045,-0.573l0.153,-0l-0,-0.103l-0.153,0l-0,0.103Zm0.005,0.573l0.142,-0l0,-0.513l-0.142,0l0,0.513Z" style="fill:#00656c;fill-rule:nonzero;"/></g><g transform="matrix(11,0,0,11,428.463,445.136)"><path d="M0.097,-0l0.142,-0l0,-0.42l0.155,-0l-0,-0.093l-0.161,0l0,-0.027c0,-0.042 0.013,-0.055 0.088,-0.059l0.075,-0.004l-0.014,-0.093c-0.219,0.013 -0.285,0.053 -0.285,0.158l0,0.025l-0.081,0l0,0.093l0.081,-0l0,0.42Z" style="fill:#00656c;fill-rule:nonzero;"/></g><g transform="matrix(11,0,0,11,432.986,445.136)"><path d="M0.045,-0.573l0.153,-0l-0,-0.103l-0.153,0l-0,0.103Zm0.005,0.573l0.142,-0l0,-0.513l-0.142,0l0,0.513Z" style="fill:#00656c;fill-rule:nonzero;"/></g><g transform="matrix(11,0,0,11,435.656,445.136)"><path d="M0.316,0.012c0.167,0 0.261,-0.067 0.275,-0.198l-0.143,-0.016c-0.006,0.082 -0.051,0.124 -0.132,0.124c-0.09,-0 -0.137,-0.057 -0.137,-0.169l0,-0.024c0,-0.109 0.048,-0.164 0.136,-0.164c0.081,-0 0.124,0.045 0.13,0.136l0.142,-0.016c-0.011,-0.138 -0.102,-0.21 -0.272,-0.21c-0.184,0 -0.281,0.09 -0.281,0.263l-0,0.007c-0,0.175 0.096,0.267 0.282,0.267Z" style="fill:#00656c;fill-rule:nonzero;"/></g><g transform="matrix(11,0,0,11,442.515,445.136)"><path d="M0.049,-0l0.142,-0l-0,-0.177l0.069,-0.069l0.13,0.246l0.148,-0l-0.178,-0.324l0.18,-0.189l-0.155,0l-0.202,0.213l-0.008,-0.003c0.012,-0.059 0.016,-0.099 0.016,-0.164l-0,-0.217l-0.142,0l-0,0.684Z" style="fill:#00656c;fill-rule:nonzero;"/></g><g transform="matrix(11,0,0,11,448.118,445.136)"><path d="M0.478,-0.684l-0.136,0l-0.081,0.125l0.103,0l0.114,-0.125Zm-0.025,0.507c-0.013,0.071 -0.059,0.101 -0.133,0.101c-0.086,0 -0.139,-0.046 -0.142,-0.143l0.41,0c0.003,-0.024 0.004,-0.043 0.004,-0.064c0,-0.154 -0.098,-0.241 -0.273,-0.241c-0.183,-0 -0.285,0.091 -0.285,0.253l-0,0.029c-0,0.166 0.102,0.254 0.283,0.254c0.16,-0 0.255,-0.059 0.277,-0.175l-0.141,-0.014Zm-0.133,-0.26c0.083,0 0.129,0.044 0.129,0.123l-0,0.007l-0.27,0c0.008,-0.085 0.057,-0.13 0.141,-0.13Z" style="fill:#00656c;fill-rule:nonzero;"/></g><g transform="matrix(11,0,0,11,457.309,445.136)"><path d="M0.316,0.012c0.167,0 0.261,-0.067 0.275,-0.198l-0.143,-0.016c-0.006,0.082 -0.051,0.124 -0.132,0.124c-0.09,-0 -0.137,-0.057 -0.137,-0.169l0,-0.024c0,-0.109 0.048,-0.164 0.136,-0.164c0.081,-0 0.124,0.045 0.13,0.136l0.142,-0.016c-0.011,-0.138 -0.102,-0.21 -0.272,-0.21c-0.184,0 -0.281,0.09 -0.281,0.263l-0,0.007c-0,0.175 0.096,0.267 0.282,0.267Z" style="fill:#00656c;fill-rule:nonzero;"/></g><g transform="matrix(11,0,0,11,464.168,445.136)"><path d="M0.102,-0.684l-0.036,0.125l0.108,0l0.058,-0.125l-0.13,0Zm-0.053,0.684l0.142,-0l-0,-0.513l-0.142,0l-0,0.513Z" style="fill:#00656c;fill-rule:nonzero;"/></g><g transform="matrix(11,0,0,11,466.806,445.136)"><rect x="0.049" y="-0.684" width="0.142" height="0.684" style="fill:#00656c;fill-rule:nonzero;"/></g><g transform="matrix(11,0,0,11,469.443,445.136)"><path d="M0.453,-0.177c-0.013,0.071 -0.059,0.101 -0.133,0.101c-0.086,0 -0.139,-0.046 -0.142,-0.143l0.41,0c0.003,-0.024 0.004,-0.043 0.004,-0.064c0,-0.154 -0.098,-0.241 -0.273,-0.241c-0.183,-0 -0.285,0.091 -0.285,0.253l-0,0.029c-0,0.166 0.102,0.254 0.283,0.254c0.16,-0 0.255,-0.059 0.277,-0.175l-0.141,-0.014Zm-0.133,-0.26c0.083,0 0.129,0.044 0.129,0.123l-0,0.007l-0.27,0c0.008,-0.085 0.057,-0.13 0.141,-0.13Z" style="fill:#00656c;fill-rule:nonzero;"/></g><g transform="matrix(11,0,0,11,416.703,469.116)"><path d="M0.006,-0l0.142,-0l0.045,-0.133l0.269,0l0.045,0.133l0.151,-0l-0.239,-0.684l-0.174,0l-0.239,0.684Zm0.212,-0.224l0.057,-0.175c0.018,-0.059 0.032,-0.106 0.047,-0.169l0.011,-0c0.016,0.063 0.029,0.11 0.048,0.168l0.056,0.176l-0.219,-0Z" style="fill:#00656c;fill-rule:nonzero;"/></g><g transform="matrix(11,0,0,11,424.014,469.116)"><path d="M0.049,-0l0.142,-0l-0,-0.177l0.069,-0.069l0.13,0.246l0.148,-0l-0.178,-0.324l0.18,-0.189l-0.155,0l-0.202,0.213l-0.008,-0.003c0.012,-0.059 0.016,-0.099 0.016,-0.164l-0,-0.217l-0.142,0l-0,0.684Z" style="fill:#00656c;fill-rule:nonzero;"/></g><g transform="matrix(11,0,0,11,429.975,469.116)"><path d="M0.263,0.011c0.053,0 0.104,-0.01 0.139,-0.027l0.008,-0.093c-0.032,0.013 -0.064,0.02 -0.094,0.02c-0.051,0 -0.076,-0.022 -0.076,-0.076l0,-0.255l0.17,-0l0,-0.093l-0.17,0l0,-0.15l-0.142,0.037l0,0.113l-0.082,0l0,0.093l0.082,-0l0,0.278c0,0.104 0.055,0.153 0.165,0.153Z" style="fill:#00656c;fill-rule:nonzero;"/></g><g transform="matrix(11,0,0,11,434.686,469.116)"><path d="M0.045,-0.573l0.153,-0l-0,-0.103l-0.153,0l-0,0.103Zm0.005,0.573l0.142,-0l0,-0.513l-0.142,0l0,0.513Z" style="fill:#00656c;fill-rule:nonzero;"/></g><g transform="matrix(11,0,0,11,437.355,469.116)"><path d="M0.203,-0l0.17,-0l0.197,-0.513l-0.142,0l-0.086,0.237c-0.017,0.049 -0.032,0.098 -0.047,0.155l-0.009,0c-0.015,-0.057 -0.03,-0.106 -0.048,-0.155l-0.087,-0.237l-0.147,0l0.199,0.513Z" style="fill:#00656c;fill-rule:nonzero;"/></g><g transform="matrix(11,0,0,11,443.672,469.116)"><path d="M0.045,-0.573l0.153,-0l-0,-0.103l-0.153,0l-0,0.103Zm0.005,0.573l0.142,-0l0,-0.513l-0.142,0l0,0.513Z" style="fill:#00656c;fill-rule:nonzero;"/></g><g transform="matrix(11,0,0,11,446.341,469.116)"><path d="M0.263,0.011c0.053,0 0.104,-0.01 0.139,-0.027l0.008,-0.093c-0.032,0.013 -0.064,0.02 -0.094,0.02c-0.051,0 -0.076,-0.022 -0.076,-0.076l0,-0.255l0.17,-0l0,-0.093l-0.17,0l0,-0.15l-0.142,0.037l0,0.113l-0.082,0l0,0.093l0.082,-0l0,0.278c0,0.104 0.055,0.153 0.165,0.153Z" style="fill:#00656c;fill-rule:nonzero;"/></g><g transform="matrix(11,0,0,11,451.067,469.116)"><path d="M0.041,0.183c0.215,-0.013 0.284,-0.057 0.357,-0.242l0.171,-0.454l-0.141,0l-0.095,0.282c-0.014,0.039 -0.024,0.078 -0.034,0.124l-0.01,-0c-0.009,-0.046 -0.02,-0.085 -0.035,-0.124l-0.104,-0.282l-0.146,0l0.215,0.518l-0.007,0.021c-0.008,0.02 -0.026,0.031 -0.097,0.036l-0.09,0.007l0.016,0.114Z" style="fill:#00656c;fill-rule:nonzero;"/></g></g></g></g></svg>