<?xml version="1.0" encoding="UTF-8" standalone="no"?><!DOCTYPE svg PUBLIC "-//W3C//DTD SVG 1.1//EN" "http://www.w3.org/Graphics/SVG/1.1/DTD/svg11.dtd"><svg width="100%" height="100%" viewBox="0 0 363 160" version="1.1" xmlns="http://www.w3.org/2000/svg" xmlns:xlink="http://www.w3.org/1999/xlink" xml:space="preserve" xmlns:serif="http://www.serif.com/" style="fill-rule:evenodd;clip-rule:evenodd;stroke-linejoin:round;stroke-miterlimit:2;"><path d="M0,59.672l12.654,0l0,-23.833c0,-11.359 9.7,-15.146 22.263,-14.684l-0,-10.345c-11.18,-0.096 -18.475,3.045 -22.263,10.804l0,-10.25l-12.654,-0l0,48.308Zm87.104,-14.779c-1.571,4.712 -7.112,7.296 -16.441,7.296c-11.73,-0 -18.938,-4.434 -19.767,-14.134l48.771,0l-0,-3.325c-0,-17.27 -13.671,-24.383 -30.113,-24.383c-18.196,0 -31.5,9.975 -31.5,24.938l0,0.741c0,15.146 13.117,24.571 32.334,24.571c16.162,0 26.6,-5.45 28.912,-15.704l-12.196,-0Zm-17.55,-26.142c10.625,0 16.904,3.513 17.55,11.638l-35.746,-0c1.938,-8.588 9.238,-11.638 18.196,-11.638" style="fill:#00656c;fill-rule:nonzero;"/><path d="M228.851,60.596c17.088,-0 26.417,-5.633 26.417,-15.613c-0,-10.529 -8.775,-13.391 -25.583,-14.87c-11.18,-1.2 -15.15,-2.492 -15.15,-6.096c-0,-3.6 4.895,-5.45 12.745,-5.45c8.592,-0 12.746,1.941 14.225,6.375l11.825,-0c-1.754,-10.9 -12.008,-14.596 -25.958,-14.596c-12.929,-0 -24.662,4.712 -24.662,14.687c-0,8.959 6.745,12.655 23.462,14.409c12.1,1.204 16.721,2.587 16.721,6.746c-0,4.062 -4.158,6.187 -14.133,6.187c-10.346,0 -14.871,-2.954 -15.705,-7.85l-12.008,0c0.646,10.25 10.529,16.163 27.804,16.071m80.363,-15.704c-1.571,4.712 -7.113,7.3 -16.442,7.3c-11.733,-0 -18.937,-4.434 -19.767,-14.134l48.771,0l0,-3.325c0,-17.275 -13.671,-24.387 -30.112,-24.387c-18.2,-0 -31.5,9.975 -31.5,24.942l-0,0.737c-0,15.15 13.116,24.571 32.329,24.571c16.167,-0 26.604,-5.45 28.912,-15.704l-12.191,-0Zm-17.55,-26.142c10.621,0 16.904,3.513 17.55,11.642l-35.75,-0c1.941,-8.592 9.237,-11.642 18.2,-11.642m60.962,41.754c4.434,0 7.204,-0.554 9.513,-1.2l-0,-9.054c-2.121,0.646 -4.246,0.925 -7.113,0.925c-5.45,0 -8.404,-1.662 -8.404,-7.854l0,-23.275l15.242,-0l-0,-8.683l-15.242,-0l0,-11.363l-12.746,0l0,11.363l-8.962,-0l-0,8.683l8.962,-0l0,24.108c0,10.992 6.467,16.35 18.75,16.35" style="fill:#00656c;fill-rule:nonzero;"/><rect x="113.477" y="29.353" width="64.429" height="10.767" style="fill:#00656c;"/><path d="M190.815,34.739l-7.615,7.614l-26.402,-26.402l7.614,-7.614l26.403,26.402Z" style="fill:#00656c;"/><path d="M183.2,27.126l7.615,7.614l-26.403,26.403l-7.614,-7.615l26.402,-26.402Z" style="fill:#00656c;"/><path d="M5.401,159.024c0.862,0 1.404,-0.108 1.854,-0.233l-0,-1.763c-0.413,0.125 -0.829,0.179 -1.388,0.179c-1.062,0 -1.637,-0.325 -1.637,-1.529l-0,-4.541l2.971,-0l-0,-1.692l-2.971,-0l-0,-2.213l-2.483,0l-0,2.213l-1.746,-0l-0,1.692l1.746,-0l-0,4.7c-0,2.145 1.258,3.187 3.654,3.187m3.983,-0.162l2.463,-0l-0,-4.646c-0,-2.217 1.891,-2.954 4.341,-2.863l0,-2.016c-2.179,-0.017 -3.604,0.595 -4.341,2.104l-0,-1.996l-2.463,-0l0,9.417Zm12.333,0.179c2.092,-0 3.35,-0.467 4.125,-1.454l0,1.275l2.43,-0l-0,-6.03c-0,-2.72 -2.196,-3.583 -5.096,-3.583c-2.775,0 -5.096,0.896 -5.384,3.096l2.375,-0c0.217,-0.954 1.225,-1.425 2.884,-1.425c1.891,-0 2.754,0.558 2.754,1.946l-0,0.346l-3.171,-0c-3.329,-0 -5.362,0.825 -5.362,2.929c-0,2.021 1.995,2.9 4.445,2.9m0.575,-1.6c-1.708,-0 -2.558,-0.488 -2.558,-1.35c0,-1.029 0.921,-1.371 2.954,-1.371l3.117,-0l-0,0.721c-0,1.333 -1.583,2 -3.513,2m8.771,1.421l2.467,-0l-0,-5.188c-0,-1.783 1.587,-2.592 3.371,-2.592c1.891,0 2.846,0.721 2.846,2.396l-0,5.384l2.462,-0l0,-5.6c0,-2.863 -1.8,-4.013 -4.392,-4.013c-2.179,0 -3.691,0.846 -4.287,1.979l-0,-1.783l-2.467,-0l0,9.417Zm18.388,0.179c3.333,-0 5.15,-1.096 5.15,-3.042c-0,-2.054 -1.709,-2.612 -4.988,-2.9c-2.179,-0.233 -2.954,-0.487 -2.954,-1.187c0,-0.705 0.954,-1.063 2.488,-1.063c1.675,0 2.483,0.379 2.77,1.242l2.305,-0c-0.342,-2.125 -2.338,-2.842 -5.059,-2.842c-2.525,0 -4.808,0.917 -4.808,2.858c-0,1.75 1.312,2.471 4.575,2.813c2.358,0.233 3.258,0.504 3.258,1.317c0,0.791 -0.808,1.204 -2.754,1.204c-2.021,-0 -2.9,-0.575 -3.062,-1.529l-2.342,-0c0.129,1.995 2.054,3.15 5.421,3.129m7.871,-0.179l2.466,-0l0,-7.725l3.134,-0l-0,-1.692l-3.134,-0l0,-0.667c0,-1.062 0.684,-1.641 1.925,-1.641c0.488,-0 0.867,0.075 1.209,0.129l-0,-1.709c-0.488,-0.129 -0.867,-0.145 -1.496,-0.145c-2.504,-0 -4.104,1.116 -4.104,3.366l-0,0.667l-1.8,-0l-0,1.692l1.8,-0l-0,7.725Zm12.675,0.179c3.658,-0 6.466,-1.904 6.466,-4.842l0,-0.146c0,-2.879 -2.808,-4.804 -6.429,-4.804c-3.621,0 -6.446,1.942 -6.446,4.858l0,0.146c0,2.884 2.754,4.788 6.409,4.788m0.037,-1.709c-2.358,0 -3.908,-1.187 -3.908,-3.116l-0,-0.142c-0,-1.912 1.604,-3.1 3.908,-3.1c2.288,0 3.892,1.188 3.892,3.117l-0,0.146c-0,1.891 -1.604,3.095 -3.892,3.095m8.554,1.53l2.467,-0l-0,-4.646c-0,-2.217 1.892,-2.954 4.342,-2.863l-0,-2.016c-2.18,-0.017 -3.605,0.595 -4.342,2.104l-0,-1.996l-2.467,-0l0,9.417Zm8.842,-0l2.467,-0l-0,-5.259c-0,-1.712 1.512,-2.521 3.154,-2.521c1.658,0 2.521,0.684 2.521,2.342l-0,5.438l2.466,-0l0,-5.259c0,-1.712 1.496,-2.521 3.134,-2.521c1.675,0 2.558,0.684 2.558,2.342l-0,5.438l2.467,-0l-0,-5.638c-0,-2.879 -1.838,-3.975 -4.213,-3.975c-1.75,0 -3.479,0.554 -4.379,1.996c-0.592,-1.442 -1.925,-1.996 -3.708,-1.996c-1.963,0 -3.371,0.808 -4,1.958l-0,-1.762l-2.467,-0l-0,9.417Zm25.229,0.179c2.092,-0 3.354,-0.467 4.125,-1.454l0,1.275l2.429,-0l0,-6.03c0,-2.72 -2.191,-3.583 -5.091,-3.583c-2.775,0 -5.1,0.896 -5.388,3.096l2.375,-0c0.217,-0.954 1.229,-1.425 2.883,-1.425c1.892,-0 2.759,0.558 2.759,1.946l-0,0.346l-3.171,-0c-3.333,-0 -5.367,0.825 -5.367,2.929c0,2.021 1.996,2.9 4.446,2.9m0.579,-1.6c-1.712,-0 -2.558,-0.488 -2.558,-1.35c-0,-1.029 0.917,-1.371 2.954,-1.371l3.117,-0l-0,0.721c-0,1.333 -1.588,2 -3.513,2m14.188,1.6c3.691,-0 5.546,-1.584 5.837,-3.688l-2.271,0c-0.27,1.313 -1.441,1.979 -3.475,1.979c-2.287,0 -3.762,-1.062 -3.762,-3.079l-0,-0.146c-0,-1.962 1.512,-3.095 3.725,-3.095c1.892,-0 2.954,0.612 3.296,1.762l2.379,0c-0.342,-2.5 -2.704,-3.525 -5.708,-3.525c-3.48,0 -6.23,1.888 -6.23,4.858l0,0.146c0,3.025 2.642,4.788 6.209,4.788m9.133,-10.95c0.846,-0 1.475,-0.521 1.475,-1.259c0,-0.737 -0.629,-1.258 -1.475,-1.258c-0.846,0 -1.496,0.521 -1.496,1.258c0,0.738 0.65,1.259 1.496,1.259m-1.225,10.771l2.483,-0l0,-9.417l-2.483,-0l0,9.417Z" style="fill:#00656c;fill-rule:nonzero;"/><path d="M5.564,132.029c3.333,0 5.15,-1.096 5.15,-3.041c-0,-2.055 -1.709,-2.613 -4.988,-2.9c-2.179,-0.234 -2.954,-0.488 -2.954,-1.188c0,-0.704 0.954,-1.067 2.488,-1.067c1.675,0 2.483,0.38 2.77,1.246l2.305,0c-0.342,-2.125 -2.338,-2.846 -5.059,-2.846c-2.521,0 -4.808,0.917 -4.808,2.863c-0,1.746 1.312,2.467 4.575,2.812c2.358,0.234 3.258,0.505 3.258,1.313c0,0.792 -0.808,1.208 -2.754,1.208c-2.021,0 -2.9,-0.575 -3.062,-1.533l-2.342,-0c0.129,2 2.054,3.15 5.421,3.133m12.875,0c3.658,0 6.466,-1.908 6.466,-4.841l0,-0.146c0,-2.884 -2.808,-4.809 -6.429,-4.809c-3.621,0 -6.446,1.946 -6.446,4.863l0,0.146c0,2.879 2.755,4.787 6.409,4.787m0.037,-1.708c-2.358,-0 -3.908,-1.188 -3.908,-3.117l-0,-0.146c-0,-1.908 1.604,-3.095 3.908,-3.095c2.288,-0 3.892,1.187 3.892,3.116l-0,0.142c-0,1.892 -1.604,3.1 -3.892,3.1m13.975,1.708c3.692,0 5.546,-1.583 5.834,-3.691l-2.271,-0c-0.271,1.316 -1.438,1.983 -3.475,1.983c-2.288,-0 -3.763,-1.063 -3.763,-3.079l0,-0.146c0,-1.963 1.513,-3.1 3.729,-3.1c1.888,-0 2.95,0.612 3.292,1.767l2.379,-0c-0.341,-2.505 -2.7,-3.53 -5.708,-3.53c-3.475,0 -6.229,1.892 -6.229,4.863l-0,0.146c-0,3.025 2.646,4.787 6.212,4.787m9.129,-10.95c0.846,0 1.475,-0.521 1.475,-1.258c0,-0.738 -0.629,-1.258 -1.475,-1.258c-0.845,-0 -1.491,0.52 -1.491,1.258c-0,0.737 0.646,1.258 1.491,1.258m-1.225,10.771l2.484,0l-0,-9.417l-2.484,0l0,9.417Zm9.113,0.179c2.092,0 3.35,-0.466 4.125,-1.458l-0,1.279l2.429,0l0,-6.033c0,-2.721 -2.196,-3.584 -5.096,-3.584c-2.775,0 -5.096,0.9 -5.383,3.1l2.375,0c0.217,-0.958 1.225,-1.425 2.883,-1.425c1.892,0 2.759,0.559 2.759,1.946l-0,0.342l-3.171,-0c-3.334,-0 -5.367,0.829 -5.367,2.933c0,2.021 1.996,2.9 4.446,2.9m0.575,-1.6c-1.708,0 -2.558,-0.487 -2.558,-1.354c-0,-1.025 0.92,-1.367 2.958,-1.367l3.117,0l-0,0.721c-0,1.334 -1.588,2 -3.517,2m-0.25,-9.204l1.783,0l2.217,-2.792l-2.704,0l-1.296,2.792Zm9.075,10.625l2.467,0l-0,-13.379l-2.467,-0l-0,13.379Zm5.442,0l2.462,0l0,-5.187c0,-1.784 1.588,-2.592 3.371,-2.592c1.892,-0 2.846,0.721 2.846,2.392l-0,5.387l2.466,0l0,-5.6c0,-2.862 -1.8,-4.017 -4.395,-4.017c-2.18,0 -3.692,0.846 -4.288,1.98l0,-1.78l-2.462,0l-0,9.417Zm22.708,-2.879c-0.308,0.917 -1.388,1.421 -3.208,1.421c-2.288,-0 -3.692,-0.863 -3.855,-2.759l9.509,0l-0,-0.645c-0,-3.367 -2.663,-4.755 -5.871,-4.755c-3.546,0 -6.138,1.946 -6.138,4.863l0,0.142c0,2.958 2.555,4.791 6.3,4.791c3.155,0 5.188,-1.062 5.638,-3.058l-2.375,-0Zm-3.425,-5.1c2.075,-0 3.3,0.683 3.425,2.271l-6.971,-0c0.375,-1.675 1.8,-2.271 3.546,-2.271m-1.063,-2.646l1.946,0l2.471,-2.737l-1.729,-0l-1.696,1.225l-1.658,-1.225l-1.763,-0l2.429,2.737Zm8.667,6.5l5.6,0l0,-1.817l-5.6,0l0,1.817Zm16.925,1.246c-0.304,0.917 -1.387,1.421 -3.204,1.421c-2.288,-0 -3.696,-0.863 -3.858,-2.759l9.512,0l0,-0.645c0,-3.367 -2.667,-4.755 -5.871,-4.755c-3.55,0 -6.141,1.946 -6.141,4.863l-0,0.142c-0,2.958 2.554,4.791 6.304,4.791c3.15,0 5.183,-1.062 5.633,-3.058l-2.375,-0Zm-3.421,-5.1c2.071,-0 3.296,0.683 3.421,2.271l-6.971,-0c0.379,-1.675 1.8,-2.271 3.55,-2.271m7.959,7.979l2.466,0l0,-4.646l5.275,4.646l3.1,0l-5.854,-5.112l5.438,-4.305l-2.917,0l-5.042,4.159l0,-8.121l-2.466,-0l-0,13.379Zm17.325,0.179c3.658,0 6.462,-1.908 6.462,-4.841l0,-0.146c0,-2.884 -2.804,-4.809 -6.425,-4.809c-3.621,0 -6.446,1.946 -6.446,4.863l0,0.146c0,2.879 2.75,4.787 6.409,4.787m0.037,-1.708c-2.362,-0 -3.908,-1.188 -3.908,-3.117l-0,-0.146c-0,-1.908 1.6,-3.095 3.908,-3.095c2.288,-0 3.892,1.187 3.892,3.116l-0,0.142c-0,1.892 -1.604,3.1 -3.892,3.1m8.608,1.529l2.467,0l0,-13.379l-2.467,-0l0,13.379Zm11.055,0.179c3.658,0 6.466,-1.908 6.466,-4.841l0,-0.146c0,-2.884 -2.808,-4.809 -6.429,-4.809c-3.621,0 -6.446,1.946 -6.446,4.863l0,0.146c0,2.879 2.754,4.787 6.409,4.787m0.037,-1.708c-2.358,-0 -3.908,-1.188 -3.908,-3.117l-0,-0.146c-0,-1.908 1.604,-3.095 3.908,-3.095c2.288,-0 3.892,1.187 3.892,3.116l-0,0.142c-0,1.892 -1.604,3.1 -3.892,3.1m14.138,4.95c3.745,-0 6.266,-1.421 6.266,-4.467l0,-8.371l-2.466,0l-0,1.638c-0.721,-1.079 -2.18,-1.838 -4.43,-1.838c-3.333,0 -5.675,1.871 -5.675,4.63l0,0.141c0,2.85 2.45,4.521 5.675,4.521c2.071,0 3.709,-0.829 4.43,-1.854l-0,1.079c-0,1.967 -1.442,2.85 -3.838,2.85c-2.25,0 -3.333,-0.508 -3.604,-1.571l-2.463,0c0.288,1.946 2.067,3.242 6.105,3.242m-0.017,-5.417c-2.108,0 -3.75,-1.046 -3.75,-2.883l-0,-0.146c-0,-1.8 1.35,-2.862 3.729,-2.862c2.288,-0 3.908,1.025 3.908,2.845l0,0.142c0,1.875 -1.708,2.904 -3.887,2.904m10.3,-8.775c0.846,0 1.475,-0.521 1.475,-1.258c-0,-0.738 -0.629,-1.258 -1.475,-1.258c-0.846,-0 -1.496,0.52 -1.496,1.258c0,0.737 0.65,1.258 1.496,1.258m-1.225,10.771l2.483,0l0,-9.417l-2.483,0l-0,9.417Zm10.858,0.179c3.692,0 5.546,-1.583 5.834,-3.691l-2.271,-0c-0.267,1.316 -1.438,1.983 -3.475,1.983c-2.288,-0 -3.763,-1.063 -3.763,-3.079l0,-0.146c0,-1.963 1.513,-3.1 3.729,-3.1c1.888,-0 2.95,0.612 3.296,1.767l2.375,-0c-0.341,-2.505 -2.7,-3.53 -5.708,-3.53c-3.475,0 -6.229,1.892 -6.229,4.863l-0,0.146c-0,3.025 2.646,4.787 6.212,4.787m7.871,-0.179l2.467,0l-0,-4.646l5.275,4.646l3.096,0l-5.85,-5.112l5.437,-4.305l-2.917,0l-5.041,4.159l-0,-8.121l-2.467,-0l0,13.379Zm17.325,0.179c3.654,0 6.463,-1.908 6.463,-4.841l-0,-0.146c-0,-2.884 -2.809,-4.809 -6.43,-4.809c-3.62,0 -6.445,1.946 -6.445,4.863l-0,0.146c-0,2.879 2.754,4.787 6.412,4.787m0.033,-1.708c-2.358,-0 -3.908,-1.188 -3.908,-3.117l0,-0.146c0,-1.908 1.604,-3.095 3.908,-3.095c2.288,-0 3.892,1.187 3.892,3.116l0,0.142c0,1.892 -1.604,3.1 -3.892,3.1m12.788,1.708c2.179,0 3.654,-0.808 4.233,-1.941l0,1.762l2.484,0l-0,-9.417l-2.484,0l0,5.184c0,1.787 -1.55,2.596 -3.35,2.596c-1.875,-0 -2.775,-0.705 -2.775,-2.359l0,-5.421l-2.466,0l-0,5.617c-0,2.775 1.762,3.979 4.358,3.979" style="fill:#00656c;fill-rule:nonzero;"/><path d="M1.369,104.836l2.646,0l-0,-4.483l3.387,-0c3.438,-0 5.796,-1.388 5.796,-4.267l-0,-0.075c-0,-2.825 -2.304,-4.05 -5.888,-4.05l-5.941,0l-0,12.875Zm2.646,-6.283l-0,-4.754l3.333,-0c1.925,-0 3.225,0.629 3.225,2.287l-0,0.071c-0,1.588 -1.192,2.396 -3.225,2.396l-3.333,-0Zm11.258,6.283l2.467,0l-0,-13.379l-2.467,0l-0,13.379Zm9.108,0.179c2.092,0 3.35,-0.466 4.125,-1.454l0,1.275l2.429,0l0,-6.029c0,-2.721 -2.195,-3.583 -5.095,-3.583c-2.771,-0 -5.096,0.896 -5.384,3.096l2.375,-0c0.217,-0.959 1.225,-1.425 2.884,-1.425c1.891,-0 2.758,0.558 2.758,1.945l-0,0.342l-3.171,0c-3.333,0 -5.367,0.829 -5.367,2.933c0,2.021 1.996,2.9 4.446,2.9m0.575,-1.6c-1.708,0 -2.554,-0.487 -2.554,-1.35c0,-1.029 0.917,-1.37 2.954,-1.37l3.117,-0l-0,0.72c-0,1.334 -1.588,2 -3.517,2m13.059,1.584c0.862,-0 1.404,-0.109 1.854,-0.234l-0,-1.762c-0.413,0.125 -0.829,0.179 -1.388,0.179c-1.062,0 -1.637,-0.325 -1.637,-1.533l-0,-4.538l2.971,0l-0,-1.691l-2.971,-0l-0,-2.217l-2.484,-0l0,2.217l-1.745,-0l-0,1.691l1.745,0l0,4.7c0,2.146 1.259,3.188 3.655,3.188m4.775,-0.163l2.462,0l0,-7.725l3.133,0l0,-1.691l-3.133,-0l0,-0.667c0,-1.063 0.683,-1.642 1.929,-1.642c0.484,0 0.863,0.075 1.204,0.129l0,-1.712c-0.483,-0.125 -0.862,-0.142 -1.495,-0.142c-2.5,0 -4.1,1.117 -4.1,3.367l-0,0.667l-1.805,-0l0,1.691l1.805,0l-0,7.725Zm12.675,0.179c3.658,0 6.462,-1.904 6.462,-4.841l0,-0.146c0,-2.883 -2.804,-4.804 -6.425,-4.804c-3.621,-0 -6.446,1.941 -6.446,4.858l0,0.146c0,2.883 2.75,4.787 6.409,4.787m0.037,-1.708c-2.362,0 -3.908,-1.187 -3.908,-3.117l-0,-0.141c-0,-1.913 1.6,-3.1 3.908,-3.1c2.288,-0 3.892,1.187 3.892,3.116l-0,0.146c-0,1.888 -1.604,3.096 -3.892,3.096m8.554,1.529l2.467,0l-0,-4.646c-0,-2.216 1.887,-2.954 4.337,-2.862l0,-2.017c-2.179,-0.016 -3.6,0.596 -4.337,2.104l-0,-1.995l-2.467,-0l0,9.416Zm8.842,0l2.467,0l-0,-5.258c-0,-1.713 1.512,-2.521 3.15,-2.521c1.658,0 2.525,0.683 2.525,2.342l-0,5.437l2.462,0l0,-5.258c0,-1.713 1.496,-2.521 3.138,-2.521c1.675,0 2.558,0.683 2.558,2.342l-0,5.437l2.462,0l0,-5.637c0,-2.879 -1.833,-3.975 -4.212,-3.975c-1.746,-0 -3.475,0.554 -4.375,1.996c-0.596,-1.442 -1.925,-1.996 -3.708,-1.996c-1.967,-0 -3.371,0.808 -4,1.958l-0,-1.762l-2.467,-0l-0,9.416Zm25.229,0.179c2.088,0 3.35,-0.466 4.125,-1.454l0,1.275l2.429,0l0,-6.029c0,-2.721 -2.196,-3.583 -5.096,-3.583c-2.775,-0 -5.095,0.896 -5.383,3.096l2.375,-0c0.217,-0.959 1.225,-1.425 2.883,-1.425c1.892,-0 2.755,0.558 2.755,1.945l-0,0.342l-3.171,0c-3.329,0 -5.363,0.829 -5.363,2.933c0,2.021 1.996,2.9 4.446,2.9m0.575,-1.6c-1.712,0 -2.558,-0.487 -2.558,-1.35c-0,-1.029 0.921,-1.37 2.954,-1.37l3.117,-0l-0,0.72c-0,1.334 -1.584,2 -3.513,2m13.888,4.517l2.462,0l0,-4.75c0.704,1.079 2.179,1.833 4.433,1.833c3.334,0 5.709,-1.833 5.709,-4.858l-0,-0.146c-0,-3.025 -2.45,-4.787 -5.692,-4.787c-2.087,-0 -3.729,0.825 -4.45,1.887l0,-1.691l-2.462,-0l-0,12.512Zm6.3,-4.658c-2.267,-0 -3.909,-1.013 -3.909,-3.084l0,-0.141c0,-2.054 1.729,-3.1 3.892,-3.1c2.125,-0 3.783,1.062 3.783,3.116l0,0.146c0,1.963 -1.387,3.063 -3.766,3.063m8.395,1.562l2.463,0l-0,-4.646c-0,-2.216 1.892,-2.954 4.342,-2.862l-0,-2.017c-2.18,-0.016 -3.605,0.596 -4.342,2.104l-0,-1.995l-2.463,-0l0,9.416Zm14.188,0.179c3.658,0 6.462,-1.904 6.462,-4.841l0,-0.146c0,-2.883 -2.804,-4.804 -6.425,-4.804c-3.62,-0 -6.445,1.941 -6.445,4.858l-0,0.146c-0,2.883 2.75,4.787 6.408,4.787m0.037,-1.708c-2.362,0 -3.908,-1.187 -3.908,-3.117l0,-0.141c0,-1.913 1.6,-3.1 3.908,-3.1c2.288,-0 3.892,1.187 3.892,3.116l0,0.146c0,1.888 -1.604,3.096 -3.892,3.096" style="fill:#00656c;fill-rule:nonzero;"/></svg>