<?xml version="1.0" encoding="UTF-8" standalone="no"?><!DOCTYPE svg PUBLIC "-//W3C//DTD SVG 1.1//EN" "http://www.w3.org/Graphics/SVG/1.1/DTD/svg11.dtd"><svg width="100%" height="100%" viewBox="0 0 2222 993" version="1.1" xmlns="http://www.w3.org/2000/svg" xmlns:xlink="http://www.w3.org/1999/xlink" xml:space="preserve" xmlns:serif="http://www.serif.com/" style="fill-rule:evenodd;clip-rule:evenodd;stroke-linecap:round;"><g><g><g transform="matrix(4.16667,0,0,4.16667,-44.4175,-2229.33)"><g transform="matrix(11,0,0,11,344.459,542.559)"><path d="M0.055,-0l0.138,-0l-0,-0.343c-0,-0.05 -0.002,-0.092 -0.007,-0.152l0.01,-0.002l0.184,0.497l0.103,-0l0.184,-0.496l0.009,0.001c-0.006,0.06 -0.007,0.102 -0.007,0.152l-0,0.343l0.141,-0l-0,-0.684l-0.18,0l-0.135,0.346c-0.021,0.054 -0.039,0.102 -0.058,0.17l-0.007,-0c-0.019,-0.068 -0.036,-0.116 -0.058,-0.17l-0.138,-0.346l-0.179,0l0,0.684Z" style="fill:#00656c;fill-rule:nonzero;"/></g><g transform="matrix(11,0,0,11,353.966,542.559)"><path d="M0.316,0.012c0.184,0 0.283,-0.093 0.283,-0.265l-0,-0.006c-0,-0.172 -0.099,-0.266 -0.283,-0.266c-0.184,0 -0.282,0.094 -0.282,0.266l-0,0.006c-0,0.172 0.098,0.265 0.282,0.265Zm0,-0.09c-0.09,0 -0.137,-0.056 -0.137,-0.167l0,-0.023c0,-0.111 0.047,-0.167 0.137,-0.167c0.09,-0 0.137,0.056 0.137,0.167l0,0.023c0,0.111 -0.047,0.167 -0.137,0.167Z" style="fill:#00656c;fill-rule:nonzero;"/></g><g transform="matrix(11,0,0,11,360.921,542.559)"><path d="M0.316,0.012c0.167,0 0.261,-0.067 0.275,-0.198l-0.143,-0.016c-0.006,0.082 -0.051,0.124 -0.132,0.124c-0.09,-0 -0.137,-0.057 -0.137,-0.169l0,-0.024c0,-0.109 0.048,-0.164 0.136,-0.164c0.081,-0 0.124,0.045 0.13,0.136l0.142,-0.016c-0.011,-0.138 -0.102,-0.21 -0.272,-0.21c-0.184,0 -0.281,0.09 -0.281,0.263l-0,0.007c-0,0.175 0.096,0.267 0.282,0.267Z" style="fill:#00656c;fill-rule:nonzero;"/></g><g transform="matrix(11,0,0,11,369.961,542.559)"><path d="M0.021,-0l0.488,-0l-0,-0.093l-0.221,-0c-0.023,-0 -0.043,0 -0.061,0.001l-0.003,-0.006c0.015,-0.019 0.025,-0.033 0.037,-0.051l0.244,-0.355l-0.003,-0.009l-0.469,0l-0,0.093l0.207,0c0.022,0 0.036,0 0.055,-0.001l0.003,0.007c-0.011,0.015 -0.021,0.027 -0.031,0.044l-0.249,0.362l0.003,0.008Z" style="fill:#00656c;fill-rule:nonzero;"/></g><g transform="matrix(11,0,0,11,375.74,542.559)"><path d="M0.049,-0l0.142,-0l-0,-0.234c-0,-0.114 0.047,-0.184 0.126,-0.184c0.057,-0 0.087,0.03 0.087,0.087l0,0.331l0.142,-0l0,-0.241c0,-0.107 0.045,-0.177 0.125,-0.177c0.058,-0 0.088,0.03 0.088,0.086l0,0.332l0.142,-0l0,-0.364c0,-0.103 -0.055,-0.155 -0.162,-0.155c-0.099,0 -0.166,0.046 -0.21,0.147l-0.009,-0.002c0.011,-0.093 -0.04,-0.145 -0.141,-0.145c-0.094,0 -0.156,0.043 -0.204,0.144l-0.01,-0.004c0.021,-0.064 0.027,-0.097 0.026,-0.13l-0.142,-0l-0,0.509Z" style="fill:#00656c;fill-rule:nonzero;"/></g><g transform="matrix(11,0,0,11,386.165,542.559)"><path d="M0.378,-0.559l0.109,-0.125l-0.103,0l-0.069,0.062l-0.07,-0.062l-0.103,0l0.109,0.125l0.127,0Zm0.075,0.382c-0.013,0.071 -0.059,0.101 -0.133,0.101c-0.086,0 -0.139,-0.046 -0.142,-0.143l0.41,0c0.003,-0.024 0.004,-0.043 0.004,-0.064c0,-0.154 -0.098,-0.241 -0.273,-0.241c-0.183,-0 -0.285,0.091 -0.285,0.253l-0,0.029c-0,0.166 0.102,0.254 0.283,0.254c0.16,-0 0.255,-0.059 0.277,-0.175l-0.141,-0.014Zm-0.133,-0.26c0.083,0 0.129,0.044 0.129,0.123l-0,0.007l-0.27,0c0.008,-0.085 0.057,-0.13 0.141,-0.13Z" style="fill:#00656c;fill-rule:nonzero;"/></g><g transform="matrix(11,0,0,11,393.078,542.559)"><path d="M0.049,-0l0.142,-0l-0,-0.238c-0,-0.116 0.054,-0.187 0.144,-0.187c0.067,0 0.1,0.035 0.1,0.101l0,0.324l0.142,0l0,-0.358c0,-0.107 -0.063,-0.164 -0.18,-0.164c-0.106,0 -0.179,0.047 -0.222,0.145l-0.01,-0.005c0.02,-0.058 0.026,-0.093 0.026,-0.131l-0.142,0l-0,0.513Z" style="fill:#00656c;fill-rule:nonzero;"/></g><g transform="matrix(11,0,0,11,399.936,542.559)"><path d="M0.045,-0.573l0.153,-0l-0,-0.103l-0.153,0l-0,0.103Zm0.005,0.573l0.142,-0l0,-0.513l-0.142,0l0,0.513Z" style="fill:#00656c;fill-rule:nonzero;"/></g><g transform="matrix(11,0,0,11,402.606,542.559)"><path d="M0.263,0.011c0.053,0 0.104,-0.01 0.139,-0.027l0.008,-0.093c-0.032,0.013 -0.064,0.02 -0.094,0.02c-0.051,0 -0.076,-0.022 -0.076,-0.076l0,-0.255l0.17,-0l0,-0.093l-0.17,0l0,-0.15l-0.142,0.037l0,0.113l-0.082,0l0,0.093l0.082,-0l0,0.278c0,0.104 0.055,0.153 0.165,0.153Z" style="fill:#00656c;fill-rule:nonzero;"/></g><g transform="matrix(11,0,0,11,409.593,542.559)"><path d="M0.386,-0.522c-0.106,0 -0.175,0.049 -0.209,0.137l-0.01,-0.003c0.016,-0.054 0.025,-0.096 0.025,-0.125l-0.143,0l-0,0.684l0.142,-0l-0,-0.139c-0,-0.054 -0.007,-0.097 -0.025,-0.157l0.01,-0.003c0.034,0.087 0.104,0.138 0.21,0.138c0.146,0 0.223,-0.089 0.223,-0.26l0,-0.012c0,-0.171 -0.077,-0.26 -0.223,-0.26Zm-0.054,0.088c0.088,-0 0.134,0.056 0.134,0.167l0,0.022c0,0.112 -0.046,0.168 -0.134,0.168c-0.091,0 -0.141,-0.059 -0.141,-0.17l-0,-0.018c-0,-0.11 0.05,-0.169 0.141,-0.169Z" style="fill:#00656c;fill-rule:nonzero;"/></g><g transform="matrix(11,0,0,11,416.64,542.559)"><path d="M0.188,0.013c0.115,-0 0.198,-0.052 0.229,-0.138l0.01,0.002c-0.019,0.095 0.001,0.136 0.113,0.136c0.014,-0 0.028,-0.002 0.04,-0.004l0.017,-0.084l-0.025,-0.001c-0.027,-0 -0.034,-0.007 -0.034,-0.041l-0,-0.235c-0,-0.116 -0.078,-0.172 -0.242,-0.172c-0.175,0 -0.263,0.069 -0.256,0.188l0.14,0.012c-0.006,-0.079 0.034,-0.114 0.113,-0.114c0.07,-0 0.103,0.025 0.103,0.084l0,0.029l-0.138,0.026c-0.139,0.026 -0.231,0.07 -0.231,0.177l0,0.001c0,0.085 0.058,0.134 0.161,0.134Zm0.057,-0.095c-0.048,-0 -0.074,-0.017 -0.074,-0.052l-0,-0.001c-0,-0.051 0.045,-0.071 0.135,-0.089l0.09,-0.017l0,0.024c0,0.078 -0.07,0.135 -0.151,0.135Z" style="fill:#00656c;fill-rule:nonzero;"/></g><g transform="matrix(11,0,0,11,423.322,542.559)"><path d="M0.049,-0l0.142,-0l-0,-0.214c-0,-0.134 0.041,-0.183 0.15,-0.191l0.07,-0.006l-0.017,-0.118c-0.115,0.009 -0.168,0.045 -0.221,0.152l-0.009,-0.005c0.023,-0.068 0.028,-0.096 0.027,-0.131l-0.142,0l-0,0.513Z" style="fill:#00656c;fill-rule:nonzero;"/></g><g transform="matrix(11,0,0,11,427.85,542.559)"><path d="M0.188,0.013c0.115,-0 0.198,-0.052 0.229,-0.138l0.01,0.002c-0.019,0.095 0.001,0.136 0.113,0.136c0.014,-0 0.028,-0.002 0.04,-0.004l0.017,-0.084l-0.025,-0.001c-0.027,-0 -0.034,-0.007 -0.034,-0.041l-0,-0.235c-0,-0.116 -0.078,-0.172 -0.242,-0.172c-0.175,0 -0.263,0.069 -0.256,0.188l0.14,0.012c-0.006,-0.079 0.034,-0.114 0.113,-0.114c0.07,-0 0.103,0.025 0.103,0.084l0,0.029l-0.138,0.026c-0.139,0.026 -0.231,0.07 -0.231,0.177l0,0.001c0,0.085 0.058,0.134 0.161,0.134Zm0.057,-0.095c-0.048,-0 -0.074,-0.017 -0.074,-0.052l-0,-0.001c-0,-0.051 0.045,-0.071 0.135,-0.089l0.09,-0.017l0,0.024c0,0.078 -0.07,0.135 -0.151,0.135Z" style="fill:#00656c;fill-rule:nonzero;"/></g><g transform="matrix(11,0,0,11,434.429,542.559)"><path d="M0.257,0.009c0.106,0 0.175,-0.049 0.209,-0.137l0.011,0.003c-0.017,0.054 -0.026,0.097 -0.026,0.125l0.143,-0l0,-0.684l-0.142,0l0,0.14c0,0.053 0.007,0.097 0.025,0.156l-0.01,0.004c-0.034,-0.088 -0.104,-0.139 -0.21,-0.139c-0.146,0 -0.223,0.089 -0.223,0.26l-0,0.013c-0,0.17 0.077,0.259 0.223,0.259Zm0.054,-0.088c-0.088,0 -0.134,-0.056 -0.134,-0.167l0,-0.022c0,-0.111 0.046,-0.168 0.134,-0.168c0.092,-0 0.141,0.06 0.141,0.17l0,0.018c0,0.11 -0.049,0.169 -0.141,0.169Z" style="fill:#00656c;fill-rule:nonzero;"/></g><g transform="matrix(11,0,0,11,441.503,542.559)"><path d="M0.045,-0.573l0.153,-0l-0,-0.103l-0.153,0l-0,0.103Zm0.005,0.573l0.142,-0l0,-0.513l-0.142,0l0,0.513Z" style="fill:#00656c;fill-rule:nonzero;"/></g><g transform="matrix(11,0,0,11,444.172,542.559)"><path d="M0.371,-0.121l-0.105,-0.01c-0.105,-0.011 -0.127,-0.021 -0.127,-0.045c-0,-0.017 0.011,-0.027 0.046,-0.031c0.031,0.008 0.067,0.011 0.107,0.011c0.162,0 0.247,-0.057 0.247,-0.164c-0,-0.072 -0.039,-0.122 -0.114,-0.147c-0.003,-0.036 0.018,-0.052 0.072,-0.055l0.056,-0.004l-0.015,-0.11c-0.127,0.006 -0.18,0.068 -0.161,0.157c-0.025,-0.004 -0.053,-0.006 -0.085,-0.006c-0.161,0 -0.247,0.058 -0.247,0.165c-0,0.058 0.025,0.101 0.074,0.129l0,0.009c-0.063,0.01 -0.091,0.037 -0.091,0.081c-0,0.041 0.028,0.069 0.076,0.087l0,0.009c-0.072,0.014 -0.1,0.053 -0.1,0.105c-0,0.089 0.081,0.123 0.282,0.123c0.211,-0 0.295,-0.044 0.295,-0.153c-0,-0.115 -0.106,-0.14 -0.21,-0.151Zm-0.079,-0.329c0.072,-0 0.105,0.029 0.105,0.09c0,0.061 -0.033,0.089 -0.105,0.089c-0.072,0 -0.106,-0.028 -0.106,-0.089c0,-0.061 0.034,-0.09 0.106,-0.09Zm0.001,0.548c-0.13,-0 -0.181,-0.02 -0.181,-0.069c-0,-0.03 0.016,-0.051 0.063,-0.066c0.014,0.003 0.029,0.004 0.045,0.006l0.11,0.01c0.109,0.01 0.136,0.025 0.136,0.062c0,0.04 -0.046,0.057 -0.173,0.057Z" style="fill:#00656c;fill-rule:nonzero;"/></g><g transform="matrix(11,0,0,11,450.601,542.559)"><path d="M0.049,-0l0.142,-0l-0,-0.234c-0,-0.114 0.047,-0.184 0.126,-0.184c0.057,-0 0.087,0.03 0.087,0.087l0,0.331l0.142,-0l0,-0.241c0,-0.107 0.045,-0.177 0.125,-0.177c0.058,-0 0.088,0.03 0.088,0.086l0,0.332l0.142,-0l0,-0.364c0,-0.103 -0.055,-0.155 -0.162,-0.155c-0.099,0 -0.166,0.046 -0.21,0.147l-0.009,-0.002c0.011,-0.093 -0.04,-0.145 -0.141,-0.145c-0.094,0 -0.156,0.043 -0.204,0.144l-0.01,-0.004c0.021,-0.064 0.027,-0.097 0.026,-0.13l-0.142,-0l-0,0.509Z" style="fill:#00656c;fill-rule:nonzero;"/></g><g transform="matrix(11,0,0,11,461.026,542.559)"><path d="M0.188,0.013c0.115,-0 0.198,-0.052 0.229,-0.138l0.01,0.002c-0.019,0.095 0.001,0.136 0.113,0.136c0.014,-0 0.028,-0.002 0.04,-0.004l0.017,-0.084l-0.025,-0.001c-0.027,-0 -0.034,-0.007 -0.034,-0.041l-0,-0.235c-0,-0.116 -0.078,-0.172 -0.242,-0.172c-0.175,0 -0.263,0.069 -0.256,0.188l0.14,0.012c-0.006,-0.079 0.034,-0.114 0.113,-0.114c0.07,-0 0.103,0.025 0.103,0.084l0,0.029l-0.138,0.026c-0.139,0.026 -0.231,0.07 -0.231,0.177l0,0.001c0,0.085 0.058,0.134 0.161,0.134Zm0.057,-0.095c-0.048,-0 -0.074,-0.017 -0.074,-0.052l-0,-0.001c-0,-0.051 0.045,-0.071 0.135,-0.089l0.09,-0.017l0,0.024c0,0.078 -0.07,0.135 -0.151,0.135Z" style="fill:#00656c;fill-rule:nonzero;"/></g><g transform="matrix(11,0,0,11,237.017,553.559)"><path d="M0.373,-0.684l-0.318,0l0,0.684l0.144,-0l0,-0.251l0.174,-0c0.159,-0 0.24,-0.074 0.24,-0.215l0,-0.002c0,-0.142 -0.081,-0.216 -0.24,-0.216Zm-0.03,0.336l-0.144,-0l0,-0.239l0.144,0c0.085,0 0.126,0.039 0.126,0.119l-0,0.002c-0,0.08 -0.041,0.118 -0.126,0.118Z" style="fill:#00656c;fill-rule:nonzero;"/></g><g transform="matrix(11,0,0,11,243.93,553.559)"><path d="M0.188,0.013c0.115,-0 0.198,-0.052 0.229,-0.138l0.01,0.002c-0.019,0.095 0.001,0.136 0.113,0.136c0.014,-0 0.028,-0.002 0.04,-0.004l0.017,-0.084l-0.025,-0.001c-0.027,-0 -0.034,-0.007 -0.034,-0.041l-0,-0.235c-0,-0.116 -0.078,-0.172 -0.242,-0.172c-0.175,0 -0.263,0.069 -0.256,0.188l0.14,0.012c-0.006,-0.079 0.034,-0.114 0.113,-0.114c0.07,-0 0.103,0.025 0.103,0.084l0,0.029l-0.138,0.026c-0.139,0.026 -0.231,0.07 -0.231,0.177l0,0.001c0,0.085 0.058,0.134 0.161,0.134Zm0.057,-0.095c-0.048,-0 -0.074,-0.017 -0.074,-0.052l-0,-0.001c-0,-0.051 0.045,-0.071 0.135,-0.089l0.09,-0.017l0,0.024c0,0.078 -0.07,0.135 -0.151,0.135Z" style="fill:#00656c;fill-rule:nonzero;"/></g><g transform="matrix(11,0,0,11,250.611,553.559)"><path d="M0.049,-0l0.142,-0l-0,-0.214c-0,-0.134 0.041,-0.183 0.15,-0.191l0.07,-0.006l-0.017,-0.118c-0.115,0.009 -0.168,0.045 -0.221,0.152l-0.009,-0.005c0.023,-0.068 0.028,-0.096 0.027,-0.131l-0.142,0l-0,0.513Z" style="fill:#00656c;fill-rule:nonzero;"/></g><g transform="matrix(11,0,0,11,255.138,553.559)"><path d="M0.188,0.013c0.115,-0 0.198,-0.052 0.229,-0.138l0.01,0.002c-0.019,0.095 0.001,0.136 0.113,0.136c0.014,-0 0.028,-0.002 0.04,-0.004l0.017,-0.084l-0.025,-0.001c-0.027,-0 -0.034,-0.007 -0.034,-0.041l-0,-0.235c-0,-0.116 -0.078,-0.172 -0.242,-0.172c-0.175,0 -0.263,0.069 -0.256,0.188l0.14,0.012c-0.006,-0.079 0.034,-0.114 0.113,-0.114c0.07,-0 0.103,0.025 0.103,0.084l0,0.029l-0.138,0.026c-0.139,0.026 -0.231,0.07 -0.231,0.177l0,0.001c0,0.085 0.058,0.134 0.161,0.134Zm0.057,-0.095c-0.048,-0 -0.074,-0.017 -0.074,-0.052l-0,-0.001c-0,-0.051 0.045,-0.071 0.135,-0.089l0.09,-0.017l0,0.024c0,0.078 -0.07,0.135 -0.151,0.135Z" style="fill:#00656c;fill-rule:nonzero;"/></g><g transform="matrix(11,0,0,11,261.718,553.559)"><path d="M0.257,0.009c0.106,0 0.175,-0.049 0.209,-0.137l0.011,0.003c-0.017,0.054 -0.026,0.097 -0.026,0.125l0.143,-0l0,-0.684l-0.142,0l0,0.14c0,0.053 0.007,0.097 0.025,0.156l-0.01,0.004c-0.034,-0.088 -0.104,-0.139 -0.21,-0.139c-0.146,0 -0.223,0.089 -0.223,0.26l-0,0.013c-0,0.17 0.077,0.259 0.223,0.259Zm0.054,-0.088c-0.088,0 -0.134,-0.056 -0.134,-0.167l0,-0.022c0,-0.111 0.046,-0.168 0.134,-0.168c0.092,-0 0.141,0.06 0.141,0.17l0,0.018c0,0.11 -0.049,0.169 -0.141,0.169Z" style="fill:#00656c;fill-rule:nonzero;"/></g><g transform="matrix(11,0,0,11,268.791,553.559)"><path d="M0.045,-0.573l0.153,-0l-0,-0.103l-0.153,0l-0,0.103Zm0.005,0.573l0.142,-0l0,-0.513l-0.142,0l0,0.513Z" style="fill:#00656c;fill-rule:nonzero;"/></g><g transform="matrix(11,0,0,11,271.46,553.559)"><path d="M0.371,-0.121l-0.105,-0.01c-0.105,-0.011 -0.127,-0.021 -0.127,-0.045c-0,-0.017 0.011,-0.027 0.046,-0.031c0.031,0.008 0.067,0.011 0.107,0.011c0.162,0 0.247,-0.057 0.247,-0.164c-0,-0.072 -0.039,-0.122 -0.114,-0.147c-0.003,-0.036 0.018,-0.052 0.072,-0.055l0.056,-0.004l-0.015,-0.11c-0.127,0.006 -0.18,0.068 -0.161,0.157c-0.025,-0.004 -0.053,-0.006 -0.085,-0.006c-0.161,0 -0.247,0.058 -0.247,0.165c-0,0.058 0.025,0.101 0.074,0.129l0,0.009c-0.063,0.01 -0.091,0.037 -0.091,0.081c-0,0.041 0.028,0.069 0.076,0.087l0,0.009c-0.072,0.014 -0.1,0.053 -0.1,0.105c-0,0.089 0.081,0.123 0.282,0.123c0.211,-0 0.295,-0.044 0.295,-0.153c-0,-0.115 -0.106,-0.14 -0.21,-0.151Zm-0.079,-0.329c0.072,-0 0.105,0.029 0.105,0.09c0,0.061 -0.033,0.089 -0.105,0.089c-0.072,0 -0.106,-0.028 -0.106,-0.089c0,-0.061 0.034,-0.09 0.106,-0.09Zm0.001,0.548c-0.13,-0 -0.181,-0.02 -0.181,-0.069c-0,-0.03 0.016,-0.051 0.063,-0.066c0.014,0.003 0.029,0.004 0.045,0.006l0.11,0.01c0.109,0.01 0.136,0.025 0.136,0.062c0,0.04 -0.046,0.057 -0.173,0.057Z" style="fill:#00656c;fill-rule:nonzero;"/></g><g transform="matrix(11,0,0,11,277.889,553.559)"><path d="M0.049,-0l0.142,-0l-0,-0.234c-0,-0.114 0.047,-0.184 0.126,-0.184c0.057,-0 0.087,0.03 0.087,0.087l0,0.331l0.142,-0l0,-0.241c0,-0.107 0.045,-0.177 0.125,-0.177c0.058,-0 0.088,0.03 0.088,0.086l0,0.332l0.142,-0l0,-0.364c0,-0.103 -0.055,-0.155 -0.162,-0.155c-0.099,0 -0.166,0.046 -0.21,0.147l-0.009,-0.002c0.011,-0.093 -0.04,-0.145 -0.141,-0.145c-0.094,0 -0.156,0.043 -0.204,0.144l-0.01,-0.004c0.021,-0.064 0.027,-0.097 0.026,-0.13l-0.142,-0l-0,0.509Z" style="fill:#00656c;fill-rule:nonzero;"/></g><g transform="matrix(11,0,0,11,288.314,553.559)"><path d="M0.188,0.013c0.115,-0 0.198,-0.052 0.229,-0.138l0.01,0.002c-0.019,0.095 0.001,0.136 0.113,0.136c0.014,-0 0.028,-0.002 0.04,-0.004l0.017,-0.084l-0.025,-0.001c-0.027,-0 -0.034,-0.007 -0.034,-0.041l-0,-0.235c-0,-0.116 -0.078,-0.172 -0.242,-0.172c-0.175,0 -0.263,0.069 -0.256,0.188l0.14,0.012c-0.006,-0.079 0.034,-0.114 0.113,-0.114c0.07,-0 0.103,0.025 0.103,0.084l0,0.029l-0.138,0.026c-0.139,0.026 -0.231,0.07 -0.231,0.177l0,0.001c0,0.085 0.058,0.134 0.161,0.134Zm0.057,-0.095c-0.048,-0 -0.074,-0.017 -0.074,-0.052l-0,-0.001c-0,-0.051 0.045,-0.071 0.135,-0.089l0.09,-0.017l0,0.024c0,0.078 -0.07,0.135 -0.151,0.135Z" style="fill:#00656c;fill-rule:nonzero;"/></g><g transform="matrix(11,0,0,11,295.167,553.559)"><path d="M0.041,-0.137l0,0.137l0.074,-0c-0,0.06 -0.025,0.083 -0.084,0.092l0.011,0.054c0.101,-0.01 0.155,-0.058 0.155,-0.169l0,-0.114l-0.156,0Z" style="fill:#00656c;fill-rule:nonzero;"/></g><g transform="matrix(11,0,0,11,299.969,553.559)"><path d="M0.021,-0l0.488,-0l-0,-0.093l-0.221,-0c-0.023,-0 -0.043,0 -0.061,0.001l-0.003,-0.006c0.015,-0.019 0.025,-0.033 0.037,-0.051l0.244,-0.355l-0.003,-0.009l-0.469,0l-0,0.093l0.207,0c0.022,0 0.036,0 0.055,-0.001l0.003,0.007c-0.011,0.015 -0.021,0.027 -0.031,0.044l-0.249,0.362l0.003,0.008Z" style="fill:#00656c;fill-rule:nonzero;"/></g><g transform="matrix(11,0,0,11,307.929,553.559)"><path d="M0.049,-0l0.142,-0l-0,-0.177l0.069,-0.069l0.13,0.246l0.148,-0l-0.178,-0.324l0.18,-0.189l-0.155,0l-0.202,0.213l-0.008,-0.003c0.012,-0.059 0.016,-0.099 0.016,-0.164l-0,-0.217l-0.142,0l-0,0.684Z" style="fill:#00656c;fill-rule:nonzero;"/></g><g transform="matrix(11,0,0,11,313.891,553.559)"><path d="M0.263,0.011c0.053,0 0.104,-0.01 0.139,-0.027l0.008,-0.093c-0.032,0.013 -0.064,0.02 -0.094,0.02c-0.051,0 -0.076,-0.022 -0.076,-0.076l0,-0.255l0.17,-0l0,-0.093l-0.17,0l0,-0.15l-0.142,0.037l0,0.113l-0.082,0l0,0.093l0.082,-0l0,0.278c0,0.104 0.055,0.153 0.165,0.153Z" style="fill:#00656c;fill-rule:nonzero;"/></g><g transform="matrix(11,0,0,11,318.499,553.559)"><path d="M0.453,-0.177c-0.013,0.071 -0.059,0.101 -0.133,0.101c-0.086,0 -0.139,-0.046 -0.142,-0.143l0.41,0c0.003,-0.024 0.004,-0.043 0.004,-0.064c0,-0.154 -0.098,-0.241 -0.273,-0.241c-0.183,-0 -0.285,0.091 -0.285,0.253l-0,0.029c-0,0.166 0.102,0.254 0.283,0.254c0.16,-0 0.255,-0.059 0.277,-0.175l-0.141,-0.014Zm-0.133,-0.26c0.083,0 0.129,0.044 0.129,0.123l-0,0.007l-0.27,0c0.008,-0.085 0.057,-0.13 0.141,-0.13Z" style="fill:#00656c;fill-rule:nonzero;"/></g><g transform="matrix(11,0,0,11,325.411,553.559)"><path d="M0.049,-0l0.142,-0l-0,-0.214c-0,-0.134 0.041,-0.183 0.15,-0.191l0.07,-0.006l-0.017,-0.118c-0.115,0.009 -0.168,0.045 -0.221,0.152l-0.009,-0.005c0.023,-0.068 0.028,-0.096 0.027,-0.131l-0.142,0l-0,0.513Z" style="fill:#00656c;fill-rule:nonzero;"/></g><g transform="matrix(11,0,0,11,329.89,553.559)"><path d="M0.478,-0.684l-0.136,0l-0.081,0.125l0.103,0l0.114,-0.125Zm-0.025,0.507c-0.013,0.071 -0.059,0.101 -0.133,0.101c-0.086,0 -0.139,-0.046 -0.142,-0.143l0.41,0c0.003,-0.024 0.004,-0.043 0.004,-0.064c0,-0.154 -0.098,-0.241 -0.273,-0.241c-0.183,-0 -0.285,0.091 -0.285,0.253l-0,0.029c-0,0.166 0.102,0.254 0.283,0.254c0.16,-0 0.255,-0.059 0.277,-0.175l-0.141,-0.014Zm-0.133,-0.26c0.083,0 0.129,0.044 0.129,0.123l-0,0.007l-0.27,0c0.008,-0.085 0.057,-0.13 0.141,-0.13Z" style="fill:#00656c;fill-rule:nonzero;"/></g><g transform="matrix(11,0,0,11,336.803,553.559)"><path d="M0.049,-0l0.142,-0l-0,-0.238c-0,-0.116 0.054,-0.186 0.144,-0.186c0.067,-0 0.1,0.034 0.1,0.1l0,0.324l0.142,0l0,-0.358c0,-0.107 -0.063,-0.164 -0.18,-0.164c-0.107,0 -0.18,0.047 -0.222,0.144l-0.01,-0.004c0.019,-0.055 0.025,-0.095 0.026,-0.143l-0,-0.159l-0.142,0l-0,0.684Z" style="fill:#00656c;fill-rule:nonzero;"/></g><g transform="matrix(11,0,0,11,343.661,553.559)"><path d="M0.316,0.012c0.184,0 0.283,-0.093 0.283,-0.265l-0,-0.006c-0,-0.172 -0.099,-0.266 -0.283,-0.266c-0.184,0 -0.282,0.094 -0.282,0.266l-0,0.006c-0,0.172 0.098,0.265 0.282,0.265Zm0,-0.09c-0.09,0 -0.137,-0.056 -0.137,-0.167l0,-0.023c0,-0.111 0.047,-0.167 0.137,-0.167c0.09,-0 0.137,0.056 0.137,0.167l0,0.023c0,0.111 -0.047,0.167 -0.137,0.167Z" style="fill:#00656c;fill-rule:nonzero;"/></g><g transform="matrix(11,0,0,11,352.814,553.559)"><path d="M0.295,0.01c0.17,0 0.254,-0.055 0.254,-0.154c-0,-0.105 -0.095,-0.136 -0.176,-0.154l-0.08,-0.019c-0.081,-0.019 -0.119,-0.036 -0.119,-0.071c0,-0.035 0.037,-0.051 0.106,-0.051c0.08,-0 0.122,0.023 0.12,0.091l0.134,-0.015c-0.001,-0.106 -0.085,-0.161 -0.254,-0.161c-0.161,0 -0.241,0.056 -0.241,0.153c-0,0.088 0.083,0.123 0.163,0.143l0.081,0.02c0.08,0.02 0.125,0.036 0.125,0.078c-0,0.038 -0.04,0.056 -0.114,0.056c-0.086,-0 -0.133,-0.033 -0.132,-0.106l-0.137,0.016c0.003,0.118 0.091,0.174 0.27,0.174Z" style="fill:#00656c;fill-rule:nonzero;"/></g><g transform="matrix(11,0,0,11,358.974,553.559)"><path d="M0.041,0.183c0.215,-0.013 0.284,-0.057 0.357,-0.242l0.171,-0.454l-0.141,0l-0.095,0.282c-0.014,0.039 -0.024,0.078 -0.034,0.124l-0.01,-0c-0.009,-0.046 -0.02,-0.085 -0.035,-0.124l-0.104,-0.282l-0.146,0l0.215,0.518l-0.007,0.021c-0.008,0.02 -0.026,0.031 -0.097,0.036l-0.09,0.007l0.016,0.114Z" style="fill:#00656c;fill-rule:nonzero;"/></g><g transform="matrix(11,0,0,11,365.156,553.559)"><path d="M0.295,0.01c0.17,0 0.254,-0.055 0.254,-0.154c-0,-0.105 -0.095,-0.136 -0.176,-0.154l-0.08,-0.019c-0.081,-0.019 -0.119,-0.036 -0.119,-0.071c0,-0.035 0.037,-0.051 0.106,-0.051c0.08,-0 0.122,0.023 0.12,0.091l0.134,-0.015c-0.001,-0.106 -0.085,-0.161 -0.254,-0.161c-0.161,0 -0.241,0.056 -0.241,0.153c-0,0.088 0.083,0.123 0.163,0.143l0.081,0.02c0.08,0.02 0.125,0.036 0.125,0.078c-0,0.038 -0.04,0.056 -0.114,0.056c-0.086,-0 -0.133,-0.033 -0.132,-0.106l-0.137,0.016c0.003,0.118 0.091,0.174 0.27,0.174Z" style="fill:#00656c;fill-rule:nonzero;"/></g><g transform="matrix(11,0,0,11,371.338,553.559)"><path d="M0.263,0.011c0.053,0 0.104,-0.01 0.139,-0.027l0.008,-0.093c-0.032,0.013 -0.064,0.02 -0.094,0.02c-0.051,0 -0.076,-0.022 -0.076,-0.076l0,-0.255l0.17,-0l0,-0.093l-0.17,0l0,-0.15l-0.142,0.037l0,0.113l-0.082,0l0,0.093l0.082,-0l0,0.278c0,0.104 0.055,0.153 0.165,0.153Z" style="fill:#00656c;fill-rule:nonzero;"/></g><g transform="matrix(11,0,0,11,375.946,553.559)"><path d="M0.478,-0.684l-0.136,0l-0.081,0.125l0.103,0l0.114,-0.125Zm-0.025,0.507c-0.013,0.071 -0.059,0.101 -0.133,0.101c-0.086,0 -0.139,-0.046 -0.142,-0.143l0.41,0c0.003,-0.024 0.004,-0.043 0.004,-0.064c0,-0.154 -0.098,-0.241 -0.273,-0.241c-0.183,-0 -0.285,0.091 -0.285,0.253l-0,0.029c-0,0.166 0.102,0.254 0.283,0.254c0.16,-0 0.255,-0.059 0.277,-0.175l-0.141,-0.014Zm-0.133,-0.26c0.083,0 0.129,0.044 0.129,0.123l-0,0.007l-0.27,0c0.008,-0.085 0.057,-0.13 0.141,-0.13Z" style="fill:#00656c;fill-rule:nonzero;"/></g><g transform="matrix(11,0,0,11,382.858,553.559)"><path d="M0.049,-0l0.142,-0l-0,-0.234c-0,-0.114 0.047,-0.184 0.126,-0.184c0.057,-0 0.087,0.03 0.087,0.087l0,0.331l0.142,-0l0,-0.241c0,-0.107 0.045,-0.177 0.125,-0.177c0.058,-0 0.088,0.03 0.088,0.086l0,0.332l0.142,-0l0,-0.364c0,-0.103 -0.055,-0.155 -0.162,-0.155c-0.099,0 -0.166,0.046 -0.21,0.147l-0.009,-0.002c0.011,-0.093 -0.04,-0.145 -0.141,-0.145c-0.094,0 -0.156,0.043 -0.204,0.144l-0.01,-0.004c0.021,-0.064 0.027,-0.097 0.026,-0.13l-0.142,-0l-0,0.509Z" style="fill:#00656c;fill-rule:nonzero;"/></g><g transform="matrix(11,0,0,11,395.4,553.559)"><path d="M0.203,-0l0.17,-0l0.197,-0.513l-0.142,0l-0.086,0.237c-0.017,0.049 -0.032,0.098 -0.047,0.155l-0.009,0c-0.015,-0.057 -0.03,-0.106 -0.048,-0.155l-0.087,-0.237l-0.147,0l0.199,0.513Z" style="fill:#00656c;fill-rule:nonzero;"/></g><g transform="matrix(11,0,0,11,401.769,553.559)"><path d="M0.041,0.183c0.215,-0.013 0.284,-0.057 0.357,-0.242l0.171,-0.454l-0.141,0l-0.095,0.282c-0.014,0.039 -0.024,0.078 -0.034,0.124l-0.01,-0c-0.009,-0.046 -0.02,-0.085 -0.035,-0.124l-0.104,-0.282l-0.146,0l0.215,0.518l-0.007,0.021c-0.008,0.02 -0.026,0.031 -0.097,0.036l-0.09,0.007l0.016,0.114Z" style="fill:#00656c;fill-rule:nonzero;"/></g><g transform="matrix(11,0,0,11,407.914,553.559)"><path d="M0.316,0.012c0.167,0 0.261,-0.067 0.275,-0.198l-0.143,-0.016c-0.006,0.082 -0.051,0.124 -0.132,0.124c-0.09,-0 -0.137,-0.057 -0.137,-0.169l0,-0.024c0,-0.109 0.048,-0.164 0.136,-0.164c0.081,-0 0.124,0.045 0.13,0.136l0.142,-0.016c-0.011,-0.138 -0.102,-0.21 -0.272,-0.21c-0.184,0 -0.281,0.09 -0.281,0.263l-0,0.007c-0,0.175 0.096,0.267 0.282,0.267Z" style="fill:#00656c;fill-rule:nonzero;"/></g><g transform="matrix(11,0,0,11,414.772,553.559)"><path d="M0.049,-0l0.142,-0l-0,-0.238c-0,-0.116 0.054,-0.186 0.144,-0.186c0.067,-0 0.1,0.034 0.1,0.1l0,0.324l0.142,0l0,-0.358c0,-0.107 -0.063,-0.164 -0.18,-0.164c-0.107,0 -0.18,0.047 -0.222,0.144l-0.01,-0.004c0.019,-0.055 0.025,-0.095 0.026,-0.143l-0,-0.159l-0.142,0l-0,0.684Z" style="fill:#00656c;fill-rule:nonzero;"/></g><g transform="matrix(11,0,0,11,421.631,553.559)"><path d="M0.321,-0.684l-0.081,0.125l0.103,0l0.114,-0.125l-0.136,0Zm-0.133,0.697c0.115,-0 0.198,-0.052 0.229,-0.138l0.01,0.002c-0.019,0.095 0.001,0.136 0.113,0.136c0.014,-0 0.028,-0.002 0.04,-0.004l0.017,-0.084l-0.025,-0.001c-0.027,-0 -0.034,-0.007 -0.034,-0.041l-0,-0.235c-0,-0.116 -0.078,-0.172 -0.242,-0.172c-0.175,0 -0.263,0.069 -0.256,0.188l0.14,0.012c-0.006,-0.079 0.034,-0.114 0.113,-0.114c0.07,-0 0.103,0.025 0.103,0.084l0,0.029l-0.138,0.026c-0.139,0.026 -0.231,0.07 -0.231,0.177l0,0.001c0,0.085 0.058,0.134 0.161,0.134Zm0.057,-0.095c-0.048,-0 -0.074,-0.017 -0.074,-0.052l-0,-0.001c-0,-0.051 0.045,-0.071 0.135,-0.089l0.09,-0.017l0,0.024c0,0.078 -0.07,0.135 -0.151,0.135Z" style="fill:#00656c;fill-rule:nonzero;"/></g><g transform="matrix(11,0,0,11,428.285,553.559)"><path d="M0.021,-0l0.488,-0l-0,-0.093l-0.221,-0c-0.023,-0 -0.043,0 -0.061,0.001l-0.003,-0.006c0.015,-0.019 0.025,-0.033 0.037,-0.051l0.244,-0.355l-0.003,-0.009l-0.469,0l-0,0.093l0.207,0c0.022,0 0.036,0 0.055,-0.001l0.003,0.007c-0.011,0.015 -0.021,0.027 -0.031,0.044l-0.249,0.362l0.003,0.008Z" style="fill:#00656c;fill-rule:nonzero;"/></g><g transform="matrix(11,0,0,11,434.064,553.559)"><path d="M0.102,-0.684l-0.036,0.125l0.108,0l0.058,-0.125l-0.13,0Zm-0.053,0.684l0.142,-0l-0,-0.513l-0.142,0l-0,0.513Z" style="fill:#00656c;fill-rule:nonzero;"/></g><g transform="matrix(11,0,0,11,343.061,564.559)"><path d="M0.363,0.012c0.191,0 0.298,-0.089 0.314,-0.262l-0.146,-0.027c-0.007,0.127 -0.062,0.187 -0.168,0.187c-0.119,-0 -0.177,-0.077 -0.177,-0.237l0,-0.029c0,-0.161 0.057,-0.237 0.176,-0.237c0.107,-0 0.16,0.059 0.165,0.186l0.143,-0.024c-0.012,-0.174 -0.116,-0.265 -0.308,-0.265c-0.214,0 -0.324,0.121 -0.324,0.353l-0,0.002c-0,0.233 0.11,0.353 0.325,0.353Z" style="fill:#00656c;fill-rule:nonzero;"/></g><g transform="matrix(11,0,0,11,350.908,564.559)"><path d="M0.102,-0.684l-0.036,0.125l0.108,0l0.058,-0.125l-0.13,0Zm-0.053,0.684l0.142,-0l-0,-0.513l-0.142,0l-0,0.513Z" style="fill:#00656c;fill-rule:nonzero;"/></g><g transform="matrix(11,0,0,11,353.545,564.559)"><rect x="0.049" y="-0.684" width="0.142" height="0.684" style="fill:#00656c;fill-rule:nonzero;"/></g><g transform="matrix(11,0,0,11,358.379,564.559)"><path d="M0.295,0.01c0.17,0 0.254,-0.055 0.254,-0.154c-0,-0.105 -0.095,-0.136 -0.176,-0.154l-0.08,-0.019c-0.081,-0.019 -0.119,-0.036 -0.119,-0.071c0,-0.035 0.037,-0.051 0.106,-0.051c0.08,-0 0.122,0.023 0.12,0.091l0.134,-0.015c-0.001,-0.106 -0.085,-0.161 -0.254,-0.161c-0.161,0 -0.241,0.056 -0.241,0.153c-0,0.088 0.083,0.123 0.163,0.143l0.081,0.02c0.08,0.02 0.125,0.036 0.125,0.078c-0,0.038 -0.04,0.056 -0.114,0.056c-0.086,-0 -0.133,-0.033 -0.132,-0.106l-0.137,0.016c0.003,0.118 0.091,0.174 0.27,0.174Z" style="fill:#00656c;fill-rule:nonzero;"/></g><g transform="matrix(11,0,0,11,364.539,564.559)"><path d="M0.041,0.183c0.215,-0.013 0.284,-0.057 0.357,-0.242l0.171,-0.454l-0.141,0l-0.095,0.282c-0.014,0.039 -0.024,0.078 -0.034,0.124l-0.01,-0c-0.009,-0.046 -0.02,-0.085 -0.035,-0.124l-0.104,-0.282l-0.146,0l0.215,0.518l-0.007,0.021c-0.008,0.02 -0.026,0.031 -0.097,0.036l-0.09,0.007l0.016,0.114Z" style="fill:#00656c;fill-rule:nonzero;"/></g><g transform="matrix(11,0,0,11,370.722,564.559)"><path d="M0.295,0.01c0.17,0 0.254,-0.055 0.254,-0.154c-0,-0.105 -0.095,-0.136 -0.176,-0.154l-0.08,-0.019c-0.081,-0.019 -0.119,-0.036 -0.119,-0.071c0,-0.035 0.037,-0.051 0.106,-0.051c0.08,-0 0.122,0.023 0.12,0.091l0.134,-0.015c-0.001,-0.106 -0.085,-0.161 -0.254,-0.161c-0.161,0 -0.241,0.056 -0.241,0.153c-0,0.088 0.083,0.123 0.163,0.143l0.081,0.02c0.08,0.02 0.125,0.036 0.125,0.078c-0,0.038 -0.04,0.056 -0.114,0.056c-0.086,-0 -0.133,-0.033 -0.132,-0.106l-0.137,0.016c0.003,0.118 0.091,0.174 0.27,0.174Z" style="fill:#00656c;fill-rule:nonzero;"/></g><g transform="matrix(11,0,0,11,376.904,564.559)"><path d="M0.263,0.011c0.053,0 0.104,-0.01 0.139,-0.027l0.008,-0.093c-0.032,0.013 -0.064,0.02 -0.094,0.02c-0.051,0 -0.076,-0.022 -0.076,-0.076l0,-0.255l0.17,-0l0,-0.093l-0.17,0l0,-0.15l-0.142,0.037l0,0.113l-0.082,0l0,0.093l0.082,-0l0,0.278c0,0.104 0.055,0.153 0.165,0.153Z" style="fill:#00656c;fill-rule:nonzero;"/></g><g transform="matrix(11,0,0,11,381.512,564.559)"><path d="M0.478,-0.684l-0.136,0l-0.081,0.125l0.103,0l0.114,-0.125Zm-0.025,0.507c-0.013,0.071 -0.059,0.101 -0.133,0.101c-0.086,0 -0.139,-0.046 -0.142,-0.143l0.41,0c0.003,-0.024 0.004,-0.043 0.004,-0.064c0,-0.154 -0.098,-0.241 -0.273,-0.241c-0.183,-0 -0.285,0.091 -0.285,0.253l-0,0.029c-0,0.166 0.102,0.254 0.283,0.254c0.16,-0 0.255,-0.059 0.277,-0.175l-0.141,-0.014Zm-0.133,-0.26c0.083,0 0.129,0.044 0.129,0.123l-0,0.007l-0.27,0c0.008,-0.085 0.057,-0.13 0.141,-0.13Z" style="fill:#00656c;fill-rule:nonzero;"/></g><g transform="matrix(11,0,0,11,388.424,564.559)"><path d="M0.049,-0l0.142,-0l-0,-0.234c-0,-0.114 0.047,-0.184 0.126,-0.184c0.057,-0 0.087,0.03 0.087,0.087l0,0.331l0.142,-0l0,-0.241c0,-0.107 0.045,-0.177 0.125,-0.177c0.058,-0 0.088,0.03 0.088,0.086l0,0.332l0.142,-0l0,-0.364c0,-0.103 -0.055,-0.155 -0.162,-0.155c-0.099,0 -0.166,0.046 -0.21,0.147l-0.009,-0.002c0.011,-0.093 -0.04,-0.145 -0.141,-0.145c-0.094,0 -0.156,0.043 -0.204,0.144l-0.01,-0.004c0.021,-0.064 0.027,-0.097 0.026,-0.13l-0.142,-0l-0,0.509Z" style="fill:#00656c;fill-rule:nonzero;"/></g><g transform="matrix(11,0,0,11,398.85,564.559)"><path d="M0.575,-0.513l-0.142,0l-0,0.239c-0,0.115 -0.055,0.186 -0.144,0.186c-0.067,0 -0.101,-0.035 -0.101,-0.101l0,-0.324l-0.142,0l0,0.358c0,0.108 0.063,0.164 0.181,0.164c0.106,0 0.179,-0.047 0.222,-0.144l0.01,0.004c-0.02,0.058 -0.027,0.093 -0.027,0.131l0.143,0l-0,-0.513Z" style="fill:#00656c;fill-rule:nonzero;"/></g><g transform="matrix(11,0,0,11,272.895,575.559)"><path d="M0.343,0.012c0.183,0 0.294,-0.076 0.294,-0.208c0,-0.119 -0.09,-0.16 -0.201,-0.189l-0.11,-0.029c-0.114,-0.03 -0.136,-0.055 -0.136,-0.1c0,-0.055 0.048,-0.087 0.136,-0.087c0.108,-0 0.157,0.053 0.161,0.156l0.13,-0.021c-0.001,-0.144 -0.104,-0.23 -0.289,-0.23c-0.171,0 -0.274,0.07 -0.274,0.196c-0.001,0.109 0.074,0.157 0.187,0.188l0.109,0.03c0.111,0.031 0.145,0.055 0.145,0.107c-0,0.059 -0.052,0.092 -0.144,0.092c-0.118,-0 -0.172,-0.05 -0.179,-0.161l-0.141,0.022c0.007,0.153 0.122,0.234 0.312,0.234Z" style="fill:#00656c;fill-rule:nonzero;"/></g><g transform="matrix(11,0,0,11,280.194,575.559)"><path d="M0.263,0.011c0.053,0 0.104,-0.01 0.139,-0.027l0.008,-0.093c-0.032,0.013 -0.064,0.02 -0.094,0.02c-0.051,0 -0.076,-0.022 -0.076,-0.076l0,-0.255l0.17,-0l0,-0.093l-0.17,0l0,-0.15l-0.142,0.037l0,0.113l-0.082,0l0,0.093l0.082,-0l0,0.278c0,0.104 0.055,0.153 0.165,0.153Z" style="fill:#00656c;fill-rule:nonzero;"/></g><g transform="matrix(11,0,0,11,284.904,575.559)"><path d="M0.049,-0l0.142,-0l-0,-0.214c-0,-0.134 0.041,-0.183 0.15,-0.191l0.07,-0.006l-0.017,-0.118c-0.115,0.009 -0.168,0.045 -0.221,0.152l-0.009,-0.005c0.023,-0.068 0.028,-0.096 0.027,-0.131l-0.142,0l-0,0.513Z" style="fill:#00656c;fill-rule:nonzero;"/></g><g transform="matrix(11,0,0,11,289.581,575.559)"><path d="M0.575,-0.513l-0.142,0l-0,0.239c-0,0.115 -0.055,0.186 -0.144,0.186c-0.067,0 -0.101,-0.035 -0.101,-0.101l0,-0.324l-0.142,0l0,0.358c0,0.108 0.063,0.164 0.181,0.164c0.106,0 0.179,-0.047 0.222,-0.144l0.01,0.004c-0.02,0.058 -0.027,0.093 -0.027,0.131l0.143,0l-0,-0.513Z" style="fill:#00656c;fill-rule:nonzero;"/></g><g transform="matrix(11,0,0,11,296.44,575.559)"><path d="M0.049,-0l0.142,-0l-0,-0.177l0.069,-0.069l0.13,0.246l0.148,-0l-0.178,-0.324l0.18,-0.189l-0.155,0l-0.202,0.213l-0.008,-0.003c0.012,-0.059 0.016,-0.099 0.016,-0.164l-0,-0.217l-0.142,0l-0,0.684Z" style="fill:#00656c;fill-rule:nonzero;"/></g><g transform="matrix(11,0,0,11,302.401,575.559)"><path d="M0.263,0.011c0.053,0 0.104,-0.01 0.139,-0.027l0.008,-0.093c-0.032,0.013 -0.064,0.02 -0.094,0.02c-0.051,0 -0.076,-0.022 -0.076,-0.076l0,-0.255l0.17,-0l0,-0.093l-0.17,0l0,-0.15l-0.142,0.037l0,0.113l-0.082,0l0,0.093l0.082,-0l0,0.278c0,0.104 0.055,0.153 0.165,0.153Z" style="fill:#00656c;fill-rule:nonzero;"/></g><g transform="matrix(11,0,0,11,307.111,575.559)"><path d="M0.575,-0.513l-0.142,0l-0,0.239c-0,0.115 -0.055,0.186 -0.144,0.186c-0.067,0 -0.101,-0.035 -0.101,-0.101l0,-0.324l-0.142,0l0,0.358c0,0.108 0.063,0.164 0.181,0.164c0.106,0 0.179,-0.047 0.222,-0.144l0.01,0.004c-0.02,0.058 -0.027,0.093 -0.027,0.131l0.143,0l-0,-0.513Z" style="fill:#00656c;fill-rule:nonzero;"/></g><g transform="matrix(11,0,0,11,313.97,575.559)"><path d="M0.049,-0l0.142,-0l-0,-0.214c-0,-0.134 0.041,-0.183 0.15,-0.191l0.07,-0.006l-0.017,-0.118c-0.115,0.009 -0.168,0.045 -0.221,0.152l-0.009,-0.005c0.023,-0.068 0.028,-0.096 0.027,-0.131l-0.142,0l-0,0.513Z" style="fill:#00656c;fill-rule:nonzero;"/></g><g transform="matrix(11,0,0,11,318.497,575.559)"><path d="M0.188,0.013c0.115,-0 0.198,-0.052 0.229,-0.138l0.01,0.002c-0.019,0.095 0.001,0.136 0.113,0.136c0.014,-0 0.028,-0.002 0.04,-0.004l0.017,-0.084l-0.025,-0.001c-0.027,-0 -0.034,-0.007 -0.034,-0.041l-0,-0.235c-0,-0.116 -0.078,-0.172 -0.242,-0.172c-0.175,0 -0.263,0.069 -0.256,0.188l0.14,0.012c-0.006,-0.079 0.034,-0.114 0.113,-0.114c0.07,-0 0.103,0.025 0.103,0.084l0,0.029l-0.138,0.026c-0.139,0.026 -0.231,0.07 -0.231,0.177l0,0.001c0,0.085 0.058,0.134 0.161,0.134Zm0.057,-0.095c-0.048,-0 -0.074,-0.017 -0.074,-0.052l-0,-0.001c-0,-0.051 0.045,-0.071 0.135,-0.089l0.09,-0.017l0,0.024c0,0.078 -0.07,0.135 -0.151,0.135Z" style="fill:#00656c;fill-rule:nonzero;"/></g><g transform="matrix(11,0,0,11,327.375,575.559)"><path d="M0.295,0.01c0.17,0 0.254,-0.055 0.254,-0.154c-0,-0.105 -0.095,-0.136 -0.176,-0.154l-0.08,-0.019c-0.081,-0.019 -0.119,-0.036 -0.119,-0.071c0,-0.035 0.037,-0.051 0.106,-0.051c0.08,-0 0.122,0.023 0.12,0.091l0.134,-0.015c-0.001,-0.106 -0.085,-0.161 -0.254,-0.161c-0.161,0 -0.241,0.056 -0.241,0.153c-0,0.088 0.083,0.123 0.163,0.143l0.081,0.02c0.08,0.02 0.125,0.036 0.125,0.078c-0,0.038 -0.04,0.056 -0.114,0.056c-0.086,-0 -0.133,-0.033 -0.132,-0.106l-0.137,0.016c0.003,0.118 0.091,0.174 0.27,0.174Z" style="fill:#00656c;fill-rule:nonzero;"/></g><g transform="matrix(11,0,0,11,333.535,575.559)"><path d="M0.041,0.183c0.215,-0.013 0.284,-0.057 0.357,-0.242l0.171,-0.454l-0.141,0l-0.095,0.282c-0.014,0.039 -0.024,0.078 -0.034,0.124l-0.01,-0c-0.009,-0.046 -0.02,-0.085 -0.035,-0.124l-0.104,-0.282l-0.146,0l0.215,0.518l-0.007,0.021c-0.008,0.02 -0.026,0.031 -0.097,0.036l-0.09,0.007l0.016,0.114Z" style="fill:#00656c;fill-rule:nonzero;"/></g><g transform="matrix(11,0,0,11,339.717,575.559)"><path d="M0.295,0.01c0.17,0 0.254,-0.055 0.254,-0.154c-0,-0.105 -0.095,-0.136 -0.176,-0.154l-0.08,-0.019c-0.081,-0.019 -0.119,-0.036 -0.119,-0.071c0,-0.035 0.037,-0.051 0.106,-0.051c0.08,-0 0.122,0.023 0.12,0.091l0.134,-0.015c-0.001,-0.106 -0.085,-0.161 -0.254,-0.161c-0.161,0 -0.241,0.056 -0.241,0.153c-0,0.088 0.083,0.123 0.163,0.143l0.081,0.02c0.08,0.02 0.125,0.036 0.125,0.078c-0,0.038 -0.04,0.056 -0.114,0.056c-0.086,-0 -0.133,-0.033 -0.132,-0.106l-0.137,0.016c0.003,0.118 0.091,0.174 0.27,0.174Z" style="fill:#00656c;fill-rule:nonzero;"/></g><g transform="matrix(11,0,0,11,345.898,575.559)"><path d="M0.263,0.011c0.053,0 0.104,-0.01 0.139,-0.027l0.008,-0.093c-0.032,0.013 -0.064,0.02 -0.094,0.02c-0.051,0 -0.076,-0.022 -0.076,-0.076l0,-0.255l0.17,-0l0,-0.093l-0.17,0l0,-0.15l-0.142,0.037l0,0.113l-0.082,0l0,0.093l0.082,-0l0,0.278c0,0.104 0.055,0.153 0.165,0.153Z" style="fill:#00656c;fill-rule:nonzero;"/></g><g transform="matrix(11,0,0,11,350.506,575.559)"><path d="M0.478,-0.684l-0.136,0l-0.081,0.125l0.103,0l0.114,-0.125Zm-0.025,0.507c-0.013,0.071 -0.059,0.101 -0.133,0.101c-0.086,0 -0.139,-0.046 -0.142,-0.143l0.41,0c0.003,-0.024 0.004,-0.043 0.004,-0.064c0,-0.154 -0.098,-0.241 -0.273,-0.241c-0.183,-0 -0.285,0.091 -0.285,0.253l-0,0.029c-0,0.166 0.102,0.254 0.283,0.254c0.16,-0 0.255,-0.059 0.277,-0.175l-0.141,-0.014Zm-0.133,-0.26c0.083,0 0.129,0.044 0.129,0.123l-0,0.007l-0.27,0c0.008,-0.085 0.057,-0.13 0.141,-0.13Z" style="fill:#00656c;fill-rule:nonzero;"/></g><g transform="matrix(11,0,0,11,357.418,575.559)"><path d="M0.049,-0l0.142,-0l-0,-0.234c-0,-0.114 0.047,-0.184 0.126,-0.184c0.057,-0 0.087,0.03 0.087,0.087l0,0.331l0.142,-0l0,-0.241c0,-0.107 0.045,-0.177 0.125,-0.177c0.058,-0 0.088,0.03 0.088,0.086l0,0.332l0.142,-0l0,-0.364c0,-0.103 -0.055,-0.155 -0.162,-0.155c-0.099,0 -0.166,0.046 -0.21,0.147l-0.009,-0.002c0.011,-0.093 -0.04,-0.145 -0.141,-0.145c-0.094,0 -0.156,0.043 -0.204,0.144l-0.01,-0.004c0.021,-0.064 0.027,-0.097 0.026,-0.13l-0.142,-0l-0,0.509Z" style="fill:#00656c;fill-rule:nonzero;"/></g><g transform="matrix(11,0,0,11,367.843,575.559)"><path d="M0.575,-0.513l-0.142,0l-0,0.239c-0,0.115 -0.055,0.186 -0.144,0.186c-0.067,0 -0.101,-0.035 -0.101,-0.101l0,-0.324l-0.142,0l0,0.358c0,0.108 0.063,0.164 0.181,0.164c0.106,0 0.179,-0.047 0.222,-0.144l0.01,0.004c-0.02,0.058 -0.027,0.093 -0.027,0.131l0.143,0l-0,-0.513Z" style="fill:#00656c;fill-rule:nonzero;"/></g><g transform="matrix(11,0,0,11,250.993,586.559)"><path d="M0.373,-0.684l-0.318,0l0,0.684l0.144,-0l0,-0.251l0.174,-0c0.159,-0 0.24,-0.074 0.24,-0.215l0,-0.002c0,-0.142 -0.081,-0.216 -0.24,-0.216Zm-0.03,0.336l-0.144,-0l0,-0.239l0.144,0c0.085,0 0.126,0.039 0.126,0.119l-0,0.002c-0,0.08 -0.041,0.118 -0.126,0.118Z" style="fill:#00656c;fill-rule:nonzero;"/></g><g transform="matrix(11,0,0,11,257.986,586.559)"><path d="M0.049,-0l0.142,-0l-0,-0.214c-0,-0.134 0.041,-0.183 0.15,-0.191l0.07,-0.006l-0.017,-0.118c-0.115,0.009 -0.168,0.045 -0.221,0.152l-0.009,-0.005c0.023,-0.068 0.028,-0.096 0.027,-0.131l-0.142,0l-0,0.513Z" style="fill:#00656c;fill-rule:nonzero;"/></g><g transform="matrix(11,0,0,11,262.514,586.559)"><path d="M0.188,0.013c0.115,-0 0.198,-0.052 0.229,-0.138l0.01,0.002c-0.019,0.095 0.001,0.136 0.113,0.136c0.014,-0 0.028,-0.002 0.04,-0.004l0.017,-0.084l-0.025,-0.001c-0.027,-0 -0.034,-0.007 -0.034,-0.041l-0,-0.235c-0,-0.116 -0.078,-0.172 -0.242,-0.172c-0.175,0 -0.263,0.069 -0.256,0.188l0.14,0.012c-0.006,-0.079 0.034,-0.114 0.113,-0.114c0.07,-0 0.103,0.025 0.103,0.084l0,0.029l-0.138,0.026c-0.139,0.026 -0.231,0.07 -0.231,0.177l0,0.001c0,0.085 0.058,0.134 0.161,0.134Zm0.057,-0.095c-0.048,-0 -0.074,-0.017 -0.074,-0.052l-0,-0.001c-0,-0.051 0.045,-0.071 0.135,-0.089l0.09,-0.017l0,0.024c0,0.078 -0.07,0.135 -0.151,0.135Z" style="fill:#00656c;fill-rule:nonzero;"/></g><g transform="matrix(11,0,0,11,268.803,586.559)"><path d="M0.203,-0l0.17,-0l0.197,-0.513l-0.142,0l-0.086,0.237c-0.017,0.049 -0.032,0.098 -0.047,0.155l-0.009,0c-0.015,-0.057 -0.03,-0.106 -0.048,-0.155l-0.087,-0.237l-0.147,0l0.199,0.513Z" style="fill:#00656c;fill-rule:nonzero;"/></g><g transform="matrix(11,0,0,11,275.119,586.559)"><path d="M0.045,-0.573l0.153,-0l-0,-0.103l-0.153,0l-0,0.103Zm0.005,0.573l0.142,-0l0,-0.513l-0.142,0l0,0.513Z" style="fill:#00656c;fill-rule:nonzero;"/></g><g transform="matrix(11,0,0,11,277.788,586.559)"><path d="M0.257,0.009c0.106,0 0.175,-0.049 0.209,-0.137l0.011,0.003c-0.017,0.054 -0.026,0.097 -0.026,0.125l0.143,-0l0,-0.684l-0.142,0l0,0.14c0,0.053 0.007,0.097 0.025,0.156l-0.01,0.004c-0.034,-0.088 -0.104,-0.139 -0.21,-0.139c-0.146,0 -0.223,0.089 -0.223,0.26l-0,0.013c-0,0.17 0.077,0.259 0.223,0.259Zm0.054,-0.088c-0.088,0 -0.134,-0.056 -0.134,-0.167l0,-0.022c0,-0.111 0.046,-0.168 0.134,-0.168c0.092,-0 0.141,0.06 0.141,0.17l0,0.018c0,0.11 -0.049,0.169 -0.141,0.169Z" style="fill:#00656c;fill-rule:nonzero;"/></g><g transform="matrix(11,0,0,11,284.862,586.559)"><rect x="0.049" y="-0.684" width="0.142" height="0.684" style="fill:#00656c;fill-rule:nonzero;"/></g><g transform="matrix(11,0,0,11,287.499,586.559)"><path d="M0.188,0.013c0.115,-0 0.198,-0.052 0.229,-0.138l0.01,0.002c-0.019,0.095 0.001,0.136 0.113,0.136c0.014,-0 0.028,-0.002 0.04,-0.004l0.017,-0.084l-0.025,-0.001c-0.027,-0 -0.034,-0.007 -0.034,-0.041l-0,-0.235c-0,-0.116 -0.078,-0.172 -0.242,-0.172c-0.175,0 -0.263,0.069 -0.256,0.188l0.14,0.012c-0.006,-0.079 0.034,-0.114 0.113,-0.114c0.07,-0 0.103,0.025 0.103,0.084l0,0.029l-0.138,0.026c-0.139,0.026 -0.231,0.07 -0.231,0.177l0,0.001c0,0.085 0.058,0.134 0.161,0.134Zm0.057,-0.095c-0.048,-0 -0.074,-0.017 -0.074,-0.052l-0,-0.001c-0,-0.051 0.045,-0.071 0.135,-0.089l0.09,-0.017l0,0.024c0,0.078 -0.07,0.135 -0.151,0.135Z" style="fill:#00656c;fill-rule:nonzero;"/></g><g transform="matrix(11,0,0,11,296.377,586.559)"><path d="M0.295,0.01c0.17,0 0.254,-0.055 0.254,-0.154c-0,-0.105 -0.095,-0.136 -0.176,-0.154l-0.08,-0.019c-0.081,-0.019 -0.119,-0.036 -0.119,-0.071c0,-0.035 0.037,-0.051 0.106,-0.051c0.08,-0 0.122,0.023 0.12,0.091l0.134,-0.015c-0.001,-0.106 -0.085,-0.161 -0.254,-0.161c-0.161,0 -0.241,0.056 -0.241,0.153c-0,0.088 0.083,0.123 0.163,0.143l0.081,0.02c0.08,0.02 0.125,0.036 0.125,0.078c-0,0.038 -0.04,0.056 -0.114,0.056c-0.086,-0 -0.133,-0.033 -0.132,-0.106l-0.137,0.016c0.003,0.118 0.091,0.174 0.27,0.174Z" style="fill:#00656c;fill-rule:nonzero;"/></g><g transform="matrix(11,0,0,11,302.537,586.559)"><path d="M0.041,0.183c0.215,-0.013 0.284,-0.057 0.357,-0.242l0.171,-0.454l-0.141,0l-0.095,0.282c-0.014,0.039 -0.024,0.078 -0.034,0.124l-0.01,-0c-0.009,-0.046 -0.02,-0.085 -0.035,-0.124l-0.104,-0.282l-0.146,0l0.215,0.518l-0.007,0.021c-0.008,0.02 -0.026,0.031 -0.097,0.036l-0.09,0.007l0.016,0.114Z" style="fill:#00656c;fill-rule:nonzero;"/></g><g transform="matrix(11,0,0,11,308.719,586.559)"><path d="M0.295,0.01c0.17,0 0.254,-0.055 0.254,-0.154c-0,-0.105 -0.095,-0.136 -0.176,-0.154l-0.08,-0.019c-0.081,-0.019 -0.119,-0.036 -0.119,-0.071c0,-0.035 0.037,-0.051 0.106,-0.051c0.08,-0 0.122,0.023 0.12,0.091l0.134,-0.015c-0.001,-0.106 -0.085,-0.161 -0.254,-0.161c-0.161,0 -0.241,0.056 -0.241,0.153c-0,0.088 0.083,0.123 0.163,0.143l0.081,0.02c0.08,0.02 0.125,0.036 0.125,0.078c-0,0.038 -0.04,0.056 -0.114,0.056c-0.086,-0 -0.133,-0.033 -0.132,-0.106l-0.137,0.016c0.003,0.118 0.091,0.174 0.27,0.174Z" style="fill:#00656c;fill-rule:nonzero;"/></g><g transform="matrix(11,0,0,11,314.901,586.559)"><path d="M0.263,0.011c0.053,0 0.104,-0.01 0.139,-0.027l0.008,-0.093c-0.032,0.013 -0.064,0.02 -0.094,0.02c-0.051,0 -0.076,-0.022 -0.076,-0.076l0,-0.255l0.17,-0l0,-0.093l-0.17,0l0,-0.15l-0.142,0.037l0,0.113l-0.082,0l0,0.093l0.082,-0l0,0.278c0,0.104 0.055,0.153 0.165,0.153Z" style="fill:#00656c;fill-rule:nonzero;"/></g><g transform="matrix(11,0,0,11,319.509,586.559)"><path d="M0.478,-0.684l-0.136,0l-0.081,0.125l0.103,0l0.114,-0.125Zm-0.025,0.507c-0.013,0.071 -0.059,0.101 -0.133,0.101c-0.086,0 -0.139,-0.046 -0.142,-0.143l0.41,0c0.003,-0.024 0.004,-0.043 0.004,-0.064c0,-0.154 -0.098,-0.241 -0.273,-0.241c-0.183,-0 -0.285,0.091 -0.285,0.253l-0,0.029c-0,0.166 0.102,0.254 0.283,0.254c0.16,-0 0.255,-0.059 0.277,-0.175l-0.141,-0.014Zm-0.133,-0.26c0.083,0 0.129,0.044 0.129,0.123l-0,0.007l-0.27,0c0.008,-0.085 0.057,-0.13 0.141,-0.13Z" style="fill:#00656c;fill-rule:nonzero;"/></g><g transform="matrix(11,0,0,11,326.421,586.559)"><path d="M0.049,-0l0.142,-0l-0,-0.234c-0,-0.114 0.047,-0.184 0.126,-0.184c0.057,-0 0.087,0.03 0.087,0.087l0,0.331l0.142,-0l0,-0.241c0,-0.107 0.045,-0.177 0.125,-0.177c0.058,-0 0.088,0.03 0.088,0.086l0,0.332l0.142,-0l0,-0.364c0,-0.103 -0.055,-0.155 -0.162,-0.155c-0.099,0 -0.166,0.046 -0.21,0.147l-0.009,-0.002c0.011,-0.093 -0.04,-0.145 -0.141,-0.145c-0.094,0 -0.156,0.043 -0.204,0.144l-0.01,-0.004c0.021,-0.064 0.027,-0.097 0.026,-0.13l-0.142,-0l-0,0.509Z" style="fill:#00656c;fill-rule:nonzero;"/></g><g transform="matrix(11,0,0,11,336.846,586.559)"><path d="M0.575,-0.513l-0.142,0l-0,0.239c-0,0.115 -0.055,0.186 -0.144,0.186c-0.067,0 -0.101,-0.035 -0.101,-0.101l0,-0.324l-0.142,0l0,0.358c0,0.108 0.063,0.164 0.181,0.164c0.106,0 0.179,-0.047 0.222,-0.144l0.01,0.004c-0.02,0.058 -0.027,0.093 -0.027,0.131l0.143,0l-0,-0.513Z" style="fill:#00656c;fill-rule:nonzero;"/></g></g><g transform="matrix(4.16667,0,0,4.16667,-44.4175,-2229.33)"><g transform="matrix(11,0,0,11,191.521,597.559)"><path d="M0.373,-0.684l-0.318,0l0,0.684l0.144,-0l0,-0.251l0.174,-0c0.159,-0 0.24,-0.074 0.24,-0.215l0,-0.002c0,-0.142 -0.081,-0.216 -0.24,-0.216Zm-0.03,0.336l-0.144,-0l0,-0.239l0.144,0c0.085,0 0.126,0.039 0.126,0.119l-0,0.002c-0,0.08 -0.041,0.118 -0.126,0.118Z" style="fill:#00656c;fill-rule:nonzero;"/></g><g transform="matrix(11,0,0,11,198.435,597.559)"><path d="M0.316,0.012c0.184,0 0.283,-0.093 0.283,-0.265l-0,-0.006c-0,-0.172 -0.099,-0.266 -0.283,-0.266c-0.184,0 -0.282,0.094 -0.282,0.266l-0,0.006c-0,0.172 0.098,0.265 0.282,0.265Zm0,-0.09c-0.09,0 -0.137,-0.056 -0.137,-0.167l0,-0.023c0,-0.111 0.047,-0.167 0.137,-0.167c0.09,-0 0.137,0.056 0.137,0.167l0,0.023c0,0.111 -0.047,0.167 -0.137,0.167Z" style="fill:#00656c;fill-rule:nonzero;"/></g><g transform="matrix(11,0,0,11,205.381,597.559)"><path d="M0.295,0.01c0.17,0 0.254,-0.055 0.254,-0.154c-0,-0.105 -0.095,-0.136 -0.176,-0.154l-0.08,-0.019c-0.081,-0.019 -0.119,-0.036 -0.119,-0.071c0,-0.035 0.037,-0.051 0.106,-0.051c0.08,-0 0.122,0.023 0.12,0.091l0.134,-0.015c-0.001,-0.106 -0.085,-0.161 -0.254,-0.161c-0.161,0 -0.241,0.056 -0.241,0.153c-0,0.088 0.083,0.123 0.163,0.143l0.081,0.02c0.08,0.02 0.125,0.036 0.125,0.078c-0,0.038 -0.04,0.056 -0.114,0.056c-0.086,-0 -0.133,-0.033 -0.132,-0.106l-0.137,0.016c0.003,0.118 0.091,0.174 0.27,0.174Z" style="fill:#00656c;fill-rule:nonzero;"/></g><g transform="matrix(11,0,0,11,211.709,597.559)"><path d="M0.045,-0.573l0.153,-0l-0,-0.103l-0.153,0l-0,0.103Zm0.005,0.573l0.142,-0l0,-0.513l-0.142,0l0,0.513Z" style="fill:#00656c;fill-rule:nonzero;"/></g><g transform="matrix(11,0,0,11,214.38,597.559)"><rect x="0.049" y="-0.684" width="0.142" height="0.684" style="fill:#00656c;fill-rule:nonzero;"/></g><g transform="matrix(11,0,0,11,217.018,597.559)"><path d="M0.575,-0.513l-0.142,0l-0,0.239c-0,0.115 -0.055,0.186 -0.144,0.186c-0.067,0 -0.101,-0.035 -0.101,-0.101l0,-0.324l-0.142,0l0,0.358c0,0.108 0.063,0.164 0.181,0.164c0.106,0 0.179,-0.047 0.222,-0.144l0.01,0.004c-0.02,0.058 -0.027,0.093 -0.027,0.131l0.143,0l-0,-0.513Z" style="fill:#00656c;fill-rule:nonzero;"/></g><g transform="matrix(11,0,0,11,223.878,597.559)"><path d="M0.046,-0.573l0.153,-0l-0,-0.103l-0.153,0l0,0.103Zm-0.098,0.755c0.169,-0.004 0.245,-0.06 0.245,-0.208l0,-0.487l-0.141,0l-0,0.522c-0,0.047 -0.019,0.063 -0.069,0.067l-0.049,0.003l0.014,0.103Z" style="fill:#00656c;fill-rule:nonzero;"/></g><g transform="matrix(11,0,0,11,226.559,597.559)"><path d="M0.102,-0.684l-0.036,0.125l0.108,0l0.058,-0.125l-0.13,0Zm-0.053,0.684l0.142,-0l-0,-0.513l-0.142,0l-0,0.513Z" style="fill:#00656c;fill-rule:nonzero;"/></g><g transform="matrix(11,0,0,11,229.198,597.559)"><path d="M0.316,0.012c0.167,0 0.261,-0.067 0.275,-0.198l-0.143,-0.016c-0.006,0.082 -0.051,0.124 -0.132,0.124c-0.09,-0 -0.137,-0.057 -0.137,-0.169l0,-0.024c0,-0.109 0.048,-0.164 0.136,-0.164c0.081,-0 0.124,0.045 0.13,0.136l0.142,-0.016c-0.011,-0.138 -0.102,-0.21 -0.272,-0.21c-0.184,0 -0.281,0.09 -0.281,0.263l-0,0.007c-0,0.175 0.096,0.267 0.282,0.267Z" style="fill:#00656c;fill-rule:nonzero;"/></g><g transform="matrix(11,0,0,11,236.058,597.559)"><path d="M0.102,-0.684l-0.036,0.125l0.108,0l0.058,-0.125l-0.13,0Zm-0.053,0.684l0.142,-0l-0,-0.513l-0.142,0l-0,0.513Z" style="fill:#00656c;fill-rule:nonzero;"/></g><g transform="matrix(11,0,0,11,240.878,597.559)"><path d="M0.021,-0l0.488,-0l-0,-0.093l-0.221,-0c-0.023,-0 -0.043,0 -0.061,0.001l-0.003,-0.006c0.015,-0.019 0.025,-0.033 0.037,-0.051l0.244,-0.355l-0.003,-0.009l-0.469,0l-0,0.093l0.207,0c0.022,0 0.036,0 0.055,-0.001l0.003,0.007c-0.011,0.015 -0.021,0.027 -0.031,0.044l-0.249,0.362l0.003,0.008Z" style="fill:#00656c;fill-rule:nonzero;"/></g><g transform="matrix(11,0,0,11,246.658,597.559)"><path d="M0.386,-0.522c-0.106,0 -0.175,0.049 -0.209,0.137l-0.01,-0.003c0.016,-0.054 0.025,-0.096 0.025,-0.125l-0.143,0l-0,0.684l0.142,-0l-0,-0.139c-0,-0.054 -0.007,-0.097 -0.025,-0.157l0.01,-0.003c0.034,0.087 0.104,0.138 0.21,0.138c0.146,0 0.223,-0.089 0.223,-0.26l0,-0.012c0,-0.171 -0.077,-0.26 -0.223,-0.26Zm-0.054,0.088c0.088,-0 0.134,0.056 0.134,0.167l0,0.022c0,0.112 -0.046,0.168 -0.134,0.168c-0.091,0 -0.141,-0.059 -0.141,-0.17l-0,-0.018c-0,-0.11 0.05,-0.169 0.141,-0.169Z" style="fill:#00656c;fill-rule:nonzero;"/></g><g transform="matrix(11,0,0,11,253.733,597.559)"><path d="M0.378,-0.559l0.109,-0.125l-0.103,0l-0.069,0.062l-0.07,-0.062l-0.103,0l0.109,0.125l0.127,0Zm0.075,0.382c-0.013,0.071 -0.059,0.101 -0.133,0.101c-0.086,0 -0.139,-0.046 -0.142,-0.143l0.41,0c0.003,-0.024 0.004,-0.043 0.004,-0.064c0,-0.154 -0.098,-0.241 -0.273,-0.241c-0.183,-0 -0.285,0.091 -0.285,0.253l-0,0.029c-0,0.166 0.102,0.254 0.283,0.254c0.16,-0 0.255,-0.059 0.277,-0.175l-0.141,-0.014Zm-0.133,-0.26c0.083,0 0.129,0.044 0.129,0.123l-0,0.007l-0.27,0c0.008,-0.085 0.057,-0.13 0.141,-0.13Z" style="fill:#00656c;fill-rule:nonzero;"/></g><g transform="matrix(11,0,0,11,260.512,597.559)"><path d="M0.263,0.011c0.053,0 0.104,-0.01 0.139,-0.027l0.008,-0.093c-0.032,0.013 -0.064,0.02 -0.094,0.02c-0.051,0 -0.076,-0.022 -0.076,-0.076l0,-0.255l0.17,-0l0,-0.093l-0.17,0l0,-0.15l-0.142,0.037l0,0.113l-0.082,0l0,0.093l0.082,-0l0,0.278c0,0.104 0.055,0.153 0.165,0.153Z" style="fill:#00656c;fill-rule:nonzero;"/></g><g transform="matrix(11,0,0,11,265.224,597.559)"><path d="M0.049,-0l0.142,-0l-0,-0.238c-0,-0.116 0.054,-0.187 0.144,-0.187c0.067,0 0.1,0.035 0.1,0.101l0,0.324l0.142,0l0,-0.358c0,-0.107 -0.063,-0.164 -0.18,-0.164c-0.106,0 -0.179,0.047 -0.222,0.145l-0.01,-0.005c0.02,-0.058 0.026,-0.093 0.026,-0.131l-0.142,0l-0,0.513Z" style="fill:#00656c;fill-rule:nonzero;"/></g><g transform="matrix(11,0,0,11,272.084,597.559)"><path d="M0.478,-0.684l-0.136,0l-0.081,0.125l0.103,0l0.114,-0.125Zm-0.025,0.507c-0.013,0.071 -0.059,0.101 -0.133,0.101c-0.086,0 -0.139,-0.046 -0.142,-0.143l0.41,0c0.003,-0.024 0.004,-0.043 0.004,-0.064c0,-0.154 -0.098,-0.241 -0.273,-0.241c-0.183,-0 -0.285,0.091 -0.285,0.253l-0,0.029c-0,0.166 0.102,0.254 0.283,0.254c0.16,-0 0.255,-0.059 0.277,-0.175l-0.141,-0.014Zm-0.133,-0.26c0.083,0 0.129,0.044 0.129,0.123l-0,0.007l-0.27,0c0.008,-0.085 0.057,-0.13 0.141,-0.13Z" style="fill:#00656c;fill-rule:nonzero;"/></g><g transform="matrix(11,0,0,11,281.115,597.559)"><path d="M0.203,-0l0.17,-0l0.197,-0.513l-0.142,0l-0.086,0.237c-0.017,0.049 -0.032,0.098 -0.047,0.155l-0.009,0c-0.015,-0.057 -0.03,-0.106 -0.048,-0.155l-0.087,-0.237l-0.147,0l0.199,0.513Z" style="fill:#00656c;fill-rule:nonzero;"/></g><g transform="matrix(11,0,0,11,287.255,597.559)"><path d="M0.188,0.013c0.115,-0 0.198,-0.052 0.229,-0.138l0.01,0.002c-0.019,0.095 0.001,0.136 0.113,0.136c0.014,-0 0.028,-0.002 0.04,-0.004l0.017,-0.084l-0.025,-0.001c-0.027,-0 -0.034,-0.007 -0.034,-0.041l-0,-0.235c-0,-0.116 -0.078,-0.172 -0.242,-0.172c-0.175,0 -0.263,0.069 -0.256,0.188l0.14,0.012c-0.006,-0.079 0.034,-0.114 0.113,-0.114c0.07,-0 0.103,0.025 0.103,0.084l0,0.029l-0.138,0.026c-0.139,0.026 -0.231,0.07 -0.231,0.177l0,0.001c0,0.085 0.058,0.134 0.161,0.134Zm0.057,-0.095c-0.048,-0 -0.074,-0.017 -0.074,-0.052l-0,-0.001c-0,-0.051 0.045,-0.071 0.135,-0.089l0.09,-0.017l0,0.024c0,0.078 -0.07,0.135 -0.151,0.135Z" style="fill:#00656c;fill-rule:nonzero;"/></g><g transform="matrix(11,0,0,11,293.911,597.559)"><path d="M0.021,-0l0.488,-0l-0,-0.093l-0.221,-0c-0.023,-0 -0.043,0 -0.061,0.001l-0.003,-0.006c0.015,-0.019 0.025,-0.033 0.037,-0.051l0.244,-0.355l-0.003,-0.009l-0.469,0l-0,0.093l0.207,0c0.022,0 0.036,0 0.055,-0.001l0.003,0.007c-0.011,0.015 -0.021,0.027 -0.031,0.044l-0.249,0.362l0.003,0.008Z" style="fill:#00656c;fill-rule:nonzero;"/></g><g transform="matrix(11,0,0,11,299.692,597.559)"><path d="M0.386,0.009c0.146,0 0.223,-0.089 0.223,-0.259l0,-0.013c0,-0.171 -0.077,-0.26 -0.223,-0.26c-0.106,0 -0.176,0.051 -0.21,0.139l-0.01,-0.004c0.018,-0.059 0.025,-0.103 0.025,-0.156l-0,-0.14l-0.142,0l-0,0.684l0.143,-0c-0,-0.028 -0.009,-0.071 -0.025,-0.125l0.01,-0.003c0.034,0.088 0.103,0.137 0.209,0.137Zm-0.054,-0.088c-0.091,0 -0.141,-0.059 -0.141,-0.169l-0,-0.018c-0,-0.11 0.05,-0.17 0.141,-0.17c0.088,-0 0.134,0.057 0.134,0.168l0,0.022c0,0.111 -0.046,0.167 -0.134,0.167Z" style="fill:#00656c;fill-rule:nonzero;"/></g><g transform="matrix(11,0,0,11,306.584,597.559)"><path d="M0.041,0.183c0.215,-0.013 0.284,-0.057 0.357,-0.242l0.171,-0.454l-0.141,0l-0.095,0.282c-0.014,0.039 -0.024,0.078 -0.034,0.124l-0.01,-0c-0.009,-0.046 -0.02,-0.085 -0.035,-0.124l-0.104,-0.282l-0.146,0l0.215,0.518l-0.007,0.021c-0.008,0.02 -0.026,0.031 -0.097,0.036l-0.09,0.007l0.016,0.114Z" style="fill:#00656c;fill-rule:nonzero;"/></g><g transform="matrix(11,0,0,11,154.038,608.559)"><path d="M0.244,-0l0.171,-0l0.234,-0.684l-0.145,0l-0.118,0.368c-0.019,0.061 -0.033,0.112 -0.049,0.183l-0.01,-0c-0.015,-0.071 -0.029,-0.122 -0.049,-0.183l-0.118,-0.368l-0.154,0l0.238,0.684Z" style="fill:#00656c;fill-rule:nonzero;"/></g><g transform="matrix(11,0,0,11,161.075,608.559)"><path d="M0.041,0.183c0.215,-0.013 0.284,-0.057 0.357,-0.242l0.171,-0.454l-0.141,0l-0.095,0.282c-0.014,0.039 -0.024,0.078 -0.034,0.124l-0.01,-0c-0.009,-0.046 -0.02,-0.085 -0.035,-0.124l-0.104,-0.282l-0.146,0l0.215,0.518l-0.007,0.021c-0.008,0.02 -0.026,0.031 -0.097,0.036l-0.09,0.007l0.016,0.114Z" style="fill:#00656c;fill-rule:nonzero;"/></g><g transform="matrix(11,0,0,11,167.441,608.559)"><path d="M0.203,-0l0.17,-0l0.197,-0.513l-0.142,0l-0.086,0.237c-0.017,0.049 -0.032,0.098 -0.047,0.155l-0.009,0c-0.015,-0.057 -0.03,-0.106 -0.048,-0.155l-0.087,-0.237l-0.147,0l0.199,0.513Z" style="fill:#00656c;fill-rule:nonzero;"/></g><g transform="matrix(11,0,0,11,173.581,608.559)"><path d="M0.188,0.013c0.115,-0 0.198,-0.052 0.229,-0.138l0.01,0.002c-0.019,0.095 0.001,0.136 0.113,0.136c0.014,-0 0.028,-0.002 0.04,-0.004l0.017,-0.084l-0.025,-0.001c-0.027,-0 -0.034,-0.007 -0.034,-0.041l-0,-0.235c-0,-0.116 -0.078,-0.172 -0.242,-0.172c-0.175,0 -0.263,0.069 -0.256,0.188l0.14,0.012c-0.006,-0.079 0.034,-0.114 0.113,-0.114c0.07,-0 0.103,0.025 0.103,0.084l0,0.029l-0.138,0.026c-0.139,0.026 -0.231,0.07 -0.231,0.177l0,0.001c0,0.085 0.058,0.134 0.161,0.134Zm0.057,-0.095c-0.048,-0 -0.074,-0.017 -0.074,-0.052l-0,-0.001c-0,-0.051 0.045,-0.071 0.135,-0.089l0.09,-0.017l0,0.024c0,0.078 -0.07,0.135 -0.151,0.135Z" style="fill:#00656c;fill-rule:nonzero;"/></g><g transform="matrix(11,0,0,11,180.236,608.559)"><path d="M0.091,-0.684l0.109,0.125l0.127,0l0.109,-0.125l-0.103,0l-0.069,0.062l-0.07,-0.062l-0.103,0Zm-0.07,0.684l0.488,0l-0,-0.093l-0.221,-0c-0.023,-0 -0.043,0 -0.061,0.001l-0.003,-0.006c0.015,-0.019 0.025,-0.033 0.037,-0.051l0.244,-0.355l-0.003,-0.009l-0.469,0l-0,0.093l0.207,0c0.022,0 0.036,0 0.055,-0.001l0.003,0.007c-0.011,0.015 -0.021,0.027 -0.031,0.044l-0.249,0.362l0.003,0.008Z" style="fill:#00656c;fill-rule:nonzero;"/></g><g transform="matrix(11,0,0,11,186.016,608.559)"><path d="M0.575,-0.513l-0.142,0l-0,0.239c-0,0.115 -0.055,0.186 -0.144,0.186c-0.067,0 -0.101,-0.035 -0.101,-0.101l0,-0.324l-0.142,0l0,0.358c0,0.108 0.063,0.164 0.181,0.164c0.106,0 0.179,-0.047 0.222,-0.144l0.01,0.004c-0.02,0.058 -0.027,0.093 -0.027,0.131l0.143,0l-0,-0.513Z" style="fill:#00656c;fill-rule:nonzero;"/></g><g transform="matrix(11,0,0,11,192.876,608.559)"><path d="M0.046,-0.573l0.153,-0l-0,-0.103l-0.153,0l0,0.103Zm-0.098,0.755c0.169,-0.004 0.245,-0.06 0.245,-0.208l0,-0.487l-0.141,0l-0,0.522c-0,0.047 -0.019,0.063 -0.069,0.067l-0.049,0.003l0.014,0.103Z" style="fill:#00656c;fill-rule:nonzero;"/></g><g transform="matrix(11,0,0,11,195.556,608.559)"><path d="M0.102,-0.684l-0.036,0.125l0.108,0l0.058,-0.125l-0.13,0Zm-0.053,0.684l0.142,-0l-0,-0.513l-0.142,0l-0,0.513Z" style="fill:#00656c;fill-rule:nonzero;"/></g><g transform="matrix(11,0,0,11,198.194,608.559)"><path d="M0.316,0.012c0.167,0 0.261,-0.067 0.275,-0.198l-0.143,-0.016c-0.006,0.082 -0.051,0.124 -0.132,0.124c-0.09,-0 -0.137,-0.057 -0.137,-0.169l0,-0.024c0,-0.109 0.048,-0.164 0.136,-0.164c0.081,-0 0.124,0.045 0.13,0.136l0.142,-0.016c-0.011,-0.138 -0.102,-0.21 -0.272,-0.21c-0.184,0 -0.281,0.09 -0.281,0.263l-0,0.007c-0,0.175 0.096,0.267 0.282,0.267Z" style="fill:#00656c;fill-rule:nonzero;"/></g><g transform="matrix(11,0,0,11,205.054,608.559)"><path d="M0.102,-0.684l-0.036,0.125l0.108,0l0.058,-0.125l-0.13,0Zm-0.053,0.684l0.142,-0l-0,-0.513l-0.142,0l-0,0.513Z" style="fill:#00656c;fill-rule:nonzero;"/></g><g transform="matrix(11,0,0,11,209.873,608.559)"><path d="M0.021,-0l0.488,-0l-0,-0.093l-0.221,-0c-0.023,-0 -0.043,0 -0.061,0.001l-0.003,-0.006c0.015,-0.019 0.025,-0.033 0.037,-0.051l0.244,-0.355l-0.003,-0.009l-0.469,0l-0,0.093l0.207,0c0.022,0 0.036,0 0.055,-0.001l0.003,0.007c-0.011,0.015 -0.021,0.027 -0.031,0.044l-0.249,0.362l0.003,0.008Z" style="fill:#00656c;fill-rule:nonzero;"/></g><g transform="matrix(11,0,0,11,215.653,608.559)"><path d="M0.386,-0.522c-0.106,0 -0.175,0.049 -0.209,0.137l-0.01,-0.003c0.016,-0.054 0.025,-0.096 0.025,-0.125l-0.143,0l-0,0.684l0.142,-0l-0,-0.139c-0,-0.054 -0.007,-0.097 -0.025,-0.157l0.01,-0.003c0.034,0.087 0.104,0.138 0.21,0.138c0.146,0 0.223,-0.089 0.223,-0.26l0,-0.012c0,-0.171 -0.077,-0.26 -0.223,-0.26Zm-0.054,0.088c0.088,-0 0.134,0.056 0.134,0.167l0,0.022c0,0.112 -0.046,0.168 -0.134,0.168c-0.091,0 -0.141,-0.059 -0.141,-0.17l-0,-0.018c-0,-0.11 0.05,-0.169 0.141,-0.169Z" style="fill:#00656c;fill-rule:nonzero;"/></g><g transform="matrix(11,0,0,11,222.728,608.559)"><path d="M0.378,-0.559l0.109,-0.125l-0.103,0l-0.069,0.062l-0.07,-0.062l-0.103,0l0.109,0.125l0.127,0Zm0.075,0.382c-0.013,0.071 -0.059,0.101 -0.133,0.101c-0.086,0 -0.139,-0.046 -0.142,-0.143l0.41,0c0.003,-0.024 0.004,-0.043 0.004,-0.064c0,-0.154 -0.098,-0.241 -0.273,-0.241c-0.183,-0 -0.285,0.091 -0.285,0.253l-0,0.029c-0,0.166 0.102,0.254 0.283,0.254c0.16,-0 0.255,-0.059 0.277,-0.175l-0.141,-0.014Zm-0.133,-0.26c0.083,0 0.129,0.044 0.129,0.123l-0,0.007l-0.27,0c0.008,-0.085 0.057,-0.13 0.141,-0.13Z" style="fill:#00656c;fill-rule:nonzero;"/></g><g transform="matrix(11,0,0,11,229.507,608.559)"><path d="M0.263,0.011c0.053,0 0.104,-0.01 0.139,-0.027l0.008,-0.093c-0.032,0.013 -0.064,0.02 -0.094,0.02c-0.051,0 -0.076,-0.022 -0.076,-0.076l0,-0.255l0.17,-0l0,-0.093l-0.17,0l0,-0.15l-0.142,0.037l0,0.113l-0.082,0l0,0.093l0.082,-0l0,0.278c0,0.104 0.055,0.153 0.165,0.153Z" style="fill:#00656c;fill-rule:nonzero;"/></g><g transform="matrix(11,0,0,11,234.218,608.559)"><path d="M0.049,-0l0.142,-0l-0,-0.238c-0,-0.116 0.054,-0.187 0.144,-0.187c0.067,0 0.1,0.035 0.1,0.101l0,0.324l0.142,0l0,-0.358c0,-0.107 -0.063,-0.164 -0.18,-0.164c-0.106,0 -0.179,0.047 -0.222,0.145l-0.01,-0.005c0.02,-0.058 0.026,-0.093 0.026,-0.131l-0.142,0l-0,0.513Z" style="fill:#00656c;fill-rule:nonzero;"/></g><g transform="matrix(11,0,0,11,241.077,608.559)"><path d="M0.478,-0.684l-0.136,0l-0.081,0.125l0.103,0l0.114,-0.125Zm-0.025,0.507c-0.013,0.071 -0.059,0.101 -0.133,0.101c-0.086,0 -0.139,-0.046 -0.142,-0.143l0.41,0c0.003,-0.024 0.004,-0.043 0.004,-0.064c0,-0.154 -0.098,-0.241 -0.273,-0.241c-0.183,-0 -0.285,0.091 -0.285,0.253l-0,0.029c-0,0.166 0.102,0.254 0.283,0.254c0.16,-0 0.255,-0.059 0.277,-0.175l-0.141,-0.014Zm-0.133,-0.26c0.083,0 0.129,0.044 0.129,0.123l-0,0.007l-0.27,0c0.008,-0.085 0.057,-0.13 0.141,-0.13Z" style="fill:#00656c;fill-rule:nonzero;"/></g><g transform="matrix(11,0,0,11,250.108,608.559)"><path d="M0.203,-0l0.17,-0l0.197,-0.513l-0.142,0l-0.086,0.237c-0.017,0.049 -0.032,0.098 -0.047,0.155l-0.009,0c-0.015,-0.057 -0.03,-0.106 -0.048,-0.155l-0.087,-0.237l-0.147,0l0.199,0.513Z" style="fill:#00656c;fill-rule:nonzero;"/></g><g transform="matrix(11,0,0,11,256.247,608.559)"><path d="M0.188,0.013c0.115,-0 0.198,-0.052 0.229,-0.138l0.01,0.002c-0.019,0.095 0.001,0.136 0.113,0.136c0.014,-0 0.028,-0.002 0.04,-0.004l0.017,-0.084l-0.025,-0.001c-0.027,-0 -0.034,-0.007 -0.034,-0.041l-0,-0.235c-0,-0.116 -0.078,-0.172 -0.242,-0.172c-0.175,0 -0.263,0.069 -0.256,0.188l0.14,0.012c-0.006,-0.079 0.034,-0.114 0.113,-0.114c0.07,-0 0.103,0.025 0.103,0.084l0,0.029l-0.138,0.026c-0.139,0.026 -0.231,0.07 -0.231,0.177l0,0.001c0,0.085 0.058,0.134 0.161,0.134Zm0.057,-0.095c-0.048,-0 -0.074,-0.017 -0.074,-0.052l-0,-0.001c-0,-0.051 0.045,-0.071 0.135,-0.089l0.09,-0.017l0,0.024c0,0.078 -0.07,0.135 -0.151,0.135Z" style="fill:#00656c;fill-rule:nonzero;"/></g><g transform="matrix(11,0,0,11,262.903,608.559)"><path d="M0.021,-0l0.488,-0l-0,-0.093l-0.221,-0c-0.023,-0 -0.043,0 -0.061,0.001l-0.003,-0.006c0.015,-0.019 0.025,-0.033 0.037,-0.051l0.244,-0.355l-0.003,-0.009l-0.469,0l-0,0.093l0.207,0c0.022,0 0.036,0 0.055,-0.001l0.003,0.007c-0.011,0.015 -0.021,0.027 -0.031,0.044l-0.249,0.362l0.003,0.008Z" style="fill:#00656c;fill-rule:nonzero;"/></g><g transform="matrix(11,0,0,11,268.683,608.559)"><path d="M0.386,0.009c0.146,0 0.223,-0.089 0.223,-0.259l0,-0.013c0,-0.171 -0.077,-0.26 -0.223,-0.26c-0.106,0 -0.176,0.051 -0.21,0.139l-0.01,-0.004c0.018,-0.059 0.025,-0.103 0.025,-0.156l-0,-0.14l-0.142,0l-0,0.684l0.143,-0c-0,-0.028 -0.009,-0.071 -0.025,-0.125l0.01,-0.003c0.034,0.088 0.103,0.137 0.209,0.137Zm-0.054,-0.088c-0.091,0 -0.141,-0.059 -0.141,-0.169l-0,-0.018c-0,-0.11 0.05,-0.17 0.141,-0.17c0.088,-0 0.134,0.057 0.134,0.168l0,0.022c0,0.111 -0.046,0.167 -0.134,0.167Z" style="fill:#00656c;fill-rule:nonzero;"/></g><g transform="matrix(11,0,0,11,275.575,608.559)"><path d="M0.041,0.183c0.215,-0.013 0.284,-0.057 0.357,-0.242l0.171,-0.454l-0.141,0l-0.095,0.282c-0.014,0.039 -0.024,0.078 -0.034,0.124l-0.01,-0c-0.009,-0.046 -0.02,-0.085 -0.035,-0.124l-0.104,-0.282l-0.146,0l0.215,0.518l-0.007,0.021c-0.008,0.02 -0.026,0.031 -0.097,0.036l-0.09,0.007l0.016,0.114Z" style="fill:#00656c;fill-rule:nonzero;"/></g></g></g></g><path d="M128.847,863.413l1964.07,-729.784" style="fill:none;fill-rule:nonzero;stroke:#ff8964;stroke-width:62.5px;"/><g><g><path d="M143.818,555.469c14.63,-0 23.311,-5.119 23.311,-14.353c0,-8.267 -6.606,-10.964 -16.67,-13.109l-9.996,-2.11c-10.03,-2.144 -11.31,-4.046 -11.31,-7.194c0,-5.118 4.462,-7.643 13.351,-7.643c10.272,-0 14.837,4.427 15.149,13.489l8.3,-1.591c-0.449,-10.964 -8.612,-17.501 -23.311,-17.501c-13.8,-0 -22.032,4.773 -22.032,13.765c0,7.056 4.981,10.48 14.976,12.624l9.996,2.145c10.099,2.179 12.693,3.943 12.693,8.266c0,5.084 -4.738,7.609 -13.973,7.609c-10.791,-0 -16.29,-3.943 -16.947,-12.693l-8.993,1.591c1.072,10.825 10.411,16.705 25.456,16.705Z" style="fill:#00656c;fill-rule:nonzero;"/><path d="M172.662,567.574c15.529,-1.037 20.925,-3.735 27.254,-16.878l15.806,-32.338l-9.027,-0l-9.373,20.613c-1.349,2.94 -2.559,5.88 -3.77,9.2l-0.692,0c-1.176,-3.32 -2.421,-6.225 -3.908,-9.2l-10.134,-20.613l-9.234,-0l18.884,36.627l-0.969,1.937c-0.968,1.971 -2.524,2.697 -8.577,3.043l-7.367,0.45l1.107,7.159Z" style="fill:#00656c;fill-rule:nonzero;"/><path d="M239.136,555.365c14.215,0 21.028,-3.666 21.028,-10.895c0,-7.989 -8.854,-9.718 -15.806,-10.756l-6.848,-1.072c-6.917,-1.038 -11.171,-2.075 -11.171,-5.188c-0,-3.32 4.012,-4.739 11.621,-4.739c8.439,0 12.97,2.249 12.866,8.301l8.405,-0.934c-0.104,-8.335 -7.16,-12.52 -21.237,-12.52c-13.523,0 -20.198,3.908 -20.198,10.756c-0,7.091 7.886,8.82 14.768,9.892l6.848,1.107c6.883,1.107 11.967,2.11 11.967,6.018c0,3.286 -4.288,4.877 -12.243,4.877c-9.096,-0 -13.939,-2.594 -13.904,-9.235l-8.612,0.899c0.346,9.512 7.574,13.489 22.516,13.489Z" style="fill:#00656c;fill-rule:nonzero;"/><path d="M281.918,555.4c4.877,-0 8.82,-0.796 11.794,-2.214l0.553,-5.603c-3.078,1.315 -6.087,1.972 -8.958,1.972c-4.945,-0 -7.297,-2.145 -7.297,-6.676l-0,-19.057l16.601,0l0,-5.464l-16.601,-0l-0,-10.515l-8.82,2.248l0,8.267l-7.332,-0l-0,5.464l7.332,0l0,20.614c0,7.367 4.151,10.964 12.728,10.964Z" style="fill:#00656c;fill-rule:nonzero;"/><path d="M332.24,506.252l-8.716,0l-6.64,8.681l6.709,0l8.647,-8.681Zm2.594,36.005c-1.453,5.222 -6.433,7.851 -14.042,7.851c-8.474,0 -14.215,-3.804 -14.872,-11.448l37.284,-0c0.173,-1.349 0.242,-2.421 0.242,-3.666c0,-10.722 -8.508,-17.432 -22.758,-17.432c-15.01,0 -23.899,6.987 -23.899,18.677l-0,0.553c-0,12.278 8.889,18.677 23.795,18.677c13.04,-0 21.064,-4.22 23.243,-12.14l-8.993,-1.072Zm-14.042,-19.299c8.543,-0 13.731,4.185 13.731,10.203l-0,0.138l-28.465,-0c1.107,-6.537 6.502,-10.341 14.734,-10.341Z" style="fill:#00656c;fill-rule:nonzero;"/><path d="M349.809,554.673l8.819,0l0,-14.699c0,-9.753 4.566,-15.356 12.728,-15.356c6.26,-0 9.684,2.767 9.684,7.782l0,22.273l8.785,0l0,-15.667c0,-9.131 4.6,-14.388 12.763,-14.388c6.295,-0 9.684,2.767 9.684,7.678l0,22.377l8.82,0l-0,-24.556c-0,-7.747 -5.119,-11.829 -14.423,-11.829c-8.923,0 -14.63,3.701 -17.743,10.826l-0.726,-0.138c0.519,-6.952 -4.151,-10.688 -13.282,-10.688c-8.577,0 -14.111,3.632 -17.224,10.653l-0.726,-0.242c1.349,-4.22 1.833,-7.021 1.799,-9.719l-8.958,0l-0,35.693Z" style="fill:#00656c;fill-rule:nonzero;"/></g></g><path d="M270.267,728.94c107.983,0 195.52,-87.537 195.52,-195.521c0,-107.983 -87.537,-195.525 -195.52,-195.525c-107.984,0 -195.521,87.542 -195.521,195.525c-0,107.984 87.537,195.521 195.521,195.521Z" style="fill:none;fill-rule:nonzero;stroke:#00656c;stroke-width:25px;stroke-linecap:butt;"/><path d="M1278.34,248.833l34.25,0l0,96.534" style="fill:none;fill-rule:nonzero;stroke:#00656c;stroke-width:4.17px;stroke-linecap:butt;"/><path d="M1312.59,368.125l10.633,-29.217l-21.267,0l10.634,29.217Z" style="fill:#00656c;fill-rule:nonzero;"/><path d="M1145.46,294.496l34.25,-0l0,96.533" style="fill:none;fill-rule:nonzero;stroke:#00656c;stroke-width:4.17px;stroke-linecap:butt;"/><path d="M1179.71,413.787l10.633,-29.216l-21.267,-0l10.634,29.216Z" style="fill:#00656c;fill-rule:nonzero;"/><path d="M1405.9,202.186l34.254,0l-0,96.534" style="fill:none;fill-rule:nonzero;stroke:#00656c;stroke-width:4.17px;stroke-linecap:butt;"/><path d="M1440.15,321.478l10.633,-29.217l-21.267,-0l10.634,29.217Z" style="fill:#00656c;fill-rule:nonzero;"/><path d="M1535.23,154.628l34.254,-0l0,96.533" style="fill:none;fill-rule:nonzero;stroke:#00656c;stroke-width:4.17px;stroke-linecap:butt;"/><path d="M1569.48,273.919l10.633,-29.217l-21.267,0l10.634,29.217Z" style="fill:#00656c;fill-rule:nonzero;"/><path d="M1661.02,110.056l34.25,-0l-0,96.533" style="fill:none;fill-rule:nonzero;stroke:#00656c;stroke-width:4.17px;stroke-linecap:butt;"/><path d="M1695.27,229.347l10.633,-29.217l-21.267,0l10.634,29.217Z" style="fill:#00656c;fill-rule:nonzero;"/><path d="M1792.12,66.355l34.25,-0l0,96.533" style="fill:none;fill-rule:nonzero;stroke:#00656c;stroke-width:4.17px;stroke-linecap:butt;"/><path d="M1826.37,185.646l10.633,-29.217l-21.266,0l10.633,29.217Z" style="fill:#00656c;fill-rule:nonzero;"/><path d="M1923.37,21.213l34.254,0l-0,96.533" style="fill:none;fill-rule:nonzero;stroke:#00656c;stroke-width:4.17px;stroke-linecap:butt;"/><path d="M1957.62,140.504l10.633,-29.216l-21.266,-0l10.633,29.216Z" style="fill:#00656c;fill-rule:nonzero;"/><path d="M976.074,863.408l-0,-298.741" style="fill:none;fill-rule:nonzero;stroke:#00656c;stroke-width:62.5px;"/></svg>