<?xml version="1.0" encoding="UTF-8" standalone="no"?><!DOCTYPE svg PUBLIC "-//W3C//DTD SVG 1.1//EN" "http://www.w3.org/Graphics/SVG/1.1/DTD/svg11.dtd"><svg width="100%" height="100%" viewBox="0 0 6044 4738" version="1.1" xmlns="http://www.w3.org/2000/svg" xmlns:xlink="http://www.w3.org/1999/xlink" xml:space="preserve" xmlns:serif="http://www.serif.com/" style="fill-rule:evenodd;clip-rule:evenodd;stroke-linejoin:round;stroke-miterlimit:2;"><path d="M170.833,0l0,2279.17l1845.83,-0c-0,424 -93.463,869.787 -348.896,1216.67c-284.121,385.842 -747.517,579.167 -1201.1,681.25c-100.975,22.709 -201.615,42.584 -304.167,57.375c-53.288,7.667 -108.625,19.25 -162.5,19.709c19.638,101.25 37.723,202.833 56.713,304.166c10.921,58.292 29.562,119.792 30.787,179.167c89.995,-0.75 181.547,-17 270.833,-28c222.563,-27.417 448.175,-70.333 662.5,-137.25c273.505,-85.375 538.117,-196.583 775,-359.875c137.388,-94.667 262.779,-205.083 374.296,-329.042c422.892,-470.075 558.442,-1117.48 600.333,-1729.17c7.95,-116.121 4.538,-233.505 4.538,-350l-0,-1804.17l-2604.17,-0m3262.5,-0l0,2279.17l1850,-0c-16.875,392.537 -77.583,785.146 -289.291,1125c-280.917,451.029 -784.209,662.958 -1281.54,777.083c-95.183,21.833 -190.792,39.292 -287.5,53.208c-53.375,7.709 -108.517,19.25 -162.5,19.709c33.121,160.541 60.45,322.375 91.667,483.333c88.483,-0.75 178.891,-17.167 266.666,-28c222.804,-27.417 447.959,-70.292 662.5,-137.25c279.459,-87.208 545.584,-201.458 787.5,-368.208c127.375,-87.75 249.542,-191.417 351.167,-308.209c94.917,-109.058 179.25,-224.462 251.208,-350c419.625,-731.929 368.459,-1604.08 368.459,-2416.67l-0,-1129.17l-2608.33,0Z" style="fill:#ffffff;fill-rule:nonzero;"/></svg>
