<?xml version="1.0" encoding="UTF-8" standalone="no"?><!DOCTYPE svg PUBLIC "-//W3C//DTD SVG 1.1//EN" "http://www.w3.org/Graphics/SVG/1.1/DTD/svg11.dtd"><svg width="100%" height="100%" viewBox="0 0 2033 665" version="1.1" xmlns="http://www.w3.org/2000/svg" xmlns:xlink="http://www.w3.org/1999/xlink" xml:space="preserve" xmlns:serif="http://www.serif.com/" style="fill-rule:evenodd;clip-rule:evenodd;"><rect x="533.311" y="8.59" width="966.075" height="293.642" style="fill:#fff;"/><g transform="matrix(4.16667,0,0,4.16667,-99.7935,-99.7935)"><g transform="matrix(17,0,0,17,248.616,49.1424)"><path d="M0.286,-0l0.153,-0l0.281,-0.684l-0.128,0l-0.152,0.381c-0.025,0.066 -0.045,0.122 -0.07,0.201l-0.01,-0c-0.025,-0.079 -0.046,-0.135 -0.071,-0.201l-0.152,-0.381l-0.135,0l0.284,0.684Z" style="fill:#00656c;fill-rule:nonzero;"/></g><g transform="matrix(17,0,0,17,260.903,49.1424)"><rect x="0.056" y="-0.684" width="0.126" height="0.684" style="fill:#00656c;fill-rule:nonzero;"/></g><g transform="matrix(17,0,0,17,264.948,49.1424)"><path d="M0.006,-0l0.628,-0l-0,-0.082l-0.372,-0c-0.021,-0 -0.043,0 -0.062,0.002l-0.003,-0.007c0.023,-0.028 0.04,-0.052 0.056,-0.075l0.371,-0.518l-0.001,-0.004l-0.608,0l-0,0.082l0.343,-0c0.03,-0 0.05,-0.001 0.078,-0.002l0.003,0.008c-0.018,0.02 -0.028,0.035 -0.046,0.062l-0.388,0.53l0.001,0.004Z" style="fill:#00656c;fill-rule:nonzero;"/></g><g transform="matrix(17,0,0,17,275.799,49.1424)"><path d="M0.182,-0.081l0,-0.244l0.428,0l-0,-0.075l-0.428,-0l0,-0.204l0.451,0l0,-0.08l-0.577,0l-0,0.684l0.588,-0l-0,-0.081l-0.462,0Z" style="fill:#00656c;fill-rule:nonzero;"/></g><g transform="matrix(11,0,0,11,183.889,62.9724)"><path d="M0.363,0.012c0.191,0 0.298,-0.089 0.314,-0.262l-0.146,-0.027c-0.007,0.127 -0.062,0.187 -0.168,0.187c-0.119,-0 -0.177,-0.077 -0.177,-0.237l0,-0.029c0,-0.161 0.057,-0.237 0.176,-0.237c0.107,-0 0.16,0.059 0.165,0.186l0.143,-0.024c-0.012,-0.174 -0.116,-0.265 -0.308,-0.265c-0.214,0 -0.324,0.121 -0.324,0.353l-0,0.002c-0,0.233 0.11,0.353 0.325,0.353Z" style="fill:#00656c;fill-rule:nonzero;"/></g><g transform="matrix(11,0,0,11,191.736,62.9724)"><path d="M0.049,-0l0.142,-0l-0,-0.238c-0,-0.116 0.054,-0.186 0.144,-0.186c0.067,-0 0.1,0.034 0.1,0.1l0,0.324l0.142,0l0,-0.358c0,-0.107 -0.063,-0.164 -0.18,-0.164c-0.107,0 -0.18,0.047 -0.222,0.144l-0.01,-0.004c0.019,-0.055 0.025,-0.095 0.026,-0.143l-0,-0.159l-0.142,0l-0,0.684Z" style="fill:#00656c;fill-rule:nonzero;"/></g><g transform="matrix(11,0,0,11,198.596,62.9724)"><path d="M0.316,0.012c0.167,0 0.261,-0.067 0.275,-0.198l-0.143,-0.016c-0.006,0.082 -0.051,0.124 -0.132,0.124c-0.09,-0 -0.137,-0.057 -0.137,-0.169l0,-0.024c0,-0.109 0.048,-0.164 0.136,-0.164c0.081,-0 0.124,0.045 0.13,0.136l0.142,-0.016c-0.011,-0.138 -0.102,-0.21 -0.272,-0.21c-0.184,0 -0.281,0.09 -0.281,0.263l-0,0.007c-0,0.175 0.096,0.267 0.282,0.267Z" style="fill:#00656c;fill-rule:nonzero;"/></g><g transform="matrix(11,0,0,11,205.455,62.9724)"><path d="M0.453,-0.177c-0.013,0.071 -0.059,0.101 -0.133,0.101c-0.086,0 -0.139,-0.046 -0.142,-0.143l0.41,0c0.003,-0.024 0.004,-0.043 0.004,-0.064c0,-0.154 -0.098,-0.241 -0.273,-0.241c-0.183,-0 -0.285,0.091 -0.285,0.253l-0,0.029c-0,0.166 0.102,0.254 0.283,0.254c0.16,-0 0.255,-0.059 0.277,-0.175l-0.141,-0.014Zm-0.133,-0.26c0.083,0 0.129,0.044 0.129,0.123l-0,0.007l-0.27,0c0.008,-0.085 0.057,-0.13 0.141,-0.13Z" style="fill:#00656c;fill-rule:nonzero;"/></g><g transform="matrix(11,0,0,11,212.368,62.9724)"><path d="M0.049,-0l0.142,-0l-0,-0.234c-0,-0.114 0.047,-0.184 0.126,-0.184c0.057,-0 0.087,0.03 0.087,0.087l0,0.331l0.142,-0l0,-0.241c0,-0.107 0.045,-0.177 0.125,-0.177c0.058,-0 0.088,0.03 0.088,0.086l0,0.332l0.142,-0l0,-0.364c0,-0.103 -0.055,-0.155 -0.162,-0.155c-0.099,0 -0.166,0.046 -0.21,0.147l-0.009,-0.002c0.011,-0.093 -0.04,-0.145 -0.141,-0.145c-0.094,0 -0.156,0.043 -0.204,0.144l-0.01,-0.004c0.021,-0.064 0.027,-0.097 0.026,-0.13l-0.142,-0l-0,0.509Z" style="fill:#00656c;fill-rule:nonzero;"/></g><g transform="matrix(11,0,0,11,222.793,62.9724)"><path d="M0.453,-0.177c-0.013,0.071 -0.059,0.101 -0.133,0.101c-0.086,0 -0.139,-0.046 -0.142,-0.143l0.41,0c0.003,-0.024 0.004,-0.043 0.004,-0.064c0,-0.154 -0.098,-0.241 -0.273,-0.241c-0.183,-0 -0.285,0.091 -0.285,0.253l-0,0.029c-0,0.166 0.102,0.254 0.283,0.254c0.16,-0 0.255,-0.059 0.277,-0.175l-0.141,-0.014Zm-0.133,-0.26c0.083,0 0.129,0.044 0.129,0.123l-0,0.007l-0.27,0c0.008,-0.085 0.057,-0.13 0.141,-0.13Z" style="fill:#00656c;fill-rule:nonzero;"/></g><g transform="matrix(11,0,0,11,229.54,62.9724)"><path d="M0.041,-0.137l0,0.137l0.074,-0c-0,0.06 -0.025,0.083 -0.084,0.092l0.011,0.054c0.101,-0.01 0.155,-0.058 0.155,-0.169l0,-0.114l-0.156,0Z" style="fill:#00656c;fill-rule:nonzero;"/></g><g transform="matrix(11,0,0,11,234.441,62.9724)"><path d="M0.188,0.013c0.115,-0 0.198,-0.052 0.229,-0.138l0.01,0.002c-0.019,0.095 0.001,0.136 0.113,0.136c0.014,-0 0.028,-0.002 0.04,-0.004l0.017,-0.084l-0.025,-0.001c-0.027,-0 -0.034,-0.007 -0.034,-0.041l-0,-0.235c-0,-0.116 -0.078,-0.172 -0.242,-0.172c-0.175,0 -0.263,0.069 -0.256,0.188l0.14,0.012c-0.006,-0.079 0.034,-0.114 0.113,-0.114c0.07,-0 0.103,0.025 0.103,0.084l0,0.029l-0.138,0.026c-0.139,0.026 -0.231,0.07 -0.231,0.177l0,0.001c0,0.085 0.058,0.134 0.161,0.134Zm0.057,-0.095c-0.048,-0 -0.074,-0.017 -0.074,-0.052l-0,-0.001c-0,-0.051 0.045,-0.071 0.135,-0.089l0.09,-0.017l0,0.024c0,0.078 -0.07,0.135 -0.151,0.135Z" style="fill:#00656c;fill-rule:nonzero;"/></g><g transform="matrix(11,0,0,11,241.123,62.9724)"><path d="M0.386,0.009c0.146,0 0.223,-0.089 0.223,-0.259l0,-0.013c0,-0.171 -0.077,-0.26 -0.223,-0.26c-0.106,0 -0.176,0.051 -0.21,0.139l-0.01,-0.004c0.018,-0.059 0.025,-0.103 0.025,-0.156l-0,-0.14l-0.142,0l-0,0.684l0.143,-0c-0,-0.028 -0.009,-0.071 -0.025,-0.125l0.01,-0.003c0.034,0.088 0.103,0.137 0.209,0.137Zm-0.054,-0.088c-0.091,0 -0.141,-0.059 -0.141,-0.169l-0,-0.018c-0,-0.11 0.05,-0.17 0.141,-0.17c0.088,-0 0.134,0.057 0.134,0.168l0,0.022c0,0.111 -0.046,0.167 -0.134,0.167Z" style="fill:#00656c;fill-rule:nonzero;"/></g><g transform="matrix(11,0,0,11,248.014,62.9724)"><path d="M0.041,0.183c0.215,-0.013 0.284,-0.057 0.357,-0.242l0.171,-0.454l-0.141,0l-0.095,0.282c-0.014,0.039 -0.024,0.078 -0.034,0.124l-0.01,-0c-0.009,-0.046 -0.02,-0.085 -0.035,-0.124l-0.104,-0.282l-0.146,0l0.215,0.518l-0.007,0.021c-0.008,0.02 -0.026,0.031 -0.097,0.036l-0.09,0.007l0.016,0.114Z" style="fill:#00656c;fill-rule:nonzero;"/></g><g transform="matrix(11,0,0,11,256.444,62.9724)"><path d="M0.049,-0l0.142,-0l-0,-0.234c-0,-0.114 0.047,-0.184 0.126,-0.184c0.057,-0 0.087,0.03 0.087,0.087l0,0.331l0.142,-0l0,-0.241c0,-0.107 0.045,-0.177 0.125,-0.177c0.058,-0 0.088,0.03 0.088,0.086l0,0.332l0.142,-0l0,-0.364c0,-0.103 -0.055,-0.155 -0.162,-0.155c-0.099,0 -0.166,0.046 -0.21,0.147l-0.009,-0.002c0.011,-0.093 -0.04,-0.145 -0.141,-0.145c-0.094,0 -0.156,0.043 -0.204,0.144l-0.01,-0.004c0.021,-0.064 0.027,-0.097 0.026,-0.13l-0.142,-0l-0,0.509Z" style="fill:#00656c;fill-rule:nonzero;"/></g><g transform="matrix(11,0,0,11,266.87,62.9724)"><rect x="0.049" y="-0.684" width="0.142" height="0.684" style="fill:#00656c;fill-rule:nonzero;"/></g><g transform="matrix(11,0,0,11,269.507,62.9724)"><path d="M0.188,0.013c0.115,-0 0.198,-0.052 0.229,-0.138l0.01,0.002c-0.019,0.095 0.001,0.136 0.113,0.136c0.014,-0 0.028,-0.002 0.04,-0.004l0.017,-0.084l-0.025,-0.001c-0.027,-0 -0.034,-0.007 -0.034,-0.041l-0,-0.235c-0,-0.116 -0.078,-0.172 -0.242,-0.172c-0.175,0 -0.263,0.069 -0.256,0.188l0.14,0.012c-0.006,-0.079 0.034,-0.114 0.113,-0.114c0.07,-0 0.103,0.025 0.103,0.084l0,0.029l-0.138,0.026c-0.139,0.026 -0.231,0.07 -0.231,0.177l0,0.001c0,0.085 0.058,0.134 0.161,0.134Zm0.057,-0.095c-0.048,-0 -0.074,-0.017 -0.074,-0.052l-0,-0.001c-0,-0.051 0.045,-0.071 0.135,-0.089l0.09,-0.017l0,0.024c0,0.078 -0.07,0.135 -0.151,0.135Z" style="fill:#00656c;fill-rule:nonzero;"/></g><g transform="matrix(11,0,0,11,276.087,62.9724)"><path d="M0.257,0.009c0.106,0 0.175,-0.049 0.209,-0.137l0.011,0.003c-0.017,0.054 -0.026,0.097 -0.026,0.125l0.143,-0l0,-0.684l-0.142,0l0,0.14c0,0.053 0.007,0.097 0.025,0.156l-0.01,0.004c-0.034,-0.088 -0.104,-0.139 -0.21,-0.139c-0.146,0 -0.223,0.089 -0.223,0.26l-0,0.013c-0,0.17 0.077,0.259 0.223,0.259Zm0.054,-0.088c-0.088,0 -0.134,-0.056 -0.134,-0.167l0,-0.022c0,-0.111 0.046,-0.168 0.134,-0.168c0.092,-0 0.141,0.06 0.141,0.17l0,0.018c0,0.11 -0.049,0.169 -0.141,0.169Z" style="fill:#00656c;fill-rule:nonzero;"/></g><g transform="matrix(11,0,0,11,283.161,62.9724)"><path d="M0.102,-0.684l-0.036,0.125l0.108,0l0.058,-0.125l-0.13,0Zm-0.053,0.684l0.142,-0l-0,-0.513l-0.142,0l-0,0.513Z" style="fill:#00656c;fill-rule:nonzero;"/></g><g transform="matrix(11,0,0,11,288.078,62.9724)"><rect x="0.049" y="-0.684" width="0.142" height="0.684" style="fill:#00656c;fill-rule:nonzero;"/></g><g transform="matrix(11,0,0,11,290.716,62.9724)"><path d="M0.045,-0.573l0.153,-0l-0,-0.103l-0.153,0l-0,0.103Zm0.005,0.573l0.142,-0l0,-0.513l-0.142,0l0,0.513Z" style="fill:#00656c;fill-rule:nonzero;"/></g><g transform="matrix(11,0,0,11,293.385,62.9724)"><path d="M0.257,0.009c0.106,0 0.175,-0.049 0.209,-0.137l0.011,0.003c-0.017,0.054 -0.026,0.097 -0.026,0.125l0.143,-0l0,-0.684l-0.142,0l0,0.14c0,0.053 0.007,0.097 0.025,0.156l-0.01,0.004c-0.034,-0.088 -0.104,-0.139 -0.21,-0.139c-0.146,0 -0.223,0.089 -0.223,0.26l-0,0.013c-0,0.17 0.077,0.259 0.223,0.259Zm0.054,-0.088c-0.088,0 -0.134,-0.056 -0.134,-0.167l0,-0.022c0,-0.111 0.046,-0.168 0.134,-0.168c0.092,-0 0.141,0.06 0.141,0.17l0,0.018c0,0.11 -0.049,0.169 -0.141,0.169Z" style="fill:#00656c;fill-rule:nonzero;"/></g><g transform="matrix(11,0,0,11,300.459,62.9724)"><path d="M0.478,-0.684l-0.136,0l-0.081,0.125l0.103,0l0.114,-0.125Zm-0.025,0.507c-0.013,0.071 -0.059,0.101 -0.133,0.101c-0.086,0 -0.139,-0.046 -0.142,-0.143l0.41,0c0.003,-0.024 0.004,-0.043 0.004,-0.064c0,-0.154 -0.098,-0.241 -0.273,-0.241c-0.183,-0 -0.285,0.091 -0.285,0.253l-0,0.029c-0,0.166 0.102,0.254 0.283,0.254c0.16,-0 0.255,-0.059 0.277,-0.175l-0.141,-0.014Zm-0.133,-0.26c0.083,0 0.129,0.044 0.129,0.123l-0,0.007l-0.27,0c0.008,-0.085 0.057,-0.13 0.141,-0.13Z" style="fill:#00656c;fill-rule:nonzero;"/></g><g transform="matrix(11,0,0,11,309.491,62.9724)"><path d="M0.203,-0l0.17,-0l0.197,-0.513l-0.142,0l-0.086,0.237c-0.017,0.049 -0.032,0.098 -0.047,0.155l-0.009,0c-0.015,-0.057 -0.03,-0.106 -0.048,-0.155l-0.087,-0.237l-0.147,0l0.199,0.513Z" style="fill:#00656c;fill-rule:nonzero;"/></g><g transform="matrix(11,0,0,11,317.926,62.9724)"><path d="M0.187,-0.825l0.108,0.096l0.132,-0l0.108,-0.096l-0.11,0l-0.063,0.043l-0.063,-0.043l-0.112,0Zm0.176,0.837c0.191,0 0.298,-0.089 0.314,-0.262l-0.146,-0.027c-0.007,0.127 -0.062,0.187 -0.168,0.187c-0.119,-0 -0.177,-0.077 -0.177,-0.237l0,-0.029c0,-0.161 0.057,-0.237 0.176,-0.237c0.107,-0 0.16,0.059 0.165,0.186l0.143,-0.024c-0.012,-0.174 -0.116,-0.265 -0.308,-0.265c-0.214,0 -0.324,0.121 -0.324,0.353l-0,0.002c-0,0.233 0.11,0.353 0.325,0.353Z" style="fill:#00656c;fill-rule:nonzero;"/></g><g transform="matrix(11,0,0,11,325.774,62.9724)"><path d="M0.453,-0.177c-0.013,0.071 -0.059,0.101 -0.133,0.101c-0.086,0 -0.139,-0.046 -0.142,-0.143l0.41,0c0.003,-0.024 0.004,-0.043 0.004,-0.064c0,-0.154 -0.098,-0.241 -0.273,-0.241c-0.183,-0 -0.285,0.091 -0.285,0.253l-0,0.029c-0,0.166 0.102,0.254 0.283,0.254c0.16,-0 0.255,-0.059 0.277,-0.175l-0.141,-0.014Zm-0.133,-0.26c0.083,0 0.129,0.044 0.129,0.123l-0,0.007l-0.27,0c0.008,-0.085 0.057,-0.13 0.141,-0.13Z" style="fill:#00656c;fill-rule:nonzero;"/></g><g transform="matrix(11,0,0,11,332.676,62.9724)"><path d="M0.295,0.01c0.17,0 0.254,-0.055 0.254,-0.154c-0,-0.105 -0.095,-0.136 -0.176,-0.154l-0.08,-0.019c-0.081,-0.019 -0.119,-0.036 -0.119,-0.071c0,-0.035 0.037,-0.051 0.106,-0.051c0.08,-0 0.122,0.023 0.12,0.091l0.134,-0.015c-0.001,-0.106 -0.085,-0.161 -0.254,-0.161c-0.161,0 -0.241,0.056 -0.241,0.153c-0,0.088 0.083,0.123 0.163,0.143l0.081,0.02c0.08,0.02 0.125,0.036 0.125,0.078c-0,0.038 -0.04,0.056 -0.114,0.056c-0.086,-0 -0.133,-0.033 -0.132,-0.106l-0.137,0.016c0.003,0.118 0.091,0.174 0.27,0.174Z" style="fill:#00656c;fill-rule:nonzero;"/></g><g transform="matrix(11,0,0,11,339.003,62.9724)"><path d="M0.049,-0l0.142,-0l-0,-0.177l0.069,-0.069l0.13,0.246l0.148,-0l-0.178,-0.324l0.18,-0.189l-0.155,0l-0.202,0.213l-0.008,-0.003c0.012,-0.059 0.016,-0.099 0.016,-0.164l-0,-0.217l-0.142,0l-0,0.684Z" style="fill:#00656c;fill-rule:nonzero;"/></g><g transform="matrix(11,0,0,11,345.019,62.9724)"><path d="M0.575,-0.513l-0.142,0l-0,0.239c-0,0.115 -0.055,0.186 -0.144,0.186c-0.067,0 -0.101,-0.035 -0.101,-0.101l0,-0.324l-0.142,0l0,0.358c0,0.108 0.063,0.164 0.181,0.164c0.106,0 0.179,-0.047 0.222,-0.144l0.01,0.004c-0.02,0.058 -0.027,0.093 -0.027,0.131l0.143,0l-0,-0.513Z" style="fill:#00656c;fill-rule:nonzero;"/></g><g transform="matrix(11,0,0,11,187.216,73.9724)"><path d="M0.386,0.009c0.146,0 0.223,-0.089 0.223,-0.259l0,-0.013c0,-0.171 -0.077,-0.26 -0.223,-0.26c-0.106,0 -0.176,0.051 -0.21,0.139l-0.01,-0.004c0.018,-0.059 0.025,-0.103 0.025,-0.156l-0,-0.14l-0.142,0l-0,0.684l0.143,-0c-0,-0.028 -0.009,-0.071 -0.025,-0.125l0.01,-0.003c0.034,0.088 0.103,0.137 0.209,0.137Zm-0.054,-0.088c-0.091,0 -0.141,-0.059 -0.141,-0.169l-0,-0.018c-0,-0.11 0.05,-0.17 0.141,-0.17c0.088,-0 0.134,0.057 0.134,0.168l0,0.022c0,0.111 -0.046,0.167 -0.134,0.167Z" style="fill:#00656c;fill-rule:nonzero;"/></g><g transform="matrix(11,0,0,11,194.108,73.9724)"><path d="M0.041,0.183c0.215,-0.013 0.284,-0.057 0.357,-0.242l0.171,-0.454l-0.141,0l-0.095,0.282c-0.014,0.039 -0.024,0.078 -0.034,0.124l-0.01,-0c-0.009,-0.046 -0.02,-0.085 -0.035,-0.124l-0.104,-0.282l-0.146,0l0.215,0.518l-0.007,0.021c-0.008,0.02 -0.026,0.031 -0.097,0.036l-0.09,0.007l0.016,0.114Z" style="fill:#00656c;fill-rule:nonzero;"/></g><g transform="matrix(11,0,0,11,200.419,73.9724)"><rect x="0.049" y="-0.684" width="0.142" height="0.684" style="fill:#00656c;fill-rule:nonzero;"/></g><g transform="matrix(11,0,0,11,203.057,73.9724)"><path d="M0.045,-0.573l0.153,-0l-0,-0.103l-0.153,0l-0,0.103Zm0.005,0.573l0.142,-0l0,-0.513l-0.142,0l0,0.513Z" style="fill:#00656c;fill-rule:nonzero;"/></g><g transform="matrix(11,0,0,11,208.008,73.9724)"><path d="M0.049,-0l0.142,-0l-0,-0.238c-0,-0.116 0.054,-0.186 0.144,-0.186c0.067,-0 0.1,0.034 0.1,0.1l0,0.324l0.142,0l0,-0.358c0,-0.107 -0.063,-0.164 -0.18,-0.164c-0.107,0 -0.18,0.047 -0.222,0.144l-0.01,-0.004c0.019,-0.055 0.025,-0.095 0.026,-0.143l-0,-0.159l-0.142,0l-0,0.684Z" style="fill:#00656c;fill-rule:nonzero;"/></g><g transform="matrix(11,0,0,11,214.867,73.9724)"><rect x="0.049" y="-0.684" width="0.142" height="0.684" style="fill:#00656c;fill-rule:nonzero;"/></g><g transform="matrix(11,0,0,11,217.505,73.9724)"><path d="M0.188,0.013c0.115,-0 0.198,-0.052 0.229,-0.138l0.01,0.002c-0.019,0.095 0.001,0.136 0.113,0.136c0.014,-0 0.028,-0.002 0.04,-0.004l0.017,-0.084l-0.025,-0.001c-0.027,-0 -0.034,-0.007 -0.034,-0.041l-0,-0.235c-0,-0.116 -0.078,-0.172 -0.242,-0.172c-0.175,0 -0.263,0.069 -0.256,0.188l0.14,0.012c-0.006,-0.079 0.034,-0.114 0.113,-0.114c0.07,-0 0.103,0.025 0.103,0.084l0,0.029l-0.138,0.026c-0.139,0.026 -0.231,0.07 -0.231,0.177l0,0.001c0,0.085 0.058,0.134 0.161,0.134Zm0.057,-0.095c-0.048,-0 -0.074,-0.017 -0.074,-0.052l-0,-0.001c-0,-0.051 0.045,-0.071 0.135,-0.089l0.09,-0.017l0,0.024c0,0.078 -0.07,0.135 -0.151,0.135Z" style="fill:#00656c;fill-rule:nonzero;"/></g><g transform="matrix(11,0,0,11,223.795,73.9724)"><path d="M0.203,-0l0.17,-0l0.197,-0.513l-0.142,0l-0.086,0.237c-0.017,0.049 -0.032,0.098 -0.047,0.155l-0.009,0c-0.015,-0.057 -0.03,-0.106 -0.048,-0.155l-0.087,-0.237l-0.147,0l0.199,0.513Z" style="fill:#00656c;fill-rule:nonzero;"/></g><g transform="matrix(11,0,0,11,230.111,73.9724)"><path d="M0.049,-0l0.142,-0l-0,-0.238c-0,-0.116 0.054,-0.187 0.144,-0.187c0.067,0 0.1,0.035 0.1,0.101l0,0.324l0.142,0l0,-0.358c0,-0.107 -0.063,-0.164 -0.18,-0.164c-0.106,0 -0.179,0.047 -0.222,0.145l-0.01,-0.005c0.02,-0.058 0.026,-0.093 0.026,-0.131l-0.142,0l-0,0.513Z" style="fill:#00656c;fill-rule:nonzero;"/></g><g transform="matrix(11,0,0,11,236.971,73.9724)"><path d="M0.102,-0.684l-0.036,0.125l0.108,0l0.058,-0.125l-0.13,0Zm-0.053,0.684l0.142,-0l-0,-0.513l-0.142,0l-0,0.513Z" style="fill:#00656c;fill-rule:nonzero;"/></g><g transform="matrix(11,0,0,11,241.809,73.9724)"><path d="M0.295,0.01c0.17,0 0.254,-0.055 0.254,-0.154c-0,-0.105 -0.095,-0.136 -0.176,-0.154l-0.08,-0.019c-0.081,-0.019 -0.119,-0.036 -0.119,-0.071c0,-0.035 0.037,-0.051 0.106,-0.051c0.08,-0 0.122,0.023 0.12,0.091l0.134,-0.015c-0.001,-0.106 -0.085,-0.161 -0.254,-0.161c-0.161,0 -0.241,0.056 -0.241,0.153c-0,0.088 0.083,0.123 0.163,0.143l0.081,0.02c0.08,0.02 0.125,0.036 0.125,0.078c-0,0.038 -0.04,0.056 -0.114,0.056c-0.086,-0 -0.133,-0.033 -0.132,-0.106l-0.137,0.016c0.003,0.118 0.091,0.174 0.27,0.174Z" style="fill:#00656c;fill-rule:nonzero;"/></g><g transform="matrix(11,0,0,11,248.136,73.9724)"><path d="M0.045,-0.573l0.153,-0l-0,-0.103l-0.153,0l-0,0.103Zm0.005,0.573l0.142,-0l0,-0.513l-0.142,0l0,0.513Z" style="fill:#00656c;fill-rule:nonzero;"/></g><g transform="matrix(11,0,0,11,250.806,73.9724)"><rect x="0.049" y="-0.684" width="0.142" height="0.684" style="fill:#00656c;fill-rule:nonzero;"/></g><g transform="matrix(11,0,0,11,253.444,73.9724)"><path d="M0.316,0.012c0.184,0 0.283,-0.093 0.283,-0.265l-0,-0.006c-0,-0.172 -0.099,-0.266 -0.283,-0.266c-0.184,0 -0.282,0.094 -0.282,0.266l-0,0.006c-0,0.172 0.098,0.265 0.282,0.265Zm0,-0.09c-0.09,0 -0.137,-0.056 -0.137,-0.167l0,-0.023c0,-0.111 0.047,-0.167 0.137,-0.167c0.09,-0 0.137,0.056 0.137,0.167l0,0.023c0,0.111 -0.047,0.167 -0.137,0.167Z" style="fill:#00656c;fill-rule:nonzero;"/></g><g transform="matrix(11,0,0,11,260.4,73.9724)"><path d="M0.575,-0.513l-0.142,0l-0,0.239c-0,0.115 -0.055,0.186 -0.144,0.186c-0.067,0 -0.101,-0.035 -0.101,-0.101l0,-0.324l-0.142,0l0,0.358c0,0.108 0.063,0.164 0.181,0.164c0.106,0 0.179,-0.047 0.222,-0.144l0.01,0.004c-0.02,0.058 -0.027,0.093 -0.027,0.131l0.143,0l-0,-0.513Z" style="fill:#00656c;fill-rule:nonzero;"/></g><g transform="matrix(11,0,0,11,269.433,73.9724)"><path d="M0.263,0.011c0.053,0 0.104,-0.01 0.139,-0.027l0.008,-0.093c-0.032,0.013 -0.064,0.02 -0.094,0.02c-0.051,0 -0.076,-0.022 -0.076,-0.076l0,-0.255l0.17,-0l0,-0.093l-0.17,0l0,-0.15l-0.142,0.037l0,0.113l-0.082,0l0,0.093l0.082,-0l0,0.278c0,0.104 0.055,0.153 0.165,0.153Z" style="fill:#00656c;fill-rule:nonzero;"/></g><g transform="matrix(11,0,0,11,274.144,73.9724)"><rect x="0.049" y="-0.684" width="0.142" height="0.684" style="fill:#00656c;fill-rule:nonzero;"/></g><g transform="matrix(11,0,0,11,276.781,73.9724)"><path d="M0.188,0.013c0.115,-0 0.198,-0.052 0.229,-0.138l0.01,0.002c-0.019,0.095 0.001,0.136 0.113,0.136c0.014,-0 0.028,-0.002 0.04,-0.004l0.017,-0.084l-0.025,-0.001c-0.027,-0 -0.034,-0.007 -0.034,-0.041l-0,-0.235c-0,-0.116 -0.078,-0.172 -0.242,-0.172c-0.175,0 -0.263,0.069 -0.256,0.188l0.14,0.012c-0.006,-0.079 0.034,-0.114 0.113,-0.114c0.07,-0 0.103,0.025 0.103,0.084l0,0.029l-0.138,0.026c-0.139,0.026 -0.231,0.07 -0.231,0.177l0,0.001c0,0.085 0.058,0.134 0.161,0.134Zm0.057,-0.095c-0.048,-0 -0.074,-0.017 -0.074,-0.052l-0,-0.001c-0,-0.051 0.045,-0.071 0.135,-0.089l0.09,-0.017l0,0.024c0,0.078 -0.07,0.135 -0.151,0.135Z" style="fill:#00656c;fill-rule:nonzero;"/></g><g transform="matrix(11,0,0,11,283.463,73.9724)"><path d="M0.049,-0l0.142,-0l-0,-0.177l0.069,-0.069l0.13,0.246l0.148,-0l-0.178,-0.324l0.18,-0.189l-0.155,0l-0.202,0.213l-0.008,-0.003c0.012,-0.059 0.016,-0.099 0.016,-0.164l-0,-0.217l-0.142,0l-0,0.684Z" style="fill:#00656c;fill-rule:nonzero;"/></g><g transform="matrix(11,0,0,11,289.479,73.9724)"><path d="M0.575,-0.513l-0.142,0l-0,0.239c-0,0.115 -0.055,0.186 -0.144,0.186c-0.067,0 -0.101,-0.035 -0.101,-0.101l0,-0.324l-0.142,0l0,0.358c0,0.108 0.063,0.164 0.181,0.164c0.106,0 0.179,-0.047 0.222,-0.144l0.01,0.004c-0.02,0.058 -0.027,0.093 -0.027,0.131l0.143,0l-0,-0.513Z" style="fill:#00656c;fill-rule:nonzero;"/></g><g transform="matrix(11,0,0,11,298.62,73.9724)"><path d="M0.049,-0l0.142,-0l-0,-0.238c-0,-0.116 0.054,-0.187 0.144,-0.187c0.067,0 0.1,0.035 0.1,0.101l0,0.324l0.142,0l0,-0.358c0,-0.107 -0.063,-0.164 -0.18,-0.164c-0.106,0 -0.179,0.047 -0.222,0.145l-0.01,-0.005c0.02,-0.058 0.026,-0.093 0.026,-0.131l-0.142,0l-0,0.513Z" style="fill:#00656c;fill-rule:nonzero;"/></g><g transform="matrix(11,0,0,11,305.479,73.9724)"><path d="M0.188,0.013c0.115,-0 0.198,-0.052 0.229,-0.138l0.01,0.002c-0.019,0.095 0.001,0.136 0.113,0.136c0.014,-0 0.028,-0.002 0.04,-0.004l0.017,-0.084l-0.025,-0.001c-0.027,-0 -0.034,-0.007 -0.034,-0.041l-0,-0.235c-0,-0.116 -0.078,-0.172 -0.242,-0.172c-0.175,0 -0.263,0.069 -0.256,0.188l0.14,0.012c-0.006,-0.079 0.034,-0.114 0.113,-0.114c0.07,-0 0.103,0.025 0.103,0.084l0,0.029l-0.138,0.026c-0.139,0.026 -0.231,0.07 -0.231,0.177l0,0.001c0,0.085 0.058,0.134 0.161,0.134Zm0.057,-0.095c-0.048,-0 -0.074,-0.017 -0.074,-0.052l-0,-0.001c-0,-0.051 0.045,-0.071 0.135,-0.089l0.09,-0.017l0,0.024c0,0.078 -0.07,0.135 -0.151,0.135Z" style="fill:#00656c;fill-rule:nonzero;"/></g><g transform="matrix(11,0,0,11,314.442,73.9724)"><path d="M0.051,-0.684l0.109,0.125l0.127,0l0.109,-0.125l-0.103,0l-0.069,0.062l-0.07,-0.062l-0.103,0Zm-0.002,0.684l0.142,0l-0,-0.214c-0,-0.134 0.041,-0.183 0.15,-0.191l0.07,-0.006l-0.017,-0.118c-0.115,0.009 -0.168,0.045 -0.221,0.152l-0.009,-0.005c0.023,-0.068 0.028,-0.096 0.027,-0.131l-0.142,0l-0,0.513Z" style="fill:#00656c;fill-rule:nonzero;"/></g><g transform="matrix(11,0,0,11,318.922,73.9724)"><path d="M0.453,-0.177c-0.013,0.071 -0.059,0.101 -0.133,0.101c-0.086,0 -0.139,-0.046 -0.142,-0.143l0.41,0c0.003,-0.024 0.004,-0.043 0.004,-0.064c0,-0.154 -0.098,-0.241 -0.273,-0.241c-0.183,-0 -0.285,0.091 -0.285,0.253l-0,0.029c-0,0.166 0.102,0.254 0.283,0.254c0.16,-0 0.255,-0.059 0.277,-0.175l-0.141,-0.014Zm-0.133,-0.26c0.083,0 0.129,0.044 0.129,0.123l-0,0.007l-0.27,0c0.008,-0.085 0.057,-0.13 0.141,-0.13Z" style="fill:#00656c;fill-rule:nonzero;"/></g><g transform="matrix(11,0,0,11,325.824,73.9724)"><path d="M0.115,-0.684l0.109,0.125l0.127,0l0.109,-0.125l-0.103,0l-0.069,0.062l-0.07,-0.062l-0.103,0Zm0.18,0.694c0.17,0 0.254,-0.055 0.254,-0.154c-0,-0.105 -0.095,-0.136 -0.176,-0.154l-0.08,-0.019c-0.081,-0.019 -0.119,-0.036 -0.119,-0.071c0,-0.035 0.037,-0.051 0.106,-0.051c0.08,-0 0.122,0.023 0.12,0.091l0.134,-0.015c-0.001,-0.106 -0.085,-0.161 -0.254,-0.161c-0.161,0 -0.241,0.056 -0.241,0.153c-0,0.088 0.083,0.123 0.163,0.143l0.081,0.02c0.08,0.021 0.125,0.036 0.125,0.078c-0,0.038 -0.04,0.056 -0.114,0.056c-0.086,-0 -0.133,-0.033 -0.132,-0.106l-0.137,0.016c0.003,0.118 0.091,0.174 0.27,0.174Z" style="fill:#00656c;fill-rule:nonzero;"/></g><g transform="matrix(11,0,0,11,332.152,73.9724)"><path d="M0.453,-0.177c-0.013,0.071 -0.059,0.101 -0.133,0.101c-0.086,0 -0.139,-0.046 -0.142,-0.143l0.41,0c0.003,-0.024 0.004,-0.043 0.004,-0.064c0,-0.154 -0.098,-0.241 -0.273,-0.241c-0.183,-0 -0.285,0.091 -0.285,0.253l-0,0.029c-0,0.166 0.102,0.254 0.283,0.254c0.16,-0 0.255,-0.059 0.277,-0.175l-0.141,-0.014Zm-0.133,-0.26c0.083,0 0.129,0.044 0.129,0.123l-0,0.007l-0.27,0c0.008,-0.085 0.057,-0.13 0.141,-0.13Z" style="fill:#00656c;fill-rule:nonzero;"/></g><g transform="matrix(11,0,0,11,339.065,73.9724)"><path d="M0.049,-0l0.142,-0l-0,-0.238c-0,-0.116 0.054,-0.187 0.144,-0.187c0.067,0 0.1,0.035 0.1,0.101l0,0.324l0.142,0l0,-0.358c0,-0.107 -0.063,-0.164 -0.18,-0.164c-0.106,0 -0.179,0.047 -0.222,0.145l-0.01,-0.005c0.02,-0.058 0.026,-0.093 0.026,-0.131l-0.142,0l-0,0.513Z" style="fill:#00656c;fill-rule:nonzero;"/></g><g transform="matrix(11,0,0,11,345.924,73.9724)"><path d="M0.102,-0.684l-0.036,0.125l0.108,0l0.058,-0.125l-0.13,0Zm-0.053,0.684l0.142,-0l-0,-0.513l-0.142,0l-0,0.513Z" style="fill:#00656c;fill-rule:nonzero;"/></g><g transform="matrix(11,0,0,11,225.139,84.9724)"><path d="M0.049,-0l0.142,-0l-0,-0.177l0.069,-0.069l0.13,0.246l0.148,-0l-0.178,-0.324l0.18,-0.189l-0.155,0l-0.202,0.213l-0.008,-0.003c0.012,-0.059 0.016,-0.099 0.016,-0.164l-0,-0.217l-0.142,0l-0,0.684Z" style="fill:#00656c;fill-rule:nonzero;"/></g><g transform="matrix(11,0,0,11,231.165,84.9724)"><rect x="0.049" y="-0.684" width="0.142" height="0.684" style="fill:#00656c;fill-rule:nonzero;"/></g><g transform="matrix(11,0,0,11,233.802,84.9724)"><path d="M0.045,-0.573l0.153,-0l-0,-0.103l-0.153,0l-0,0.103Zm0.005,0.573l0.142,-0l0,-0.513l-0.142,0l0,0.513Z" style="fill:#00656c;fill-rule:nonzero;"/></g><g transform="matrix(11,0,0,11,236.472,84.9724)"><path d="M0.049,-0l0.142,-0l-0,-0.234c-0,-0.114 0.047,-0.184 0.126,-0.184c0.057,-0 0.087,0.03 0.087,0.087l0,0.331l0.142,-0l0,-0.241c0,-0.107 0.045,-0.177 0.125,-0.177c0.058,-0 0.088,0.03 0.088,0.086l0,0.332l0.142,-0l0,-0.364c0,-0.103 -0.055,-0.155 -0.162,-0.155c-0.099,0 -0.166,0.046 -0.21,0.147l-0.009,-0.002c0.011,-0.093 -0.04,-0.145 -0.141,-0.145c-0.094,0 -0.156,0.043 -0.204,0.144l-0.01,-0.004c0.021,-0.064 0.027,-0.097 0.026,-0.13l-0.142,-0l-0,0.509Z" style="fill:#00656c;fill-rule:nonzero;"/></g><g transform="matrix(11,0,0,11,246.897,84.9724)"><path d="M0.188,0.013c0.115,-0 0.198,-0.052 0.229,-0.138l0.01,0.002c-0.019,0.095 0.001,0.136 0.113,0.136c0.014,-0 0.028,-0.002 0.04,-0.004l0.017,-0.084l-0.025,-0.001c-0.027,-0 -0.034,-0.007 -0.034,-0.041l-0,-0.235c-0,-0.116 -0.078,-0.172 -0.242,-0.172c-0.175,0 -0.263,0.069 -0.256,0.188l0.14,0.012c-0.006,-0.079 0.034,-0.114 0.113,-0.114c0.07,-0 0.103,0.025 0.103,0.084l0,0.029l-0.138,0.026c-0.139,0.026 -0.231,0.07 -0.231,0.177l0,0.001c0,0.085 0.058,0.134 0.161,0.134Zm0.057,-0.095c-0.048,-0 -0.074,-0.017 -0.074,-0.052l-0,-0.001c-0,-0.051 0.045,-0.071 0.135,-0.089l0.09,-0.017l0,0.024c0,0.078 -0.07,0.135 -0.151,0.135Z" style="fill:#00656c;fill-rule:nonzero;"/></g><g transform="matrix(11,0,0,11,253.294,84.9724)"><path d="M0.263,0.011c0.053,0 0.104,-0.01 0.139,-0.027l0.008,-0.093c-0.032,0.013 -0.064,0.02 -0.094,0.02c-0.051,0 -0.076,-0.022 -0.076,-0.076l0,-0.255l0.17,-0l0,-0.093l-0.17,0l0,-0.15l-0.142,0.037l0,0.113l-0.082,0l0,0.093l0.082,-0l0,0.278c0,0.104 0.055,0.153 0.165,0.153Z" style="fill:#00656c;fill-rule:nonzero;"/></g><g transform="matrix(11,0,0,11,258.005,84.9724)"><path d="M0.045,-0.573l0.153,-0l-0,-0.103l-0.153,0l-0,0.103Zm0.005,0.573l0.142,-0l0,-0.513l-0.142,0l0,0.513Z" style="fill:#00656c;fill-rule:nonzero;"/></g><g transform="matrix(11,0,0,11,260.674,84.9724)"><path d="M0.316,0.012c0.167,0 0.261,-0.067 0.275,-0.198l-0.143,-0.016c-0.006,0.082 -0.051,0.124 -0.132,0.124c-0.09,-0 -0.137,-0.057 -0.137,-0.169l0,-0.024c0,-0.109 0.048,-0.164 0.136,-0.164c0.081,-0 0.124,0.045 0.13,0.136l0.142,-0.016c-0.011,-0.138 -0.102,-0.21 -0.272,-0.21c-0.184,0 -0.281,0.09 -0.281,0.263l-0,0.007c-0,0.175 0.096,0.267 0.282,0.267Z" style="fill:#00656c;fill-rule:nonzero;"/></g><g transform="matrix(11,0,0,11,267.533,84.9724)"><path d="M0.049,-0l0.142,-0l-0,-0.177l0.069,-0.069l0.13,0.246l0.148,-0l-0.178,-0.324l0.18,-0.189l-0.155,0l-0.202,0.213l-0.008,-0.003c0.012,-0.059 0.016,-0.099 0.016,-0.164l-0,-0.217l-0.142,0l-0,0.684Z" style="fill:#00656c;fill-rule:nonzero;"/></g><g transform="matrix(11,0,0,11,273.135,84.9724)"><path d="M0.478,-0.684l-0.136,0l-0.081,0.125l0.103,0l0.114,-0.125Zm-0.025,0.507c-0.013,0.071 -0.059,0.101 -0.133,0.101c-0.086,0 -0.139,-0.046 -0.142,-0.143l0.41,0c0.003,-0.024 0.004,-0.043 0.004,-0.064c0,-0.154 -0.098,-0.241 -0.273,-0.241c-0.183,-0 -0.285,0.091 -0.285,0.253l-0,0.029c-0,0.166 0.102,0.254 0.283,0.254c0.16,-0 0.255,-0.059 0.277,-0.175l-0.141,-0.014Zm-0.133,-0.26c0.083,0 0.129,0.044 0.129,0.123l-0,0.007l-0.27,0c0.008,-0.085 0.057,-0.13 0.141,-0.13Z" style="fill:#00656c;fill-rule:nonzero;"/></g><g transform="matrix(11,0,0,11,282.325,84.9724)"><path d="M0.049,-0l0.142,-0l-0,-0.177l0.069,-0.069l0.13,0.246l0.148,-0l-0.178,-0.324l0.18,-0.189l-0.155,0l-0.202,0.213l-0.008,-0.003c0.012,-0.059 0.016,-0.099 0.016,-0.164l-0,-0.217l-0.142,0l-0,0.684Z" style="fill:#00656c;fill-rule:nonzero;"/></g><g transform="matrix(11,0,0,11,288.351,84.9724)"><path d="M0.049,-0l0.142,-0l-0,-0.214c-0,-0.134 0.041,-0.183 0.15,-0.191l0.07,-0.006l-0.017,-0.118c-0.115,0.009 -0.168,0.045 -0.221,0.152l-0.009,-0.005c0.023,-0.068 0.028,-0.096 0.027,-0.131l-0.142,0l-0,0.513Z" style="fill:#00656c;fill-rule:nonzero;"/></g><g transform="matrix(11,0,0,11,293.029,84.9724)"><path d="M0.045,-0.573l0.153,-0l-0,-0.103l-0.153,0l-0,0.103Zm0.005,0.573l0.142,-0l0,-0.513l-0.142,0l0,0.513Z" style="fill:#00656c;fill-rule:nonzero;"/></g><g transform="matrix(11,0,0,11,295.699,84.9724)"><path d="M0.021,-0l0.488,-0l-0,-0.093l-0.221,-0c-0.023,-0 -0.043,0 -0.061,0.001l-0.003,-0.006c0.015,-0.019 0.025,-0.033 0.037,-0.051l0.244,-0.355l-0.003,-0.009l-0.469,0l-0,0.093l0.207,0c0.022,0 0.036,0 0.055,-0.001l0.003,0.007c-0.011,0.015 -0.021,0.027 -0.031,0.044l-0.249,0.362l0.003,0.008Z" style="fill:#00656c;fill-rule:nonzero;"/></g><g transform="matrix(11,0,0,11,301.242,84.9724)"><path d="M0.453,-0.177c-0.013,0.071 -0.059,0.101 -0.133,0.101c-0.086,0 -0.139,-0.046 -0.142,-0.143l0.41,0c0.003,-0.024 0.004,-0.043 0.004,-0.064c0,-0.154 -0.098,-0.241 -0.273,-0.241c-0.183,-0 -0.285,0.091 -0.285,0.253l-0,0.029c-0,0.166 0.102,0.254 0.283,0.254c0.16,-0 0.255,-0.059 0.277,-0.175l-0.141,-0.014Zm-0.133,-0.26c0.083,0 0.129,0.044 0.129,0.123l-0,0.007l-0.27,0c0.008,-0.085 0.057,-0.13 0.141,-0.13Z" style="fill:#00656c;fill-rule:nonzero;"/></g><g transform="matrix(11,0,0,11,307.988,84.9724)"><rect x="0.041" y="-0.137" width="0.156" height="0.137" style="fill:#00656c;fill-rule:nonzero;"/></g></g><rect x="533.311" y="8.59" width="966.075" height="293.642" style="fill:none;stroke:#00656c;stroke-width:4.17px;"/><rect x="8.59" y="458.348" width="970.242" height="197.9" style="fill:#fff;"/><g transform="matrix(4.16667,0,0,4.16667,-99.7935,-99.7935)"><g transform="matrix(11,0,0,11,96.5879,154.544)"><path d="M0.343,0.012c0.183,0 0.294,-0.076 0.294,-0.208c0,-0.119 -0.09,-0.16 -0.201,-0.189l-0.11,-0.029c-0.114,-0.03 -0.136,-0.055 -0.136,-0.1c0,-0.055 0.048,-0.087 0.136,-0.087c0.108,-0 0.157,0.053 0.161,0.156l0.13,-0.021c-0.001,-0.144 -0.104,-0.23 -0.289,-0.23c-0.171,0 -0.274,0.07 -0.274,0.196c-0.001,0.109 0.074,0.157 0.187,0.188l0.109,0.03c0.111,0.031 0.145,0.055 0.145,0.107c-0,0.059 -0.052,0.092 -0.144,0.092c-0.118,-0 -0.172,-0.05 -0.179,-0.161l-0.141,0.022c0.007,0.153 0.122,0.234 0.312,0.234Z" style="fill:#00656c;fill-rule:nonzero;"/></g><g transform="matrix(11,0,0,11,103.795,154.544)"><path d="M0.22,-0l0.145,-0l-0,-0.577l0.213,0l0,-0.107l-0.571,0l0,0.107l0.213,0l0,0.577Z" style="fill:#00656c;fill-rule:nonzero;"/></g><g transform="matrix(11,0,0,11,110.235,154.544)"><path d="M0.055,-0l0.144,-0l0,-0.293l0.125,0c0.069,0 0.09,0.031 0.108,0.099l0.018,0.068c0.017,0.067 0.029,0.101 0.047,0.126l0.163,-0l0.002,-0.012c-0.026,-0.017 -0.046,-0.051 -0.069,-0.124l-0.022,-0.073c-0.023,-0.073 -0.046,-0.101 -0.103,-0.117l0,-0.009c0.1,-0.011 0.153,-0.067 0.153,-0.16l0,-0.002c0,-0.122 -0.081,-0.187 -0.237,-0.187l-0.329,0l0,0.684Zm0.144,-0.385l0,-0.201l0.159,0c0.079,0 0.117,0.03 0.117,0.1l0,0.002c0,0.069 -0.039,0.099 -0.12,0.099l-0.156,-0Z" style="fill:#00656c;fill-rule:nonzero;"/></g><g transform="matrix(11,0,0,11,117.592,154.544)"><path d="M0.006,-0l0.142,-0l0.045,-0.133l0.269,0l0.045,0.133l0.151,-0l-0.239,-0.684l-0.174,0l-0.239,0.684Zm0.212,-0.224l0.057,-0.175c0.018,-0.059 0.032,-0.106 0.047,-0.169l0.011,-0c0.016,0.063 0.029,0.11 0.048,0.168l0.056,0.176l-0.219,-0Z" style="fill:#00656c;fill-rule:nonzero;"/></g><g transform="matrix(11,0,0,11,124.16,154.544)"><path d="M0.22,-0l0.145,-0l-0,-0.577l0.213,0l0,-0.107l-0.571,0l0,0.107l0.213,0l0,0.577Z" style="fill:#00656c;fill-rule:nonzero;"/></g><g transform="matrix(11,0,0,11,130.6,154.544)"><path d="M0.199,-0.1l0,-0.212l0.331,0l-0,-0.09l-0.331,-0l0,-0.181l0.353,-0l0,-0.101l-0.497,0l0,0.684l0.507,-0l0,-0.1l-0.363,-0Z" style="fill:#00656c;fill-rule:nonzero;"/></g><g transform="matrix(11,0,0,11,136.98,154.544)"><path d="M0.315,0.011c0.127,-0 0.209,-0.064 0.251,-0.186l0.012,0.003c-0.023,0.089 -0.03,0.132 -0.028,0.172l0.127,-0l0,-0.388l-0.344,0l0,0.101l0.201,0c-0.016,0.129 -0.074,0.195 -0.178,0.195c-0.114,0 -0.17,-0.077 -0.17,-0.242l0,-0.022c0,-0.162 0.059,-0.238 0.181,-0.238c0.099,-0 0.151,0.046 0.159,0.146l0.143,-0.026c-0.017,-0.145 -0.118,-0.222 -0.302,-0.222c-0.217,0 -0.329,0.12 -0.329,0.352l-0,0.002c-0,0.232 0.095,0.353 0.277,0.353Z" style="fill:#00656c;fill-rule:nonzero;"/></g><g transform="matrix(11,0,0,11,145.009,154.544)"><rect x="0.055" y="-0.684" width="0.144" height="0.684" style="fill:#00656c;fill-rule:nonzero;"/></g><g transform="matrix(11,0,0,11,147.807,154.544)"><path d="M0.363,0.012c0.191,0 0.298,-0.089 0.314,-0.262l-0.146,-0.027c-0.007,0.127 -0.062,0.187 -0.168,0.187c-0.119,-0 -0.177,-0.077 -0.177,-0.237l0,-0.029c0,-0.161 0.057,-0.237 0.176,-0.237c0.107,-0 0.16,0.059 0.165,0.186l0.143,-0.024c-0.012,-0.174 -0.116,-0.265 -0.308,-0.265c-0.214,0 -0.324,0.121 -0.324,0.353l-0,0.002c-0,0.233 0.11,0.353 0.325,0.353Z" style="fill:#00656c;fill-rule:nonzero;"/></g><g transform="matrix(11,0,0,11,155.653,154.544)"><path d="M0.055,-0l0.144,-0l0,-0.227l0.094,-0.099l0.181,0.326l0.158,-0l-0.24,-0.418l0.239,-0.266l-0.156,0l-0.28,0.312l-0.008,-0.004c0.009,-0.046 0.012,-0.082 0.012,-0.134l0,-0.174l-0.144,0l0,0.684Z" style="fill:#00656c;fill-rule:nonzero;"/></g><g transform="matrix(11,0,0,11,162.721,154.544)"><path d="M0.265,-0.729l0.109,-0l0.092,-0.096l-0.137,0l-0.064,0.096Zm0.364,0.045l-0.149,0l-0.097,0.181c-0.021,0.04 -0.038,0.076 -0.057,0.127l-0.01,0c-0.02,-0.05 -0.037,-0.088 -0.058,-0.127l-0.098,-0.181l-0.154,0l0.24,0.428l-0,0.256l0.144,-0l0,-0.256l0.239,-0.428Z" style="fill:#00656c;fill-rule:nonzero;"/></g><g transform="matrix(11,0,0,11,171.69,154.544)"><path d="M0.363,0.012c0.191,0 0.298,-0.089 0.314,-0.262l-0.146,-0.027c-0.007,0.127 -0.062,0.187 -0.168,0.187c-0.119,-0 -0.177,-0.077 -0.177,-0.237l0,-0.029c0,-0.161 0.057,-0.237 0.176,-0.237c0.107,-0 0.16,0.059 0.165,0.186l0.143,-0.024c-0.012,-0.174 -0.116,-0.265 -0.308,-0.265c-0.214,0 -0.324,0.121 -0.324,0.353l-0,0.002c-0,0.233 0.11,0.353 0.325,0.353Z" style="fill:#00656c;fill-rule:nonzero;"/></g><g transform="matrix(11,0,0,11,179.536,154.544)"><path d="M0.073,-0.729l0.109,-0l0.092,-0.096l-0.137,0l-0.064,0.096Zm-0.018,0.045l0,0.684l0.144,-0l0,-0.684l-0.144,0Z" style="fill:#00656c;fill-rule:nonzero;"/></g><g transform="matrix(11,0,0,11,182.334,154.544)"><path d="M0.055,-0l0.483,-0l0,-0.106l-0.339,0l0,-0.578l-0.144,0l0,0.684Z" style="fill:#00656c;fill-rule:nonzero;"/></g><g transform="matrix(9,0,0,9,55.1685,168.374)"><path d="M0.023,-0.049l0.412,-0.554l-0.386,0l-0,-0.083l0.531,0l-0,0.049l-0.413,0.554l0.422,-0l0,0.083l-0.566,-0l0,-0.049Z" style="fill:#00656c;fill-rule:nonzero;"/></g><g transform="matrix(9,0,0,9,60.6675,168.374)"><path d="M0.013,-0.526l0.093,0l0.093,0.263c0.009,0.025 0.019,0.055 0.03,0.092c0.011,0.037 0.019,0.061 0.022,0.073l0.005,0c0.003,-0.011 0.01,-0.035 0.021,-0.07c0.011,-0.036 0.021,-0.068 0.03,-0.095l0.092,-0.263l0.088,0l-0.193,0.526l-0.088,-0l-0.193,-0.526Z" style="fill:#00656c;fill-rule:nonzero;"/></g><g transform="matrix(9,0,0,9,65.1675,168.374)"><path d="M0.117,0.182c-0.029,0 -0.053,-0.003 -0.07,-0.008l0,-0.057l0.035,0c0.068,0 0.113,-0.039 0.134,-0.117l-0.203,-0.526l0.093,0l0.098,0.263c0.009,0.025 0.02,0.055 0.033,0.093c0.012,0.037 0.02,0.061 0.024,0.072l0.005,0c0.003,-0.011 0.01,-0.033 0.019,-0.064c0.009,-0.031 0.019,-0.065 0.03,-0.101l0.084,-0.263l0.088,0l-0.173,0.499c-0.023,0.067 -0.05,0.118 -0.08,0.155c-0.029,0.036 -0.068,0.054 -0.117,0.054Zm0.181,-0.905l0.096,0l0.001,0.003l-0.108,0.129l-0.075,0l0.086,-0.132Z" style="fill:#00656c;fill-rule:nonzero;"/></g><g transform="matrix(9,0,0,9,69.6675,168.374)"><path d="M0.247,0.012c-0.049,0 -0.089,-0.007 -0.122,-0.021c-0.032,-0.015 -0.056,-0.034 -0.071,-0.057c-0.015,-0.023 -0.023,-0.049 -0.023,-0.076c0,-0.008 0,-0.013 0.001,-0.016c-0,-0.003 0,-0.005 0,-0.006l0.087,0l0,0.01c0,0.031 0.012,0.055 0.037,0.071c0.025,0.015 0.057,0.023 0.096,0.023c0.034,0 0.062,-0.007 0.085,-0.02c0.022,-0.014 0.033,-0.033 0.033,-0.058c-0,-0.019 -0.006,-0.035 -0.019,-0.047c-0.013,-0.013 -0.028,-0.023 -0.047,-0.029c-0.019,-0.008 -0.044,-0.015 -0.076,-0.023c-0.039,-0.01 -0.07,-0.02 -0.094,-0.03c-0.025,-0.01 -0.045,-0.025 -0.062,-0.044c-0.017,-0.02 -0.026,-0.046 -0.026,-0.077c0,-0.046 0.019,-0.082 0.057,-0.109c0.037,-0.028 0.088,-0.041 0.152,-0.041c0.04,0 0.075,0.007 0.104,0.02c0.029,0.013 0.052,0.03 0.067,0.051c0.014,0.022 0.022,0.046 0.022,0.073l-0.001,0.019l-0.086,0l0,-0.009c0,-0.023 -0.009,-0.043 -0.027,-0.058c-0.019,-0.015 -0.048,-0.023 -0.089,-0.023c-0.04,0 -0.068,0.007 -0.084,0.022c-0.016,0.014 -0.024,0.03 -0.024,0.049c0,0.015 0.006,0.028 0.017,0.038c0.011,0.01 0.025,0.018 0.042,0.024c0.017,0.006 0.04,0.013 0.07,0.02c0.041,0.011 0.075,0.021 0.101,0.031c0.026,0.011 0.048,0.027 0.067,0.048c0.018,0.021 0.027,0.048 0.027,0.083c0,0.054 -0.02,0.095 -0.058,0.122c-0.04,0.027 -0.091,0.04 -0.156,0.04Zm-0.145,-0.735l0.09,0l0.058,0.079l0.057,-0.079l0.09,0l-0.105,0.135l-0.084,0l-0.106,-0.135Z" style="fill:#00656c;fill-rule:nonzero;"/></g><g transform="matrix(9,0,0,9,74.1675,168.374)"><path d="M0.067,-0.723l0.088,0l0,0.098l-0.088,0l0,-0.098Zm0,0.197l0.088,0l0,0.526l-0.088,-0l0,-0.526Z" style="fill:#00656c;fill-rule:nonzero;"/></g><g transform="matrix(9,0,0,9,76.1655,168.374)"><path d="M0.186,0.011c-0.036,0 -0.062,-0.011 -0.079,-0.032c-0.017,-0.021 -0.025,-0.048 -0.025,-0.079l0,-0.353l-0.064,-0l0,-0.073l0.065,-0l0.019,-0.146l0.068,-0l0,0.146l0.089,-0l0,0.073l-0.089,-0l0,0.345c0,0.031 0.015,0.047 0.044,0.047l0.045,-0l0,0.058c-0.009,0.004 -0.02,0.007 -0.034,0.01c-0.014,0.003 -0.027,0.004 -0.039,0.004Z" style="fill:#00656c;fill-rule:nonzero;"/></g><g transform="matrix(9,0,0,9,81.1695,168.374)"><path d="M0.067,-0.526l0.066,0l0.011,0.071l0.006,0c0.017,-0.027 0.04,-0.048 0.068,-0.062c0.029,-0.014 0.06,-0.021 0.095,-0.021c0.067,0 0.118,0.022 0.154,0.067c0.036,0.045 0.054,0.114 0.054,0.208c-0,0.092 -0.018,0.161 -0.054,0.207c-0.035,0.045 -0.084,0.068 -0.146,0.068c-0.037,-0 -0.069,-0.006 -0.095,-0.017c-0.026,-0.011 -0.048,-0.03 -0.065,-0.055l-0.006,-0l-0,0.233l-0.088,0l-0,-0.699Zm0.224,0.465c0.034,0 0.061,-0.006 0.081,-0.019c0.02,-0.013 0.035,-0.033 0.044,-0.062c0.009,-0.029 0.014,-0.068 0.014,-0.117l-0,-0.004c-0,-0.05 -0.005,-0.09 -0.014,-0.119c-0.009,-0.029 -0.024,-0.05 -0.045,-0.064c-0.02,-0.013 -0.047,-0.019 -0.08,-0.019c-0.047,0 -0.081,0.017 -0.103,0.051c-0.022,0.034 -0.033,0.084 -0.033,0.151l-0,0.004c-0,0.065 0.011,0.115 0.032,0.148c0.022,0.033 0.057,0.05 0.104,0.05Z" style="fill:#00656c;fill-rule:nonzero;"/></g><g transform="matrix(9,0,0,9,86.1735,168.374)"><path d="M0.278,0.012c-0.081,0 -0.141,-0.023 -0.182,-0.068c-0.041,-0.044 -0.061,-0.114 -0.061,-0.207c-0,-0.093 0.02,-0.162 0.061,-0.208c0.041,-0.044 0.101,-0.067 0.182,-0.067c0.081,0 0.141,0.023 0.182,0.068c0.041,0.045 0.061,0.114 0.061,0.207c0,0.093 -0.02,0.163 -0.061,0.208c-0.041,0.044 -0.101,0.067 -0.182,0.067Zm0,-0.073c0.053,-0 0.092,-0.016 0.116,-0.047c0.024,-0.031 0.036,-0.081 0.036,-0.151l-0,-0.008c-0,-0.07 -0.012,-0.121 -0.036,-0.151c-0.024,-0.031 -0.063,-0.047 -0.116,-0.047c-0.053,0 -0.092,0.016 -0.116,0.047c-0.024,0.031 -0.036,0.081 -0.036,0.151l-0,0.008c-0,0.07 0.012,0.121 0.036,0.152c0.024,0.031 0.063,0.046 0.116,0.046Z" style="fill:#00656c;fill-rule:nonzero;"/></g><g transform="matrix(9,0,0,9,91.1775,168.374)"><path d="M0.267,0.012c-0.08,0 -0.139,-0.022 -0.176,-0.067c-0.037,-0.044 -0.056,-0.113 -0.056,-0.208c-0,-0.094 0.019,-0.163 0.056,-0.208c0.038,-0.045 0.097,-0.067 0.176,-0.067c0.072,0 0.125,0.017 0.158,0.052c0.033,0.035 0.05,0.086 0.05,0.155l-0.09,0c0,-0.047 -0.009,-0.081 -0.026,-0.102c-0.016,-0.022 -0.047,-0.032 -0.092,-0.032c-0.049,0 -0.084,0.016 -0.107,0.048c-0.023,0.031 -0.034,0.083 -0.034,0.154l-0,0.004c-0,0.071 0.011,0.121 0.033,0.152c0.022,0.031 0.058,0.046 0.108,0.046c0.044,0 0.076,-0.011 0.094,-0.033c0.02,-0.023 0.029,-0.056 0.029,-0.101l0.085,0c0,0.06 -0.017,0.11 -0.051,0.149c-0.034,0.039 -0.086,0.058 -0.157,0.058Zm-0.165,-0.735l0.09,0l0.058,0.079l0.057,-0.079l0.09,0l-0.105,0.135l-0.084,0l-0.106,-0.135Z" style="fill:#00656c;fill-rule:nonzero;"/></g><g transform="matrix(9,0,0,9,95.6775,168.374)"><path d="M0.29,0.012c-0.085,0 -0.148,-0.022 -0.189,-0.067c-0.041,-0.045 -0.062,-0.114 -0.062,-0.208c0,-0.094 0.021,-0.163 0.062,-0.208c0.041,-0.045 0.104,-0.067 0.189,-0.067c0.076,0 0.133,0.02 0.171,0.061c0.037,0.04 0.056,0.105 0.056,0.194l0,0.044l-0.387,0c0.003,0.061 0.018,0.106 0.044,0.135c0.025,0.029 0.064,0.043 0.116,0.043c0.042,0 0.076,-0.01 0.102,-0.029c0.026,-0.019 0.039,-0.049 0.039,-0.089l0.086,0c0,0.061 -0.021,0.109 -0.064,0.142c-0.042,0.033 -0.096,0.049 -0.163,0.049Zm0.135,-0.324c-0,-0.102 -0.045,-0.153 -0.135,-0.153c-0.05,0 -0.088,0.012 -0.113,0.036c-0.025,0.024 -0.04,0.063 -0.045,0.117l0.293,0Z" style="fill:#00656c;fill-rule:nonzero;"/></g><g transform="matrix(9,0,0,9,100.682,168.374)"><path d="M0.186,0.011c-0.036,0 -0.062,-0.011 -0.079,-0.032c-0.017,-0.021 -0.025,-0.048 -0.025,-0.079l0,-0.353l-0.064,-0l0,-0.073l0.065,-0l0.019,-0.146l0.068,-0l0,0.146l0.089,-0l0,0.073l-0.089,-0l0,0.345c0,0.031 0.015,0.047 0.044,0.047l0.045,-0l0,0.058c-0.009,0.004 -0.02,0.007 -0.034,0.01c-0.014,0.003 -0.027,0.004 -0.039,0.004Z" style="fill:#00656c;fill-rule:nonzero;"/></g><g transform="matrix(9,0,0,9,105.686,168.374)"><path d="M0.067,-0.526l0.067,0l0.01,0.071l0.007,0c0.036,-0.055 0.089,-0.083 0.158,-0.083c0.068,0 0.113,0.028 0.136,0.083l0.006,0c0.018,-0.027 0.041,-0.047 0.07,-0.061c0.029,-0.015 0.06,-0.022 0.093,-0.022c0.103,0 0.155,0.053 0.155,0.159l-0,0.379l-0.088,-0l-0,-0.363c-0,-0.038 -0.008,-0.065 -0.025,-0.08c-0.017,-0.015 -0.04,-0.022 -0.069,-0.022c-0.035,0 -0.065,0.014 -0.089,0.042c-0.024,0.028 -0.036,0.065 -0.036,0.112l-0,0.311l-0.088,0l-0,-0.363c-0,-0.038 -0.008,-0.064 -0.024,-0.079c-0.016,-0.015 -0.039,-0.023 -0.068,-0.023c-0.023,0 -0.044,0.006 -0.063,0.019c-0.019,0.012 -0.035,0.03 -0.047,0.053c-0.011,0.023 -0.017,0.051 -0.017,0.082l-0,0.311l-0.088,0l-0,-0.526Z" style="fill:#00656c;fill-rule:nonzero;"/></g><g transform="matrix(9,0,0,9,113.183,168.374)"><rect x="0.067" y="-0.723" width="0.088" height="0.723" style="fill:#00656c;fill-rule:nonzero;"/></g><g transform="matrix(9,0,0,9,115.181,168.374)"><path d="M0.21,0.012c-0.045,0 -0.086,-0.011 -0.121,-0.032c-0.035,-0.021 -0.053,-0.06 -0.053,-0.116c0,-0.067 0.03,-0.114 0.09,-0.139c0.06,-0.025 0.147,-0.037 0.26,-0.037l0,-0.058c-0,-0.031 -0.009,-0.054 -0.026,-0.071c-0.017,-0.016 -0.049,-0.024 -0.094,-0.024c-0.043,0 -0.073,0.008 -0.092,0.024c-0.018,0.016 -0.027,0.036 -0.027,0.059l-0,0.012l-0.085,0c-0.001,-0.004 -0.001,-0.011 -0.001,-0.022c-0,-0.047 0.019,-0.083 0.058,-0.108c0.039,-0.025 0.09,-0.038 0.155,-0.038c0.065,0 0.115,0.014 0.149,0.041c0.034,0.027 0.051,0.066 0.051,0.116l0,0.285c0,0.012 0.003,0.021 0.01,0.027c0.007,0.005 0.015,0.008 0.025,0.008l0.04,0l0,0.057c-0.017,0.008 -0.04,0.012 -0.068,0.012c-0.023,0 -0.042,-0.007 -0.057,-0.02c-0.015,-0.014 -0.026,-0.032 -0.031,-0.055l-0.007,0c-0.018,0.025 -0.043,0.044 -0.074,0.058c-0.03,0.014 -0.065,0.021 -0.102,0.021Zm0.023,-0.073c0.026,0 0.051,-0.005 0.074,-0.016c0.023,-0.011 0.042,-0.026 0.057,-0.047c0.015,-0.021 0.022,-0.047 0.022,-0.077l0,-0.038c-0.086,0 -0.151,0.007 -0.194,0.021c-0.043,0.013 -0.064,0.039 -0.064,0.077c0,0.029 0.009,0.049 0.026,0.062c0.018,0.012 0.044,0.018 0.079,0.018Zm0.093,-0.662l0.096,0l0.001,0.003l-0.108,0.129l-0.075,0l0.086,-0.132Z" style="fill:#00656c;fill-rule:nonzero;"/></g><g transform="matrix(9,0,0,9,120.185,168.374)"><path d="M0.243,0.012c-0.067,0 -0.118,-0.022 -0.154,-0.067c-0.036,-0.045 -0.054,-0.114 -0.054,-0.208c0,-0.092 0.018,-0.161 0.054,-0.207c0.035,-0.045 0.084,-0.068 0.146,-0.068c0.037,0 0.069,0.006 0.095,0.017c0.026,0.011 0.048,0.03 0.065,0.055l0.006,0l0,-0.257l0.088,0l0,0.723l-0.066,0l-0.011,-0.071l-0.006,0c-0.017,0.027 -0.04,0.048 -0.068,0.062c-0.029,0.014 -0.06,0.021 -0.095,0.021Zm0.022,-0.073c0.047,0 0.082,-0.017 0.104,-0.05c0.021,-0.033 0.032,-0.083 0.032,-0.148l0,-0.004c0,-0.067 -0.011,-0.117 -0.033,-0.151c-0.022,-0.034 -0.056,-0.051 -0.103,-0.051c-0.033,0 -0.06,0.007 -0.081,0.02c-0.02,0.013 -0.035,0.034 -0.044,0.063c-0.009,0.029 -0.014,0.069 -0.014,0.119l0,0.004c0,0.049 0.005,0.088 0.014,0.117c0.009,0.029 0.024,0.049 0.044,0.062c0.02,0.013 0.047,0.019 0.081,0.019Z" style="fill:#00656c;fill-rule:nonzero;"/></g><g transform="matrix(9,0,0,9,125.189,168.374)"><path d="M0.29,0.012c-0.085,0 -0.148,-0.022 -0.189,-0.067c-0.041,-0.045 -0.062,-0.114 -0.062,-0.208c0,-0.094 0.021,-0.163 0.062,-0.208c0.041,-0.045 0.104,-0.067 0.189,-0.067c0.076,0 0.133,0.02 0.171,0.061c0.037,0.04 0.056,0.105 0.056,0.194l0,0.044l-0.387,0c0.003,0.061 0.018,0.106 0.044,0.135c0.025,0.029 0.064,0.043 0.116,0.043c0.042,0 0.076,-0.01 0.102,-0.029c0.026,-0.019 0.039,-0.049 0.039,-0.089l0.086,0c0,0.061 -0.021,0.109 -0.064,0.142c-0.042,0.033 -0.096,0.049 -0.163,0.049Zm0.135,-0.324c-0,-0.102 -0.045,-0.153 -0.135,-0.153c-0.05,0 -0.088,0.012 -0.113,0.036c-0.025,0.024 -0.04,0.063 -0.045,0.117l0.293,0Z" style="fill:#00656c;fill-rule:nonzero;"/></g><g transform="matrix(9,0,0,9,130.193,168.374)"><path d="M0.024,-0.047l0.305,-0.406l-0.284,0l0,-0.073l0.413,0l0,0.046l-0.306,0.407l0.323,0l0,0.073l-0.451,0l-0,-0.047Zm0.078,-0.676l0.09,0l0.058,0.079l0.057,-0.079l0.09,0l-0.105,0.135l-0.084,0l-0.106,-0.135Z" style="fill:#00656c;fill-rule:nonzero;"/></g><g transform="matrix(9,0,0,9,134.693,168.374)"><path d="M0.067,-0.526l0.067,0l0.01,0.071l0.007,0c0.039,-0.055 0.098,-0.083 0.177,-0.083c0.053,0 0.093,0.014 0.122,0.043c0.028,0.028 0.042,0.073 0.042,0.136l0,0.359l-0.088,0l0,-0.353c0,-0.042 -0.009,-0.071 -0.028,-0.087c-0.019,-0.017 -0.046,-0.025 -0.081,-0.025c-0.025,0 -0.049,0.006 -0.07,0.019c-0.021,0.012 -0.038,0.03 -0.051,0.053c-0.013,0.023 -0.019,0.051 -0.019,0.082l0,0.311l-0.088,0l0,-0.526Z" style="fill:#00656c;fill-rule:nonzero;"/></g><g transform="matrix(9,0,0,9,139.697,168.374)"><path d="M0.067,-0.723l0.088,0l0,0.098l-0.088,0l0,-0.098Zm0,0.197l0.088,0l0,0.526l-0.088,-0l0,-0.526Z" style="fill:#00656c;fill-rule:nonzero;"/></g><g transform="matrix(9,0,0,9,141.695,168.374)"><path d="M0.267,0.012c-0.08,0 -0.139,-0.022 -0.176,-0.067c-0.037,-0.044 -0.056,-0.113 -0.056,-0.208c-0,-0.094 0.019,-0.163 0.056,-0.208c0.038,-0.045 0.097,-0.067 0.176,-0.067c0.072,0 0.125,0.017 0.158,0.052c0.033,0.035 0.05,0.086 0.05,0.155l-0.09,0c0,-0.047 -0.009,-0.081 -0.026,-0.102c-0.016,-0.022 -0.047,-0.032 -0.092,-0.032c-0.049,0 -0.084,0.016 -0.107,0.048c-0.023,0.031 -0.034,0.083 -0.034,0.154l-0,0.004c-0,0.071 0.011,0.121 0.033,0.152c0.022,0.031 0.058,0.046 0.108,0.046c0.044,0 0.076,-0.011 0.094,-0.033c0.02,-0.023 0.029,-0.056 0.029,-0.101l0.085,0c0,0.06 -0.017,0.11 -0.051,0.149c-0.034,0.039 -0.086,0.058 -0.157,0.058Z" style="fill:#00656c;fill-rule:nonzero;"/></g><g transform="matrix(9,0,0,9,146.195,168.374)"><path d="M0.067,-0.723l0.088,0l0,0.455l0.223,-0.258l0.109,0l-0.181,0.207l0.191,0.319l-0.102,-0l-0.144,-0.256l-0.096,0.091l0,0.165l-0.088,-0l0,-0.723Z" style="fill:#00656c;fill-rule:nonzero;"/></g><g transform="matrix(9,0,0,9,150.695,168.374)"><path d="M0.117,0.182c-0.029,0 -0.053,-0.003 -0.07,-0.008l0,-0.057l0.035,0c0.068,0 0.113,-0.039 0.134,-0.117l-0.203,-0.526l0.093,0l0.098,0.263c0.009,0.025 0.02,0.055 0.033,0.093c0.012,0.037 0.02,0.061 0.024,0.072l0.005,0c0.003,-0.011 0.01,-0.033 0.019,-0.064c0.009,-0.031 0.019,-0.065 0.03,-0.101l0.084,-0.263l0.088,0l-0.173,0.499c-0.023,0.067 -0.05,0.118 -0.08,0.155c-0.029,0.036 -0.068,0.054 -0.117,0.054Zm0.181,-0.905l0.096,0l0.001,0.003l-0.108,0.129l-0.075,0l0.086,-0.132Z" style="fill:#00656c;fill-rule:nonzero;"/></g><g transform="matrix(9,0,0,9,155.195,168.374)"><path d="M0.267,0.012c-0.08,0 -0.139,-0.022 -0.176,-0.067c-0.037,-0.044 -0.056,-0.113 -0.056,-0.208c-0,-0.094 0.019,-0.163 0.056,-0.208c0.038,-0.045 0.097,-0.067 0.176,-0.067c0.072,0 0.125,0.017 0.158,0.052c0.033,0.035 0.05,0.086 0.05,0.155l-0.09,0c0,-0.047 -0.009,-0.081 -0.026,-0.102c-0.016,-0.022 -0.047,-0.032 -0.092,-0.032c-0.049,0 -0.084,0.016 -0.107,0.048c-0.023,0.031 -0.034,0.083 -0.034,0.154l-0,0.004c-0,0.071 0.011,0.121 0.033,0.152c0.022,0.031 0.058,0.046 0.108,0.046c0.044,0 0.076,-0.011 0.094,-0.033c0.02,-0.023 0.029,-0.056 0.029,-0.101l0.085,0c0,0.06 -0.017,0.11 -0.051,0.149c-0.034,0.039 -0.086,0.058 -0.157,0.058Z" style="fill:#00656c;fill-rule:nonzero;"/></g><g transform="matrix(9,0,0,9,159.695,168.374)"><path d="M0.067,-0.723l0.088,0l0,0.256l0.007,-0c0.037,-0.047 0.092,-0.071 0.166,-0.071c0.109,0 0.164,0.06 0.164,0.179l0,0.359l-0.088,0l0,-0.353c0,-0.042 -0.009,-0.071 -0.028,-0.087c-0.019,-0.017 -0.046,-0.025 -0.081,-0.025c-0.025,0 -0.049,0.006 -0.07,0.019c-0.021,0.012 -0.038,0.03 -0.051,0.053c-0.013,0.023 -0.019,0.051 -0.019,0.082l0,0.311l-0.088,0l0,-0.723Z" style="fill:#00656c;fill-rule:nonzero;"/></g><g transform="matrix(9,0,0,9,167.201,168.374)"><path d="M0.067,-0.723l0.088,0l0,0.455l0.223,-0.258l0.109,0l-0.181,0.207l0.191,0.319l-0.102,-0l-0.144,-0.256l-0.096,0.091l0,0.165l-0.088,-0l0,-0.723Z" style="fill:#00656c;fill-rule:nonzero;"/></g><g transform="matrix(9,0,0,9,171.701,168.374)"><rect x="0.067" y="-0.723" width="0.088" height="0.723" style="fill:#00656c;fill-rule:nonzero;"/></g><g transform="matrix(9,0,0,9,173.698,168.374)"><path d="M0.067,-0.723l0.088,0l0,0.098l-0.088,0l0,-0.098Zm0,0.197l0.088,0l0,0.526l-0.088,-0l0,-0.526Z" style="fill:#00656c;fill-rule:nonzero;"/></g><g transform="matrix(9,0,0,9,175.696,168.374)"><path d="M0.067,-0.526l0.067,0l0.01,0.071l0.007,0c0.036,-0.055 0.089,-0.083 0.158,-0.083c0.068,0 0.113,0.028 0.136,0.083l0.006,0c0.018,-0.027 0.041,-0.047 0.07,-0.061c0.029,-0.015 0.06,-0.022 0.093,-0.022c0.103,0 0.155,0.053 0.155,0.159l-0,0.379l-0.088,-0l-0,-0.363c-0,-0.038 -0.008,-0.065 -0.025,-0.08c-0.017,-0.015 -0.04,-0.022 -0.069,-0.022c-0.035,0 -0.065,0.014 -0.089,0.042c-0.024,0.028 -0.036,0.065 -0.036,0.112l-0,0.311l-0.088,0l-0,-0.363c-0,-0.038 -0.008,-0.064 -0.024,-0.079c-0.016,-0.015 -0.039,-0.023 -0.068,-0.023c-0.023,0 -0.044,0.006 -0.063,0.019c-0.019,0.012 -0.035,0.03 -0.047,0.053c-0.011,0.023 -0.017,0.051 -0.017,0.082l-0,0.311l-0.088,0l-0,-0.526Z" style="fill:#00656c;fill-rule:nonzero;"/></g><g transform="matrix(9,0,0,9,183.193,168.374)"><rect x="0.091" y="-0.108" width="0.1" height="0.108" style="fill:#00656c;fill-rule:nonzero;"/></g><g transform="matrix(9,0,0,9,188.197,168.374)"><path d="M0.278,0.012c-0.081,0 -0.141,-0.023 -0.182,-0.068c-0.041,-0.044 -0.061,-0.114 -0.061,-0.207c-0,-0.093 0.02,-0.162 0.061,-0.208c0.041,-0.044 0.101,-0.067 0.182,-0.067c0.081,0 0.141,0.023 0.182,0.068c0.041,0.045 0.061,0.114 0.061,0.207c0,0.093 -0.02,0.163 -0.061,0.208c-0.041,0.044 -0.101,0.067 -0.182,0.067Zm0,-0.073c0.053,-0 0.092,-0.016 0.116,-0.047c0.024,-0.031 0.036,-0.081 0.036,-0.151l-0,-0.008c-0,-0.07 -0.012,-0.121 -0.036,-0.151c-0.024,-0.031 -0.063,-0.047 -0.116,-0.047c-0.053,0 -0.092,0.016 -0.116,0.047c-0.024,0.031 -0.036,0.081 -0.036,0.151l-0,0.008c-0,0.07 0.012,0.121 0.036,0.152c0.024,0.031 0.063,0.046 0.116,0.046Z" style="fill:#00656c;fill-rule:nonzero;"/></g><g transform="matrix(9,0,0,9,193.201,168.374)"><path d="M0.067,-0.526l0.067,0l0.01,0.079l0.006,0c0.01,-0.026 0.025,-0.048 0.045,-0.065c0.02,-0.017 0.046,-0.026 0.079,-0.026c0.011,0 0.021,0.001 0.03,0.004c0.009,0.002 0.015,0.003 0.017,0.004l-0,0.085l-0.037,0c-0.037,0 -0.068,0.011 -0.093,0.032c-0.024,0.022 -0.036,0.056 -0.036,0.102l-0,0.311l-0.088,0l-0,-0.526Z" style="fill:#00656c;fill-rule:nonzero;"/></g><g transform="matrix(9,0,0,9,196.198,168.374)"><path d="M0.161,0.182c-0.039,0 -0.072,-0.01 -0.101,-0.029c-0.028,-0.02 -0.042,-0.053 -0.042,-0.098c0,-0.055 0.028,-0.092 0.085,-0.112c-0.016,-0.009 -0.029,-0.02 -0.04,-0.033c-0.01,-0.014 -0.015,-0.03 -0.015,-0.048c0,-0.026 0.009,-0.046 0.027,-0.059c0.019,-0.013 0.039,-0.023 0.061,-0.028c-0.022,-0.016 -0.039,-0.036 -0.052,-0.059c-0.013,-0.023 -0.019,-0.049 -0.019,-0.077c0,-0.056 0.019,-0.099 0.057,-0.13c0.038,-0.032 0.09,-0.047 0.156,-0.047c0.037,0 0.07,0.006 0.1,0.018c0.043,-0.021 0.069,-0.051 0.076,-0.091l0.084,0c0,0.031 -0.009,0.058 -0.027,0.081c-0.019,0.023 -0.044,0.038 -0.075,0.045c0.037,0.033 0.056,0.075 0.056,0.124c0,0.056 -0.019,0.1 -0.057,0.131c-0.039,0.031 -0.091,0.046 -0.157,0.046l-0.084,0c-0.018,0 -0.032,0.004 -0.042,0.012c-0.009,0.008 -0.014,0.018 -0.014,0.031c0,0.013 0.005,0.023 0.015,0.031c0.009,0.008 0.023,0.012 0.041,0.012l0.211,0c0.041,0 0.074,0.013 0.098,0.038c0.024,0.025 0.036,0.055 0.036,0.09c0,0.025 -0.006,0.05 -0.017,0.073c-0.011,0.023 -0.03,0.042 -0.054,0.057c-0.025,0.015 -0.057,0.022 -0.095,0.022l-0.212,0Zm0.118,-0.434c0.041,0 0.073,-0.009 0.094,-0.028c0.021,-0.019 0.032,-0.046 0.032,-0.081c0,-0.035 -0.011,-0.061 -0.032,-0.08c-0.021,-0.019 -0.053,-0.029 -0.094,-0.029c-0.041,0 -0.073,0.01 -0.094,0.029c-0.021,0.019 -0.032,0.045 -0.032,0.08c-0,0.035 0.011,0.062 0.032,0.081c0.021,0.019 0.053,0.028 0.094,0.028Zm0.096,0.363c0.022,0 0.04,-0.006 0.055,-0.018c0.015,-0.012 0.022,-0.028 0.022,-0.048c0,-0.02 -0.006,-0.036 -0.018,-0.047c-0.011,-0.012 -0.027,-0.018 -0.046,-0.018l-0.219,0c-0.019,0 -0.035,0.006 -0.046,0.018c-0.011,0.011 -0.017,0.027 -0.017,0.047c-0,0.02 0.006,0.036 0.017,0.048c0.011,0.012 0.027,0.018 0.046,0.018l0.206,0Z" style="fill:#00656c;fill-rule:nonzero;"/></g><g transform="matrix(9,0,0,9,201.202,168.374)"><path d="M0.21,0.012c-0.045,0 -0.086,-0.011 -0.121,-0.032c-0.035,-0.021 -0.053,-0.06 -0.053,-0.116c0,-0.067 0.03,-0.114 0.09,-0.139c0.06,-0.025 0.147,-0.037 0.26,-0.037l0,-0.058c-0,-0.031 -0.009,-0.054 -0.026,-0.071c-0.017,-0.016 -0.049,-0.024 -0.094,-0.024c-0.043,0 -0.073,0.008 -0.092,0.024c-0.018,0.016 -0.027,0.036 -0.027,0.059l-0,0.012l-0.085,0c-0.001,-0.004 -0.001,-0.011 -0.001,-0.022c-0,-0.047 0.019,-0.083 0.058,-0.108c0.039,-0.025 0.09,-0.038 0.155,-0.038c0.065,0 0.115,0.014 0.149,0.041c0.034,0.027 0.051,0.066 0.051,0.116l0,0.285c0,0.012 0.003,0.021 0.01,0.027c0.007,0.005 0.015,0.008 0.025,0.008l0.04,0l0,0.057c-0.017,0.008 -0.04,0.012 -0.068,0.012c-0.023,0 -0.042,-0.007 -0.057,-0.02c-0.015,-0.014 -0.026,-0.032 -0.031,-0.055l-0.007,0c-0.018,0.025 -0.043,0.044 -0.074,0.058c-0.03,0.014 -0.065,0.021 -0.102,0.021Zm0.023,-0.073c0.026,0 0.051,-0.005 0.074,-0.016c0.023,-0.011 0.042,-0.026 0.057,-0.047c0.015,-0.021 0.022,-0.047 0.022,-0.077l0,-0.038c-0.086,0 -0.151,0.007 -0.194,0.021c-0.043,0.013 -0.064,0.039 -0.064,0.077c0,0.029 0.009,0.049 0.026,0.062c0.018,0.012 0.044,0.018 0.079,0.018Z" style="fill:#00656c;fill-rule:nonzero;"/></g><g transform="matrix(9,0,0,9,206.206,168.374)"><path d="M0.067,-0.526l0.067,0l0.01,0.071l0.007,0c0.039,-0.055 0.098,-0.083 0.177,-0.083c0.053,0 0.093,0.014 0.122,0.043c0.028,0.028 0.042,0.073 0.042,0.136l0,0.359l-0.088,0l0,-0.353c0,-0.042 -0.009,-0.071 -0.028,-0.087c-0.019,-0.017 -0.046,-0.025 -0.081,-0.025c-0.025,0 -0.049,0.006 -0.07,0.019c-0.021,0.012 -0.038,0.03 -0.051,0.053c-0.013,0.023 -0.019,0.051 -0.019,0.082l0,0.311l-0.088,0l0,-0.526Z" style="fill:#00656c;fill-rule:nonzero;"/></g><g transform="matrix(9,0,0,9,211.21,168.374)"><path d="M0.067,-0.723l0.088,0l0,0.098l-0.088,0l0,-0.098Zm0,0.197l0.088,0l0,0.526l-0.088,-0l0,-0.526Z" style="fill:#00656c;fill-rule:nonzero;"/></g><g transform="matrix(9,0,0,9,213.208,168.374)"><path d="M0.024,-0.047l0.305,-0.406l-0.284,0l0,-0.073l0.413,0l0,0.046l-0.306,0.407l0.323,0l0,0.073l-0.451,0l-0,-0.047Z" style="fill:#00656c;fill-rule:nonzero;"/></g><g transform="matrix(9,0,0,9,217.708,168.374)"><path d="M0.21,0.012c-0.045,0 -0.086,-0.011 -0.121,-0.032c-0.035,-0.021 -0.053,-0.06 -0.053,-0.116c0,-0.067 0.03,-0.114 0.09,-0.139c0.06,-0.025 0.147,-0.037 0.26,-0.037l0,-0.058c-0,-0.031 -0.009,-0.054 -0.026,-0.071c-0.017,-0.016 -0.049,-0.024 -0.094,-0.024c-0.043,0 -0.073,0.008 -0.092,0.024c-0.018,0.016 -0.027,0.036 -0.027,0.059l-0,0.012l-0.085,0c-0.001,-0.004 -0.001,-0.011 -0.001,-0.022c-0,-0.047 0.019,-0.083 0.058,-0.108c0.039,-0.025 0.09,-0.038 0.155,-0.038c0.065,0 0.115,0.014 0.149,0.041c0.034,0.027 0.051,0.066 0.051,0.116l0,0.285c0,0.012 0.003,0.021 0.01,0.027c0.007,0.005 0.015,0.008 0.025,0.008l0.04,0l0,0.057c-0.017,0.008 -0.04,0.012 -0.068,0.012c-0.023,0 -0.042,-0.007 -0.057,-0.02c-0.015,-0.014 -0.026,-0.032 -0.031,-0.055l-0.007,0c-0.018,0.025 -0.043,0.044 -0.074,0.058c-0.03,0.014 -0.065,0.021 -0.102,0.021Zm0.023,-0.073c0.026,0 0.051,-0.005 0.074,-0.016c0.023,-0.011 0.042,-0.026 0.057,-0.047c0.015,-0.021 0.022,-0.047 0.022,-0.077l0,-0.038c-0.086,0 -0.151,0.007 -0.194,0.021c-0.043,0.013 -0.064,0.039 -0.064,0.077c0,0.029 0.009,0.049 0.026,0.062c0.018,0.012 0.044,0.018 0.079,0.018Z" style="fill:#00656c;fill-rule:nonzero;"/></g><g transform="matrix(9,0,0,9,222.712,168.374)"><path d="M0.267,0.012c-0.08,0 -0.139,-0.022 -0.176,-0.067c-0.037,-0.044 -0.056,-0.113 -0.056,-0.208c-0,-0.094 0.019,-0.163 0.056,-0.208c0.038,-0.045 0.097,-0.067 0.176,-0.067c0.072,0 0.125,0.017 0.158,0.052c0.033,0.035 0.05,0.086 0.05,0.155l-0.09,0c0,-0.047 -0.009,-0.081 -0.026,-0.102c-0.016,-0.022 -0.047,-0.032 -0.092,-0.032c-0.049,0 -0.084,0.016 -0.107,0.048c-0.023,0.031 -0.034,0.083 -0.034,0.154l-0,0.004c-0,0.071 0.011,0.121 0.033,0.152c0.022,0.031 0.058,0.046 0.108,0.046c0.044,0 0.076,-0.011 0.094,-0.033c0.02,-0.023 0.029,-0.056 0.029,-0.101l0.085,0c0,0.06 -0.017,0.11 -0.051,0.149c-0.034,0.039 -0.086,0.058 -0.157,0.058Z" style="fill:#00656c;fill-rule:nonzero;"/></g><g transform="matrix(9,0,0,9,227.212,168.374)"><path d="M0.171,-0.723l0.096,0l0.001,0.003l-0.108,0.129l-0.075,0l0.086,-0.132Zm-0.076,0.197l0.088,0l-0,0.526l-0.088,-0l-0,-0.526Z" style="fill:#00656c;fill-rule:nonzero;"/></g></g><rect x="8.59" y="458.348" width="970.242" height="197.9" style="fill:none;stroke:#00656c;stroke-width:4.17px;"/><rect x="1053.87" y="458.348" width="970.242" height="197.9" style="fill:#fff;"/><g transform="matrix(4.16667,0,0,4.16667,-99.7935,-99.7935)"><g transform="matrix(11,0,0,11,347.454,154.544)"><path d="M0.343,0.012c0.183,0 0.294,-0.076 0.294,-0.208c0,-0.119 -0.09,-0.16 -0.201,-0.189l-0.11,-0.029c-0.114,-0.03 -0.136,-0.055 -0.136,-0.1c0,-0.055 0.048,-0.087 0.136,-0.087c0.108,-0 0.157,0.053 0.161,0.156l0.13,-0.021c-0.001,-0.144 -0.104,-0.23 -0.289,-0.23c-0.171,0 -0.274,0.07 -0.274,0.196c-0.001,0.109 0.074,0.157 0.187,0.188l0.109,0.03c0.111,0.031 0.145,0.055 0.145,0.107c-0,0.059 -0.052,0.092 -0.144,0.092c-0.118,-0 -0.172,-0.05 -0.179,-0.161l-0.141,0.022c0.007,0.153 0.122,0.234 0.312,0.234Z" style="fill:#00656c;fill-rule:nonzero;"/></g><g transform="matrix(11,0,0,11,354.661,154.544)"><path d="M0.22,-0l0.145,-0l-0,-0.577l0.213,0l0,-0.107l-0.571,0l0,0.107l0.213,0l0,0.577Z" style="fill:#00656c;fill-rule:nonzero;"/></g><g transform="matrix(11,0,0,11,361.101,154.544)"><path d="M0.055,-0l0.144,-0l0,-0.293l0.125,0c0.069,0 0.09,0.031 0.108,0.099l0.018,0.068c0.017,0.067 0.029,0.101 0.047,0.126l0.163,-0l0.002,-0.012c-0.026,-0.017 -0.046,-0.051 -0.069,-0.124l-0.022,-0.073c-0.023,-0.073 -0.046,-0.101 -0.103,-0.117l0,-0.009c0.1,-0.011 0.153,-0.067 0.153,-0.16l0,-0.002c0,-0.122 -0.081,-0.187 -0.237,-0.187l-0.329,0l0,0.684Zm0.144,-0.385l0,-0.201l0.159,0c0.079,0 0.117,0.03 0.117,0.1l0,0.002c0,0.069 -0.039,0.099 -0.12,0.099l-0.156,-0Z" style="fill:#00656c;fill-rule:nonzero;"/></g><g transform="matrix(11,0,0,11,368.459,154.544)"><path d="M0.006,-0l0.142,-0l0.045,-0.133l0.269,0l0.045,0.133l0.151,-0l-0.239,-0.684l-0.174,0l-0.239,0.684Zm0.212,-0.224l0.057,-0.175c0.018,-0.059 0.032,-0.106 0.047,-0.169l0.011,-0c0.016,0.063 0.029,0.11 0.048,0.168l0.056,0.176l-0.219,-0Z" style="fill:#00656c;fill-rule:nonzero;"/></g><g transform="matrix(11,0,0,11,375.027,154.544)"><path d="M0.22,-0l0.145,-0l-0,-0.577l0.213,0l0,-0.107l-0.571,0l0,0.107l0.213,0l0,0.577Z" style="fill:#00656c;fill-rule:nonzero;"/></g><g transform="matrix(11,0,0,11,381.466,154.544)"><path d="M0.199,-0.1l0,-0.212l0.331,0l-0,-0.09l-0.331,-0l0,-0.181l0.353,-0l0,-0.101l-0.497,0l0,0.684l0.507,-0l0,-0.1l-0.363,-0Z" style="fill:#00656c;fill-rule:nonzero;"/></g><g transform="matrix(11,0,0,11,387.846,154.544)"><path d="M0.315,0.011c0.127,-0 0.209,-0.064 0.251,-0.186l0.012,0.003c-0.023,0.089 -0.03,0.132 -0.028,0.172l0.127,-0l0,-0.388l-0.344,0l0,0.101l0.201,0c-0.016,0.129 -0.074,0.195 -0.178,0.195c-0.114,0 -0.17,-0.077 -0.17,-0.242l0,-0.022c0,-0.162 0.059,-0.238 0.181,-0.238c0.099,-0 0.151,0.046 0.159,0.146l0.143,-0.026c-0.017,-0.145 -0.118,-0.222 -0.302,-0.222c-0.217,0 -0.329,0.12 -0.329,0.352l-0,0.002c-0,0.232 0.095,0.353 0.277,0.353Z" style="fill:#00656c;fill-rule:nonzero;"/></g><g transform="matrix(11,0,0,11,395.875,154.544)"><rect x="0.055" y="-0.684" width="0.144" height="0.684" style="fill:#00656c;fill-rule:nonzero;"/></g><g transform="matrix(11,0,0,11,398.673,154.544)"><path d="M0.363,0.012c0.191,0 0.298,-0.089 0.314,-0.262l-0.146,-0.027c-0.007,0.127 -0.062,0.187 -0.168,0.187c-0.119,-0 -0.177,-0.077 -0.177,-0.237l0,-0.029c0,-0.161 0.057,-0.237 0.176,-0.237c0.107,-0 0.16,0.059 0.165,0.186l0.143,-0.024c-0.012,-0.174 -0.116,-0.265 -0.308,-0.265c-0.214,0 -0.324,0.121 -0.324,0.353l-0,0.002c-0,0.233 0.11,0.353 0.325,0.353Z" style="fill:#00656c;fill-rule:nonzero;"/></g><g transform="matrix(11,0,0,11,406.52,154.544)"><path d="M0.055,-0l0.144,-0l0,-0.227l0.094,-0.099l0.181,0.326l0.158,-0l-0.24,-0.418l0.239,-0.266l-0.156,0l-0.28,0.312l-0.008,-0.004c0.009,-0.046 0.012,-0.082 0.012,-0.134l0,-0.174l-0.144,0l0,0.684Z" style="fill:#00656c;fill-rule:nonzero;"/></g><g transform="matrix(11,0,0,11,413.587,154.544)"><path d="M0.265,-0.729l0.109,-0l0.092,-0.096l-0.137,0l-0.064,0.096Zm0.364,0.045l-0.149,0l-0.097,0.181c-0.021,0.04 -0.038,0.076 -0.057,0.127l-0.01,0c-0.02,-0.05 -0.037,-0.088 -0.058,-0.127l-0.098,-0.181l-0.154,0l0.24,0.428l-0,0.256l0.144,-0l0,-0.256l0.239,-0.428Z" style="fill:#00656c;fill-rule:nonzero;"/></g><g transform="matrix(11,0,0,11,422.556,154.544)"><path d="M0.363,0.012c0.191,0 0.298,-0.089 0.314,-0.262l-0.146,-0.027c-0.007,0.127 -0.062,0.187 -0.168,0.187c-0.119,-0 -0.177,-0.077 -0.177,-0.237l0,-0.029c0,-0.161 0.057,-0.237 0.176,-0.237c0.107,-0 0.16,0.059 0.165,0.186l0.143,-0.024c-0.012,-0.174 -0.116,-0.265 -0.308,-0.265c-0.214,0 -0.324,0.121 -0.324,0.353l-0,0.002c-0,0.233 0.11,0.353 0.325,0.353Z" style="fill:#00656c;fill-rule:nonzero;"/></g><g transform="matrix(11,0,0,11,430.403,154.544)"><path d="M0.073,-0.729l0.109,-0l0.092,-0.096l-0.137,0l-0.064,0.096Zm-0.018,0.045l0,0.684l0.144,-0l0,-0.684l-0.144,0Z" style="fill:#00656c;fill-rule:nonzero;"/></g><g transform="matrix(11,0,0,11,433.2,154.544)"><path d="M0.055,-0l0.483,-0l0,-0.106l-0.339,0l0,-0.578l-0.144,0l0,0.684Z" style="fill:#00656c;fill-rule:nonzero;"/></g><g transform="matrix(9,0,0,9,310.283,168.374)"><path d="M0.023,-0.049l0.412,-0.554l-0.386,0l-0,-0.083l0.531,0l-0,0.049l-0.413,0.554l0.422,-0l0,0.083l-0.566,-0l0,-0.049Z" style="fill:#00656c;fill-rule:nonzero;"/></g><g transform="matrix(9,0,0,9,315.782,168.374)"><path d="M0.29,0.012c-0.085,0 -0.148,-0.022 -0.189,-0.067c-0.041,-0.045 -0.062,-0.114 -0.062,-0.208c0,-0.094 0.021,-0.163 0.062,-0.208c0.041,-0.045 0.104,-0.067 0.189,-0.067c0.076,0 0.133,0.02 0.171,0.061c0.037,0.04 0.056,0.105 0.056,0.194l0,0.044l-0.387,0c0.003,0.061 0.018,0.106 0.044,0.135c0.025,0.029 0.064,0.043 0.116,0.043c0.042,0 0.076,-0.01 0.102,-0.029c0.026,-0.019 0.039,-0.049 0.039,-0.089l0.086,0c0,0.061 -0.021,0.109 -0.064,0.142c-0.042,0.033 -0.096,0.049 -0.163,0.049Zm0.135,-0.324c-0,-0.102 -0.045,-0.153 -0.135,-0.153c-0.05,0 -0.088,0.012 -0.113,0.036c-0.025,0.024 -0.04,0.063 -0.045,0.117l0.293,0Z" style="fill:#00656c;fill-rule:nonzero;"/></g><g transform="matrix(9,0,0,9,320.786,168.374)"><path d="M0.247,0.012c-0.049,0 -0.089,-0.007 -0.122,-0.021c-0.032,-0.015 -0.056,-0.034 -0.071,-0.057c-0.015,-0.023 -0.023,-0.049 -0.023,-0.076c0,-0.008 0,-0.013 0.001,-0.016c-0,-0.003 0,-0.005 0,-0.006l0.087,0l0,0.01c0,0.031 0.012,0.055 0.037,0.071c0.025,0.015 0.057,0.023 0.096,0.023c0.034,0 0.062,-0.007 0.085,-0.02c0.022,-0.014 0.033,-0.033 0.033,-0.058c-0,-0.019 -0.006,-0.035 -0.019,-0.047c-0.013,-0.013 -0.028,-0.023 -0.047,-0.029c-0.019,-0.008 -0.044,-0.015 -0.076,-0.023c-0.039,-0.01 -0.07,-0.02 -0.094,-0.03c-0.025,-0.01 -0.045,-0.025 -0.062,-0.044c-0.017,-0.02 -0.026,-0.046 -0.026,-0.077c0,-0.046 0.019,-0.082 0.057,-0.109c0.037,-0.028 0.088,-0.041 0.152,-0.041c0.04,0 0.075,0.007 0.104,0.02c0.029,0.013 0.052,0.03 0.067,0.051c0.014,0.022 0.022,0.046 0.022,0.073l-0.001,0.019l-0.086,0l0,-0.009c0,-0.023 -0.009,-0.043 -0.027,-0.058c-0.019,-0.015 -0.048,-0.023 -0.089,-0.023c-0.04,0 -0.068,0.007 -0.084,0.022c-0.016,0.014 -0.024,0.03 -0.024,0.049c0,0.015 0.006,0.028 0.017,0.038c0.011,0.01 0.025,0.018 0.042,0.024c0.017,0.006 0.04,0.013 0.07,0.02c0.041,0.011 0.075,0.021 0.101,0.031c0.026,0.011 0.048,0.027 0.067,0.048c0.018,0.021 0.027,0.048 0.027,0.083c0,0.054 -0.02,0.095 -0.058,0.122c-0.04,0.027 -0.091,0.04 -0.156,0.04Z" style="fill:#00656c;fill-rule:nonzero;"/></g><g transform="matrix(9,0,0,9,325.286,168.374)"><path d="M0.171,-0.723l0.096,0l0.001,0.003l-0.108,0.129l-0.075,0l0.086,-0.132Zm-0.076,0.197l0.088,0l-0,0.526l-0.088,-0l-0,-0.526Z" style="fill:#00656c;fill-rule:nonzero;"/></g><g transform="matrix(9,0,0,9,327.788,168.374)"><rect x="0.067" y="-0.723" width="0.088" height="0.723" style="fill:#00656c;fill-rule:nonzero;"/></g><g transform="matrix(9,0,0,9,329.786,168.374)"><path d="M0.067,-0.723l0.088,0l0,0.098l-0.088,0l0,-0.098Zm0,0.197l0.088,0l0,0.526l-0.088,-0l0,-0.526Z" style="fill:#00656c;fill-rule:nonzero;"/></g><g transform="matrix(9,0,0,9,331.784,168.374)"><path d="M0.186,0.011c-0.036,0 -0.062,-0.011 -0.079,-0.032c-0.017,-0.021 -0.025,-0.048 -0.025,-0.079l0,-0.353l-0.064,-0l0,-0.073l0.065,-0l0.019,-0.146l0.068,-0l0,0.146l0.089,-0l0,0.073l-0.089,-0l0,0.345c0,0.031 0.015,0.047 0.044,0.047l0.045,-0l0,0.058c-0.009,0.004 -0.02,0.007 -0.034,0.01c-0.014,0.003 -0.027,0.004 -0.039,0.004Z" style="fill:#00656c;fill-rule:nonzero;"/></g><g transform="matrix(9,0,0,9,336.788,168.374)"><path d="M0.067,-0.723l0.088,0l0,0.256l0.007,-0c0.037,-0.047 0.092,-0.071 0.166,-0.071c0.109,0 0.164,0.06 0.164,0.179l0,0.359l-0.088,0l0,-0.353c0,-0.042 -0.009,-0.071 -0.028,-0.087c-0.019,-0.017 -0.046,-0.025 -0.081,-0.025c-0.025,0 -0.049,0.006 -0.07,0.019c-0.021,0.012 -0.038,0.03 -0.051,0.053c-0.013,0.023 -0.019,0.051 -0.019,0.082l0,0.311l-0.088,0l0,-0.723Z" style="fill:#00656c;fill-rule:nonzero;"/></g><g transform="matrix(9,0,0,9,341.792,168.374)"><rect x="0.067" y="-0.723" width="0.088" height="0.723" style="fill:#00656c;fill-rule:nonzero;"/></g><g transform="matrix(9,0,0,9,343.79,168.374)"><path d="M0.21,0.012c-0.045,0 -0.086,-0.011 -0.121,-0.032c-0.035,-0.021 -0.053,-0.06 -0.053,-0.116c0,-0.067 0.03,-0.114 0.09,-0.139c0.06,-0.025 0.147,-0.037 0.26,-0.037l0,-0.058c-0,-0.031 -0.009,-0.054 -0.026,-0.071c-0.017,-0.016 -0.049,-0.024 -0.094,-0.024c-0.043,0 -0.073,0.008 -0.092,0.024c-0.018,0.016 -0.027,0.036 -0.027,0.059l-0,0.012l-0.085,0c-0.001,-0.004 -0.001,-0.011 -0.001,-0.022c-0,-0.047 0.019,-0.083 0.058,-0.108c0.039,-0.025 0.09,-0.038 0.155,-0.038c0.065,0 0.115,0.014 0.149,0.041c0.034,0.027 0.051,0.066 0.051,0.116l0,0.285c0,0.012 0.003,0.021 0.01,0.027c0.007,0.005 0.015,0.008 0.025,0.008l0.04,0l0,0.057c-0.017,0.008 -0.04,0.012 -0.068,0.012c-0.023,0 -0.042,-0.007 -0.057,-0.02c-0.015,-0.014 -0.026,-0.032 -0.031,-0.055l-0.007,0c-0.018,0.025 -0.043,0.044 -0.074,0.058c-0.03,0.014 -0.065,0.021 -0.102,0.021Zm0.023,-0.073c0.026,0 0.051,-0.005 0.074,-0.016c0.023,-0.011 0.042,-0.026 0.057,-0.047c0.015,-0.021 0.022,-0.047 0.022,-0.077l0,-0.038c-0.086,0 -0.151,0.007 -0.194,0.021c-0.043,0.013 -0.064,0.039 -0.064,0.077c0,0.029 0.009,0.049 0.026,0.062c0.018,0.012 0.044,0.018 0.079,0.018Z" style="fill:#00656c;fill-rule:nonzero;"/></g><g transform="matrix(9,0,0,9,348.794,168.374)"><path d="M0.247,0.012c-0.049,0 -0.089,-0.007 -0.122,-0.021c-0.032,-0.015 -0.056,-0.034 -0.071,-0.057c-0.015,-0.023 -0.023,-0.049 -0.023,-0.076c0,-0.008 0,-0.013 0.001,-0.016c-0,-0.003 0,-0.005 0,-0.006l0.087,0l0,0.01c0,0.031 0.012,0.055 0.037,0.071c0.025,0.015 0.057,0.023 0.096,0.023c0.034,0 0.062,-0.007 0.085,-0.02c0.022,-0.014 0.033,-0.033 0.033,-0.058c-0,-0.019 -0.006,-0.035 -0.019,-0.047c-0.013,-0.013 -0.028,-0.023 -0.047,-0.029c-0.019,-0.008 -0.044,-0.015 -0.076,-0.023c-0.039,-0.01 -0.07,-0.02 -0.094,-0.03c-0.025,-0.01 -0.045,-0.025 -0.062,-0.044c-0.017,-0.02 -0.026,-0.046 -0.026,-0.077c0,-0.046 0.019,-0.082 0.057,-0.109c0.037,-0.028 0.088,-0.041 0.152,-0.041c0.04,0 0.075,0.007 0.104,0.02c0.029,0.013 0.052,0.03 0.067,0.051c0.014,0.022 0.022,0.046 0.022,0.073l-0.001,0.019l-0.086,0l0,-0.009c0,-0.023 -0.009,-0.043 -0.027,-0.058c-0.019,-0.015 -0.048,-0.023 -0.089,-0.023c-0.04,0 -0.068,0.007 -0.084,0.022c-0.016,0.014 -0.024,0.03 -0.024,0.049c0,0.015 0.006,0.028 0.017,0.038c0.011,0.01 0.025,0.018 0.042,0.024c0.017,0.006 0.04,0.013 0.07,0.02c0.041,0.011 0.075,0.021 0.101,0.031c0.026,0.011 0.048,0.027 0.067,0.048c0.018,0.021 0.027,0.048 0.027,0.083c0,0.054 -0.02,0.095 -0.058,0.122c-0.04,0.027 -0.091,0.04 -0.156,0.04Z" style="fill:#00656c;fill-rule:nonzero;"/></g><g transform="matrix(9,0,0,9,355.796,168.374)"><path d="M0.067,-0.526l0.067,0l0.01,0.071l0.007,0c0.036,-0.055 0.089,-0.083 0.158,-0.083c0.068,0 0.113,0.028 0.136,0.083l0.006,0c0.018,-0.027 0.041,-0.047 0.07,-0.061c0.029,-0.015 0.06,-0.022 0.093,-0.022c0.103,0 0.155,0.053 0.155,0.159l-0,0.379l-0.088,-0l-0,-0.363c-0,-0.038 -0.008,-0.065 -0.025,-0.08c-0.017,-0.015 -0.04,-0.022 -0.069,-0.022c-0.035,0 -0.065,0.014 -0.089,0.042c-0.024,0.028 -0.036,0.065 -0.036,0.112l-0,0.311l-0.088,0l-0,-0.363c-0,-0.038 -0.008,-0.064 -0.024,-0.079c-0.016,-0.015 -0.039,-0.023 -0.068,-0.023c-0.023,0 -0.044,0.006 -0.063,0.019c-0.019,0.012 -0.035,0.03 -0.047,0.053c-0.011,0.023 -0.017,0.051 -0.017,0.082l-0,0.311l-0.088,0l-0,-0.526Z" style="fill:#00656c;fill-rule:nonzero;"/></g><g transform="matrix(9,0,0,9,363.293,168.374)"><rect x="0.067" y="-0.723" width="0.088" height="0.723" style="fill:#00656c;fill-rule:nonzero;"/></g><g transform="matrix(9,0,0,9,365.291,168.374)"><path d="M0.21,0.012c-0.045,0 -0.086,-0.011 -0.121,-0.032c-0.035,-0.021 -0.053,-0.06 -0.053,-0.116c0,-0.067 0.03,-0.114 0.09,-0.139c0.06,-0.025 0.147,-0.037 0.26,-0.037l0,-0.058c-0,-0.031 -0.009,-0.054 -0.026,-0.071c-0.017,-0.016 -0.049,-0.024 -0.094,-0.024c-0.043,0 -0.073,0.008 -0.092,0.024c-0.018,0.016 -0.027,0.036 -0.027,0.059l-0,0.012l-0.085,0c-0.001,-0.004 -0.001,-0.011 -0.001,-0.022c-0,-0.047 0.019,-0.083 0.058,-0.108c0.039,-0.025 0.09,-0.038 0.155,-0.038c0.065,0 0.115,0.014 0.149,0.041c0.034,0.027 0.051,0.066 0.051,0.116l0,0.285c0,0.012 0.003,0.021 0.01,0.027c0.007,0.005 0.015,0.008 0.025,0.008l0.04,0l0,0.057c-0.017,0.008 -0.04,0.012 -0.068,0.012c-0.023,0 -0.042,-0.007 -0.057,-0.02c-0.015,-0.014 -0.026,-0.032 -0.031,-0.055l-0.007,0c-0.018,0.025 -0.043,0.044 -0.074,0.058c-0.03,0.014 -0.065,0.021 -0.102,0.021Zm0.023,-0.073c0.026,0 0.051,-0.005 0.074,-0.016c0.023,-0.011 0.042,-0.026 0.057,-0.047c0.015,-0.021 0.022,-0.047 0.022,-0.077l0,-0.038c-0.086,0 -0.151,0.007 -0.194,0.021c-0.043,0.013 -0.064,0.039 -0.064,0.077c0,0.029 0.009,0.049 0.026,0.062c0.018,0.012 0.044,0.018 0.079,0.018Z" style="fill:#00656c;fill-rule:nonzero;"/></g><g transform="matrix(9,0,0,9,370.295,168.374)"><path d="M0.243,0.012c-0.067,0 -0.118,-0.022 -0.154,-0.067c-0.036,-0.045 -0.054,-0.114 -0.054,-0.208c0,-0.092 0.018,-0.161 0.054,-0.207c0.035,-0.045 0.084,-0.068 0.146,-0.068c0.037,0 0.069,0.006 0.095,0.017c0.026,0.011 0.048,0.03 0.065,0.055l0.006,0l0,-0.257l0.088,0l0,0.723l-0.066,0l-0.011,-0.071l-0.006,0c-0.017,0.027 -0.04,0.048 -0.068,0.062c-0.029,0.014 -0.06,0.021 -0.095,0.021Zm0.022,-0.073c0.047,0 0.082,-0.017 0.104,-0.05c0.021,-0.033 0.032,-0.083 0.032,-0.148l0,-0.004c0,-0.067 -0.011,-0.117 -0.033,-0.151c-0.022,-0.034 -0.056,-0.051 -0.103,-0.051c-0.033,0 -0.06,0.007 -0.081,0.02c-0.02,0.013 -0.035,0.034 -0.044,0.063c-0.009,0.029 -0.014,0.069 -0.014,0.119l0,0.004c0,0.049 0.005,0.088 0.014,0.117c0.009,0.029 0.024,0.049 0.044,0.062c0.02,0.013 0.047,0.019 0.081,0.019Z" style="fill:#00656c;fill-rule:nonzero;"/></g><g transform="matrix(9,0,0,9,375.299,168.374)"><path d="M0.117,0.182c-0.029,0 -0.053,-0.003 -0.07,-0.008l0,-0.057l0.035,0c0.068,0 0.113,-0.039 0.134,-0.117l-0.203,-0.526l0.093,0l0.098,0.263c0.009,0.025 0.02,0.055 0.033,0.093c0.012,0.037 0.02,0.061 0.024,0.072l0.005,0c0.003,-0.011 0.01,-0.033 0.019,-0.064c0.009,-0.031 0.019,-0.065 0.03,-0.101l0.084,-0.263l0.088,0l-0.173,0.499c-0.023,0.067 -0.05,0.118 -0.08,0.155c-0.029,0.036 -0.068,0.054 -0.117,0.054Zm0.181,-0.905l0.096,0l0.001,0.003l-0.108,0.129l-0.075,0l0.086,-0.132Z" style="fill:#00656c;fill-rule:nonzero;"/></g><g transform="matrix(9,0,0,9,379.799,168.374)"><path d="M0.267,0.012c-0.08,0 -0.139,-0.022 -0.176,-0.067c-0.037,-0.044 -0.056,-0.113 -0.056,-0.208c-0,-0.094 0.019,-0.163 0.056,-0.208c0.038,-0.045 0.097,-0.067 0.176,-0.067c0.072,0 0.125,0.017 0.158,0.052c0.033,0.035 0.05,0.086 0.05,0.155l-0.09,0c0,-0.047 -0.009,-0.081 -0.026,-0.102c-0.016,-0.022 -0.047,-0.032 -0.092,-0.032c-0.049,0 -0.084,0.016 -0.107,0.048c-0.023,0.031 -0.034,0.083 -0.034,0.154l-0,0.004c-0,0.071 0.011,0.121 0.033,0.152c0.022,0.031 0.058,0.046 0.108,0.046c0.044,0 0.076,-0.011 0.094,-0.033c0.02,-0.023 0.029,-0.056 0.029,-0.101l0.085,0c0,0.06 -0.017,0.11 -0.051,0.149c-0.034,0.039 -0.086,0.058 -0.157,0.058Z" style="fill:#00656c;fill-rule:nonzero;"/></g><g transform="matrix(9,0,0,9,384.299,168.374)"><path d="M0.067,-0.723l0.088,0l0,0.256l0.007,-0c0.037,-0.047 0.092,-0.071 0.166,-0.071c0.109,0 0.164,0.06 0.164,0.179l0,0.359l-0.088,0l0,-0.353c0,-0.042 -0.009,-0.071 -0.028,-0.087c-0.019,-0.017 -0.046,-0.025 -0.081,-0.025c-0.025,0 -0.049,0.006 -0.07,0.019c-0.021,0.012 -0.038,0.03 -0.051,0.053c-0.013,0.023 -0.019,0.051 -0.019,0.082l0,0.311l-0.088,0l0,-0.723Z" style="fill:#00656c;fill-rule:nonzero;"/></g><g transform="matrix(9,0,0,9,391.805,168.374)"><path d="M0.013,-0.526l0.093,0l0.093,0.263c0.009,0.025 0.019,0.055 0.03,0.092c0.011,0.037 0.019,0.061 0.022,0.073l0.005,0c0.003,-0.011 0.01,-0.035 0.021,-0.07c0.011,-0.036 0.021,-0.068 0.03,-0.095l0.092,-0.263l0.088,0l-0.193,0.526l-0.088,-0l-0.193,-0.526Z" style="fill:#00656c;fill-rule:nonzero;"/></g><g transform="matrix(9,0,0,9,396.305,168.374)"><path d="M0.29,0.012c-0.085,0 -0.148,-0.022 -0.189,-0.067c-0.041,-0.045 -0.062,-0.114 -0.062,-0.208c0,-0.094 0.021,-0.163 0.062,-0.208c0.041,-0.045 0.104,-0.067 0.189,-0.067c0.076,0 0.133,0.02 0.171,0.061c0.037,0.04 0.056,0.105 0.056,0.194l0,0.044l-0.387,0c0.003,0.061 0.018,0.106 0.044,0.135c0.025,0.029 0.064,0.043 0.116,0.043c0.042,0 0.076,-0.01 0.102,-0.029c0.026,-0.019 0.039,-0.049 0.039,-0.089l0.086,0c0,0.061 -0.021,0.109 -0.064,0.142c-0.042,0.033 -0.096,0.049 -0.163,0.049Zm0.135,-0.324c-0,-0.102 -0.045,-0.153 -0.135,-0.153c-0.05,0 -0.088,0.012 -0.113,0.036c-0.025,0.024 -0.04,0.063 -0.045,0.117l0.293,0Z" style="fill:#00656c;fill-rule:nonzero;"/></g><g transform="matrix(9,0,0,9,403.811,168.374)"><path d="M0.013,-0.526l0.093,0l0.093,0.263c0.009,0.025 0.019,0.055 0.03,0.092c0.011,0.037 0.019,0.061 0.022,0.073l0.005,0c0.003,-0.011 0.01,-0.035 0.021,-0.07c0.011,-0.036 0.021,-0.068 0.03,-0.095l0.092,-0.263l0.088,0l-0.193,0.526l-0.088,-0l-0.193,-0.526Z" style="fill:#00656c;fill-rule:nonzero;"/></g><g transform="matrix(9,0,0,9,408.311,168.374)"><path d="M0.29,0.012c-0.085,0 -0.148,-0.022 -0.189,-0.067c-0.041,-0.045 -0.062,-0.114 -0.062,-0.208c0,-0.094 0.021,-0.163 0.062,-0.208c0.041,-0.045 0.104,-0.067 0.189,-0.067c0.076,0 0.133,0.02 0.171,0.061c0.037,0.04 0.056,0.105 0.056,0.194l0,0.044l-0.387,0c0.003,0.061 0.018,0.106 0.044,0.135c0.025,0.029 0.064,0.043 0.116,0.043c0.042,0 0.076,-0.01 0.102,-0.029c0.026,-0.019 0.039,-0.049 0.039,-0.089l0.086,0c0,0.061 -0.021,0.109 -0.064,0.142c-0.042,0.033 -0.096,0.049 -0.163,0.049Zm0.135,-0.324c-0,-0.102 -0.045,-0.153 -0.135,-0.153c-0.05,0 -0.088,0.012 -0.113,0.036c-0.025,0.024 -0.04,0.063 -0.045,0.117l0.293,0Z" style="fill:#00656c;fill-rule:nonzero;"/></g><g transform="matrix(9,0,0,9,413.315,168.374)"><path d="M0.067,-0.526l0.067,0l0.01,0.079l0.006,0c0.01,-0.026 0.025,-0.048 0.045,-0.065c0.02,-0.017 0.046,-0.026 0.079,-0.026c0.011,0 0.021,0.001 0.03,0.004c0.009,0.002 0.015,0.003 0.017,0.004l-0,0.085l-0.037,0c-0.037,0 -0.068,0.011 -0.093,0.032c-0.024,0.022 -0.036,0.056 -0.036,0.102l-0,0.311l-0.088,0l-0,-0.526Zm-0.048,-0.197l0.09,0l0.058,0.079l0.057,-0.079l0.09,0l-0.105,0.135l-0.084,0l-0.106,-0.135Z" style="fill:#00656c;fill-rule:nonzero;"/></g><g transform="matrix(9,0,0,9,416.312,168.374)"><path d="M0.29,0.012c-0.085,0 -0.148,-0.022 -0.189,-0.067c-0.041,-0.045 -0.062,-0.114 -0.062,-0.208c0,-0.094 0.021,-0.163 0.062,-0.208c0.041,-0.045 0.104,-0.067 0.189,-0.067c0.076,0 0.133,0.02 0.171,0.061c0.037,0.04 0.056,0.105 0.056,0.194l0,0.044l-0.387,0c0.003,0.061 0.018,0.106 0.044,0.135c0.025,0.029 0.064,0.043 0.116,0.043c0.042,0 0.076,-0.01 0.102,-0.029c0.026,-0.019 0.039,-0.049 0.039,-0.089l0.086,0c0,0.061 -0.021,0.109 -0.064,0.142c-0.042,0.033 -0.096,0.049 -0.163,0.049Zm0.135,-0.324c-0,-0.102 -0.045,-0.153 -0.135,-0.153c-0.05,0 -0.088,0.012 -0.113,0.036c-0.025,0.024 -0.04,0.063 -0.045,0.117l0.293,0Z" style="fill:#00656c;fill-rule:nonzero;"/></g><g transform="matrix(9,0,0,9,421.316,168.374)"><path d="M0.067,-0.723l0.088,0l0,0.098l-0.088,0l0,-0.098Zm-0.022,0.905c-0.023,-0 -0.046,-0.004 -0.069,-0.012l0,-0.057l0.044,-0c0.031,-0 0.047,-0.016 0.047,-0.048l0,-0.591l0.088,-0l0,0.587c0,0.035 -0.009,0.063 -0.025,0.086c-0.018,0.023 -0.046,0.035 -0.085,0.035Z" style="fill:#00656c;fill-rule:nonzero;"/></g><g transform="matrix(9,0,0,9,423.314,168.374)"><path d="M0.067,-0.526l0.067,0l0.01,0.071l0.007,0c0.039,-0.055 0.098,-0.083 0.177,-0.083c0.053,0 0.093,0.014 0.122,0.043c0.028,0.028 0.042,0.073 0.042,0.136l0,0.359l-0.088,0l0,-0.353c0,-0.042 -0.009,-0.071 -0.028,-0.087c-0.019,-0.017 -0.046,-0.025 -0.081,-0.025c-0.025,0 -0.049,0.006 -0.07,0.019c-0.021,0.012 -0.038,0.03 -0.051,0.053c-0.013,0.023 -0.019,0.051 -0.019,0.082l0,0.311l-0.088,0l0,-0.526Z" style="fill:#00656c;fill-rule:nonzero;"/></g><g transform="matrix(9,0,0,9,428.318,168.374)"><path d="M0.29,0.012c-0.085,0 -0.148,-0.022 -0.189,-0.067c-0.041,-0.045 -0.062,-0.114 -0.062,-0.208c0,-0.094 0.021,-0.163 0.062,-0.208c0.041,-0.045 0.104,-0.067 0.189,-0.067c0.076,0 0.133,0.02 0.171,0.061c0.037,0.04 0.056,0.105 0.056,0.194l0,0.044l-0.387,0c0.003,0.061 0.018,0.106 0.044,0.135c0.025,0.029 0.064,0.043 0.116,0.043c0.042,0 0.076,-0.01 0.102,-0.029c0.026,-0.019 0.039,-0.049 0.039,-0.089l0.086,0c0,0.061 -0.021,0.109 -0.064,0.142c-0.042,0.033 -0.096,0.049 -0.163,0.049Zm0.135,-0.324c-0,-0.102 -0.045,-0.153 -0.135,-0.153c-0.05,0 -0.088,0.012 -0.113,0.036c-0.025,0.024 -0.04,0.063 -0.045,0.117l0.293,0Zm-0.099,-0.411l0.096,0l0.001,0.003l-0.108,0.129l-0.075,0l0.086,-0.132Z" style="fill:#00656c;fill-rule:nonzero;"/></g><g transform="matrix(9,0,0,9,433.322,168.374)"><path d="M0.067,-0.526l0.067,0l0.01,0.071l0.007,0c0.036,-0.055 0.089,-0.083 0.158,-0.083c0.068,0 0.113,0.028 0.136,0.083l0.006,0c0.018,-0.027 0.041,-0.047 0.07,-0.061c0.029,-0.015 0.06,-0.022 0.093,-0.022c0.103,0 0.155,0.053 0.155,0.159l-0,0.379l-0.088,-0l-0,-0.363c-0,-0.038 -0.008,-0.065 -0.025,-0.08c-0.017,-0.015 -0.04,-0.022 -0.069,-0.022c-0.035,0 -0.065,0.014 -0.089,0.042c-0.024,0.028 -0.036,0.065 -0.036,0.112l-0,0.311l-0.088,0l-0,-0.363c-0,-0.038 -0.008,-0.064 -0.024,-0.079c-0.016,-0.015 -0.039,-0.023 -0.068,-0.023c-0.023,0 -0.044,0.006 -0.063,0.019c-0.019,0.012 -0.035,0.03 -0.047,0.053c-0.011,0.023 -0.017,0.051 -0.017,0.082l-0,0.311l-0.088,0l-0,-0.526Z" style="fill:#00656c;fill-rule:nonzero;"/></g><g transform="matrix(9,0,0,9,443.321,168.374)"><path d="M0.067,-0.526l0.066,0l0.011,0.071l0.006,0c0.017,-0.027 0.04,-0.048 0.068,-0.062c0.029,-0.014 0.06,-0.021 0.095,-0.021c0.067,0 0.118,0.022 0.154,0.067c0.036,0.045 0.054,0.114 0.054,0.208c-0,0.092 -0.018,0.161 -0.054,0.207c-0.035,0.045 -0.084,0.068 -0.146,0.068c-0.037,-0 -0.069,-0.006 -0.095,-0.017c-0.026,-0.011 -0.048,-0.03 -0.065,-0.055l-0.006,-0l-0,0.233l-0.088,0l-0,-0.699Zm0.224,0.465c0.034,0 0.061,-0.006 0.081,-0.019c0.02,-0.013 0.035,-0.033 0.044,-0.062c0.009,-0.029 0.014,-0.068 0.014,-0.117l-0,-0.004c-0,-0.05 -0.005,-0.09 -0.014,-0.119c-0.009,-0.029 -0.024,-0.05 -0.045,-0.064c-0.02,-0.013 -0.047,-0.019 -0.08,-0.019c-0.047,0 -0.081,0.017 -0.103,0.051c-0.022,0.034 -0.033,0.084 -0.033,0.151l-0,0.004c-0,0.065 0.011,0.115 0.032,0.148c0.022,0.033 0.057,0.05 0.104,0.05Z" style="fill:#00656c;fill-rule:nonzero;"/></g><g transform="matrix(9,0,0,9,448.325,168.374)"><path d="M0.067,-0.526l0.067,0l0.01,0.079l0.006,0c0.01,-0.026 0.025,-0.048 0.045,-0.065c0.02,-0.017 0.046,-0.026 0.079,-0.026c0.011,0 0.021,0.001 0.03,0.004c0.009,0.002 0.015,0.003 0.017,0.004l-0,0.085l-0.037,0c-0.037,0 -0.068,0.011 -0.093,0.032c-0.024,0.022 -0.036,0.056 -0.036,0.102l-0,0.311l-0.088,0l-0,-0.526Z" style="fill:#00656c;fill-rule:nonzero;"/></g><g transform="matrix(9,0,0,9,451.322,168.374)"><path d="M0.278,0.012c-0.081,0 -0.141,-0.023 -0.182,-0.068c-0.041,-0.044 -0.061,-0.114 -0.061,-0.207c-0,-0.093 0.02,-0.162 0.061,-0.208c0.041,-0.044 0.101,-0.067 0.182,-0.067c0.081,0 0.141,0.023 0.182,0.068c0.041,0.045 0.061,0.114 0.061,0.207c0,0.093 -0.02,0.163 -0.061,0.208c-0.041,0.044 -0.101,0.067 -0.182,0.067Zm0,-0.073c0.053,-0 0.092,-0.016 0.116,-0.047c0.024,-0.031 0.036,-0.081 0.036,-0.151l-0,-0.008c-0,-0.07 -0.012,-0.121 -0.036,-0.151c-0.024,-0.031 -0.063,-0.047 -0.116,-0.047c-0.053,0 -0.092,0.016 -0.116,0.047c-0.024,0.031 -0.036,0.081 -0.036,0.151l-0,0.008c-0,0.07 0.012,0.121 0.036,0.152c0.024,0.031 0.063,0.046 0.116,0.046Z" style="fill:#00656c;fill-rule:nonzero;"/></g><g transform="matrix(9,0,0,9,456.326,168.374)"><path d="M0.247,0.012c-0.049,0 -0.089,-0.007 -0.122,-0.021c-0.032,-0.015 -0.056,-0.034 -0.071,-0.057c-0.015,-0.023 -0.023,-0.049 -0.023,-0.076c0,-0.008 0,-0.013 0.001,-0.016c-0,-0.003 0,-0.005 0,-0.006l0.087,0l0,0.01c0,0.031 0.012,0.055 0.037,0.071c0.025,0.015 0.057,0.023 0.096,0.023c0.034,0 0.062,-0.007 0.085,-0.02c0.022,-0.014 0.033,-0.033 0.033,-0.058c-0,-0.019 -0.006,-0.035 -0.019,-0.047c-0.013,-0.013 -0.028,-0.023 -0.047,-0.029c-0.019,-0.008 -0.044,-0.015 -0.076,-0.023c-0.039,-0.01 -0.07,-0.02 -0.094,-0.03c-0.025,-0.01 -0.045,-0.025 -0.062,-0.044c-0.017,-0.02 -0.026,-0.046 -0.026,-0.077c0,-0.046 0.019,-0.082 0.057,-0.109c0.037,-0.028 0.088,-0.041 0.152,-0.041c0.04,0 0.075,0.007 0.104,0.02c0.029,0.013 0.052,0.03 0.067,0.051c0.014,0.022 0.022,0.046 0.022,0.073l-0.001,0.019l-0.086,0l0,-0.009c0,-0.023 -0.009,-0.043 -0.027,-0.058c-0.019,-0.015 -0.048,-0.023 -0.089,-0.023c-0.04,0 -0.068,0.007 -0.084,0.022c-0.016,0.014 -0.024,0.03 -0.024,0.049c0,0.015 0.006,0.028 0.017,0.038c0.011,0.01 0.025,0.018 0.042,0.024c0.017,0.006 0.04,0.013 0.07,0.02c0.041,0.011 0.075,0.021 0.101,0.031c0.026,0.011 0.048,0.027 0.067,0.048c0.018,0.021 0.027,0.048 0.027,0.083c0,0.054 -0.02,0.095 -0.058,0.122c-0.04,0.027 -0.091,0.04 -0.156,0.04Z" style="fill:#00656c;fill-rule:nonzero;"/></g><g transform="matrix(9,0,0,9,460.826,168.374)"><path d="M0.186,0.011c-0.036,0 -0.062,-0.011 -0.079,-0.032c-0.017,-0.021 -0.025,-0.048 -0.025,-0.079l0,-0.353l-0.064,-0l0,-0.073l0.065,-0l0.019,-0.146l0.068,-0l0,0.146l0.089,-0l0,0.073l-0.089,-0l0,0.345c0,0.031 0.015,0.047 0.044,0.047l0.045,-0l0,0.058c-0.009,0.004 -0.02,0.007 -0.034,0.01c-0.014,0.003 -0.027,0.004 -0.039,0.004Z" style="fill:#00656c;fill-rule:nonzero;"/></g><g transform="matrix(9,0,0,9,463.328,168.374)"><path d="M0.278,0.012c-0.081,0 -0.141,-0.023 -0.182,-0.068c-0.041,-0.044 -0.061,-0.114 -0.061,-0.207c-0,-0.093 0.02,-0.162 0.061,-0.208c0.041,-0.044 0.101,-0.067 0.182,-0.067c0.081,0 0.141,0.023 0.182,0.068c0.041,0.045 0.061,0.114 0.061,0.207c0,0.093 -0.02,0.163 -0.061,0.208c-0.041,0.044 -0.101,0.067 -0.182,0.067Zm0,-0.073c0.053,-0 0.092,-0.016 0.116,-0.047c0.024,-0.031 0.036,-0.081 0.036,-0.151l-0,-0.008c-0,-0.07 -0.012,-0.121 -0.036,-0.151c-0.024,-0.031 -0.063,-0.047 -0.116,-0.047c-0.053,0 -0.092,0.016 -0.116,0.047c-0.024,0.031 -0.036,0.081 -0.036,0.151l-0,0.008c-0,0.07 0.012,0.121 0.036,0.152c0.024,0.031 0.063,0.046 0.116,0.046Z" style="fill:#00656c;fill-rule:nonzero;"/></g><g transform="matrix(9,0,0,9,468.332,168.374)"><path d="M0.067,-0.526l0.067,0l0.01,0.079l0.006,0c0.01,-0.026 0.025,-0.048 0.045,-0.065c0.02,-0.017 0.046,-0.026 0.079,-0.026c0.011,0 0.021,0.001 0.03,0.004c0.009,0.002 0.015,0.003 0.017,0.004l-0,0.085l-0.037,0c-0.037,0 -0.068,0.011 -0.093,0.032c-0.024,0.022 -0.036,0.056 -0.036,0.102l-0,0.311l-0.088,0l-0,-0.526Z" style="fill:#00656c;fill-rule:nonzero;"/></g><g transform="matrix(9,0,0,9,471.329,168.374)"><path d="M0.228,0.012c-0.053,0 -0.093,-0.014 -0.122,-0.042c-0.028,-0.029 -0.042,-0.074 -0.042,-0.137l0,-0.359l0.088,0l0,0.353c0,0.042 0.009,0.071 0.028,0.088c0.019,0.016 0.046,0.024 0.081,0.024c0.025,0 0.049,-0.006 0.07,-0.018c0.021,-0.013 0.038,-0.031 0.051,-0.054c0.013,-0.023 0.019,-0.051 0.019,-0.082l0,-0.311l0.088,0l0,0.526l-0.067,-0l-0.01,-0.071l-0.007,0c-0.039,0.055 -0.098,0.083 -0.177,0.083Z" style="fill:#00656c;fill-rule:nonzero;"/></g></g><rect x="1053.87" y="458.348" width="970.242" height="197.9" style="fill:none;stroke:#00656c;stroke-width:4.17px;"/><path d="M1528.35,421.536l-0,-32.38c-0,0 -0,-32.383 -50,-32.383l-951.096,0c-0,0 -25,0 -25,25l-0,39.763" style="fill:none;fill-rule:nonzero;stroke:#00656c;stroke-width:4.17px;"/><path d="M1528.35,444.294l10.633,-29.217l-21.267,-0l10.634,29.217Z" style="fill:#00656c;fill-rule:nonzero;"/><path d="M502.259,444.294l10.634,-29.217l-21.267,-0l10.633,29.217Z" style="fill:#00656c;fill-rule:nonzero;"/><path d="M1016.35,354.69l-0,-50.375" style="fill:none;fill-rule:nonzero;stroke:#00656c;stroke-width:4.17px;"/></svg>