<?xml version="1.0" encoding="UTF-8" standalone="no"?><!DOCTYPE svg PUBLIC "-//W3C//DTD SVG 1.1//EN" "http://www.w3.org/Graphics/SVG/1.1/DTD/svg11.dtd"><svg width="100%" height="100%" viewBox="0 0 2033 489" version="1.1" xmlns="http://www.w3.org/2000/svg" xmlns:xlink="http://www.w3.org/1999/xlink" xml:space="preserve" xmlns:serif="http://www.serif.com/" style="fill-rule:evenodd;clip-rule:evenodd;"><g><g><g transform="matrix(4.16667,0,0,4.16667,-106.59,-2672.06)"><g transform="matrix(11,0,0,11,25.5118,648.948)"><path d="M0.244,-0l0.171,-0l0.234,-0.684l-0.145,0l-0.118,0.368c-0.019,0.061 -0.033,0.112 -0.049,0.183l-0.01,-0c-0.015,-0.071 -0.029,-0.122 -0.049,-0.183l-0.118,-0.368l-0.154,0l0.238,0.684Z" style="fill:#00656c;fill-rule:nonzero;"/></g><g transform="matrix(11,0,0,11,32.5475,648.948)"><path d="M0.322,-0.684l-0.082,0.125l0.103,0l0.114,-0.125l-0.135,0Zm-0.281,0.867c0.215,-0.013 0.284,-0.057 0.357,-0.242l0.171,-0.454l-0.141,0l-0.095,0.282c-0.014,0.039 -0.024,0.078 -0.034,0.124l-0.01,-0c-0.009,-0.046 -0.02,-0.085 -0.035,-0.124l-0.104,-0.282l-0.146,0l0.215,0.518l-0.007,0.021c-0.008,0.02 -0.026,0.031 -0.097,0.037l-0.09,0.006l0.016,0.114Z" style="fill:#00656c;fill-rule:nonzero;"/></g><g transform="matrix(11,0,0,11,38.8581,648.948)"><path d="M0.386,0.009c0.146,0 0.223,-0.089 0.223,-0.259l0,-0.013c0,-0.171 -0.077,-0.26 -0.223,-0.26c-0.106,0 -0.176,0.051 -0.21,0.139l-0.01,-0.004c0.018,-0.059 0.025,-0.103 0.025,-0.156l-0,-0.14l-0.142,0l-0,0.684l0.143,-0c-0,-0.028 -0.009,-0.071 -0.025,-0.125l0.01,-0.003c0.034,0.088 0.103,0.137 0.209,0.137Zm-0.054,-0.088c-0.091,0 -0.141,-0.059 -0.141,-0.169l-0,-0.018c-0,-0.11 0.05,-0.17 0.141,-0.17c0.088,-0 0.134,0.057 0.134,0.168l0,0.022c0,0.111 -0.046,0.167 -0.134,0.167Z" style="fill:#00656c;fill-rule:nonzero;"/></g><g transform="matrix(11,0,0,11,45.9314,648.948)"><path d="M0.378,-0.559l0.109,-0.125l-0.103,0l-0.069,0.062l-0.07,-0.062l-0.103,0l0.109,0.125l0.127,0Zm0.075,0.382c-0.013,0.071 -0.059,0.101 -0.133,0.101c-0.086,0 -0.139,-0.046 -0.142,-0.143l0.41,0c0.003,-0.024 0.004,-0.043 0.004,-0.064c0,-0.154 -0.098,-0.241 -0.273,-0.241c-0.183,-0 -0.285,0.091 -0.285,0.253l-0,0.029c-0,0.166 0.102,0.254 0.283,0.254c0.16,-0 0.255,-0.059 0.277,-0.175l-0.141,-0.014Zm-0.133,-0.26c0.083,0 0.129,0.044 0.129,0.123l-0,0.007l-0.27,0c0.008,-0.085 0.057,-0.13 0.141,-0.13Z" style="fill:#00656c;fill-rule:nonzero;"/></g><g transform="matrix(11,0,0,11,52.8435,648.948)"><path d="M0.049,-0l0.142,-0l-0,-0.214c-0,-0.134 0.041,-0.183 0.15,-0.191l0.07,-0.006l-0.017,-0.118c-0.115,0.009 -0.168,0.045 -0.221,0.152l-0.009,-0.005c0.023,-0.068 0.028,-0.096 0.027,-0.131l-0.142,0l-0,0.513Z" style="fill:#00656c;fill-rule:nonzero;"/></g><g transform="matrix(11,0,0,11,25.5118,660.938)"><path d="M0.386,-0.522c-0.106,0 -0.175,0.049 -0.209,0.137l-0.01,-0.003c0.016,-0.054 0.025,-0.096 0.025,-0.125l-0.143,0l-0,0.684l0.142,-0l-0,-0.139c-0,-0.054 -0.007,-0.097 -0.025,-0.157l0.01,-0.003c0.034,0.087 0.104,0.138 0.21,0.138c0.146,0 0.223,-0.089 0.223,-0.26l0,-0.012c0,-0.171 -0.077,-0.26 -0.223,-0.26Zm-0.054,0.088c0.088,-0 0.134,0.056 0.134,0.167l0,0.022c0,0.112 -0.046,0.168 -0.134,0.168c-0.091,0 -0.141,-0.059 -0.141,-0.17l-0,-0.018c-0,-0.11 0.05,-0.169 0.141,-0.169Z" style="fill:#00656c;fill-rule:nonzero;"/></g><g transform="matrix(11,0,0,11,32.5585,660.938)"><path d="M0.188,0.013c0.115,-0 0.198,-0.052 0.229,-0.138l0.01,0.002c-0.019,0.095 0.001,0.136 0.113,0.136c0.014,-0 0.028,-0.002 0.04,-0.004l0.017,-0.084l-0.025,-0.001c-0.027,-0 -0.034,-0.007 -0.034,-0.041l-0,-0.235c-0,-0.116 -0.078,-0.172 -0.242,-0.172c-0.175,0 -0.263,0.069 -0.256,0.188l0.14,0.012c-0.006,-0.079 0.034,-0.114 0.113,-0.114c0.07,-0 0.103,0.025 0.103,0.084l0,0.029l-0.138,0.026c-0.139,0.026 -0.231,0.07 -0.231,0.177l0,0.001c0,0.085 0.058,0.134 0.161,0.134Zm0.057,-0.095c-0.048,-0 -0.074,-0.017 -0.074,-0.052l-0,-0.001c-0,-0.051 0.045,-0.071 0.135,-0.089l0.09,-0.017l0,0.024c0,0.078 -0.07,0.135 -0.151,0.135Z" style="fill:#00656c;fill-rule:nonzero;"/></g><g transform="matrix(11,0,0,11,39.2399,660.938)"><path d="M0.049,-0l0.142,-0l-0,-0.214c-0,-0.134 0.041,-0.183 0.15,-0.191l0.07,-0.006l-0.017,-0.118c-0.115,0.009 -0.168,0.045 -0.221,0.152l-0.009,-0.005c0.023,-0.068 0.028,-0.096 0.027,-0.131l-0.142,0l-0,0.513Z" style="fill:#00656c;fill-rule:nonzero;"/></g><g transform="matrix(11,0,0,11,43.9448,660.938)"><path d="M0.263,0.011c0.053,0 0.104,-0.01 0.139,-0.027l0.008,-0.093c-0.032,0.013 -0.064,0.02 -0.094,0.02c-0.051,0 -0.076,-0.022 -0.076,-0.076l0,-0.255l0.17,-0l0,-0.093l-0.17,0l0,-0.15l-0.142,0.037l0,0.113l-0.082,0l0,0.093l0.082,-0l0,0.278c0,0.104 0.055,0.153 0.165,0.153Z" style="fill:#00656c;fill-rule:nonzero;"/></g><g transform="matrix(11,0,0,11,48.655,660.938)"><path d="M0.045,-0.573l0.153,-0l-0,-0.103l-0.153,0l-0,0.103Zm0.005,0.573l0.142,-0l0,-0.513l-0.142,0l0,0.513Z" style="fill:#00656c;fill-rule:nonzero;"/></g><g transform="matrix(11,0,0,11,51.3243,660.938)"><path d="M0.316,0.012c0.167,0 0.261,-0.067 0.275,-0.198l-0.143,-0.016c-0.006,0.082 -0.051,0.124 -0.132,0.124c-0.09,-0 -0.137,-0.057 -0.137,-0.169l0,-0.024c0,-0.109 0.048,-0.164 0.136,-0.164c0.081,-0 0.124,0.045 0.13,0.136l0.142,-0.016c-0.011,-0.138 -0.102,-0.21 -0.272,-0.21c-0.184,0 -0.281,0.09 -0.281,0.263l-0,0.007c-0,0.175 0.096,0.267 0.282,0.267Z" style="fill:#00656c;fill-rule:nonzero;"/></g><g transform="matrix(11,0,0,11,58.183,660.938)"><path d="M0.045,-0.573l0.153,-0l-0,-0.103l-0.153,0l-0,0.103Zm0.005,0.573l0.142,-0l0,-0.513l-0.142,0l0,0.513Z" style="fill:#00656c;fill-rule:nonzero;"/></g><g transform="matrix(11,0,0,11,60.8522,660.938)"><path d="M0.386,-0.522c-0.106,0 -0.175,0.049 -0.209,0.137l-0.01,-0.003c0.016,-0.054 0.025,-0.096 0.025,-0.125l-0.143,0l-0,0.684l0.142,-0l-0,-0.139c-0,-0.054 -0.007,-0.097 -0.025,-0.157l0.01,-0.003c0.034,0.087 0.104,0.138 0.21,0.138c0.146,0 0.223,-0.089 0.223,-0.26l0,-0.012c0,-0.171 -0.077,-0.26 -0.223,-0.26Zm-0.054,0.088c0.088,-0 0.134,0.056 0.134,0.167l0,0.022c0,0.112 -0.046,0.168 -0.134,0.168c-0.091,0 -0.141,-0.059 -0.141,-0.17l-0,-0.018c-0,-0.11 0.05,-0.169 0.141,-0.169Z" style="fill:#00656c;fill-rule:nonzero;"/></g><g transform="matrix(11,0,0,11,67.8989,660.938)"><path d="M0.188,0.013c0.115,-0 0.198,-0.052 0.229,-0.138l0.01,0.002c-0.019,0.095 0.001,0.136 0.113,0.136c0.014,-0 0.028,-0.002 0.04,-0.004l0.017,-0.084l-0.025,-0.001c-0.027,-0 -0.034,-0.007 -0.034,-0.041l-0,-0.235c-0,-0.116 -0.078,-0.172 -0.242,-0.172c-0.175,0 -0.263,0.069 -0.256,0.188l0.14,0.012c-0.006,-0.079 0.034,-0.114 0.113,-0.114c0.07,-0 0.103,0.025 0.103,0.084l0,0.029l-0.138,0.026c-0.139,0.026 -0.231,0.07 -0.231,0.177l0,0.001c0,0.085 0.058,0.134 0.161,0.134Zm0.057,-0.095c-0.048,-0 -0.074,-0.017 -0.074,-0.052l-0,-0.001c-0,-0.051 0.045,-0.071 0.135,-0.089l0.09,-0.017l0,0.024c0,0.078 -0.07,0.135 -0.151,0.135Z" style="fill:#00656c;fill-rule:nonzero;"/></g><g transform="matrix(11,0,0,11,74.5803,660.938)"><path d="M0.049,-0l0.142,-0l-0,-0.238c-0,-0.116 0.054,-0.187 0.144,-0.187c0.067,0 0.1,0.035 0.1,0.101l0,0.324l0.142,0l0,-0.358c0,-0.107 -0.063,-0.164 -0.18,-0.164c-0.106,0 -0.179,0.047 -0.222,0.145l-0.01,-0.005c0.02,-0.058 0.026,-0.093 0.026,-0.131l-0.142,0l-0,0.513Z" style="fill:#00656c;fill-rule:nonzero;"/></g><g transform="matrix(11,0,0,11,81.2994,660.938)"><path d="M0.263,0.011c0.053,0 0.104,-0.01 0.139,-0.027l0.008,-0.093c-0.032,0.013 -0.064,0.02 -0.094,0.02c-0.051,0 -0.076,-0.022 -0.076,-0.076l0,-0.255l0.17,-0l0,-0.093l-0.17,0l0,-0.15l-0.142,0.037l0,0.113l-0.082,0l0,0.093l0.082,-0l0,0.278c0,0.104 0.055,0.153 0.165,0.153Z" style="fill:#00656c;fill-rule:nonzero;"/></g><g transform="matrix(11,0,0,11,86.0096,660.938)"><path d="M0.311,-0.552c0.069,-0 0.115,-0.044 0.115,-0.109c0,-0.064 -0.046,-0.108 -0.115,-0.108c-0.069,0 -0.116,0.044 -0.116,0.108c0,0.065 0.047,0.109 0.116,0.109Zm0,-0.062c-0.027,-0 -0.046,-0.02 -0.046,-0.047c-0,-0.026 0.019,-0.046 0.046,-0.046c0.027,0 0.046,0.02 0.046,0.046c-0,0.027 -0.019,0.047 -0.046,0.047Zm0.264,0.101l-0.142,0l-0,0.239c-0,0.115 -0.055,0.186 -0.144,0.186c-0.067,0 -0.101,-0.035 -0.101,-0.101l0,-0.324l-0.142,0l0,0.358c0,0.108 0.063,0.164 0.181,0.164c0.106,0 0.179,-0.047 0.222,-0.144l0.01,0.004c-0.02,0.058 -0.027,0.093 -0.027,0.131l0.143,0l-0,-0.513Z" style="fill:#00656c;fill-rule:nonzero;"/></g></g></g></g><g><g><g transform="matrix(4.16667,0,0,4.16667,-106.59,-2672.06)"><g transform="matrix(11,0,0,11,127.559,648.948)"><path d="M0.375,0.012c0.222,0 0.337,-0.118 0.337,-0.351l-0,-0.002c-0,-0.236 -0.115,-0.355 -0.337,-0.355c-0.222,0 -0.337,0.119 -0.337,0.355l-0,0.002c-0,0.233 0.115,0.351 0.337,0.351Zm-0,-0.102c-0.127,-0 -0.189,-0.077 -0.189,-0.236l0,-0.028c0,-0.163 0.062,-0.239 0.189,-0.239c0.127,-0 0.188,0.076 0.188,0.239l-0,0.028c-0,0.159 -0.061,0.236 -0.188,0.236Z" style="fill:#00656c;fill-rule:nonzero;"/></g><g transform="matrix(11,0,0,11,135.804,648.948)"><path d="M0.295,0.01c0.17,0 0.254,-0.055 0.254,-0.154c-0,-0.105 -0.095,-0.136 -0.176,-0.154l-0.08,-0.019c-0.081,-0.019 -0.119,-0.036 -0.119,-0.071c0,-0.035 0.037,-0.051 0.106,-0.051c0.08,-0 0.122,0.023 0.12,0.091l0.134,-0.015c-0.001,-0.106 -0.085,-0.161 -0.254,-0.161c-0.161,0 -0.241,0.056 -0.241,0.153c-0,0.088 0.083,0.123 0.163,0.143l0.081,0.02c0.08,0.02 0.125,0.036 0.125,0.078c-0,0.038 -0.04,0.056 -0.114,0.056c-0.086,-0 -0.133,-0.033 -0.132,-0.106l-0.137,0.016c0.003,0.118 0.091,0.174 0.27,0.174Z" style="fill:#00656c;fill-rule:nonzero;"/></g><g transform="matrix(11,0,0,11,142.131,648.948)"><rect x="0.049" y="-0.684" width="0.142" height="0.684" style="fill:#00656c;fill-rule:nonzero;"/></g><g transform="matrix(11,0,0,11,144.769,648.948)"><path d="M0.316,0.012c0.184,0 0.283,-0.093 0.283,-0.265l-0,-0.006c-0,-0.172 -0.099,-0.266 -0.283,-0.266c-0.184,0 -0.282,0.094 -0.282,0.266l-0,0.006c-0,0.172 0.098,0.265 0.282,0.265Zm0,-0.09c-0.09,0 -0.137,-0.056 -0.137,-0.167l0,-0.023c0,-0.111 0.047,-0.167 0.137,-0.167c0.09,-0 0.137,0.056 0.137,0.167l0,0.023c0,0.111 -0.047,0.167 -0.137,0.167Z" style="fill:#00656c;fill-rule:nonzero;"/></g><g transform="matrix(11,0,0,11,151.542,648.948)"><path d="M0.203,-0l0.17,-0l0.197,-0.513l-0.142,0l-0.086,0.237c-0.017,0.049 -0.032,0.098 -0.047,0.155l-0.009,0c-0.015,-0.057 -0.03,-0.106 -0.048,-0.155l-0.087,-0.237l-0.147,0l0.199,0.513Z" style="fill:#00656c;fill-rule:nonzero;"/></g><g transform="matrix(11,0,0,11,157.692,648.948)"><path d="M0.453,-0.177c-0.013,0.071 -0.059,0.101 -0.133,0.101c-0.086,0 -0.139,-0.046 -0.142,-0.143l0.41,0c0.003,-0.024 0.004,-0.043 0.004,-0.064c0,-0.154 -0.098,-0.241 -0.273,-0.241c-0.183,-0 -0.285,0.091 -0.285,0.253l-0,0.029c-0,0.166 0.102,0.254 0.283,0.254c0.16,-0 0.255,-0.059 0.277,-0.175l-0.141,-0.014Zm-0.133,-0.26c0.083,0 0.129,0.044 0.129,0.123l-0,0.007l-0.27,0c0.008,-0.085 0.057,-0.13 0.141,-0.13Z" style="fill:#00656c;fill-rule:nonzero;"/></g><g transform="matrix(11,0,0,11,164.604,648.948)"><path d="M0.049,-0l0.142,-0l-0,-0.238c-0,-0.116 0.054,-0.187 0.144,-0.187c0.067,0 0.1,0.035 0.1,0.101l0,0.324l0.142,0l0,-0.358c0,-0.107 -0.063,-0.164 -0.18,-0.164c-0.106,0 -0.179,0.047 -0.222,0.145l-0.01,-0.005c0.02,-0.058 0.026,-0.093 0.026,-0.131l-0.142,0l-0,0.513Z" style="fill:#00656c;fill-rule:nonzero;"/></g><g transform="matrix(11,0,0,11,171.463,648.948)"><path d="M0.102,-0.684l-0.036,0.125l0.108,0l0.058,-0.125l-0.13,0Zm-0.053,0.684l0.142,-0l-0,-0.513l-0.142,0l-0,0.513Z" style="fill:#00656c;fill-rule:nonzero;"/></g><g transform="matrix(11,0,0,11,127.559,660.938)"><path d="M0.386,-0.522c-0.106,0 -0.175,0.049 -0.209,0.137l-0.01,-0.003c0.016,-0.054 0.025,-0.096 0.025,-0.125l-0.143,0l-0,0.684l0.142,-0l-0,-0.139c-0,-0.054 -0.007,-0.097 -0.025,-0.157l0.01,-0.003c0.034,0.087 0.104,0.138 0.21,0.138c0.146,0 0.223,-0.089 0.223,-0.26l0,-0.012c0,-0.171 -0.077,-0.26 -0.223,-0.26Zm-0.054,0.088c0.088,-0 0.134,0.056 0.134,0.167l0,0.022c0,0.112 -0.046,0.168 -0.134,0.168c-0.091,0 -0.141,-0.059 -0.141,-0.17l-0,-0.018c-0,-0.11 0.05,-0.169 0.141,-0.169Z" style="fill:#00656c;fill-rule:nonzero;"/></g><g transform="matrix(11,0,0,11,134.606,660.938)"><path d="M0.188,0.013c0.115,-0 0.198,-0.052 0.229,-0.138l0.01,0.002c-0.019,0.095 0.001,0.136 0.113,0.136c0.014,-0 0.028,-0.002 0.04,-0.004l0.017,-0.084l-0.025,-0.001c-0.027,-0 -0.034,-0.007 -0.034,-0.041l-0,-0.235c-0,-0.116 -0.078,-0.172 -0.242,-0.172c-0.175,0 -0.263,0.069 -0.256,0.188l0.14,0.012c-0.006,-0.079 0.034,-0.114 0.113,-0.114c0.07,-0 0.103,0.025 0.103,0.084l0,0.029l-0.138,0.026c-0.139,0.026 -0.231,0.07 -0.231,0.177l0,0.001c0,0.085 0.058,0.134 0.161,0.134Zm0.057,-0.095c-0.048,-0 -0.074,-0.017 -0.074,-0.052l-0,-0.001c-0,-0.051 0.045,-0.071 0.135,-0.089l0.09,-0.017l0,0.024c0,0.078 -0.07,0.135 -0.151,0.135Z" style="fill:#00656c;fill-rule:nonzero;"/></g><g transform="matrix(11,0,0,11,141.287,660.938)"><path d="M0.049,-0l0.142,-0l-0,-0.214c-0,-0.134 0.041,-0.183 0.15,-0.191l0.07,-0.006l-0.017,-0.118c-0.115,0.009 -0.168,0.045 -0.221,0.152l-0.009,-0.005c0.023,-0.068 0.028,-0.096 0.027,-0.131l-0.142,0l-0,0.513Z" style="fill:#00656c;fill-rule:nonzero;"/></g><g transform="matrix(11,0,0,11,145.992,660.938)"><path d="M0.263,0.011c0.053,0 0.104,-0.01 0.139,-0.027l0.008,-0.093c-0.032,0.013 -0.064,0.02 -0.094,0.02c-0.051,0 -0.076,-0.022 -0.076,-0.076l0,-0.255l0.17,-0l0,-0.093l-0.17,0l0,-0.15l-0.142,0.037l0,0.113l-0.082,0l0,0.093l0.082,-0l0,0.278c0,0.104 0.055,0.153 0.165,0.153Z" style="fill:#00656c;fill-rule:nonzero;"/></g><g transform="matrix(11,0,0,11,150.702,660.938)"><path d="M0.045,-0.573l0.153,-0l-0,-0.103l-0.153,0l-0,0.103Zm0.005,0.573l0.142,-0l0,-0.513l-0.142,0l0,0.513Z" style="fill:#00656c;fill-rule:nonzero;"/></g><g transform="matrix(11,0,0,11,153.372,660.938)"><path d="M0.316,0.012c0.167,0 0.261,-0.067 0.275,-0.198l-0.143,-0.016c-0.006,0.082 -0.051,0.124 -0.132,0.124c-0.09,-0 -0.137,-0.057 -0.137,-0.169l0,-0.024c0,-0.109 0.048,-0.164 0.136,-0.164c0.081,-0 0.124,0.045 0.13,0.136l0.142,-0.016c-0.011,-0.138 -0.102,-0.21 -0.272,-0.21c-0.184,0 -0.281,0.09 -0.281,0.263l-0,0.007c-0,0.175 0.096,0.267 0.282,0.267Z" style="fill:#00656c;fill-rule:nonzero;"/></g><g transform="matrix(11,0,0,11,160.23,660.938)"><path d="M0.045,-0.573l0.153,-0l-0,-0.103l-0.153,0l-0,0.103Zm0.005,0.573l0.142,-0l0,-0.513l-0.142,0l0,0.513Z" style="fill:#00656c;fill-rule:nonzero;"/></g><g transform="matrix(11,0,0,11,162.899,660.938)"><path d="M0.386,-0.522c-0.106,0 -0.175,0.049 -0.209,0.137l-0.01,-0.003c0.016,-0.054 0.025,-0.096 0.025,-0.125l-0.143,0l-0,0.684l0.142,-0l-0,-0.139c-0,-0.054 -0.007,-0.097 -0.025,-0.157l0.01,-0.003c0.034,0.087 0.104,0.138 0.21,0.138c0.146,0 0.223,-0.089 0.223,-0.26l0,-0.012c0,-0.171 -0.077,-0.26 -0.223,-0.26Zm-0.054,0.088c0.088,-0 0.134,0.056 0.134,0.167l0,0.022c0,0.112 -0.046,0.168 -0.134,0.168c-0.091,0 -0.141,-0.059 -0.141,-0.17l-0,-0.018c-0,-0.11 0.05,-0.169 0.141,-0.169Z" style="fill:#00656c;fill-rule:nonzero;"/></g><g transform="matrix(11,0,0,11,169.946,660.938)"><path d="M0.188,0.013c0.115,-0 0.198,-0.052 0.229,-0.138l0.01,0.002c-0.019,0.095 0.001,0.136 0.113,0.136c0.014,-0 0.028,-0.002 0.04,-0.004l0.017,-0.084l-0.025,-0.001c-0.027,-0 -0.034,-0.007 -0.034,-0.041l-0,-0.235c-0,-0.116 -0.078,-0.172 -0.242,-0.172c-0.175,0 -0.263,0.069 -0.256,0.188l0.14,0.012c-0.006,-0.079 0.034,-0.114 0.113,-0.114c0.07,-0 0.103,0.025 0.103,0.084l0,0.029l-0.138,0.026c-0.139,0.026 -0.231,0.07 -0.231,0.177l0,0.001c0,0.085 0.058,0.134 0.161,0.134Zm0.057,-0.095c-0.048,-0 -0.074,-0.017 -0.074,-0.052l-0,-0.001c-0,-0.051 0.045,-0.071 0.135,-0.089l0.09,-0.017l0,0.024c0,0.078 -0.07,0.135 -0.151,0.135Z" style="fill:#00656c;fill-rule:nonzero;"/></g><g transform="matrix(11,0,0,11,176.628,660.938)"><path d="M0.049,-0l0.142,-0l-0,-0.238c-0,-0.116 0.054,-0.187 0.144,-0.187c0.067,0 0.1,0.035 0.1,0.101l0,0.324l0.142,0l0,-0.358c0,-0.107 -0.063,-0.164 -0.18,-0.164c-0.106,0 -0.179,0.047 -0.222,0.145l-0.01,-0.005c0.02,-0.058 0.026,-0.093 0.026,-0.131l-0.142,0l-0,0.513Z" style="fill:#00656c;fill-rule:nonzero;"/></g><g transform="matrix(11,0,0,11,183.347,660.938)"><path d="M0.263,0.011c0.053,0 0.104,-0.01 0.139,-0.027l0.008,-0.093c-0.032,0.013 -0.064,0.02 -0.094,0.02c-0.051,0 -0.076,-0.022 -0.076,-0.076l0,-0.255l0.17,-0l0,-0.093l-0.17,0l0,-0.15l-0.142,0.037l0,0.113l-0.082,0l0,0.093l0.082,-0l0,0.278c0,0.104 0.055,0.153 0.165,0.153Z" style="fill:#00656c;fill-rule:nonzero;"/></g><g transform="matrix(11,0,0,11,188.057,660.938)"><path d="M0.311,-0.552c0.069,-0 0.115,-0.044 0.115,-0.109c0,-0.064 -0.046,-0.108 -0.115,-0.108c-0.069,0 -0.116,0.044 -0.116,0.108c0,0.065 0.047,0.109 0.116,0.109Zm0,-0.062c-0.027,-0 -0.046,-0.02 -0.046,-0.047c-0,-0.026 0.019,-0.046 0.046,-0.046c0.027,0 0.046,0.02 0.046,0.046c-0,0.027 -0.019,0.047 -0.046,0.047Zm0.264,0.101l-0.142,0l-0,0.239c-0,0.115 -0.055,0.186 -0.144,0.186c-0.067,0 -0.101,-0.035 -0.101,-0.101l0,-0.324l-0.142,0l0,0.358c0,0.108 0.063,0.164 0.181,0.164c0.106,0 0.179,-0.047 0.222,-0.144l0.01,0.004c-0.02,0.058 -0.027,0.093 -0.027,0.131l0.143,0l-0,-0.513Z" style="fill:#00656c;fill-rule:nonzero;"/></g></g></g></g><g><g><g transform="matrix(4.16667,0,0,4.16667,-106.59,-2672.06)"><g transform="matrix(11,0,0,11,229.606,648.948)"><path d="M0.055,-0l0.144,-0l0,-0.293l0.125,0c0.069,0 0.09,0.031 0.108,0.099l0.018,0.068c0.017,0.067 0.029,0.101 0.047,0.126l0.163,-0l0.002,-0.012c-0.026,-0.017 -0.046,-0.051 -0.069,-0.124l-0.022,-0.073c-0.023,-0.073 -0.046,-0.101 -0.103,-0.117l0,-0.009c0.1,-0.011 0.153,-0.067 0.153,-0.16l0,-0.002c0,-0.122 -0.081,-0.187 -0.237,-0.187l-0.329,0l0,0.684Zm0.144,-0.385l0,-0.201l0.159,0c0.079,0 0.117,0.03 0.117,0.1l0,0.002c0,0.069 -0.039,0.099 -0.12,0.099l-0.156,-0Z" style="fill:#00656c;fill-rule:nonzero;"/></g><g transform="matrix(11,0,0,11,236.713,648.948)"><path d="M0.453,-0.177c-0.013,0.071 -0.059,0.101 -0.133,0.101c-0.086,0 -0.139,-0.046 -0.142,-0.143l0.41,0c0.003,-0.024 0.004,-0.043 0.004,-0.064c0,-0.154 -0.098,-0.241 -0.273,-0.241c-0.183,-0 -0.285,0.091 -0.285,0.253l-0,0.029c-0,0.166 0.102,0.254 0.283,0.254c0.16,-0 0.255,-0.059 0.277,-0.175l-0.141,-0.014Zm-0.133,-0.26c0.083,0 0.129,0.044 0.129,0.123l-0,0.007l-0.27,0c0.008,-0.085 0.057,-0.13 0.141,-0.13Z" style="fill:#00656c;fill-rule:nonzero;"/></g><g transform="matrix(11,0,0,11,243.6,648.948)"><path d="M0.188,0.013c0.115,-0 0.198,-0.052 0.229,-0.138l0.01,0.002c-0.019,0.095 0.001,0.136 0.113,0.136c0.014,-0 0.028,-0.002 0.04,-0.004l0.017,-0.084l-0.025,-0.001c-0.027,-0 -0.034,-0.007 -0.034,-0.041l-0,-0.235c-0,-0.116 -0.078,-0.172 -0.242,-0.172c-0.175,0 -0.263,0.069 -0.256,0.188l0.14,0.012c-0.006,-0.079 0.034,-0.114 0.113,-0.114c0.07,-0 0.103,0.025 0.103,0.084l0,0.029l-0.138,0.026c-0.139,0.026 -0.231,0.07 -0.231,0.177l0,0.001c0,0.085 0.058,0.134 0.161,0.134Zm0.057,-0.095c-0.048,-0 -0.074,-0.017 -0.074,-0.052l-0,-0.001c-0,-0.051 0.045,-0.071 0.135,-0.089l0.09,-0.017l0,0.024c0,0.078 -0.07,0.135 -0.151,0.135Z" style="fill:#00656c;fill-rule:nonzero;"/></g><g transform="matrix(11,0,0,11,250.283,648.948)"><rect x="0.049" y="-0.684" width="0.142" height="0.684" style="fill:#00656c;fill-rule:nonzero;"/></g><g transform="matrix(11,0,0,11,252.921,648.948)"><path d="M0.045,-0.573l0.153,-0l-0,-0.103l-0.153,0l-0,0.103Zm0.005,0.573l0.142,-0l0,-0.513l-0.142,0l0,0.513Z" style="fill:#00656c;fill-rule:nonzero;"/></g><g transform="matrix(11,0,0,11,255.592,648.948)"><path d="M0.021,-0l0.488,-0l-0,-0.093l-0.221,-0c-0.023,-0 -0.043,0 -0.061,0.001l-0.003,-0.006c0.015,-0.019 0.025,-0.033 0.037,-0.051l0.244,-0.355l-0.003,-0.009l-0.469,0l-0,0.093l0.207,0c0.022,0 0.036,0 0.055,-0.001l0.003,0.007c-0.011,0.015 -0.021,0.027 -0.031,0.044l-0.249,0.362l0.003,0.008Z" style="fill:#00656c;fill-rule:nonzero;"/></g><g transform="matrix(11,0,0,11,261.367,648.948)"><path d="M0.188,0.013c0.115,-0 0.198,-0.052 0.229,-0.138l0.01,0.002c-0.019,0.095 0.001,0.136 0.113,0.136c0.014,-0 0.028,-0.002 0.04,-0.004l0.017,-0.084l-0.025,-0.001c-0.027,-0 -0.034,-0.007 -0.034,-0.041l-0,-0.235c-0,-0.116 -0.078,-0.172 -0.242,-0.172c-0.175,0 -0.263,0.069 -0.256,0.188l0.14,0.012c-0.006,-0.079 0.034,-0.114 0.113,-0.114c0.07,-0 0.103,0.025 0.103,0.084l0,0.029l-0.138,0.026c-0.139,0.026 -0.231,0.07 -0.231,0.177l0,0.001c0,0.085 0.058,0.134 0.161,0.134Zm0.057,-0.095c-0.048,-0 -0.074,-0.017 -0.074,-0.052l-0,-0.001c-0,-0.051 0.045,-0.071 0.135,-0.089l0.09,-0.017l0,0.024c0,0.078 -0.07,0.135 -0.151,0.135Z" style="fill:#00656c;fill-rule:nonzero;"/></g><g transform="matrix(11,0,0,11,267.948,648.948)"><path d="M0.316,0.012c0.167,0 0.261,-0.067 0.275,-0.198l-0.143,-0.016c-0.006,0.082 -0.051,0.124 -0.132,0.124c-0.09,-0 -0.137,-0.057 -0.137,-0.169l0,-0.024c0,-0.109 0.048,-0.164 0.136,-0.164c0.081,-0 0.124,0.045 0.13,0.136l0.142,-0.016c-0.011,-0.138 -0.102,-0.21 -0.272,-0.21c-0.184,0 -0.281,0.09 -0.281,0.263l-0,0.007c-0,0.175 0.096,0.267 0.282,0.267Z" style="fill:#00656c;fill-rule:nonzero;"/></g><g transform="matrix(11,0,0,11,274.808,648.948)"><path d="M0.453,-0.177c-0.013,0.071 -0.059,0.101 -0.133,0.101c-0.086,0 -0.139,-0.046 -0.142,-0.143l0.41,0c0.003,-0.024 0.004,-0.043 0.004,-0.064c0,-0.154 -0.098,-0.241 -0.273,-0.241c-0.183,-0 -0.285,0.091 -0.285,0.253l-0,0.029c-0,0.166 0.102,0.254 0.283,0.254c0.16,-0 0.255,-0.059 0.277,-0.175l-0.141,-0.014Zm-0.133,-0.26c0.083,0 0.129,0.044 0.129,0.123l-0,0.007l-0.27,0c0.008,-0.085 0.057,-0.13 0.141,-0.13Z" style="fill:#00656c;fill-rule:nonzero;"/></g><g transform="matrix(11,0,0,11,229.606,660.938)"><path d="M0.049,-0l0.142,-0l-0,-0.214c-0,-0.134 0.041,-0.183 0.15,-0.191l0.07,-0.006l-0.017,-0.118c-0.115,0.009 -0.168,0.045 -0.221,0.152l-0.009,-0.005c0.023,-0.068 0.028,-0.096 0.027,-0.131l-0.142,0l-0,0.513Z" style="fill:#00656c;fill-rule:nonzero;"/></g><g transform="matrix(11,0,0,11,234.085,660.938)"><path d="M0.316,0.012c0.184,0 0.283,-0.093 0.283,-0.265l-0,-0.006c-0,-0.172 -0.099,-0.266 -0.283,-0.266c-0.184,0 -0.282,0.094 -0.282,0.266l-0,0.006c-0,0.172 0.098,0.265 0.282,0.265Zm0,-0.09c-0.09,0 -0.137,-0.056 -0.137,-0.167l0,-0.023c0,-0.111 0.047,-0.167 0.137,-0.167c0.09,-0 0.137,0.056 0.137,0.167l0,0.023c0,0.111 -0.047,0.167 -0.137,0.167Z" style="fill:#00656c;fill-rule:nonzero;"/></g><g transform="matrix(11,0,0,11,240.835,660.938)"><path d="M0.021,-0l0.488,-0l-0,-0.093l-0.221,-0c-0.023,-0 -0.043,0 -0.061,0.001l-0.003,-0.006c0.015,-0.019 0.025,-0.033 0.037,-0.051l0.244,-0.355l-0.003,-0.009l-0.469,0l-0,0.093l0.207,0c0.022,0 0.036,0 0.055,-0.001l0.003,0.007c-0.011,0.015 -0.021,0.027 -0.031,0.044l-0.249,0.362l0.003,0.008Z" style="fill:#00656c;fill-rule:nonzero;"/></g><g transform="matrix(11,0,0,11,246.614,660.938)"><path d="M0.049,-0l0.142,-0l-0,-0.238c-0,-0.116 0.054,-0.186 0.144,-0.186c0.067,-0 0.1,0.034 0.1,0.1l0,0.324l0.142,0l0,-0.358c0,-0.107 -0.063,-0.164 -0.18,-0.164c-0.107,0 -0.18,0.047 -0.222,0.144l-0.01,-0.004c0.019,-0.055 0.025,-0.095 0.026,-0.143l-0,-0.159l-0.142,0l-0,0.684Z" style="fill:#00656c;fill-rule:nonzero;"/></g><g transform="matrix(11,0,0,11,253.472,660.938)"><path d="M0.316,0.012c0.184,0 0.283,-0.093 0.283,-0.265l-0,-0.006c-0,-0.172 -0.099,-0.266 -0.283,-0.266c-0.184,0 -0.282,0.094 -0.282,0.266l-0,0.006c-0,0.172 0.098,0.265 0.282,0.265Zm0,-0.09c-0.09,0 -0.137,-0.056 -0.137,-0.167l0,-0.023c0,-0.111 0.047,-0.167 0.137,-0.167c0.09,-0 0.137,0.056 0.137,0.167l0,0.023c0,0.111 -0.047,0.167 -0.137,0.167Z" style="fill:#00656c;fill-rule:nonzero;"/></g><g transform="matrix(11,0,0,11,260.244,660.938)"><path d="M0.203,-0l0.17,-0l0.197,-0.513l-0.142,0l-0.086,0.237c-0.017,0.049 -0.032,0.098 -0.047,0.155l-0.009,0c-0.015,-0.057 -0.03,-0.106 -0.048,-0.155l-0.087,-0.237l-0.147,0l0.199,0.513Z" style="fill:#00656c;fill-rule:nonzero;"/></g><g transform="matrix(11,0,0,11,266.393,660.938)"><path d="M0.316,0.012c0.184,0 0.283,-0.093 0.283,-0.265l-0,-0.006c-0,-0.172 -0.099,-0.266 -0.283,-0.266c-0.184,0 -0.282,0.094 -0.282,0.266l-0,0.006c-0,0.172 0.098,0.265 0.282,0.265Zm0,-0.09c-0.09,0 -0.137,-0.056 -0.137,-0.167l0,-0.023c0,-0.111 0.047,-0.167 0.137,-0.167c0.09,-0 0.137,0.056 0.137,0.167l0,0.023c0,0.111 -0.047,0.167 -0.137,0.167Z" style="fill:#00656c;fill-rule:nonzero;"/></g><g transform="matrix(11,0,0,11,273.348,660.938)"><path d="M0.049,-0l0.142,-0l-0,-0.214c-0,-0.134 0.041,-0.183 0.15,-0.191l0.07,-0.006l-0.017,-0.118c-0.115,0.009 -0.168,0.045 -0.221,0.152l-0.009,-0.005c0.023,-0.068 0.028,-0.096 0.027,-0.131l-0.142,0l-0,0.513Z" style="fill:#00656c;fill-rule:nonzero;"/></g><g transform="matrix(11,0,0,11,278.025,660.938)"><path d="M0.575,-0.513l-0.142,0l-0,0.239c-0,0.115 -0.055,0.186 -0.144,0.186c-0.067,0 -0.101,-0.035 -0.101,-0.101l0,-0.324l-0.142,0l0,0.358c0,0.108 0.063,0.164 0.181,0.164c0.106,0 0.179,-0.047 0.222,-0.144l0.01,0.004c-0.02,0.058 -0.027,0.093 -0.027,0.131l0.143,0l-0,-0.513Z" style="fill:#00656c;fill-rule:nonzero;"/></g><g transform="matrix(11,0,0,11,229.606,672.928)"><path d="M0.317,-0.708l-0.131,-0c-0.095,0.102 -0.148,0.245 -0.148,0.403c-0,0.158 0.053,0.301 0.147,0.403l0.132,-0c-0.096,-0.102 -0.15,-0.245 -0.15,-0.403c0,-0.158 0.054,-0.301 0.15,-0.403Z" style="fill:#00656c;fill-rule:nonzero;"/></g><g transform="matrix(11,0,0,11,233.214,672.928)"><path d="M0.333,0.012c0.186,0 0.283,-0.069 0.283,-0.198l0,-0.002c0,-0.09 -0.047,-0.144 -0.142,-0.165l0,-0.008c0.082,-0.021 0.122,-0.069 0.122,-0.145l0,-0.002c0,-0.124 -0.093,-0.188 -0.269,-0.188c-0.183,0 -0.28,0.073 -0.283,0.221l0.143,0.02c-0,-0.101 0.045,-0.147 0.14,-0.147c0.084,0 0.127,0.036 0.127,0.106l0,0.002c0,0.065 -0.041,0.098 -0.121,0.1l-0.08,0.002l-0,0.077l0.081,0.002c0.082,0.002 0.133,0.034 0.133,0.111l-0,0.002c-0,0.078 -0.045,0.117 -0.133,0.117c-0.1,0 -0.151,-0.051 -0.157,-0.162l-0.14,0.02l-0.007,0.002c0.009,0.157 0.112,0.235 0.303,0.235Z" style="fill:#00656c;fill-rule:nonzero;"/></g><g transform="matrix(11,0,0,11,240.335,672.928)"><rect x="0.033" y="-0.308" width="0.514" height="0.087" style="fill:#00656c;fill-rule:nonzero;"/></g><g transform="matrix(11,0,0,11,246.72,672.928)"><path d="M0.334,0.012c0.193,0 0.292,-0.079 0.292,-0.23l0,-0.002c0,-0.146 -0.088,-0.224 -0.258,-0.224c-0.074,-0 -0.133,0.017 -0.178,0.049l0.012,-0.188l0.396,0l-0,-0.101l-0.532,0l-0.021,0.396l0.137,0.007c0.025,-0.051 0.073,-0.076 0.15,-0.076c0.098,-0 0.146,0.044 0.146,0.136l-0,0.002c-0,0.093 -0.048,0.137 -0.148,0.137c-0.095,-0 -0.144,-0.037 -0.149,-0.115l-0.147,0.02c0.012,0.127 0.11,0.189 0.3,0.189Z" style="fill:#00656c;fill-rule:nonzero;"/></g><g transform="matrix(11,0,0,11,253.905,672.928)"><path d="M0.011,-0.708c0.096,0.102 0.15,0.245 0.15,0.403c-0,0.158 -0.054,0.301 -0.15,0.403l0.132,-0c0.094,-0.102 0.148,-0.245 0.148,-0.403c-0,-0.158 -0.054,-0.301 -0.148,-0.403l-0.132,-0Z" style="fill:#00656c;fill-rule:nonzero;"/></g></g></g></g><g><g><path d="M860.64,265.818c-2.95,-0 -5.225,-0.694 -6.825,-2.081c-1.6,-1.388 -2.4,-3.269 -2.4,-5.644l0,-0.3l3.338,-0l-0,0.412c-0,1.575 0.487,2.782 1.462,3.619c0.975,0.838 2.35,1.256 4.125,1.256c1.825,0 3.257,-0.4 4.294,-1.2c1.038,-0.8 1.556,-2.012 1.556,-3.637c0,-1.675 -0.556,-2.856 -1.668,-3.544c-1.113,-0.687 -2.557,-1.031 -4.332,-1.031l-2.7,-0l0,-2.738l2.813,0c1.5,0 2.762,-0.387 3.787,-1.162c1.025,-0.775 1.538,-1.888 1.538,-3.338c-0,-1.5 -0.481,-2.625 -1.444,-3.375c-0.962,-0.75 -2.181,-1.125 -3.656,-1.125c-1.575,0 -2.838,0.394 -3.788,1.182c-0.95,0.787 -1.425,1.943 -1.425,3.468l0,0.338l-3.337,-0l-0,-0.675c-0,-1.4 0.362,-2.631 1.087,-3.694c0.725,-1.062 1.732,-1.887 3.019,-2.475c1.288,-0.587 2.756,-0.881 4.406,-0.881c2.6,-0 4.675,0.612 6.225,1.837c1.55,1.225 2.325,2.963 2.325,5.213c0,1.425 -0.375,2.594 -1.125,3.506c-0.75,0.913 -1.8,1.669 -3.15,2.269l0,0.15c1.475,0.425 2.65,1.175 3.525,2.25c0.875,1.075 1.313,2.425 1.313,4.05c-0,1.5 -0.381,2.806 -1.144,3.919c-0.762,1.112 -1.819,1.962 -3.169,2.55c-1.35,0.587 -2.9,0.881 -4.65,0.881Z" style="fill:#00656c;fill-rule:nonzero;"/><path d="M873.99,261.468l5.7,-5.663l-5.7,-5.7l2.213,-2.212l5.662,5.7l5.7,-5.7l2.213,2.212l-5.7,5.7l5.7,5.663l-2.213,2.212l-5.7,-5.7l-5.662,5.7l-2.213,-2.212Z" style="fill:#00656c;fill-rule:nonzero;"/></g></g><g><g><g transform="matrix(4.16667,0,0,4.16667,-106.59,-2672.06)"><g transform="matrix(11,0,0,11,331.654,648.948)"><path d="M0.343,0.012c0.183,0 0.294,-0.076 0.294,-0.208c0,-0.119 -0.09,-0.16 -0.201,-0.189l-0.11,-0.029c-0.114,-0.03 -0.136,-0.055 -0.136,-0.1c0,-0.055 0.048,-0.087 0.136,-0.087c0.108,-0 0.157,0.053 0.161,0.156l0.13,-0.021c-0.001,-0.144 -0.104,-0.23 -0.289,-0.23c-0.171,0 -0.274,0.07 -0.274,0.196c-0.001,0.109 0.074,0.157 0.187,0.188l0.109,0.03c0.111,0.031 0.145,0.055 0.145,0.107c-0,0.059 -0.052,0.092 -0.144,0.092c-0.118,-0 -0.172,-0.05 -0.179,-0.161l-0.141,0.022c0.007,0.153 0.122,0.234 0.312,0.234Z" style="fill:#00656c;fill-rule:nonzero;"/></g><g transform="matrix(11,0,0,11,339.026,648.948)"><path d="M0.453,-0.177c-0.013,0.071 -0.059,0.101 -0.133,0.101c-0.086,0 -0.139,-0.046 -0.142,-0.143l0.41,0c0.003,-0.024 0.004,-0.043 0.004,-0.064c0,-0.154 -0.098,-0.241 -0.273,-0.241c-0.183,-0 -0.285,0.091 -0.285,0.253l-0,0.029c-0,0.166 0.102,0.254 0.283,0.254c0.16,-0 0.255,-0.059 0.277,-0.175l-0.141,-0.014Zm-0.133,-0.26c0.083,0 0.129,0.044 0.129,0.123l-0,0.007l-0.27,0c0.008,-0.085 0.057,-0.13 0.141,-0.13Z" style="fill:#00656c;fill-rule:nonzero;"/></g><g transform="matrix(11,0,0,11,345.936,648.948)"><path d="M0.049,-0l0.142,-0l-0,-0.238c-0,-0.116 0.054,-0.187 0.144,-0.187c0.067,0 0.1,0.035 0.1,0.101l0,0.324l0.142,0l0,-0.358c0,-0.107 -0.063,-0.164 -0.18,-0.164c-0.106,0 -0.179,0.047 -0.222,0.145l-0.01,-0.005c0.02,-0.058 0.026,-0.093 0.026,-0.131l-0.142,0l-0,0.513Z" style="fill:#00656c;fill-rule:nonzero;"/></g><g transform="matrix(11,0,0,11,352.793,648.948)"><path d="M0.295,0.01c0.17,0 0.254,-0.055 0.254,-0.154c-0,-0.105 -0.095,-0.136 -0.176,-0.154l-0.08,-0.019c-0.081,-0.019 -0.119,-0.036 -0.119,-0.071c0,-0.035 0.037,-0.051 0.106,-0.051c0.08,-0 0.122,0.023 0.12,0.091l0.134,-0.015c-0.001,-0.106 -0.085,-0.161 -0.254,-0.161c-0.161,0 -0.241,0.056 -0.241,0.153c-0,0.088 0.083,0.123 0.163,0.143l0.081,0.02c0.08,0.02 0.125,0.036 0.125,0.078c-0,0.038 -0.04,0.056 -0.114,0.056c-0.086,-0 -0.133,-0.033 -0.132,-0.106l-0.137,0.016c0.003,0.118 0.091,0.174 0.27,0.174Z" style="fill:#00656c;fill-rule:nonzero;"/></g><g transform="matrix(11,0,0,11,359.118,648.948)"><path d="M0.453,-0.177c-0.013,0.071 -0.059,0.101 -0.133,0.101c-0.086,0 -0.139,-0.046 -0.142,-0.143l0.41,0c0.003,-0.024 0.004,-0.043 0.004,-0.064c0,-0.154 -0.098,-0.241 -0.273,-0.241c-0.183,-0 -0.285,0.091 -0.285,0.253l-0,0.029c-0,0.166 0.102,0.254 0.283,0.254c0.16,-0 0.255,-0.059 0.277,-0.175l-0.141,-0.014Zm-0.133,-0.26c0.083,0 0.129,0.044 0.129,0.123l-0,0.007l-0.27,0c0.008,-0.085 0.057,-0.13 0.141,-0.13Z" style="fill:#00656c;fill-rule:nonzero;"/></g><g transform="matrix(11,0,0,11,366.028,648.948)"><rect x="0.033" y="-0.314" width="0.312" height="0.099" style="fill:#00656c;fill-rule:nonzero;"/></g><g transform="matrix(11,0,0,11,331.654,660.938)"><rect x="0.033" y="-0.314" width="0.312" height="0.099" style="fill:#00656c;fill-rule:nonzero;"/></g><g transform="matrix(11,0,0,11,335.817,660.938)"><path d="M0.049,-0l0.142,-0l-0,-0.234c-0,-0.114 0.047,-0.184 0.126,-0.184c0.057,-0 0.087,0.03 0.087,0.087l0,0.331l0.142,-0l0,-0.241c0,-0.107 0.045,-0.177 0.125,-0.177c0.058,-0 0.088,0.03 0.088,0.086l0,0.332l0.142,-0l0,-0.364c0,-0.103 -0.055,-0.155 -0.162,-0.155c-0.099,0 -0.166,0.046 -0.21,0.147l-0.009,-0.002c0.011,-0.093 -0.04,-0.145 -0.141,-0.145c-0.094,0 -0.156,0.043 -0.204,0.144l-0.01,-0.004c0.021,-0.064 0.027,-0.097 0.026,-0.13l-0.142,-0l-0,0.509Z" style="fill:#00656c;fill-rule:nonzero;"/></g><g transform="matrix(11,0,0,11,346.243,660.938)"><path d="M0.188,0.013c0.115,-0 0.198,-0.052 0.229,-0.138l0.01,0.002c-0.019,0.095 0.001,0.136 0.113,0.136c0.014,-0 0.028,-0.002 0.04,-0.004l0.017,-0.084l-0.025,-0.001c-0.027,-0 -0.034,-0.007 -0.034,-0.041l-0,-0.235c-0,-0.116 -0.078,-0.172 -0.242,-0.172c-0.175,0 -0.263,0.069 -0.256,0.188l0.14,0.012c-0.006,-0.079 0.034,-0.114 0.113,-0.114c0.07,-0 0.103,0.025 0.103,0.084l0,0.029l-0.138,0.026c-0.139,0.026 -0.231,0.07 -0.231,0.177l0,0.001c0,0.085 0.058,0.134 0.161,0.134Zm0.057,-0.095c-0.048,-0 -0.074,-0.017 -0.074,-0.052l-0,-0.001c-0,-0.051 0.045,-0.071 0.135,-0.089l0.09,-0.017l0,0.024c0,0.078 -0.07,0.135 -0.151,0.135Z" style="fill:#00656c;fill-rule:nonzero;"/></g><g transform="matrix(11,0,0,11,352.925,660.938)"><path d="M0.049,-0l0.142,-0l-0,-0.177l0.069,-0.069l0.13,0.246l0.148,-0l-0.178,-0.324l0.18,-0.189l-0.155,0l-0.202,0.213l-0.008,-0.003c0.012,-0.059 0.016,-0.099 0.016,-0.164l-0,-0.217l-0.142,0l-0,0.684Z" style="fill:#00656c;fill-rule:nonzero;"/></g><g transform="matrix(11,0,0,11,358.952,660.938)"><path d="M0.045,-0.573l0.153,-0l-0,-0.103l-0.153,0l-0,0.103Zm0.005,0.573l0.142,-0l0,-0.513l-0.142,0l0,0.513Z" style="fill:#00656c;fill-rule:nonzero;"/></g><g transform="matrix(11,0,0,11,361.622,660.938)"><path d="M0.049,-0l0.142,-0l-0,-0.238c-0,-0.116 0.054,-0.187 0.144,-0.187c0.067,0 0.1,0.035 0.1,0.101l0,0.324l0.142,0l0,-0.358c0,-0.107 -0.063,-0.164 -0.18,-0.164c-0.106,0 -0.179,0.047 -0.222,0.145l-0.01,-0.005c0.02,-0.058 0.026,-0.093 0.026,-0.131l-0.142,0l-0,0.513Z" style="fill:#00656c;fill-rule:nonzero;"/></g><g transform="matrix(11,0,0,11,368.482,660.938)"><path d="M0.371,-0.121l-0.105,-0.01c-0.105,-0.011 -0.127,-0.021 -0.127,-0.045c-0,-0.017 0.011,-0.027 0.046,-0.031c0.031,0.008 0.067,0.011 0.107,0.011c0.162,0 0.247,-0.057 0.247,-0.164c-0,-0.072 -0.039,-0.122 -0.114,-0.147c-0.003,-0.036 0.018,-0.052 0.072,-0.055l0.056,-0.004l-0.015,-0.11c-0.127,0.006 -0.18,0.068 -0.161,0.157c-0.025,-0.004 -0.053,-0.006 -0.085,-0.006c-0.161,0 -0.247,0.058 -0.247,0.165c-0,0.058 0.025,0.101 0.074,0.129l0,0.009c-0.063,0.01 -0.091,0.037 -0.091,0.081c-0,0.041 0.028,0.069 0.076,0.087l0,0.009c-0.072,0.014 -0.1,0.053 -0.1,0.105c-0,0.089 0.081,0.123 0.282,0.123c0.211,-0 0.295,-0.044 0.295,-0.153c-0,-0.115 -0.106,-0.14 -0.21,-0.151Zm-0.079,-0.329c0.072,-0 0.105,0.029 0.105,0.09c0,0.061 -0.033,0.089 -0.105,0.089c-0.072,0 -0.106,-0.028 -0.106,-0.089c0,-0.061 0.034,-0.09 0.106,-0.09Zm0.001,0.548c-0.13,-0 -0.181,-0.02 -0.181,-0.069c-0,-0.03 0.016,-0.051 0.063,-0.066c0.014,0.003 0.029,0.004 0.045,0.006l0.11,0.01c0.109,0.01 0.136,0.025 0.136,0.062c0,0.04 -0.046,0.057 -0.173,0.057Z" style="fill:#00656c;fill-rule:nonzero;"/></g><g transform="matrix(11,0,0,11,331.654,672.928)"><path d="M0.317,-0.708l-0.131,-0c-0.095,0.102 -0.148,0.245 -0.148,0.403c-0,0.158 0.053,0.301 0.147,0.403l0.132,-0c-0.096,-0.102 -0.15,-0.245 -0.15,-0.403c0,-0.158 0.054,-0.301 0.15,-0.403Z" style="fill:#00656c;fill-rule:nonzero;"/></g><g transform="matrix(11,0,0,11,335.262,672.928)"><path d="M0.188,0.013c0.115,-0 0.198,-0.052 0.229,-0.138l0.01,0.002c-0.019,0.095 0.001,0.136 0.113,0.136c0.014,-0 0.028,-0.002 0.04,-0.004l0.017,-0.084l-0.025,-0.001c-0.027,-0 -0.034,-0.007 -0.034,-0.041l-0,-0.235c-0,-0.116 -0.078,-0.172 -0.242,-0.172c-0.175,0 -0.263,0.069 -0.256,0.188l0.14,0.012c-0.006,-0.079 0.034,-0.114 0.113,-0.114c0.07,-0 0.103,0.025 0.103,0.084l0,0.029l-0.138,0.026c-0.139,0.026 -0.231,0.07 -0.231,0.177l0,0.001c0,0.085 0.058,0.134 0.161,0.134Zm0.057,-0.095c-0.048,-0 -0.074,-0.017 -0.074,-0.052l-0,-0.001c-0,-0.051 0.045,-0.071 0.135,-0.089l0.09,-0.017l0,0.024c0,0.078 -0.07,0.135 -0.151,0.135Z" style="fill:#00656c;fill-rule:nonzero;"/></g><g transform="matrix(11,0,0,11,341.944,672.928)"><path d="M0.049,-0l0.142,-0l-0,-0.238c-0,-0.116 0.054,-0.187 0.144,-0.187c0.067,0 0.1,0.035 0.1,0.101l0,0.324l0.142,0l0,-0.358c0,-0.107 -0.063,-0.164 -0.18,-0.164c-0.106,0 -0.179,0.047 -0.222,0.145l-0.01,-0.005c0.02,-0.058 0.026,-0.093 0.026,-0.131l-0.142,0l-0,0.513Z" style="fill:#00656c;fill-rule:nonzero;"/></g><g transform="matrix(11,0,0,11,348.802,672.928)"><path d="M0.188,0.013c0.115,-0 0.198,-0.052 0.229,-0.138l0.01,0.002c-0.019,0.095 0.001,0.136 0.113,0.136c0.014,-0 0.028,-0.002 0.04,-0.004l0.017,-0.084l-0.025,-0.001c-0.027,-0 -0.034,-0.007 -0.034,-0.041l-0,-0.235c-0,-0.116 -0.078,-0.172 -0.242,-0.172c-0.175,0 -0.263,0.069 -0.256,0.188l0.14,0.012c-0.006,-0.079 0.034,-0.114 0.113,-0.114c0.07,-0 0.103,0.025 0.103,0.084l0,0.029l-0.138,0.026c-0.139,0.026 -0.231,0.07 -0.231,0.177l0,0.001c0,0.085 0.058,0.134 0.161,0.134Zm0.057,-0.095c-0.048,-0 -0.074,-0.017 -0.074,-0.052l-0,-0.001c-0,-0.051 0.045,-0.071 0.135,-0.089l0.09,-0.017l0,0.024c0,0.078 -0.07,0.135 -0.151,0.135Z" style="fill:#00656c;fill-rule:nonzero;"/></g><g transform="matrix(11,0,0,11,355.483,672.928)"><rect x="0.049" y="-0.684" width="0.142" height="0.684" style="fill:#00656c;fill-rule:nonzero;"/></g><g transform="matrix(11,0,0,11,358.12,672.928)"><path d="M0.322,-0.684l-0.082,0.125l0.103,0l0.114,-0.125l-0.135,0Zm-0.281,0.867c0.215,-0.013 0.284,-0.057 0.357,-0.242l0.171,-0.454l-0.141,0l-0.095,0.282c-0.014,0.039 -0.024,0.078 -0.034,0.124l-0.01,-0c-0.009,-0.046 -0.02,-0.085 -0.035,-0.124l-0.104,-0.282l-0.146,0l0.215,0.518l-0.007,0.021c-0.008,0.02 -0.026,0.031 -0.097,0.037l-0.09,0.006l0.016,0.114Z" style="fill:#00656c;fill-rule:nonzero;"/></g><g transform="matrix(11,0,0,11,364.377,672.928)"><path d="M0.021,-0l0.488,-0l-0,-0.093l-0.221,-0c-0.023,-0 -0.043,0 -0.061,0.001l-0.003,-0.006c0.015,-0.019 0.025,-0.033 0.037,-0.051l0.244,-0.355l-0.003,-0.009l-0.469,0l-0,0.093l0.207,0c0.022,0 0.036,0 0.055,-0.001l0.003,0.007c-0.011,0.015 -0.021,0.027 -0.031,0.044l-0.249,0.362l0.003,0.008Z" style="fill:#00656c;fill-rule:nonzero;"/></g><g transform="matrix(11,0,0,11,370.15,672.928)"><path d="M0.188,0.013c0.115,-0 0.198,-0.052 0.229,-0.138l0.01,0.002c-0.019,0.095 0.001,0.136 0.113,0.136c0.014,-0 0.028,-0.002 0.04,-0.004l0.017,-0.084l-0.025,-0.001c-0.027,-0 -0.034,-0.007 -0.034,-0.041l-0,-0.235c-0,-0.116 -0.078,-0.172 -0.242,-0.172c-0.175,0 -0.263,0.069 -0.256,0.188l0.14,0.012c-0.006,-0.079 0.034,-0.114 0.113,-0.114c0.07,-0 0.103,0.025 0.103,0.084l0,0.029l-0.138,0.026c-0.139,0.026 -0.231,0.07 -0.231,0.177l0,0.001c0,0.085 0.058,0.134 0.161,0.134Zm0.057,-0.095c-0.048,-0 -0.074,-0.017 -0.074,-0.052l-0,-0.001c-0,-0.051 0.045,-0.071 0.135,-0.089l0.09,-0.017l0,0.024c0,0.078 -0.07,0.135 -0.151,0.135Z" style="fill:#00656c;fill-rule:nonzero;"/></g><g transform="matrix(11,0,0,11,376.832,672.928)"><path d="M0.011,-0.708c0.096,0.102 0.15,0.245 0.15,0.403c-0,0.158 -0.054,0.301 -0.15,0.403l0.132,-0c0.094,-0.102 0.148,-0.245 0.148,-0.403c-0,-0.158 -0.054,-0.301 -0.148,-0.403l-0.132,-0Z" style="fill:#00656c;fill-rule:nonzero;"/></g></g></g></g><g><g><g transform="matrix(4.16667,0,0,4.16667,-106.59,-2672.06)"><g transform="matrix(11,0,0,11,433.701,648.948)"><path d="M0.373,-0.684l-0.318,0l0,0.684l0.144,-0l0,-0.251l0.174,-0c0.159,-0 0.24,-0.074 0.24,-0.215l0,-0.002c0,-0.142 -0.081,-0.216 -0.24,-0.216Zm-0.03,0.336l-0.144,-0l0,-0.239l0.144,0c0.085,0 0.126,0.039 0.126,0.119l-0,0.002c-0,0.08 -0.041,0.118 -0.126,0.118Z" style="fill:#00656c;fill-rule:nonzero;"/></g><g transform="matrix(11,0,0,11,440.613,648.948)"><path d="M0.316,0.012c0.184,0 0.283,-0.093 0.283,-0.265l-0,-0.006c-0,-0.172 -0.099,-0.266 -0.283,-0.266c-0.184,0 -0.282,0.094 -0.282,0.266l-0,0.006c-0,0.172 0.098,0.265 0.282,0.265Zm0,-0.09c-0.09,0 -0.137,-0.056 -0.137,-0.167l0,-0.023c0,-0.111 0.047,-0.167 0.137,-0.167c0.09,-0 0.137,0.056 0.137,0.167l0,0.023c0,0.111 -0.047,0.167 -0.137,0.167Z" style="fill:#00656c;fill-rule:nonzero;"/></g><g transform="matrix(11,0,0,11,447.569,648.948)"><path d="M0.046,-0.573l0.153,-0l-0,-0.103l-0.153,0l0,0.103Zm-0.098,0.755c0.169,-0.004 0.245,-0.06 0.245,-0.208l0,-0.487l-0.141,0l-0,0.522c-0,0.047 -0.019,0.063 -0.069,0.067l-0.049,0.003l0.014,0.103Z" style="fill:#00656c;fill-rule:nonzero;"/></g><g transform="matrix(11,0,0,11,450.249,648.948)"><path d="M0.049,-0l0.142,-0l-0,-0.234c-0,-0.114 0.047,-0.184 0.126,-0.184c0.057,-0 0.087,0.03 0.087,0.087l0,0.331l0.142,-0l0,-0.241c0,-0.107 0.045,-0.177 0.125,-0.177c0.058,-0 0.088,0.03 0.088,0.086l0,0.332l0.142,-0l0,-0.364c0,-0.103 -0.055,-0.155 -0.162,-0.155c-0.099,0 -0.166,0.046 -0.21,0.147l-0.009,-0.002c0.011,-0.093 -0.04,-0.145 -0.141,-0.145c-0.094,0 -0.156,0.043 -0.204,0.144l-0.01,-0.004c0.021,-0.064 0.027,-0.097 0.026,-0.13l-0.142,-0l-0,0.509Z" style="fill:#00656c;fill-rule:nonzero;"/></g><g transform="matrix(11,0,0,11,460.674,648.948)"><path d="M0.453,-0.177c-0.013,0.071 -0.059,0.101 -0.133,0.101c-0.086,0 -0.139,-0.046 -0.142,-0.143l0.41,0c0.003,-0.024 0.004,-0.043 0.004,-0.064c0,-0.154 -0.098,-0.241 -0.273,-0.241c-0.183,-0 -0.285,0.091 -0.285,0.253l-0,0.029c-0,0.166 0.102,0.254 0.283,0.254c0.16,-0 0.255,-0.059 0.277,-0.175l-0.141,-0.014Zm-0.133,-0.26c0.083,0 0.129,0.044 0.129,0.123l-0,0.007l-0.27,0c0.008,-0.085 0.057,-0.13 0.141,-0.13Z" style="fill:#00656c;fill-rule:nonzero;"/></g><g transform="matrix(11,0,0,11,467.587,648.948)"><path d="M0.049,-0l0.142,-0l-0,-0.238c-0,-0.116 0.054,-0.187 0.144,-0.187c0.067,0 0.1,0.035 0.1,0.101l0,0.324l0.142,0l0,-0.358c0,-0.107 -0.063,-0.164 -0.18,-0.164c-0.106,0 -0.179,0.047 -0.222,0.145l-0.01,-0.005c0.02,-0.058 0.026,-0.093 0.026,-0.131l-0.142,0l-0,0.513Z" style="fill:#00656c;fill-rule:nonzero;"/></g><g transform="matrix(11,0,0,11,474.446,648.948)"><path d="M0.316,0.012c0.184,0 0.283,-0.093 0.283,-0.265l-0,-0.006c-0,-0.172 -0.099,-0.266 -0.283,-0.266c-0.184,0 -0.282,0.094 -0.282,0.266l-0,0.006c-0,0.172 0.098,0.265 0.282,0.265Zm0,-0.09c-0.09,0 -0.137,-0.056 -0.137,-0.167l0,-0.023c0,-0.111 0.047,-0.167 0.137,-0.167c0.09,-0 0.137,0.056 0.137,0.167l0,0.023c0,0.111 -0.047,0.167 -0.137,0.167Z" style="fill:#00656c;fill-rule:nonzero;"/></g><g transform="matrix(11,0,0,11,481.219,648.948)"><path d="M0.203,-0l0.17,-0l0.197,-0.513l-0.142,0l-0.086,0.237c-0.017,0.049 -0.032,0.098 -0.047,0.155l-0.009,0c-0.015,-0.057 -0.03,-0.106 -0.048,-0.155l-0.087,-0.237l-0.147,0l0.199,0.513Z" style="fill:#00656c;fill-rule:nonzero;"/></g><g transform="matrix(11,0,0,11,487.358,648.948)"><path d="M0.321,-0.684l-0.081,0.125l0.103,0l0.114,-0.125l-0.136,0Zm-0.133,0.697c0.115,-0 0.198,-0.052 0.229,-0.138l0.01,0.002c-0.019,0.095 0.001,0.136 0.113,0.136c0.014,-0 0.028,-0.002 0.04,-0.004l0.017,-0.084l-0.025,-0.001c-0.027,-0 -0.034,-0.007 -0.034,-0.041l-0,-0.235c-0,-0.116 -0.078,-0.172 -0.242,-0.172c-0.175,0 -0.263,0.069 -0.256,0.188l0.14,0.012c-0.006,-0.079 0.034,-0.114 0.113,-0.114c0.07,-0 0.103,0.025 0.103,0.084l0,0.029l-0.138,0.026c-0.139,0.026 -0.231,0.07 -0.231,0.177l0,0.001c0,0.085 0.058,0.134 0.161,0.134Zm0.057,-0.095c-0.048,-0 -0.074,-0.017 -0.074,-0.052l-0,-0.001c-0,-0.051 0.045,-0.071 0.135,-0.089l0.09,-0.017l0,0.024c0,0.078 -0.07,0.135 -0.151,0.135Z" style="fill:#00656c;fill-rule:nonzero;"/></g><g transform="matrix(11,0,0,11,494.04,648.948)"><path d="M0.049,-0l0.142,-0l-0,-0.238c-0,-0.116 0.054,-0.187 0.144,-0.187c0.067,0 0.1,0.035 0.1,0.101l0,0.324l0.142,0l0,-0.358c0,-0.107 -0.063,-0.164 -0.18,-0.164c-0.106,0 -0.179,0.047 -0.222,0.145l-0.01,-0.005c0.02,-0.058 0.026,-0.093 0.026,-0.131l-0.142,0l-0,0.513Z" style="fill:#00656c;fill-rule:nonzero;"/></g><g transform="matrix(11,0,0,11,500.899,648.948)"><path d="M0.102,-0.684l-0.036,0.125l0.108,0l0.058,-0.125l-0.13,0Zm-0.053,0.684l0.142,-0l-0,-0.513l-0.142,0l-0,0.513Z" style="fill:#00656c;fill-rule:nonzero;"/></g><g transform="matrix(11,0,0,11,433.701,660.938)"><path d="M0.263,0.011c0.053,0 0.104,-0.01 0.139,-0.027l0.008,-0.093c-0.032,0.013 -0.064,0.02 -0.094,0.02c-0.051,0 -0.076,-0.022 -0.076,-0.076l0,-0.255l0.17,-0l0,-0.093l-0.17,0l0,-0.15l-0.142,0.037l0,0.113l-0.082,0l0,0.093l0.082,-0l0,0.278c0,0.104 0.055,0.153 0.165,0.153Z" style="fill:#00656c;fill-rule:nonzero;"/></g><g transform="matrix(11,0,0,11,438.308,660.938)"><path d="M0.478,-0.684l-0.136,0l-0.081,0.125l0.103,0l0.114,-0.125Zm-0.025,0.507c-0.013,0.071 -0.059,0.101 -0.133,0.101c-0.086,0 -0.139,-0.046 -0.142,-0.143l0.41,0c0.003,-0.024 0.004,-0.043 0.004,-0.064c0,-0.154 -0.098,-0.241 -0.273,-0.241c-0.183,-0 -0.285,0.091 -0.285,0.253l-0,0.029c-0,0.166 0.102,0.254 0.283,0.254c0.16,-0 0.255,-0.059 0.277,-0.175l-0.141,-0.014Zm-0.133,-0.26c0.083,0 0.129,0.044 0.129,0.123l-0,0.007l-0.27,0c0.008,-0.085 0.057,-0.13 0.141,-0.13Z" style="fill:#00656c;fill-rule:nonzero;"/></g><g transform="matrix(11,0,0,11,445.22,660.938)"><path d="M0.049,-0l0.142,-0l-0,-0.234c-0,-0.114 0.047,-0.184 0.126,-0.184c0.057,-0 0.087,0.03 0.087,0.087l0,0.331l0.142,-0l0,-0.241c0,-0.107 0.045,-0.177 0.125,-0.177c0.058,-0 0.088,0.03 0.088,0.086l0,0.332l0.142,-0l0,-0.364c0,-0.103 -0.055,-0.155 -0.162,-0.155c-0.099,0 -0.166,0.046 -0.21,0.147l-0.009,-0.002c0.011,-0.093 -0.04,-0.145 -0.141,-0.145c-0.094,0 -0.156,0.043 -0.204,0.144l-0.01,-0.004c0.021,-0.064 0.027,-0.097 0.026,-0.13l-0.142,-0l-0,0.509Z" style="fill:#00656c;fill-rule:nonzero;"/></g><g transform="matrix(11,0,0,11,455.645,660.938)"><path d="M0.188,0.013c0.115,-0 0.198,-0.052 0.229,-0.138l0.01,0.002c-0.019,0.095 0.001,0.136 0.113,0.136c0.014,-0 0.028,-0.002 0.04,-0.004l0.017,-0.084l-0.025,-0.001c-0.027,-0 -0.034,-0.007 -0.034,-0.041l-0,-0.235c-0,-0.116 -0.078,-0.172 -0.242,-0.172c-0.175,0 -0.263,0.069 -0.256,0.188l0.14,0.012c-0.006,-0.079 0.034,-0.114 0.113,-0.114c0.07,-0 0.103,0.025 0.103,0.084l0,0.029l-0.138,0.026c-0.139,0.026 -0.231,0.07 -0.231,0.177l0,0.001c0,0.085 0.058,0.134 0.161,0.134Zm0.057,-0.095c-0.048,-0 -0.074,-0.017 -0.074,-0.052l-0,-0.001c-0,-0.051 0.045,-0.071 0.135,-0.089l0.09,-0.017l0,0.024c0,0.078 -0.07,0.135 -0.151,0.135Z" style="fill:#00656c;fill-rule:nonzero;"/></g><g transform="matrix(11,0,0,11,462.041,660.938)"><path d="M0.263,0.011c0.053,0 0.104,-0.01 0.139,-0.027l0.008,-0.093c-0.032,0.013 -0.064,0.02 -0.094,0.02c-0.051,0 -0.076,-0.022 -0.076,-0.076l0,-0.255l0.17,-0l0,-0.093l-0.17,0l0,-0.15l-0.142,0.037l0,0.113l-0.082,0l0,0.093l0.082,-0l0,0.278c0,0.104 0.055,0.153 0.165,0.153Z" style="fill:#00656c;fill-rule:nonzero;"/></g><g transform="matrix(11,0,0,11,469.027,660.938)"><path d="M0.188,0.013c0.115,-0 0.198,-0.052 0.229,-0.138l0.01,0.002c-0.019,0.095 0.001,0.136 0.113,0.136c0.014,-0 0.028,-0.002 0.04,-0.004l0.017,-0.084l-0.025,-0.001c-0.027,-0 -0.034,-0.007 -0.034,-0.041l-0,-0.235c-0,-0.116 -0.078,-0.172 -0.242,-0.172c-0.175,0 -0.263,0.069 -0.256,0.188l0.14,0.012c-0.006,-0.079 0.034,-0.114 0.113,-0.114c0.07,-0 0.103,0.025 0.103,0.084l0,0.029l-0.138,0.026c-0.139,0.026 -0.231,0.07 -0.231,0.177l0,0.001c0,0.085 0.058,0.134 0.161,0.134Zm0.057,-0.095c-0.048,-0 -0.074,-0.017 -0.074,-0.052l-0,-0.001c-0,-0.051 0.045,-0.071 0.135,-0.089l0.09,-0.017l0,0.024c0,0.078 -0.07,0.135 -0.151,0.135Z" style="fill:#00656c;fill-rule:nonzero;"/></g><g transform="matrix(11,0,0,11,477.877,660.938)"><path d="M0.263,0.011c0.053,0 0.104,-0.01 0.139,-0.027l0.008,-0.093c-0.032,0.013 -0.064,0.02 -0.094,0.02c-0.051,0 -0.076,-0.022 -0.076,-0.076l0,-0.255l0.17,-0l0,-0.093l-0.17,0l0,-0.15l-0.142,0.037l0,0.113l-0.082,0l0,0.093l0.082,-0l0,0.278c0,0.104 0.055,0.153 0.165,0.153Z" style="fill:#00656c;fill-rule:nonzero;"/></g><g transform="matrix(11,0,0,11,482.587,660.938)"><path d="M0.051,-0.684l0.109,0.125l0.127,0l0.109,-0.125l-0.103,0l-0.069,0.062l-0.07,-0.062l-0.103,0Zm-0.002,0.684l0.142,0l-0,-0.214c-0,-0.134 0.041,-0.183 0.15,-0.191l0.07,-0.006l-0.017,-0.118c-0.115,0.009 -0.168,0.045 -0.221,0.152l-0.009,-0.005c0.023,-0.068 0.028,-0.096 0.027,-0.131l-0.142,0l-0,0.513Z" style="fill:#00656c;fill-rule:nonzero;"/></g><g transform="matrix(11,0,0,11,487.264,660.938)"><path d="M0.102,-0.684l-0.036,0.125l0.108,0l0.058,-0.125l-0.13,0Zm-0.053,0.684l0.142,-0l-0,-0.513l-0.142,0l-0,0.513Z" style="fill:#00656c;fill-rule:nonzero;"/></g><g transform="matrix(11,0,0,11,489.901,660.938)"><path d="M0.257,0.009c0.106,0 0.175,-0.049 0.209,-0.137l0.011,0.003c-0.017,0.054 -0.026,0.097 -0.026,0.125l0.143,-0l0,-0.684l-0.142,0l0,0.14c0,0.053 0.007,0.097 0.025,0.156l-0.01,0.004c-0.034,-0.088 -0.104,-0.139 -0.21,-0.139c-0.146,0 -0.223,0.089 -0.223,0.26l-0,0.013c-0,0.17 0.077,0.259 0.223,0.259Zm0.054,-0.088c-0.088,0 -0.134,-0.056 -0.134,-0.167l0,-0.022c0,-0.111 0.046,-0.168 0.134,-0.168c0.092,-0 0.141,0.06 0.141,0.17l0,0.018c0,0.11 -0.049,0.169 -0.141,0.169Z" style="fill:#00656c;fill-rule:nonzero;"/></g><g transform="matrix(11,0,0,11,496.974,660.938)"><path d="M0.378,-0.559l0.109,-0.125l-0.103,0l-0.069,0.062l-0.07,-0.062l-0.103,0l0.109,0.125l0.127,0Zm0.075,0.382c-0.013,0.071 -0.059,0.101 -0.133,0.101c-0.086,0 -0.139,-0.046 -0.142,-0.143l0.41,0c0.003,-0.024 0.004,-0.043 0.004,-0.064c0,-0.154 -0.098,-0.241 -0.273,-0.241c-0.183,-0 -0.285,0.091 -0.285,0.253l-0,0.029c-0,0.166 0.102,0.254 0.283,0.254c0.16,-0 0.255,-0.059 0.277,-0.175l-0.141,-0.014Zm-0.133,-0.26c0.083,0 0.129,0.044 0.129,0.123l-0,0.007l-0.27,0c0.008,-0.085 0.057,-0.13 0.141,-0.13Z" style="fill:#00656c;fill-rule:nonzero;"/></g><g transform="matrix(11,0,0,11,503.886,660.938)"><path d="M0.049,-0l0.142,-0l-0,-0.238c-0,-0.116 0.054,-0.187 0.144,-0.187c0.067,0 0.1,0.035 0.1,0.101l0,0.324l0.142,0l0,-0.358c0,-0.107 -0.063,-0.164 -0.18,-0.164c-0.106,0 -0.179,0.047 -0.222,0.145l-0.01,-0.005c0.02,-0.058 0.026,-0.093 0.026,-0.131l-0.142,0l-0,0.513Z" style="fill:#00656c;fill-rule:nonzero;"/></g><g transform="matrix(11,0,0,11,510.744,660.938)"><path d="M0.102,-0.684l-0.036,0.125l0.108,0l0.058,-0.125l-0.13,0Zm-0.053,0.684l0.142,-0l-0,-0.513l-0.142,0l-0,0.513Z" style="fill:#00656c;fill-rule:nonzero;"/></g><g transform="matrix(11,0,0,11,433.701,672.928)"><path d="M0.317,-0.708l-0.131,-0c-0.095,0.102 -0.148,0.245 -0.148,0.403c-0,0.158 0.053,0.301 0.147,0.403l0.132,-0c-0.096,-0.102 -0.15,-0.245 -0.15,-0.403c0,-0.158 0.054,-0.301 0.15,-0.403Z" style="fill:#00656c;fill-rule:nonzero;"/></g><g transform="matrix(11,0,0,11,437.31,672.928)"><path d="M0.295,0.01c0.17,0 0.254,-0.055 0.254,-0.154c-0,-0.105 -0.095,-0.136 -0.176,-0.154l-0.08,-0.019c-0.081,-0.019 -0.119,-0.036 -0.119,-0.071c0,-0.035 0.037,-0.051 0.106,-0.051c0.08,-0 0.122,0.023 0.12,0.091l0.134,-0.015c-0.001,-0.106 -0.085,-0.161 -0.254,-0.161c-0.161,0 -0.241,0.056 -0.241,0.153c-0,0.088 0.083,0.123 0.163,0.143l0.081,0.02c0.08,0.02 0.125,0.036 0.125,0.078c-0,0.038 -0.04,0.056 -0.114,0.056c-0.086,-0 -0.133,-0.033 -0.132,-0.106l-0.137,0.016c0.003,0.118 0.091,0.174 0.27,0.174Z" style="fill:#00656c;fill-rule:nonzero;"/></g><g transform="matrix(11,0,0,11,443.47,672.928)"><path d="M0.041,0.183c0.215,-0.013 0.284,-0.057 0.357,-0.242l0.171,-0.454l-0.141,0l-0.095,0.282c-0.014,0.039 -0.024,0.078 -0.034,0.124l-0.01,-0c-0.009,-0.046 -0.02,-0.085 -0.035,-0.124l-0.104,-0.282l-0.146,0l0.215,0.518l-0.007,0.021c-0.008,0.02 -0.026,0.031 -0.097,0.036l-0.09,0.007l0.016,0.114Z" style="fill:#00656c;fill-rule:nonzero;"/></g><g transform="matrix(11,0,0,11,449.781,672.928)"><path d="M0.049,-0l0.142,-0l-0,-0.238c-0,-0.116 0.054,-0.187 0.144,-0.187c0.067,0 0.1,0.035 0.1,0.101l0,0.324l0.142,0l0,-0.358c0,-0.107 -0.063,-0.164 -0.18,-0.164c-0.106,0 -0.179,0.047 -0.222,0.145l-0.01,-0.005c0.02,-0.058 0.026,-0.093 0.026,-0.131l-0.142,0l-0,0.513Z" style="fill:#00656c;fill-rule:nonzero;"/></g><g transform="matrix(11,0,0,11,456.5,672.928)"><path d="M0.263,0.011c0.053,0 0.104,-0.01 0.139,-0.027l0.008,-0.093c-0.032,0.013 -0.064,0.02 -0.094,0.02c-0.051,0 -0.076,-0.022 -0.076,-0.076l0,-0.255l0.17,-0l0,-0.093l-0.17,0l0,-0.15l-0.142,0.037l0,0.113l-0.082,0l0,0.093l0.082,-0l0,0.278c0,0.104 0.055,0.153 0.165,0.153Z" style="fill:#00656c;fill-rule:nonzero;"/></g><g transform="matrix(11,0,0,11,461.108,672.928)"><path d="M0.478,-0.684l-0.136,0l-0.081,0.125l0.103,0l0.114,-0.125Zm-0.025,0.507c-0.013,0.071 -0.059,0.101 -0.133,0.101c-0.086,0 -0.139,-0.046 -0.142,-0.143l0.41,0c0.003,-0.024 0.004,-0.043 0.004,-0.064c0,-0.154 -0.098,-0.241 -0.273,-0.241c-0.183,-0 -0.285,0.091 -0.285,0.253l-0,0.029c-0,0.166 0.102,0.254 0.283,0.254c0.16,-0 0.255,-0.059 0.277,-0.175l-0.141,-0.014Zm-0.133,-0.26c0.083,0 0.129,0.044 0.129,0.123l-0,0.007l-0.27,0c0.008,-0.085 0.057,-0.13 0.141,-0.13Z" style="fill:#00656c;fill-rule:nonzero;"/></g><g transform="matrix(11,0,0,11,467.816,672.928)"><path d="M0.021,-0l0.488,-0l-0,-0.093l-0.221,-0c-0.023,-0 -0.043,0 -0.061,0.001l-0.003,-0.006c0.015,-0.019 0.025,-0.033 0.037,-0.051l0.244,-0.355l-0.003,-0.009l-0.469,0l-0,0.093l0.207,0c0.022,0 0.036,0 0.055,-0.001l0.003,0.007c-0.011,0.015 -0.021,0.027 -0.031,0.044l-0.249,0.362l0.003,0.008Z" style="fill:#00656c;fill-rule:nonzero;"/></g><g transform="matrix(11,0,0,11,473.589,672.928)"><path d="M0.188,0.013c0.115,-0 0.198,-0.052 0.229,-0.138l0.01,0.002c-0.019,0.095 0.001,0.136 0.113,0.136c0.014,-0 0.028,-0.002 0.04,-0.004l0.017,-0.084l-0.025,-0.001c-0.027,-0 -0.034,-0.007 -0.034,-0.041l-0,-0.235c-0,-0.116 -0.078,-0.172 -0.242,-0.172c-0.175,0 -0.263,0.069 -0.256,0.188l0.14,0.012c-0.006,-0.079 0.034,-0.114 0.113,-0.114c0.07,-0 0.103,0.025 0.103,0.084l0,0.029l-0.138,0.026c-0.139,0.026 -0.231,0.07 -0.231,0.177l0,0.001c0,0.085 0.058,0.134 0.161,0.134Zm0.057,-0.095c-0.048,-0 -0.074,-0.017 -0.074,-0.052l-0,-0.001c-0,-0.051 0.045,-0.071 0.135,-0.089l0.09,-0.017l0,0.024c0,0.078 -0.07,0.135 -0.151,0.135Z" style="fill:#00656c;fill-rule:nonzero;"/></g><g transform="matrix(11,0,0,11,480.27,672.928)"><path d="M0.011,-0.708c0.096,0.102 0.15,0.245 0.15,0.403c-0,0.158 -0.054,0.301 -0.15,0.403l0.132,-0c0.094,-0.102 0.148,-0.245 0.148,-0.403c-0,-0.158 -0.054,-0.301 -0.148,-0.403l-0.132,-0Z" style="fill:#00656c;fill-rule:nonzero;"/></g></g></g></g><g><g><g transform="matrix(4.16667,0,0,4.16667,-106.59,-2672.06)"><g transform="matrix(17,0,0,17,433.701,732.872)"><path d="M0.056,-0l0.126,-0l0,-0.246l0.13,-0.108l0.251,0.354l0.141,-0l-0.304,-0.425l0.302,-0.259l-0.144,0l-0.38,0.323l-0.008,-0.005c0.009,-0.043 0.012,-0.076 0.012,-0.124l0,-0.194l-0.126,0l-0,0.684Z" style="fill:#00656c;fill-rule:nonzero;"/></g><g transform="matrix(17,0,0,17,445.72,732.872)"><rect x="0.05" y="-0.684" width="0.125" height="0.684" style="fill:#00656c;fill-rule:nonzero;"/></g><g transform="matrix(17,0,0,17,449.53,732.872)"><path d="M0.105,-0.684l-0.038,0.123l0.096,-0l0.057,-0.123l-0.115,0Zm-0.055,0.684l0.124,-0l0,-0.513l-0.124,0l-0,0.513Z" style="fill:#00656c;fill-rule:nonzero;"/></g><g transform="matrix(17,0,0,17,453.34,732.872)"><path d="M0.187,-0.684l0.124,0.123l0.112,-0l0.125,-0.123l-0.095,0l-0.086,0.069l-0.086,-0.069l-0.094,0Zm0.181,0.695c0.196,0 0.308,-0.068 0.324,-0.198l-0.125,-0.016c-0.008,0.088 -0.078,0.137 -0.199,0.137c-0.133,0 -0.206,-0.067 -0.206,-0.188l0,-0.006c0,-0.121 0.072,-0.187 0.205,-0.187c0.121,-0 0.19,0.055 0.198,0.156l0.123,-0.017c-0.012,-0.141 -0.123,-0.216 -0.321,-0.216c-0.218,0 -0.332,0.091 -0.332,0.263l-0,0.008c-0,0.172 0.115,0.264 0.333,0.264Z" style="fill:#00656c;fill-rule:nonzero;"/></g><g transform="matrix(17,0,0,17,465.675,732.872)"><path d="M0.367,0.011c0.217,0 0.333,-0.092 0.333,-0.263l-0,-0.008c-0,-0.172 -0.116,-0.264 -0.333,-0.264c-0.217,0 -0.332,0.092 -0.332,0.264l-0,0.008c-0,0.171 0.115,0.263 0.332,0.263Zm0,-0.077c-0.133,0 -0.205,-0.066 -0.205,-0.188l0,-0.005c0,-0.122 0.072,-0.188 0.205,-0.188c0.133,0 0.205,0.066 0.205,0.188l0,0.005c0,0.122 -0.072,0.188 -0.205,0.188Z" style="fill:#00656c;fill-rule:nonzero;"/></g><g transform="matrix(17,0,0,17,477.869,732.872)"><path d="M0.252,-0l0.149,-0l0.25,-0.513l-0.127,0l-0.126,0.264c-0.022,0.047 -0.042,0.095 -0.065,0.156l-0.009,-0c-0.022,-0.061 -0.043,-0.109 -0.065,-0.156l-0.129,-0.264l-0.13,0l0.252,0.513Z" style="fill:#00656c;fill-rule:nonzero;"/></g><g transform="matrix(17,0,0,17,488.652,732.872)"><path d="M0.535,-0.684l-0.123,0l-0.094,0.123l0.095,-0l0.122,-0.123Zm0.037,0.509c-0.021,0.073 -0.091,0.111 -0.198,0.111c-0.12,-0 -0.201,-0.054 -0.21,-0.162l0.526,-0c0.002,-0.019 0.003,-0.034 0.003,-0.052c0,-0.151 -0.12,-0.246 -0.321,-0.246c-0.212,0 -0.337,0.099 -0.337,0.264l-0,0.008c-0,0.173 0.125,0.263 0.336,0.263c0.184,0 0.297,-0.059 0.328,-0.171l-0.127,-0.015Zm-0.198,-0.273c0.12,0 0.193,0.059 0.193,0.144l0,0.002l-0.401,0c0.015,-0.092 0.091,-0.146 0.208,-0.146Z" style="fill:#00656c;fill-rule:nonzero;"/></g><g transform="matrix(17,0,0,17,433.701,749.872)"><path d="M0.252,-0l0.149,-0l0.25,-0.513l-0.127,0l-0.126,0.264c-0.022,0.047 -0.042,0.095 -0.065,0.156l-0.009,-0c-0.022,-0.061 -0.043,-0.109 -0.065,-0.156l-0.129,-0.264l-0.13,0l0.252,0.513Z" style="fill:#00656c;fill-rule:nonzero;"/></g><g transform="matrix(17,0,0,17,444.771,749.872)"><path d="M0.05,-0l0.124,-0l0,-0.221c0,-0.137 0.073,-0.216 0.207,-0.216c0.104,0 0.155,0.046 0.155,0.137l-0,0.3l0.124,-0l-0,-0.33c-0,-0.126 -0.082,-0.192 -0.228,-0.192c-0.14,-0 -0.23,0.052 -0.271,0.15l-0.01,-0.003c0.016,-0.051 0.022,-0.092 0.022,-0.144l0.001,-0.165l-0.124,0l-0,0.684Z" style="fill:#00656c;fill-rule:nonzero;"/></g><g transform="matrix(17,0,0,17,456.787,749.872)"><rect x="0.05" y="-0.684" width="0.125" height="0.684" style="fill:#00656c;fill-rule:nonzero;"/></g><g transform="matrix(17,0,0,17,460.594,749.872)"><path d="M0.572,-0.175c-0.021,0.073 -0.091,0.111 -0.198,0.111c-0.12,-0 -0.201,-0.054 -0.21,-0.162l0.526,-0c0.002,-0.019 0.003,-0.034 0.003,-0.052c0,-0.151 -0.12,-0.246 -0.321,-0.246c-0.212,0 -0.337,0.099 -0.337,0.264l-0,0.008c-0,0.173 0.125,0.263 0.336,0.263c0.184,0 0.297,-0.059 0.328,-0.171l-0.127,-0.015Zm-0.198,-0.273c0.12,0 0.193,0.059 0.193,0.144l0,0.002l-0.401,0c0.015,-0.092 0.091,-0.146 0.208,-0.146Z" style="fill:#00656c;fill-rule:nonzero;"/></g><g transform="matrix(17,0,0,17,473.058,749.872)"><path d="M0.324,0.01c0.13,-0 0.221,-0.052 0.261,-0.144l0.01,0.004c-0.016,0.049 -0.026,0.096 -0.027,0.13l0.129,-0l-0,-0.684l-0.124,0l-0,0.144c-0,0.061 0.008,0.104 0.024,0.159l-0.01,0.004c-0.04,-0.094 -0.131,-0.147 -0.263,-0.147c-0.188,0 -0.289,0.092 -0.289,0.266l-0,0.002c-0,0.173 0.101,0.266 0.289,0.266Zm0.041,-0.076c-0.132,0 -0.204,-0.067 -0.204,-0.189l-0,-0.006c-0,-0.121 0.072,-0.188 0.204,-0.188c0.134,0 0.208,0.067 0.208,0.188l-0,0.006c-0,0.122 -0.074,0.189 -0.208,0.189Z" style="fill:#00656c;fill-rule:nonzero;"/></g><g transform="matrix(17,0,0,17,485.755,749.872)"><path d="M0.043,0.182c0.22,-0.015 0.296,-0.053 0.385,-0.238l0.223,-0.457l-0.127,0l-0.132,0.291c-0.019,0.042 -0.037,0.083 -0.054,0.13l-0.009,0c-0.017,-0.047 -0.035,-0.088 -0.056,-0.13l-0.143,-0.291l-0.13,0l0.267,0.517l-0.014,0.028c-0.014,0.028 -0.036,0.038 -0.121,0.043l-0.104,0.006l0.015,0.101Z" style="fill:#00656c;fill-rule:nonzero;"/></g></g></g></g><g><g><g transform="matrix(4.16667,0,0,4.16667,-106.59,-2672.06)"><g transform="matrix(9,0,0,9,25.5118,732.872)"><path d="M0.079,-0.686l0.085,0l0.362,0.478l0.024,0.032l0.004,-0.001l0,-0.509l0.089,0l0,0.686l-0.081,-0l-0.364,-0.484l-0.026,-0.035l-0.004,0.001l-0,0.518l-0.089,-0l-0,-0.686Z" style="fill:#00656c;fill-rule:nonzero;"/></g><g transform="matrix(9,0,0,9,32.0098,732.872)"><path d="M0.278,0.012c-0.081,0 -0.141,-0.023 -0.182,-0.068c-0.041,-0.044 -0.061,-0.114 -0.061,-0.207c-0,-0.093 0.02,-0.162 0.061,-0.208c0.041,-0.044 0.101,-0.067 0.182,-0.067c0.081,0 0.141,0.023 0.182,0.068c0.041,0.045 0.061,0.114 0.061,0.207c0,0.093 -0.02,0.163 -0.061,0.208c-0.041,0.044 -0.101,0.067 -0.182,0.067Zm0,-0.073c0.053,-0 0.092,-0.016 0.116,-0.047c0.024,-0.031 0.036,-0.081 0.036,-0.151l-0,-0.008c-0,-0.07 -0.012,-0.121 -0.036,-0.151c-0.024,-0.031 -0.063,-0.047 -0.116,-0.047c-0.053,0 -0.092,0.016 -0.116,0.047c-0.024,0.031 -0.036,0.081 -0.036,0.151l-0,0.008c-0,0.07 0.012,0.121 0.036,0.152c0.024,0.031 0.063,0.046 0.116,0.046Z" style="fill:#00656c;fill-rule:nonzero;"/></g><g transform="matrix(9,0,0,9,37.0138,732.872)"><path d="M0.067,-0.526l0.067,0l0.01,0.071l0.007,0c0.036,-0.055 0.089,-0.083 0.158,-0.083c0.068,0 0.113,0.028 0.136,0.083l0.006,0c0.018,-0.027 0.041,-0.047 0.07,-0.061c0.029,-0.015 0.06,-0.022 0.093,-0.022c0.103,0 0.155,0.053 0.155,0.159l-0,0.379l-0.088,-0l-0,-0.363c-0,-0.038 -0.008,-0.065 -0.025,-0.08c-0.017,-0.015 -0.04,-0.022 -0.069,-0.022c-0.035,0 -0.065,0.014 -0.089,0.042c-0.024,0.028 -0.036,0.065 -0.036,0.112l-0,0.311l-0.088,0l-0,-0.363c-0,-0.038 -0.008,-0.064 -0.024,-0.079c-0.016,-0.015 -0.039,-0.023 -0.068,-0.023c-0.023,0 -0.044,0.006 -0.063,0.019c-0.019,0.012 -0.035,0.03 -0.047,0.053c-0.011,0.023 -0.017,0.051 -0.017,0.082l-0,0.311l-0.088,0l-0,-0.526Z" style="fill:#00656c;fill-rule:nonzero;"/></g><g transform="matrix(9,0,0,9,44.5108,732.872)"><path d="M0.067,-0.723l0.088,0l0,0.098l-0.088,0l0,-0.098Zm0,0.197l0.088,0l0,0.526l-0.088,-0l0,-0.526Z" style="fill:#00656c;fill-rule:nonzero;"/></g><g transform="matrix(9,0,0,9,46.5088,732.872)"><path d="M0.067,-0.526l0.067,0l0.01,0.071l0.007,0c0.039,-0.055 0.098,-0.083 0.177,-0.083c0.053,0 0.093,0.014 0.122,0.043c0.028,0.028 0.042,0.073 0.042,0.136l0,0.359l-0.088,0l0,-0.353c0,-0.042 -0.009,-0.071 -0.028,-0.087c-0.019,-0.017 -0.046,-0.025 -0.081,-0.025c-0.025,0 -0.049,0.006 -0.07,0.019c-0.021,0.012 -0.038,0.03 -0.051,0.053c-0.013,0.023 -0.019,0.051 -0.019,0.082l0,0.311l-0.088,0l0,-0.526Z" style="fill:#00656c;fill-rule:nonzero;"/></g><g transform="matrix(9,0,0,9,51.5128,732.872)"><path d="M0.21,0.012c-0.045,0 -0.086,-0.011 -0.121,-0.032c-0.035,-0.021 -0.053,-0.06 -0.053,-0.116c0,-0.067 0.03,-0.114 0.09,-0.139c0.06,-0.025 0.147,-0.037 0.26,-0.037l0,-0.058c-0,-0.031 -0.009,-0.054 -0.026,-0.071c-0.017,-0.016 -0.049,-0.024 -0.094,-0.024c-0.043,0 -0.073,0.008 -0.092,0.024c-0.018,0.016 -0.027,0.036 -0.027,0.059l-0,0.012l-0.085,0c-0.001,-0.004 -0.001,-0.011 -0.001,-0.022c-0,-0.047 0.019,-0.083 0.058,-0.108c0.039,-0.025 0.09,-0.038 0.155,-0.038c0.065,0 0.115,0.014 0.149,0.041c0.034,0.027 0.051,0.066 0.051,0.116l0,0.285c0,0.012 0.003,0.021 0.01,0.027c0.007,0.005 0.015,0.008 0.025,0.008l0.04,0l0,0.057c-0.017,0.008 -0.04,0.012 -0.068,0.012c-0.023,0 -0.042,-0.007 -0.057,-0.02c-0.015,-0.014 -0.026,-0.032 -0.031,-0.055l-0.007,0c-0.018,0.025 -0.043,0.044 -0.074,0.058c-0.03,0.014 -0.065,0.021 -0.102,0.021Zm0.023,-0.073c0.026,0 0.051,-0.005 0.074,-0.016c0.023,-0.011 0.042,-0.026 0.057,-0.047c0.015,-0.021 0.022,-0.047 0.022,-0.077l0,-0.038c-0.086,0 -0.151,0.007 -0.194,0.021c-0.043,0.013 -0.064,0.039 -0.064,0.077c0,0.029 0.009,0.049 0.026,0.062c0.018,0.012 0.044,0.018 0.079,0.018Z" style="fill:#00656c;fill-rule:nonzero;"/></g><g transform="matrix(9,0,0,9,56.5168,732.872)"><path d="M0.267,0.012c-0.08,0 -0.139,-0.022 -0.176,-0.067c-0.037,-0.044 -0.056,-0.113 -0.056,-0.208c-0,-0.094 0.019,-0.163 0.056,-0.208c0.038,-0.045 0.097,-0.067 0.176,-0.067c0.072,0 0.125,0.017 0.158,0.052c0.033,0.035 0.05,0.086 0.05,0.155l-0.09,0c0,-0.047 -0.009,-0.081 -0.026,-0.102c-0.016,-0.022 -0.047,-0.032 -0.092,-0.032c-0.049,0 -0.084,0.016 -0.107,0.048c-0.023,0.031 -0.034,0.083 -0.034,0.154l-0,0.004c-0,0.071 0.011,0.121 0.033,0.152c0.022,0.031 0.058,0.046 0.108,0.046c0.044,0 0.076,-0.011 0.094,-0.033c0.02,-0.023 0.029,-0.056 0.029,-0.101l0.085,0c0,0.06 -0.017,0.11 -0.051,0.149c-0.034,0.039 -0.086,0.058 -0.157,0.058Z" style="fill:#00656c;fill-rule:nonzero;"/></g><g transform="matrix(9,0,0,9,61.0168,732.872)"><path d="M0.29,0.012c-0.085,0 -0.148,-0.022 -0.189,-0.067c-0.041,-0.045 -0.062,-0.114 -0.062,-0.208c0,-0.094 0.021,-0.163 0.062,-0.208c0.041,-0.045 0.104,-0.067 0.189,-0.067c0.076,0 0.133,0.02 0.171,0.061c0.037,0.04 0.056,0.105 0.056,0.194l0,0.044l-0.387,0c0.003,0.061 0.018,0.106 0.044,0.135c0.025,0.029 0.064,0.043 0.116,0.043c0.042,0 0.076,-0.01 0.102,-0.029c0.026,-0.019 0.039,-0.049 0.039,-0.089l0.086,0c0,0.061 -0.021,0.109 -0.064,0.142c-0.042,0.033 -0.096,0.049 -0.163,0.049Zm0.135,-0.324c-0,-0.102 -0.045,-0.153 -0.135,-0.153c-0.05,0 -0.088,0.012 -0.113,0.036c-0.025,0.024 -0.04,0.063 -0.045,0.117l0.293,0Z" style="fill:#00656c;fill-rule:nonzero;"/></g><g transform="matrix(9,0,0,9,68.5228,732.872)"><path d="M0.067,-0.526l0.066,0l0.011,0.071l0.006,0c0.017,-0.027 0.04,-0.048 0.068,-0.062c0.029,-0.014 0.06,-0.021 0.095,-0.021c0.067,0 0.118,0.022 0.154,0.067c0.036,0.045 0.054,0.114 0.054,0.208c-0,0.092 -0.018,0.161 -0.054,0.207c-0.035,0.045 -0.084,0.068 -0.146,0.068c-0.037,-0 -0.069,-0.006 -0.095,-0.017c-0.026,-0.011 -0.048,-0.03 -0.065,-0.055l-0.006,-0l-0,0.233l-0.088,0l-0,-0.699Zm0.224,0.465c0.034,0 0.061,-0.006 0.081,-0.019c0.02,-0.013 0.035,-0.033 0.044,-0.062c0.009,-0.029 0.014,-0.068 0.014,-0.117l-0,-0.004c-0,-0.05 -0.005,-0.09 -0.014,-0.119c-0.009,-0.029 -0.024,-0.05 -0.045,-0.064c-0.02,-0.013 -0.047,-0.019 -0.08,-0.019c-0.047,0 -0.081,0.017 -0.103,0.051c-0.022,0.034 -0.033,0.084 -0.033,0.151l-0,0.004c-0,0.065 0.011,0.115 0.032,0.148c0.022,0.033 0.057,0.05 0.104,0.05Z" style="fill:#00656c;fill-rule:nonzero;"/></g><g transform="matrix(9,0,0,9,73.5268,732.872)"><path d="M0.21,0.012c-0.045,0 -0.086,-0.011 -0.121,-0.032c-0.035,-0.021 -0.053,-0.06 -0.053,-0.116c0,-0.067 0.03,-0.114 0.09,-0.139c0.06,-0.025 0.147,-0.037 0.26,-0.037l0,-0.058c-0,-0.031 -0.009,-0.054 -0.026,-0.071c-0.017,-0.016 -0.049,-0.024 -0.094,-0.024c-0.043,0 -0.073,0.008 -0.092,0.024c-0.018,0.016 -0.027,0.036 -0.027,0.059l-0,0.012l-0.085,0c-0.001,-0.004 -0.001,-0.011 -0.001,-0.022c-0,-0.047 0.019,-0.083 0.058,-0.108c0.039,-0.025 0.09,-0.038 0.155,-0.038c0.065,0 0.115,0.014 0.149,0.041c0.034,0.027 0.051,0.066 0.051,0.116l0,0.285c0,0.012 0.003,0.021 0.01,0.027c0.007,0.005 0.015,0.008 0.025,0.008l0.04,0l0,0.057c-0.017,0.008 -0.04,0.012 -0.068,0.012c-0.023,0 -0.042,-0.007 -0.057,-0.02c-0.015,-0.014 -0.026,-0.032 -0.031,-0.055l-0.007,0c-0.018,0.025 -0.043,0.044 -0.074,0.058c-0.03,0.014 -0.065,0.021 -0.102,0.021Zm0.023,-0.073c0.026,0 0.051,-0.005 0.074,-0.016c0.023,-0.011 0.042,-0.026 0.057,-0.047c0.015,-0.021 0.022,-0.047 0.022,-0.077l0,-0.038c-0.086,0 -0.151,0.007 -0.194,0.021c-0.043,0.013 -0.064,0.039 -0.064,0.077c0,0.029 0.009,0.049 0.026,0.062c0.018,0.012 0.044,0.018 0.079,0.018Z" style="fill:#00656c;fill-rule:nonzero;"/></g><g transform="matrix(9,0,0,9,78.5308,732.872)"><path d="M0.067,-0.526l0.067,0l0.01,0.079l0.006,0c0.01,-0.026 0.025,-0.048 0.045,-0.065c0.02,-0.017 0.046,-0.026 0.079,-0.026c0.011,0 0.021,0.001 0.03,0.004c0.009,0.002 0.015,0.003 0.017,0.004l-0,0.085l-0.037,0c-0.037,0 -0.068,0.011 -0.093,0.032c-0.024,0.022 -0.036,0.056 -0.036,0.102l-0,0.311l-0.088,0l-0,-0.526Z" style="fill:#00656c;fill-rule:nonzero;"/></g><g transform="matrix(9,0,0,9,81.5278,732.872)"><path d="M0.186,0.011c-0.036,0 -0.062,-0.011 -0.079,-0.032c-0.017,-0.021 -0.025,-0.048 -0.025,-0.079l0,-0.353l-0.064,-0l0,-0.073l0.065,-0l0.019,-0.146l0.068,-0l0,0.146l0.089,-0l0,0.073l-0.089,-0l0,0.345c0,0.031 0.015,0.047 0.044,0.047l0.045,-0l0,0.058c-0.009,0.004 -0.02,0.007 -0.034,0.01c-0.014,0.003 -0.027,0.004 -0.039,0.004Z" style="fill:#00656c;fill-rule:nonzero;"/></g><g transform="matrix(9,0,0,9,84.0298,732.872)"><path d="M0.067,-0.723l0.088,0l0,0.098l-0.088,0l0,-0.098Zm0,0.197l0.088,0l0,0.526l-0.088,-0l0,-0.526Z" style="fill:#00656c;fill-rule:nonzero;"/></g><g transform="matrix(9,0,0,9,86.0278,732.872)"><path d="M0.267,0.012c-0.08,0 -0.139,-0.022 -0.176,-0.067c-0.037,-0.044 -0.056,-0.113 -0.056,-0.208c-0,-0.094 0.019,-0.163 0.056,-0.208c0.038,-0.045 0.097,-0.067 0.176,-0.067c0.072,0 0.125,0.017 0.158,0.052c0.033,0.035 0.05,0.086 0.05,0.155l-0.09,0c0,-0.047 -0.009,-0.081 -0.026,-0.102c-0.016,-0.022 -0.047,-0.032 -0.092,-0.032c-0.049,0 -0.084,0.016 -0.107,0.048c-0.023,0.031 -0.034,0.083 -0.034,0.154l-0,0.004c-0,0.071 0.011,0.121 0.033,0.152c0.022,0.031 0.058,0.046 0.108,0.046c0.044,0 0.076,-0.011 0.094,-0.033c0.02,-0.023 0.029,-0.056 0.029,-0.101l0.085,0c0,0.06 -0.017,0.11 -0.051,0.149c-0.034,0.039 -0.086,0.058 -0.157,0.058Z" style="fill:#00656c;fill-rule:nonzero;"/></g><g transform="matrix(9,0,0,9,90.5278,732.872)"><path d="M0.067,-0.723l0.088,0l0,0.098l-0.088,0l0,-0.098Zm0,0.197l0.088,0l0,0.526l-0.088,-0l0,-0.526Z" style="fill:#00656c;fill-rule:nonzero;"/></g><g transform="matrix(9,0,0,9,92.5258,732.872)"><path d="M0.067,-0.526l0.066,0l0.011,0.071l0.006,0c0.017,-0.027 0.04,-0.048 0.068,-0.062c0.029,-0.014 0.06,-0.021 0.095,-0.021c0.067,0 0.118,0.022 0.154,0.067c0.036,0.045 0.054,0.114 0.054,0.208c-0,0.092 -0.018,0.161 -0.054,0.207c-0.035,0.045 -0.084,0.068 -0.146,0.068c-0.037,-0 -0.069,-0.006 -0.095,-0.017c-0.026,-0.011 -0.048,-0.03 -0.065,-0.055l-0.006,-0l-0,0.233l-0.088,0l-0,-0.699Zm0.224,0.465c0.034,0 0.061,-0.006 0.081,-0.019c0.02,-0.013 0.035,-0.033 0.044,-0.062c0.009,-0.029 0.014,-0.068 0.014,-0.117l-0,-0.004c-0,-0.05 -0.005,-0.09 -0.014,-0.119c-0.009,-0.029 -0.024,-0.05 -0.045,-0.064c-0.02,-0.013 -0.047,-0.019 -0.08,-0.019c-0.047,0 -0.081,0.017 -0.103,0.051c-0.022,0.034 -0.033,0.084 -0.033,0.151l-0,0.004c-0,0.065 0.011,0.115 0.032,0.148c0.022,0.033 0.057,0.05 0.104,0.05Z" style="fill:#00656c;fill-rule:nonzero;"/></g><g transform="matrix(9,0,0,9,97.5298,732.872)"><path d="M0.21,0.012c-0.045,0 -0.086,-0.011 -0.121,-0.032c-0.035,-0.021 -0.053,-0.06 -0.053,-0.116c0,-0.067 0.03,-0.114 0.09,-0.139c0.06,-0.025 0.147,-0.037 0.26,-0.037l0,-0.058c-0,-0.031 -0.009,-0.054 -0.026,-0.071c-0.017,-0.016 -0.049,-0.024 -0.094,-0.024c-0.043,0 -0.073,0.008 -0.092,0.024c-0.018,0.016 -0.027,0.036 -0.027,0.059l-0,0.012l-0.085,0c-0.001,-0.004 -0.001,-0.011 -0.001,-0.022c-0,-0.047 0.019,-0.083 0.058,-0.108c0.039,-0.025 0.09,-0.038 0.155,-0.038c0.065,0 0.115,0.014 0.149,0.041c0.034,0.027 0.051,0.066 0.051,0.116l0,0.285c0,0.012 0.003,0.021 0.01,0.027c0.007,0.005 0.015,0.008 0.025,0.008l0.04,0l0,0.057c-0.017,0.008 -0.04,0.012 -0.068,0.012c-0.023,0 -0.042,-0.007 -0.057,-0.02c-0.015,-0.014 -0.026,-0.032 -0.031,-0.055l-0.007,0c-0.018,0.025 -0.043,0.044 -0.074,0.058c-0.03,0.014 -0.065,0.021 -0.102,0.021Zm0.023,-0.073c0.026,0 0.051,-0.005 0.074,-0.016c0.023,-0.011 0.042,-0.026 0.057,-0.047c0.015,-0.021 0.022,-0.047 0.022,-0.077l0,-0.038c-0.086,0 -0.151,0.007 -0.194,0.021c-0.043,0.013 -0.064,0.039 -0.064,0.077c0,0.029 0.009,0.049 0.026,0.062c0.018,0.012 0.044,0.018 0.079,0.018Z" style="fill:#00656c;fill-rule:nonzero;"/></g><g transform="matrix(9,0,0,9,102.534,732.872)"><path d="M0.067,-0.526l0.067,0l0.01,0.071l0.007,0c0.039,-0.055 0.098,-0.083 0.177,-0.083c0.053,0 0.093,0.014 0.122,0.043c0.028,0.028 0.042,0.073 0.042,0.136l0,0.359l-0.088,0l0,-0.353c0,-0.042 -0.009,-0.071 -0.028,-0.087c-0.019,-0.017 -0.046,-0.025 -0.081,-0.025c-0.025,0 -0.049,0.006 -0.07,0.019c-0.021,0.012 -0.038,0.03 -0.051,0.053c-0.013,0.023 -0.019,0.051 -0.019,0.082l0,0.311l-0.088,0l0,-0.526Z" style="fill:#00656c;fill-rule:nonzero;"/></g><g transform="matrix(9,0,0,9,107.538,732.872)"><path d="M0.186,0.011c-0.036,0 -0.062,-0.011 -0.079,-0.032c-0.017,-0.021 -0.025,-0.048 -0.025,-0.079l0,-0.353l-0.064,-0l0,-0.073l0.065,-0l0.019,-0.146l0.068,-0l0,0.146l0.089,-0l0,0.073l-0.089,-0l0,0.345c0,0.031 0.015,0.047 0.044,0.047l0.045,-0l0,0.058c-0.009,0.004 -0.02,0.007 -0.034,0.01c-0.014,0.003 -0.027,0.004 -0.039,0.004Z" style="fill:#00656c;fill-rule:nonzero;"/></g><g transform="matrix(9,0,0,9,110.04,732.872)"><path d="M0.228,0.012c-0.053,0 -0.093,-0.014 -0.122,-0.042c-0.028,-0.029 -0.042,-0.074 -0.042,-0.137l0,-0.359l0.088,0l0,0.353c0,0.042 0.009,0.071 0.028,0.088c0.019,0.016 0.046,0.024 0.081,0.024c0.025,0 0.049,-0.006 0.07,-0.018c0.021,-0.013 0.038,-0.031 0.051,-0.054c0.013,-0.023 0.019,-0.051 0.019,-0.082l0,-0.311l0.088,0l0,0.526l-0.067,-0l-0.01,-0.071l-0.007,0c-0.039,0.055 -0.098,0.083 -0.177,0.083Zm0.049,-0.578c-0.029,-0 -0.053,-0.009 -0.07,-0.028c-0.017,-0.018 -0.026,-0.041 -0.026,-0.068c0,-0.027 0.009,-0.05 0.026,-0.069c0.017,-0.018 0.041,-0.027 0.07,-0.027c0.029,-0 0.053,0.009 0.07,0.027c0.017,0.019 0.026,0.042 0.026,0.069c0,0.027 -0.009,0.05 -0.026,0.068c-0.017,0.019 -0.041,0.028 -0.07,0.028Zm0,-0.045c0.015,-0 0.027,-0.005 0.037,-0.015c0.009,-0.01 0.014,-0.022 0.014,-0.036c0,-0.014 -0.005,-0.026 -0.014,-0.036c-0.01,-0.01 -0.022,-0.015 -0.037,-0.015c-0.015,0 -0.027,0.005 -0.036,0.015c-0.01,0.01 -0.015,0.022 -0.015,0.036c0,0.014 0.005,0.026 0.015,0.036c0.009,0.01 0.021,0.015 0.036,0.015Z" style="fill:#00656c;fill-rule:nonzero;"/></g><g transform="matrix(9,0,0,9,25.5118,744.862)"><path d="M0.024,-0.047l0.305,-0.406l-0.284,0l0,-0.073l0.413,0l0,0.046l-0.306,0.407l0.323,0l0,0.073l-0.451,0l-0,-0.047Z" style="fill:#00656c;fill-rule:nonzero;"/></g><g transform="matrix(9,0,0,9,32.5138,744.862)"><path d="M0.067,-0.526l0.067,0l0.01,0.079l0.006,0c0.01,-0.026 0.025,-0.048 0.045,-0.065c0.02,-0.017 0.046,-0.026 0.079,-0.026c0.011,0 0.021,0.001 0.03,0.004c0.009,0.002 0.015,0.003 0.017,0.004l-0,0.085l-0.037,0c-0.037,0 -0.068,0.011 -0.093,0.032c-0.024,0.022 -0.036,0.056 -0.036,0.102l-0,0.311l-0.088,0l-0,-0.526Z" style="fill:#00656c;fill-rule:nonzero;"/></g><g transform="matrix(9,0,0,9,35.5108,744.862)"><path d="M0.278,0.012c-0.081,0 -0.141,-0.023 -0.182,-0.068c-0.041,-0.044 -0.061,-0.114 -0.061,-0.207c-0,-0.093 0.02,-0.162 0.061,-0.208c0.041,-0.044 0.101,-0.067 0.182,-0.067c0.081,0 0.141,0.023 0.182,0.068c0.041,0.045 0.061,0.114 0.061,0.207c0,0.093 -0.02,0.163 -0.061,0.208c-0.041,0.044 -0.101,0.067 -0.182,0.067Zm0,-0.073c0.053,-0 0.092,-0.016 0.116,-0.047c0.024,-0.031 0.036,-0.081 0.036,-0.151l-0,-0.008c-0,-0.07 -0.012,-0.121 -0.036,-0.151c-0.024,-0.031 -0.063,-0.047 -0.116,-0.047c-0.053,0 -0.092,0.016 -0.116,0.047c-0.024,0.031 -0.036,0.081 -0.036,0.151l-0,0.008c-0,0.07 0.012,0.121 0.036,0.152c0.024,0.031 0.063,0.046 0.116,0.046Z" style="fill:#00656c;fill-rule:nonzero;"/></g><g transform="matrix(9,0,0,9,40.5148,744.862)"><path d="M0.024,-0.047l0.305,-0.406l-0.284,0l0,-0.073l0.413,0l0,0.046l-0.306,0.407l0.323,0l0,0.073l-0.451,0l-0,-0.047Z" style="fill:#00656c;fill-rule:nonzero;"/></g><g transform="matrix(9,0,0,9,45.0148,744.862)"><path d="M0.067,-0.723l0.088,0l0,0.256l0.007,-0c0.037,-0.047 0.092,-0.071 0.166,-0.071c0.109,0 0.164,0.06 0.164,0.179l0,0.359l-0.088,0l0,-0.353c0,-0.042 -0.009,-0.071 -0.028,-0.087c-0.019,-0.017 -0.046,-0.025 -0.081,-0.025c-0.025,0 -0.049,0.006 -0.07,0.019c-0.021,0.012 -0.038,0.03 -0.051,0.053c-0.013,0.023 -0.019,0.051 -0.019,0.082l0,0.311l-0.088,0l0,-0.723Z" style="fill:#00656c;fill-rule:nonzero;"/></g><g transform="matrix(9,0,0,9,50.0188,744.862)"><path d="M0.278,0.012c-0.081,0 -0.141,-0.023 -0.182,-0.068c-0.041,-0.044 -0.061,-0.114 -0.061,-0.207c-0,-0.093 0.02,-0.162 0.061,-0.208c0.041,-0.044 0.101,-0.067 0.182,-0.067c0.081,0 0.141,0.023 0.182,0.068c0.041,0.045 0.061,0.114 0.061,0.207c0,0.093 -0.02,0.163 -0.061,0.208c-0.041,0.044 -0.101,0.067 -0.182,0.067Zm0,-0.073c0.053,-0 0.092,-0.016 0.116,-0.047c0.024,-0.031 0.036,-0.081 0.036,-0.151l-0,-0.008c-0,-0.07 -0.012,-0.121 -0.036,-0.151c-0.024,-0.031 -0.063,-0.047 -0.116,-0.047c-0.053,0 -0.092,0.016 -0.116,0.047c-0.024,0.031 -0.036,0.081 -0.036,0.151l-0,0.008c-0,0.07 0.012,0.121 0.036,0.152c0.024,0.031 0.063,0.046 0.116,0.046Z" style="fill:#00656c;fill-rule:nonzero;"/></g><g transform="matrix(9,0,0,9,55.0228,744.862)"><path d="M0.013,-0.526l0.093,0l0.093,0.263c0.009,0.025 0.019,0.055 0.03,0.092c0.011,0.037 0.019,0.061 0.022,0.073l0.005,0c0.003,-0.011 0.01,-0.035 0.021,-0.07c0.011,-0.036 0.021,-0.068 0.03,-0.095l0.092,-0.263l0.088,0l-0.193,0.526l-0.088,-0l-0.193,-0.526Z" style="fill:#00656c;fill-rule:nonzero;"/></g><g transform="matrix(9,0,0,9,59.5228,744.862)"><path d="M0.278,0.012c-0.081,0 -0.141,-0.023 -0.182,-0.068c-0.041,-0.044 -0.061,-0.114 -0.061,-0.207c-0,-0.093 0.02,-0.162 0.061,-0.208c0.041,-0.044 0.101,-0.067 0.182,-0.067c0.081,0 0.141,0.023 0.182,0.068c0.041,0.045 0.061,0.114 0.061,0.207c0,0.093 -0.02,0.163 -0.061,0.208c-0.041,0.044 -0.101,0.067 -0.182,0.067Zm0,-0.073c0.053,-0 0.092,-0.016 0.116,-0.047c0.024,-0.031 0.036,-0.081 0.036,-0.151l-0,-0.008c-0,-0.07 -0.012,-0.121 -0.036,-0.151c-0.024,-0.031 -0.063,-0.047 -0.116,-0.047c-0.053,0 -0.092,0.016 -0.116,0.047c-0.024,0.031 -0.036,0.081 -0.036,0.151l-0,0.008c-0,0.07 0.012,0.121 0.036,0.152c0.024,0.031 0.063,0.046 0.116,0.046Z" style="fill:#00656c;fill-rule:nonzero;"/></g><g transform="matrix(9,0,0,9,64.5268,744.862)"><path d="M0.067,-0.526l0.067,0l0.01,0.079l0.006,0c0.01,-0.026 0.025,-0.048 0.045,-0.065c0.02,-0.017 0.046,-0.026 0.079,-0.026c0.011,0 0.021,0.001 0.03,0.004c0.009,0.002 0.015,0.003 0.017,0.004l-0,0.085l-0.037,0c-0.037,0 -0.068,0.011 -0.093,0.032c-0.024,0.022 -0.036,0.056 -0.036,0.102l-0,0.311l-0.088,0l-0,-0.526Z" style="fill:#00656c;fill-rule:nonzero;"/></g><g transform="matrix(9,0,0,9,67.5238,744.862)"><path d="M0.228,0.012c-0.053,0 -0.093,-0.014 -0.122,-0.042c-0.028,-0.029 -0.042,-0.074 -0.042,-0.137l0,-0.359l0.088,0l0,0.353c0,0.042 0.009,0.071 0.028,0.088c0.019,0.016 0.046,0.024 0.081,0.024c0.025,0 0.049,-0.006 0.07,-0.018c0.021,-0.013 0.038,-0.031 0.051,-0.054c0.013,-0.023 0.019,-0.051 0.019,-0.082l0,-0.311l0.088,0l0,0.526l-0.067,-0l-0.01,-0.071l-0.007,0c-0.039,0.055 -0.098,0.083 -0.177,0.083Zm0.049,-0.578c-0.029,-0 -0.053,-0.009 -0.07,-0.028c-0.017,-0.018 -0.026,-0.041 -0.026,-0.068c0,-0.027 0.009,-0.05 0.026,-0.069c0.017,-0.018 0.041,-0.027 0.07,-0.027c0.029,-0 0.053,0.009 0.07,0.027c0.017,0.019 0.026,0.042 0.026,0.069c0,0.027 -0.009,0.05 -0.026,0.068c-0.017,0.019 -0.041,0.028 -0.07,0.028Zm0,-0.045c0.015,-0 0.027,-0.005 0.037,-0.015c0.009,-0.01 0.014,-0.022 0.014,-0.036c0,-0.014 -0.005,-0.026 -0.014,-0.036c-0.01,-0.01 -0.022,-0.015 -0.037,-0.015c-0.015,0 -0.027,0.005 -0.036,0.015c-0.01,0.01 -0.015,0.022 -0.015,0.036c0,0.014 0.005,0.026 0.015,0.036c0.009,0.01 0.021,0.015 0.036,0.015Z" style="fill:#00656c;fill-rule:nonzero;"/></g><g transform="matrix(9,0,0,9,72.5278,744.862)"><path d="M0.129,-0l-0.04,-0l0,-0.108l0.1,0l0,0.099l-0.048,0.143l-0.052,0l0.04,-0.134Z" style="fill:#00656c;fill-rule:nonzero;"/></g><g transform="matrix(9,0,0,9,77.5318,744.862)"><path d="M0.243,0.012c-0.067,0 -0.118,-0.022 -0.154,-0.067c-0.036,-0.045 -0.054,-0.114 -0.054,-0.208c0,-0.092 0.018,-0.161 0.054,-0.207c0.035,-0.045 0.084,-0.068 0.146,-0.068c0.037,0 0.069,0.006 0.095,0.017c0.026,0.011 0.048,0.03 0.065,0.055l0.006,0l0,-0.257l0.088,0l0,0.723l-0.066,0l-0.011,-0.071l-0.006,0c-0.017,0.027 -0.04,0.048 -0.068,0.062c-0.029,0.014 -0.06,0.021 -0.095,0.021Zm0.022,-0.073c0.047,0 0.082,-0.017 0.104,-0.05c0.021,-0.033 0.032,-0.083 0.032,-0.148l0,-0.004c0,-0.067 -0.011,-0.117 -0.033,-0.151c-0.022,-0.034 -0.056,-0.051 -0.103,-0.051c-0.033,0 -0.06,0.007 -0.081,0.02c-0.02,0.013 -0.035,0.034 -0.044,0.063c-0.009,0.029 -0.014,0.069 -0.014,0.119l0,0.004c0,0.049 0.005,0.088 0.014,0.117c0.009,0.029 0.024,0.049 0.044,0.062c0.02,0.013 0.047,0.019 0.081,0.019Z" style="fill:#00656c;fill-rule:nonzero;"/></g><g transform="matrix(9,0,0,9,82.5358,744.862)"><path d="M0.278,0.012c-0.081,0 -0.141,-0.023 -0.182,-0.068c-0.041,-0.044 -0.061,-0.114 -0.061,-0.207c-0,-0.093 0.02,-0.162 0.061,-0.208c0.041,-0.044 0.101,-0.067 0.182,-0.067c0.081,0 0.141,0.023 0.182,0.068c0.041,0.045 0.061,0.114 0.061,0.207c0,0.093 -0.02,0.163 -0.061,0.208c-0.041,0.044 -0.101,0.067 -0.182,0.067Zm0,-0.073c0.053,-0 0.092,-0.016 0.116,-0.047c0.024,-0.031 0.036,-0.081 0.036,-0.151l-0,-0.008c-0,-0.07 -0.012,-0.121 -0.036,-0.151c-0.024,-0.031 -0.063,-0.047 -0.116,-0.047c-0.053,0 -0.092,0.016 -0.116,0.047c-0.024,0.031 -0.036,0.081 -0.036,0.151l-0,0.008c-0,0.07 0.012,0.121 0.036,0.152c0.024,0.031 0.063,0.046 0.116,0.046Z" style="fill:#00656c;fill-rule:nonzero;"/></g><g transform="matrix(9,0,0,9,87.5398,744.862)"><path d="M0.186,0.011c-0.036,0 -0.062,-0.011 -0.079,-0.032c-0.017,-0.021 -0.025,-0.048 -0.025,-0.079l0,-0.353l-0.064,-0l0,-0.073l0.065,-0l0.019,-0.146l0.068,-0l0,0.146l0.089,-0l0,0.073l-0.089,-0l0,0.345c0,0.031 0.015,0.047 0.044,0.047l0.045,-0l0,0.058c-0.009,0.004 -0.02,0.007 -0.034,0.01c-0.014,0.003 -0.027,0.004 -0.039,0.004Z" style="fill:#00656c;fill-rule:nonzero;"/></g><g transform="matrix(9,0,0,9,90.0418,744.862)"><path d="M0.21,0.012c-0.045,0 -0.086,-0.011 -0.121,-0.032c-0.035,-0.021 -0.053,-0.06 -0.053,-0.116c0,-0.067 0.03,-0.114 0.09,-0.139c0.06,-0.025 0.147,-0.037 0.26,-0.037l0,-0.058c-0,-0.031 -0.009,-0.054 -0.026,-0.071c-0.017,-0.016 -0.049,-0.024 -0.094,-0.024c-0.043,0 -0.073,0.008 -0.092,0.024c-0.018,0.016 -0.027,0.036 -0.027,0.059l-0,0.012l-0.085,0c-0.001,-0.004 -0.001,-0.011 -0.001,-0.022c-0,-0.047 0.019,-0.083 0.058,-0.108c0.039,-0.025 0.09,-0.038 0.155,-0.038c0.065,0 0.115,0.014 0.149,0.041c0.034,0.027 0.051,0.066 0.051,0.116l0,0.285c0,0.012 0.003,0.021 0.01,0.027c0.007,0.005 0.015,0.008 0.025,0.008l0.04,0l0,0.057c-0.017,0.008 -0.04,0.012 -0.068,0.012c-0.023,0 -0.042,-0.007 -0.057,-0.02c-0.015,-0.014 -0.026,-0.032 -0.031,-0.055l-0.007,0c-0.018,0.025 -0.043,0.044 -0.074,0.058c-0.03,0.014 -0.065,0.021 -0.102,0.021Zm0.023,-0.073c0.026,0 0.051,-0.005 0.074,-0.016c0.023,-0.011 0.042,-0.026 0.057,-0.047c0.015,-0.021 0.022,-0.047 0.022,-0.077l0,-0.038c-0.086,0 -0.151,0.007 -0.194,0.021c-0.043,0.013 -0.064,0.039 -0.064,0.077c0,0.029 0.009,0.049 0.026,0.062c0.018,0.012 0.044,0.018 0.079,0.018Z" style="fill:#00656c;fill-rule:nonzero;"/></g><g transform="matrix(9,0,0,9,95.0458,744.862)"><path d="M0.024,-0.047l0.305,-0.406l-0.284,0l0,-0.073l0.413,0l0,0.046l-0.306,0.407l0.323,0l0,0.073l-0.451,0l-0,-0.047Z" style="fill:#00656c;fill-rule:nonzero;"/></g><g transform="matrix(9,0,0,9,99.5458,744.862)"><path d="M0.067,-0.526l0.067,0l0.01,0.071l0.007,0c0.039,-0.055 0.098,-0.083 0.177,-0.083c0.053,0 0.093,0.014 0.122,0.043c0.028,0.028 0.042,0.073 0.042,0.136l0,0.359l-0.088,0l0,-0.353c0,-0.042 -0.009,-0.071 -0.028,-0.087c-0.019,-0.017 -0.046,-0.025 -0.081,-0.025c-0.025,0 -0.049,0.006 -0.07,0.019c-0.021,0.012 -0.038,0.03 -0.051,0.053c-0.013,0.023 -0.019,0.051 -0.019,0.082l0,0.311l-0.088,0l0,-0.526Z" style="fill:#00656c;fill-rule:nonzero;"/></g><g transform="matrix(9,0,0,9,104.55,744.862)"><path d="M0.171,-0.723l0.096,0l0.001,0.003l-0.108,0.129l-0.075,0l0.086,-0.132Zm-0.076,0.197l0.088,0l-0,0.526l-0.088,-0l-0,-0.526Z" style="fill:#00656c;fill-rule:nonzero;"/></g><g transform="matrix(9,0,0,9,107.052,744.862)"><path d="M0.067,-0.723l0.088,0l0,0.455l0.223,-0.258l0.109,0l-0.181,0.207l0.191,0.319l-0.102,-0l-0.144,-0.256l-0.096,0.091l0,0.165l-0.088,-0l0,-0.723Z" style="fill:#00656c;fill-rule:nonzero;"/></g><g transform="matrix(9,0,0,9,111.552,744.862)"><path d="M0.228,0.012c-0.053,0 -0.093,-0.014 -0.122,-0.042c-0.028,-0.029 -0.042,-0.074 -0.042,-0.137l0,-0.359l0.088,0l0,0.353c0,0.042 0.009,0.071 0.028,0.088c0.019,0.016 0.046,0.024 0.081,0.024c0.025,0 0.049,-0.006 0.07,-0.018c0.021,-0.013 0.038,-0.031 0.051,-0.054c0.013,-0.023 0.019,-0.051 0.019,-0.082l0,-0.311l0.088,0l0,0.526l-0.067,-0l-0.01,-0.071l-0.007,0c-0.039,0.055 -0.098,0.083 -0.177,0.083Zm0.049,-0.578c-0.029,-0 -0.053,-0.009 -0.07,-0.028c-0.017,-0.018 -0.026,-0.041 -0.026,-0.068c0,-0.027 0.009,-0.05 0.026,-0.069c0.017,-0.018 0.041,-0.027 0.07,-0.027c0.029,-0 0.053,0.009 0.07,0.027c0.017,0.019 0.026,0.042 0.026,0.069c0,0.027 -0.009,0.05 -0.026,0.068c-0.017,0.019 -0.041,0.028 -0.07,0.028Zm0,-0.045c0.015,-0 0.027,-0.005 0.037,-0.015c0.009,-0.01 0.014,-0.022 0.014,-0.036c0,-0.014 -0.005,-0.026 -0.014,-0.036c-0.01,-0.01 -0.022,-0.015 -0.037,-0.015c-0.015,0 -0.027,0.005 -0.036,0.015c-0.01,0.01 -0.015,0.022 -0.015,0.036c0,0.014 0.005,0.026 0.015,0.036c0.009,0.01 0.021,0.015 0.036,0.015Z" style="fill:#00656c;fill-rule:nonzero;"/></g><g transform="matrix(9,0,0,9,25.5118,756.852)"><path d="M0.21,0.012c-0.045,0 -0.086,-0.011 -0.121,-0.032c-0.035,-0.021 -0.053,-0.06 -0.053,-0.116c0,-0.067 0.03,-0.114 0.09,-0.139c0.06,-0.025 0.147,-0.037 0.26,-0.037l0,-0.058c-0,-0.031 -0.009,-0.054 -0.026,-0.071c-0.017,-0.016 -0.049,-0.024 -0.094,-0.024c-0.043,0 -0.073,0.008 -0.092,0.024c-0.018,0.016 -0.027,0.036 -0.027,0.059l-0,0.012l-0.085,0c-0.001,-0.004 -0.001,-0.011 -0.001,-0.022c-0,-0.047 0.019,-0.083 0.058,-0.108c0.039,-0.025 0.09,-0.038 0.155,-0.038c0.065,0 0.115,0.014 0.149,0.041c0.034,0.027 0.051,0.066 0.051,0.116l0,0.285c0,0.012 0.003,0.021 0.01,0.027c0.007,0.005 0.015,0.008 0.025,0.008l0.04,0l0,0.057c-0.017,0.008 -0.04,0.012 -0.068,0.012c-0.023,0 -0.042,-0.007 -0.057,-0.02c-0.015,-0.014 -0.026,-0.032 -0.031,-0.055l-0.007,0c-0.018,0.025 -0.043,0.044 -0.074,0.058c-0.03,0.014 -0.065,0.021 -0.102,0.021Zm0.023,-0.073c0.026,0 0.051,-0.005 0.074,-0.016c0.023,-0.011 0.042,-0.026 0.057,-0.047c0.015,-0.021 0.022,-0.047 0.022,-0.077l0,-0.038c-0.086,0 -0.151,0.007 -0.194,0.021c-0.043,0.013 -0.064,0.039 -0.064,0.077c0,0.029 0.009,0.049 0.026,0.062c0.018,0.012 0.044,0.018 0.079,0.018Z" style="fill:#00656c;fill-rule:nonzero;"/></g><g transform="matrix(9,0,0,9,33.0178,756.852)"><path d="M0.21,0.012c-0.045,0 -0.086,-0.011 -0.121,-0.032c-0.035,-0.021 -0.053,-0.06 -0.053,-0.116c0,-0.067 0.03,-0.114 0.09,-0.139c0.06,-0.025 0.147,-0.037 0.26,-0.037l0,-0.058c-0,-0.031 -0.009,-0.054 -0.026,-0.071c-0.017,-0.016 -0.049,-0.024 -0.094,-0.024c-0.043,0 -0.073,0.008 -0.092,0.024c-0.018,0.016 -0.027,0.036 -0.027,0.059l-0,0.012l-0.085,0c-0.001,-0.004 -0.001,-0.011 -0.001,-0.022c-0,-0.047 0.019,-0.083 0.058,-0.108c0.039,-0.025 0.09,-0.038 0.155,-0.038c0.065,0 0.115,0.014 0.149,0.041c0.034,0.027 0.051,0.066 0.051,0.116l0,0.285c0,0.012 0.003,0.021 0.01,0.027c0.007,0.005 0.015,0.008 0.025,0.008l0.04,0l0,0.057c-0.017,0.008 -0.04,0.012 -0.068,0.012c-0.023,0 -0.042,-0.007 -0.057,-0.02c-0.015,-0.014 -0.026,-0.032 -0.031,-0.055l-0.007,0c-0.018,0.025 -0.043,0.044 -0.074,0.058c-0.03,0.014 -0.065,0.021 -0.102,0.021Zm0.023,-0.073c0.026,0 0.051,-0.005 0.074,-0.016c0.023,-0.011 0.042,-0.026 0.057,-0.047c0.015,-0.021 0.022,-0.047 0.022,-0.077l0,-0.038c-0.086,0 -0.151,0.007 -0.194,0.021c-0.043,0.013 -0.064,0.039 -0.064,0.077c0,0.029 0.009,0.049 0.026,0.062c0.018,0.012 0.044,0.018 0.079,0.018Z" style="fill:#00656c;fill-rule:nonzero;"/></g><g transform="matrix(9,0,0,9,38.0218,756.852)"><path d="M0.067,-0.526l0.067,0l0.01,0.071l0.007,0c0.039,-0.055 0.098,-0.083 0.177,-0.083c0.053,0 0.093,0.014 0.122,0.043c0.028,0.028 0.042,0.073 0.042,0.136l0,0.359l-0.088,0l0,-0.353c0,-0.042 -0.009,-0.071 -0.028,-0.087c-0.019,-0.017 -0.046,-0.025 -0.081,-0.025c-0.025,0 -0.049,0.006 -0.07,0.019c-0.021,0.012 -0.038,0.03 -0.051,0.053c-0.013,0.023 -0.019,0.051 -0.019,0.082l0,0.311l-0.088,0l0,-0.526Z" style="fill:#00656c;fill-rule:nonzero;"/></g><g transform="matrix(9,0,0,9,43.0258,756.852)"><path d="M0.21,0.012c-0.045,0 -0.086,-0.011 -0.121,-0.032c-0.035,-0.021 -0.053,-0.06 -0.053,-0.116c0,-0.067 0.03,-0.114 0.09,-0.139c0.06,-0.025 0.147,-0.037 0.26,-0.037l0,-0.058c-0,-0.031 -0.009,-0.054 -0.026,-0.071c-0.017,-0.016 -0.049,-0.024 -0.094,-0.024c-0.043,0 -0.073,0.008 -0.092,0.024c-0.018,0.016 -0.027,0.036 -0.027,0.059l-0,0.012l-0.085,0c-0.001,-0.004 -0.001,-0.011 -0.001,-0.022c-0,-0.047 0.019,-0.083 0.058,-0.108c0.039,-0.025 0.09,-0.038 0.155,-0.038c0.065,0 0.115,0.014 0.149,0.041c0.034,0.027 0.051,0.066 0.051,0.116l0,0.285c0,0.012 0.003,0.021 0.01,0.027c0.007,0.005 0.015,0.008 0.025,0.008l0.04,0l0,0.057c-0.017,0.008 -0.04,0.012 -0.068,0.012c-0.023,0 -0.042,-0.007 -0.057,-0.02c-0.015,-0.014 -0.026,-0.032 -0.031,-0.055l-0.007,0c-0.018,0.025 -0.043,0.044 -0.074,0.058c-0.03,0.014 -0.065,0.021 -0.102,0.021Zm0.023,-0.073c0.026,0 0.051,-0.005 0.074,-0.016c0.023,-0.011 0.042,-0.026 0.057,-0.047c0.015,-0.021 0.022,-0.047 0.022,-0.077l0,-0.038c-0.086,0 -0.151,0.007 -0.194,0.021c-0.043,0.013 -0.064,0.039 -0.064,0.077c0,0.029 0.009,0.049 0.026,0.062c0.018,0.012 0.044,0.018 0.079,0.018Z" style="fill:#00656c;fill-rule:nonzero;"/></g><g transform="matrix(9,0,0,9,48.0298,756.852)"><rect x="0.067" y="-0.723" width="0.088" height="0.723" style="fill:#00656c;fill-rule:nonzero;"/></g><g transform="matrix(9,0,0,9,50.0278,756.852)"><path d="M0.117,0.182c-0.029,0 -0.053,-0.003 -0.07,-0.008l0,-0.057l0.035,0c0.068,0 0.113,-0.039 0.134,-0.117l-0.203,-0.526l0.093,0l0.098,0.263c0.009,0.025 0.02,0.055 0.033,0.093c0.012,0.037 0.02,0.061 0.024,0.072l0.005,0c0.003,-0.011 0.01,-0.033 0.019,-0.064c0.009,-0.031 0.019,-0.065 0.03,-0.101l0.084,-0.263l0.088,0l-0.173,0.499c-0.023,0.067 -0.05,0.118 -0.08,0.155c-0.029,0.036 -0.068,0.054 -0.117,0.054Zm0.181,-0.905l0.096,0l0.001,0.003l-0.108,0.129l-0.075,0l0.086,-0.132Z" style="fill:#00656c;fill-rule:nonzero;"/></g><g transform="matrix(9,0,0,9,54.5278,756.852)"><path d="M0.024,-0.047l0.305,-0.406l-0.284,0l0,-0.073l0.413,0l0,0.046l-0.306,0.407l0.323,0l0,0.073l-0.451,0l-0,-0.047Z" style="fill:#00656c;fill-rule:nonzero;"/></g><g transform="matrix(9,0,0,9,59.0278,756.852)"><path d="M0.117,0.182c-0.029,0 -0.053,-0.003 -0.07,-0.008l0,-0.057l0.035,0c0.068,0 0.113,-0.039 0.134,-0.117l-0.203,-0.526l0.093,0l0.098,0.263c0.009,0.025 0.02,0.055 0.033,0.093c0.012,0.037 0.02,0.061 0.024,0.072l0.005,0c0.003,-0.011 0.01,-0.033 0.019,-0.064c0.009,-0.031 0.019,-0.065 0.03,-0.101l0.084,-0.263l0.088,0l-0.173,0.499c-0.023,0.067 -0.05,0.118 -0.08,0.155c-0.029,0.036 -0.068,0.054 -0.117,0.054Z" style="fill:#00656c;fill-rule:nonzero;"/></g><g transform="matrix(9,0,0,9,66.0298,756.852)"><path d="M0.21,0.012c-0.045,0 -0.086,-0.011 -0.121,-0.032c-0.035,-0.021 -0.053,-0.06 -0.053,-0.116c0,-0.067 0.03,-0.114 0.09,-0.139c0.06,-0.025 0.147,-0.037 0.26,-0.037l0,-0.058c-0,-0.031 -0.009,-0.054 -0.026,-0.071c-0.017,-0.016 -0.049,-0.024 -0.094,-0.024c-0.043,0 -0.073,0.008 -0.092,0.024c-0.018,0.016 -0.027,0.036 -0.027,0.059l-0,0.012l-0.085,0c-0.001,-0.004 -0.001,-0.011 -0.001,-0.022c-0,-0.047 0.019,-0.083 0.058,-0.108c0.039,-0.025 0.09,-0.038 0.155,-0.038c0.065,0 0.115,0.014 0.149,0.041c0.034,0.027 0.051,0.066 0.051,0.116l0,0.285c0,0.012 0.003,0.021 0.01,0.027c0.007,0.005 0.015,0.008 0.025,0.008l0.04,0l0,0.057c-0.017,0.008 -0.04,0.012 -0.068,0.012c-0.023,0 -0.042,-0.007 -0.057,-0.02c-0.015,-0.014 -0.026,-0.032 -0.031,-0.055l-0.007,0c-0.018,0.025 -0.043,0.044 -0.074,0.058c-0.03,0.014 -0.065,0.021 -0.102,0.021Zm0.023,-0.073c0.026,0 0.051,-0.005 0.074,-0.016c0.023,-0.011 0.042,-0.026 0.057,-0.047c0.015,-0.021 0.022,-0.047 0.022,-0.077l0,-0.038c-0.086,0 -0.151,0.007 -0.194,0.021c-0.043,0.013 -0.064,0.039 -0.064,0.077c0,0.029 0.009,0.049 0.026,0.062c0.018,0.012 0.044,0.018 0.079,0.018Z" style="fill:#00656c;fill-rule:nonzero;"/></g><g transform="matrix(9,0,0,9,71.0338,756.852)"><path d="M0.067,-0.723l0.088,0l0,0.455l0.223,-0.258l0.109,0l-0.181,0.207l0.191,0.319l-0.102,-0l-0.144,-0.256l-0.096,0.091l0,0.165l-0.088,-0l0,-0.723Z" style="fill:#00656c;fill-rule:nonzero;"/></g><g transform="matrix(9,0,0,9,75.5338,756.852)"><path d="M0.186,0.011c-0.036,0 -0.062,-0.011 -0.079,-0.032c-0.017,-0.021 -0.025,-0.048 -0.025,-0.079l0,-0.353l-0.064,-0l0,-0.073l0.065,-0l0.019,-0.146l0.068,-0l0,0.146l0.089,-0l0,0.073l-0.089,-0l0,0.345c0,0.031 0.015,0.047 0.044,0.047l0.045,-0l0,0.058c-0.009,0.004 -0.02,0.007 -0.034,0.01c-0.014,0.003 -0.027,0.004 -0.039,0.004Z" style="fill:#00656c;fill-rule:nonzero;"/></g><g transform="matrix(9,0,0,9,78.0358,756.852)"><path d="M0.29,0.012c-0.085,0 -0.148,-0.022 -0.189,-0.067c-0.041,-0.045 -0.062,-0.114 -0.062,-0.208c0,-0.094 0.021,-0.163 0.062,-0.208c0.041,-0.045 0.104,-0.067 0.189,-0.067c0.076,0 0.133,0.02 0.171,0.061c0.037,0.04 0.056,0.105 0.056,0.194l0,0.044l-0.387,0c0.003,0.061 0.018,0.106 0.044,0.135c0.025,0.029 0.064,0.043 0.116,0.043c0.042,0 0.076,-0.01 0.102,-0.029c0.026,-0.019 0.039,-0.049 0.039,-0.089l0.086,0c0,0.061 -0.021,0.109 -0.064,0.142c-0.042,0.033 -0.096,0.049 -0.163,0.049Zm0.135,-0.324c-0,-0.102 -0.045,-0.153 -0.135,-0.153c-0.05,0 -0.088,0.012 -0.113,0.036c-0.025,0.024 -0.04,0.063 -0.045,0.117l0.293,0Zm-0.099,-0.411l0.096,0l0.001,0.003l-0.108,0.129l-0.075,0l0.086,-0.132Z" style="fill:#00656c;fill-rule:nonzero;"/></g><g transform="matrix(9,0,0,9,83.0398,756.852)"><path d="M0.067,-0.526l0.067,0l0.01,0.079l0.006,0c0.01,-0.026 0.025,-0.048 0.045,-0.065c0.02,-0.017 0.046,-0.026 0.079,-0.026c0.011,0 0.021,0.001 0.03,0.004c0.009,0.002 0.015,0.003 0.017,0.004l-0,0.085l-0.037,0c-0.037,0 -0.068,0.011 -0.093,0.032c-0.024,0.022 -0.036,0.056 -0.036,0.102l-0,0.311l-0.088,0l-0,-0.526Z" style="fill:#00656c;fill-rule:nonzero;"/></g><g transform="matrix(9,0,0,9,86.0368,756.852)"><path d="M0.228,0.012c-0.053,0 -0.093,-0.014 -0.122,-0.042c-0.028,-0.029 -0.042,-0.074 -0.042,-0.137l0,-0.359l0.088,0l0,0.353c0,0.042 0.009,0.071 0.028,0.088c0.019,0.016 0.046,0.024 0.081,0.024c0.025,0 0.049,-0.006 0.07,-0.018c0.021,-0.013 0.038,-0.031 0.051,-0.054c0.013,-0.023 0.019,-0.051 0.019,-0.082l0,-0.311l0.088,0l0,0.526l-0.067,-0l-0.01,-0.071l-0.007,0c-0.039,0.055 -0.098,0.083 -0.177,0.083Zm0.049,-0.578c-0.029,-0 -0.053,-0.009 -0.07,-0.028c-0.017,-0.018 -0.026,-0.041 -0.026,-0.068c0,-0.027 0.009,-0.05 0.026,-0.069c0.017,-0.018 0.041,-0.027 0.07,-0.027c0.029,-0 0.053,0.009 0.07,0.027c0.017,0.019 0.026,0.042 0.026,0.069c0,0.027 -0.009,0.05 -0.026,0.068c-0.017,0.019 -0.041,0.028 -0.07,0.028Zm0,-0.045c0.015,-0 0.027,-0.005 0.037,-0.015c0.009,-0.01 0.014,-0.022 0.014,-0.036c0,-0.014 -0.005,-0.026 -0.014,-0.036c-0.01,-0.01 -0.022,-0.015 -0.037,-0.015c-0.015,0 -0.027,0.005 -0.036,0.015c-0.01,0.01 -0.015,0.022 -0.015,0.036c0,0.014 0.005,0.026 0.015,0.036c0.009,0.01 0.021,0.015 0.036,0.015Z" style="fill:#00656c;fill-rule:nonzero;"/></g></g></g></g><path d="M292.622,31.907l85.905,-0" style="fill:none;fill-rule:nonzero;stroke:#00656c;stroke-width:4.17px;"/><path d="M401.284,31.907l-29.217,-10.634l0,21.267l29.217,-10.633Z" style="fill:#00656c;fill-rule:nonzero;"/><path d="M100.103,331.724l0,-202.15" style="fill:none;fill-rule:nonzero;stroke:#00656c;stroke-width:4.17px;"/><path d="M100.103,106.815l-10.633,29.217l21.267,-0l-10.634,-29.217Z" style="fill:#00656c;fill-rule:nonzero;"/><path d="M1842.23,153.786l-0,134.554" style="fill:none;fill-rule:nonzero;stroke:#00656c;stroke-width:4.17px;"/><path d="M1842.23,311.1l10.633,-29.217l-21.266,0l10.633,29.217Z" style="fill:#00656c;fill-rule:nonzero;"/><path d="M717.819,31.907l85.905,-0" style="fill:none;fill-rule:nonzero;stroke:#00656c;stroke-width:4.17px;"/><path d="M826.481,31.907l-29.217,-10.634l0,21.267l29.217,-10.633Z" style="fill:#00656c;fill-rule:nonzero;"/><path d="M1143.02,31.907l85.904,-0" style="fill:none;fill-rule:nonzero;stroke:#00656c;stroke-width:4.17px;"/><path d="M1251.68,31.907l-29.217,-10.634l0,21.267l29.217,-10.633Z" style="fill:#00656c;fill-rule:nonzero;"/><path d="M1487.9,31.907l166.217,-0" style="fill:none;fill-rule:nonzero;stroke:#00656c;stroke-width:4.17px;"/><path d="M1676.87,31.907l-29.216,-10.634l-0,21.267l29.216,-10.633Z" style="fill:#00656c;fill-rule:nonzero;"/><path d="M141.985,129.575l-0,102.179c-0,0 -0,50 50,50l1556.59,0c-0,0 50,0 50,-50l-0,-77.962" style="fill:none;fill-rule:nonzero;stroke:#00656c;stroke-width:4.17px;"/><path d="M141.985,106.817l-10.633,29.217l21.266,-0l-10.633,-29.217Z" style="fill:#00656c;fill-rule:nonzero;"/></svg>