<?xml version="1.0" encoding="UTF-8" standalone="no"?><!DOCTYPE svg PUBLIC "-//W3C//DTD SVG 1.1//EN" "http://www.w3.org/Graphics/SVG/1.1/DTD/svg11.dtd"><svg width="100%" height="100%" viewBox="0 0 988 315" version="1.1" xmlns="http://www.w3.org/2000/svg" xmlns:xlink="http://www.w3.org/1999/xlink" xml:space="preserve" xmlns:serif="http://www.serif.com/" style="fill-rule:evenodd;clip-rule:evenodd;"><rect x="8.59" y="8.59" width="970.242" height="297.808" style="fill:#fff;"/><g transform="matrix(4.16667,0,0,4.16667,-1145.07,-1845.96)"><g transform="matrix(17,0,0,17,374.049,469.111)"><path d="M0.286,-0l0.153,-0l0.281,-0.684l-0.128,0l-0.152,0.381c-0.025,0.066 -0.045,0.122 -0.07,0.201l-0.01,-0c-0.025,-0.079 -0.046,-0.135 -0.071,-0.201l-0.152,-0.381l-0.135,0l0.284,0.684Z" style="fill:#00656c;fill-rule:nonzero;"/></g><g transform="matrix(17,0,0,17,386.337,469.111)"><rect x="0.056" y="-0.684" width="0.126" height="0.684" style="fill:#00656c;fill-rule:nonzero;"/></g><g transform="matrix(17,0,0,17,390.381,469.111)"><path d="M0.006,-0l0.628,-0l-0,-0.082l-0.372,-0c-0.021,-0 -0.043,0 -0.062,0.002l-0.003,-0.007c0.023,-0.028 0.04,-0.052 0.056,-0.075l0.371,-0.518l-0.001,-0.004l-0.608,0l-0,0.082l0.343,-0c0.03,-0 0.05,-0.001 0.078,-0.002l0.003,0.008c-0.018,0.02 -0.028,0.035 -0.046,0.062l-0.388,0.53l0.001,0.004Z" style="fill:#00656c;fill-rule:nonzero;"/></g><g transform="matrix(17,0,0,17,401.232,469.111)"><path d="M0.182,-0.081l0,-0.244l0.428,0l-0,-0.075l-0.428,-0l0,-0.204l0.451,0l0,-0.08l-0.577,0l-0,0.684l0.588,-0l-0,-0.081l-0.462,0Z" style="fill:#00656c;fill-rule:nonzero;"/></g><g transform="matrix(11,0,0,11,309.322,482.941)"><path d="M0.363,0.012c0.191,0 0.298,-0.089 0.314,-0.262l-0.146,-0.027c-0.007,0.127 -0.062,0.187 -0.168,0.187c-0.119,-0 -0.177,-0.077 -0.177,-0.237l0,-0.029c0,-0.161 0.057,-0.237 0.176,-0.237c0.107,-0 0.16,0.059 0.165,0.186l0.143,-0.024c-0.012,-0.174 -0.116,-0.265 -0.308,-0.265c-0.214,0 -0.324,0.121 -0.324,0.353l-0,0.002c-0,0.233 0.11,0.353 0.325,0.353Z" style="fill:#00656c;fill-rule:nonzero;"/></g><g transform="matrix(11,0,0,11,317.169,482.941)"><path d="M0.049,-0l0.142,-0l-0,-0.238c-0,-0.116 0.054,-0.186 0.144,-0.186c0.067,-0 0.1,0.034 0.1,0.1l0,0.324l0.142,0l0,-0.358c0,-0.107 -0.063,-0.164 -0.18,-0.164c-0.107,0 -0.18,0.047 -0.222,0.144l-0.01,-0.004c0.019,-0.055 0.025,-0.095 0.026,-0.143l-0,-0.159l-0.142,0l-0,0.684Z" style="fill:#00656c;fill-rule:nonzero;"/></g><g transform="matrix(11,0,0,11,324.029,482.941)"><path d="M0.316,0.012c0.167,0 0.261,-0.067 0.275,-0.198l-0.143,-0.016c-0.006,0.082 -0.051,0.124 -0.132,0.124c-0.09,-0 -0.137,-0.057 -0.137,-0.169l0,-0.024c0,-0.109 0.048,-0.164 0.136,-0.164c0.081,-0 0.124,0.045 0.13,0.136l0.142,-0.016c-0.011,-0.138 -0.102,-0.21 -0.272,-0.21c-0.184,0 -0.281,0.09 -0.281,0.263l-0,0.007c-0,0.175 0.096,0.267 0.282,0.267Z" style="fill:#00656c;fill-rule:nonzero;"/></g><g transform="matrix(11,0,0,11,330.888,482.941)"><path d="M0.453,-0.177c-0.013,0.071 -0.059,0.101 -0.133,0.101c-0.086,0 -0.139,-0.046 -0.142,-0.143l0.41,0c0.003,-0.024 0.004,-0.043 0.004,-0.064c0,-0.154 -0.098,-0.241 -0.273,-0.241c-0.183,-0 -0.285,0.091 -0.285,0.253l-0,0.029c-0,0.166 0.102,0.254 0.283,0.254c0.16,-0 0.255,-0.059 0.277,-0.175l-0.141,-0.014Zm-0.133,-0.26c0.083,0 0.129,0.044 0.129,0.123l-0,0.007l-0.27,0c0.008,-0.085 0.057,-0.13 0.141,-0.13Z" style="fill:#00656c;fill-rule:nonzero;"/></g><g transform="matrix(11,0,0,11,337.801,482.941)"><path d="M0.049,-0l0.142,-0l-0,-0.234c-0,-0.114 0.047,-0.184 0.126,-0.184c0.057,-0 0.087,0.03 0.087,0.087l0,0.331l0.142,-0l0,-0.241c0,-0.107 0.045,-0.177 0.125,-0.177c0.058,-0 0.088,0.03 0.088,0.086l0,0.332l0.142,-0l0,-0.364c0,-0.103 -0.055,-0.155 -0.162,-0.155c-0.099,0 -0.166,0.046 -0.21,0.147l-0.009,-0.002c0.011,-0.093 -0.04,-0.145 -0.141,-0.145c-0.094,0 -0.156,0.043 -0.204,0.144l-0.01,-0.004c0.021,-0.064 0.027,-0.097 0.026,-0.13l-0.142,-0l-0,0.509Z" style="fill:#00656c;fill-rule:nonzero;"/></g><g transform="matrix(11,0,0,11,348.226,482.941)"><path d="M0.453,-0.177c-0.013,0.071 -0.059,0.101 -0.133,0.101c-0.086,0 -0.139,-0.046 -0.142,-0.143l0.41,0c0.003,-0.024 0.004,-0.043 0.004,-0.064c0,-0.154 -0.098,-0.241 -0.273,-0.241c-0.183,-0 -0.285,0.091 -0.285,0.253l-0,0.029c-0,0.166 0.102,0.254 0.283,0.254c0.16,-0 0.255,-0.059 0.277,-0.175l-0.141,-0.014Zm-0.133,-0.26c0.083,0 0.129,0.044 0.129,0.123l-0,0.007l-0.27,0c0.008,-0.085 0.057,-0.13 0.141,-0.13Z" style="fill:#00656c;fill-rule:nonzero;"/></g><g transform="matrix(11,0,0,11,354.973,482.941)"><path d="M0.041,-0.137l0,0.137l0.074,-0c-0,0.06 -0.025,0.083 -0.084,0.092l0.011,0.054c0.101,-0.01 0.155,-0.058 0.155,-0.169l0,-0.114l-0.156,0Z" style="fill:#00656c;fill-rule:nonzero;"/></g><g transform="matrix(11,0,0,11,359.874,482.941)"><path d="M0.188,0.013c0.115,-0 0.198,-0.052 0.229,-0.138l0.01,0.002c-0.019,0.095 0.001,0.136 0.113,0.136c0.014,-0 0.028,-0.002 0.04,-0.004l0.017,-0.084l-0.025,-0.001c-0.027,-0 -0.034,-0.007 -0.034,-0.041l-0,-0.235c-0,-0.116 -0.078,-0.172 -0.242,-0.172c-0.175,0 -0.263,0.069 -0.256,0.188l0.14,0.012c-0.006,-0.079 0.034,-0.114 0.113,-0.114c0.07,-0 0.103,0.025 0.103,0.084l0,0.029l-0.138,0.026c-0.139,0.026 -0.231,0.07 -0.231,0.177l0,0.001c0,0.085 0.058,0.134 0.161,0.134Zm0.057,-0.095c-0.048,-0 -0.074,-0.017 -0.074,-0.052l-0,-0.001c-0,-0.051 0.045,-0.071 0.135,-0.089l0.09,-0.017l0,0.024c0,0.078 -0.07,0.135 -0.151,0.135Z" style="fill:#00656c;fill-rule:nonzero;"/></g><g transform="matrix(11,0,0,11,366.556,482.941)"><path d="M0.386,0.009c0.146,0 0.223,-0.089 0.223,-0.259l0,-0.013c0,-0.171 -0.077,-0.26 -0.223,-0.26c-0.106,0 -0.176,0.051 -0.21,0.139l-0.01,-0.004c0.018,-0.059 0.025,-0.103 0.025,-0.156l-0,-0.14l-0.142,0l-0,0.684l0.143,-0c-0,-0.028 -0.009,-0.071 -0.025,-0.125l0.01,-0.003c0.034,0.088 0.103,0.137 0.209,0.137Zm-0.054,-0.088c-0.091,0 -0.141,-0.059 -0.141,-0.169l-0,-0.018c-0,-0.11 0.05,-0.17 0.141,-0.17c0.088,-0 0.134,0.057 0.134,0.168l0,0.022c0,0.111 -0.046,0.167 -0.134,0.167Z" style="fill:#00656c;fill-rule:nonzero;"/></g><g transform="matrix(11,0,0,11,373.447,482.941)"><path d="M0.041,0.183c0.215,-0.013 0.284,-0.057 0.357,-0.242l0.171,-0.454l-0.141,0l-0.095,0.282c-0.014,0.039 -0.024,0.078 -0.034,0.124l-0.01,-0c-0.009,-0.046 -0.02,-0.085 -0.035,-0.124l-0.104,-0.282l-0.146,0l0.215,0.518l-0.007,0.021c-0.008,0.02 -0.026,0.031 -0.097,0.036l-0.09,0.007l0.016,0.114Z" style="fill:#00656c;fill-rule:nonzero;"/></g><g transform="matrix(11,0,0,11,381.877,482.941)"><path d="M0.049,-0l0.142,-0l-0,-0.234c-0,-0.114 0.047,-0.184 0.126,-0.184c0.057,-0 0.087,0.03 0.087,0.087l0,0.331l0.142,-0l0,-0.241c0,-0.107 0.045,-0.177 0.125,-0.177c0.058,-0 0.088,0.03 0.088,0.086l0,0.332l0.142,-0l0,-0.364c0,-0.103 -0.055,-0.155 -0.162,-0.155c-0.099,0 -0.166,0.046 -0.21,0.147l-0.009,-0.002c0.011,-0.093 -0.04,-0.145 -0.141,-0.145c-0.094,0 -0.156,0.043 -0.204,0.144l-0.01,-0.004c0.021,-0.064 0.027,-0.097 0.026,-0.13l-0.142,-0l-0,0.509Z" style="fill:#00656c;fill-rule:nonzero;"/></g><g transform="matrix(11,0,0,11,392.303,482.941)"><rect x="0.049" y="-0.684" width="0.142" height="0.684" style="fill:#00656c;fill-rule:nonzero;"/></g><g transform="matrix(11,0,0,11,394.94,482.941)"><path d="M0.188,0.013c0.115,-0 0.198,-0.052 0.229,-0.138l0.01,0.002c-0.019,0.095 0.001,0.136 0.113,0.136c0.014,-0 0.028,-0.002 0.04,-0.004l0.017,-0.084l-0.025,-0.001c-0.027,-0 -0.034,-0.007 -0.034,-0.041l-0,-0.235c-0,-0.116 -0.078,-0.172 -0.242,-0.172c-0.175,0 -0.263,0.069 -0.256,0.188l0.14,0.012c-0.006,-0.079 0.034,-0.114 0.113,-0.114c0.07,-0 0.103,0.025 0.103,0.084l0,0.029l-0.138,0.026c-0.139,0.026 -0.231,0.07 -0.231,0.177l0,0.001c0,0.085 0.058,0.134 0.161,0.134Zm0.057,-0.095c-0.048,-0 -0.074,-0.017 -0.074,-0.052l-0,-0.001c-0,-0.051 0.045,-0.071 0.135,-0.089l0.09,-0.017l0,0.024c0,0.078 -0.07,0.135 -0.151,0.135Z" style="fill:#00656c;fill-rule:nonzero;"/></g><g transform="matrix(11,0,0,11,401.52,482.941)"><path d="M0.257,0.009c0.106,0 0.175,-0.049 0.209,-0.137l0.011,0.003c-0.017,0.054 -0.026,0.097 -0.026,0.125l0.143,-0l0,-0.684l-0.142,0l0,0.14c0,0.053 0.007,0.097 0.025,0.156l-0.01,0.004c-0.034,-0.088 -0.104,-0.139 -0.21,-0.139c-0.146,0 -0.223,0.089 -0.223,0.26l-0,0.013c-0,0.17 0.077,0.259 0.223,0.259Zm0.054,-0.088c-0.088,0 -0.134,-0.056 -0.134,-0.167l0,-0.022c0,-0.111 0.046,-0.168 0.134,-0.168c0.092,-0 0.141,0.06 0.141,0.17l0,0.018c0,0.11 -0.049,0.169 -0.141,0.169Z" style="fill:#00656c;fill-rule:nonzero;"/></g><g transform="matrix(11,0,0,11,408.594,482.941)"><path d="M0.102,-0.684l-0.036,0.125l0.108,0l0.058,-0.125l-0.13,0Zm-0.053,0.684l0.142,-0l-0,-0.513l-0.142,0l-0,0.513Z" style="fill:#00656c;fill-rule:nonzero;"/></g><g transform="matrix(11,0,0,11,413.511,482.941)"><rect x="0.049" y="-0.684" width="0.142" height="0.684" style="fill:#00656c;fill-rule:nonzero;"/></g><g transform="matrix(11,0,0,11,416.149,482.941)"><path d="M0.045,-0.573l0.153,-0l-0,-0.103l-0.153,0l-0,0.103Zm0.005,0.573l0.142,-0l0,-0.513l-0.142,0l0,0.513Z" style="fill:#00656c;fill-rule:nonzero;"/></g><g transform="matrix(11,0,0,11,418.819,482.941)"><path d="M0.257,0.009c0.106,0 0.175,-0.049 0.209,-0.137l0.011,0.003c-0.017,0.054 -0.026,0.097 -0.026,0.125l0.143,-0l0,-0.684l-0.142,0l0,0.14c0,0.053 0.007,0.097 0.025,0.156l-0.01,0.004c-0.034,-0.088 -0.104,-0.139 -0.21,-0.139c-0.146,0 -0.223,0.089 -0.223,0.26l-0,0.013c-0,0.17 0.077,0.259 0.223,0.259Zm0.054,-0.088c-0.088,0 -0.134,-0.056 -0.134,-0.167l0,-0.022c0,-0.111 0.046,-0.168 0.134,-0.168c0.092,-0 0.141,0.06 0.141,0.17l0,0.018c0,0.11 -0.049,0.169 -0.141,0.169Z" style="fill:#00656c;fill-rule:nonzero;"/></g><g transform="matrix(11,0,0,11,425.893,482.941)"><path d="M0.478,-0.684l-0.136,0l-0.081,0.125l0.103,0l0.114,-0.125Zm-0.025,0.507c-0.013,0.071 -0.059,0.101 -0.133,0.101c-0.086,0 -0.139,-0.046 -0.142,-0.143l0.41,0c0.003,-0.024 0.004,-0.043 0.004,-0.064c0,-0.154 -0.098,-0.241 -0.273,-0.241c-0.183,-0 -0.285,0.091 -0.285,0.253l-0,0.029c-0,0.166 0.102,0.254 0.283,0.254c0.16,-0 0.255,-0.059 0.277,-0.175l-0.141,-0.014Zm-0.133,-0.26c0.083,0 0.129,0.044 0.129,0.123l-0,0.007l-0.27,0c0.008,-0.085 0.057,-0.13 0.141,-0.13Z" style="fill:#00656c;fill-rule:nonzero;"/></g><g transform="matrix(11,0,0,11,434.924,482.941)"><path d="M0.203,-0l0.17,-0l0.197,-0.513l-0.142,0l-0.086,0.237c-0.017,0.049 -0.032,0.098 -0.047,0.155l-0.009,0c-0.015,-0.057 -0.03,-0.106 -0.048,-0.155l-0.087,-0.237l-0.147,0l0.199,0.513Z" style="fill:#00656c;fill-rule:nonzero;"/></g><g transform="matrix(11,0,0,11,443.359,482.941)"><path d="M0.187,-0.825l0.108,0.096l0.132,-0l0.108,-0.096l-0.11,0l-0.063,0.043l-0.063,-0.043l-0.112,0Zm0.176,0.837c0.191,0 0.298,-0.089 0.314,-0.262l-0.146,-0.027c-0.007,0.127 -0.062,0.187 -0.168,0.187c-0.119,-0 -0.177,-0.077 -0.177,-0.237l0,-0.029c0,-0.161 0.057,-0.237 0.176,-0.237c0.107,-0 0.16,0.059 0.165,0.186l0.143,-0.024c-0.012,-0.174 -0.116,-0.265 -0.308,-0.265c-0.214,0 -0.324,0.121 -0.324,0.353l-0,0.002c-0,0.233 0.11,0.353 0.325,0.353Z" style="fill:#00656c;fill-rule:nonzero;"/></g><g transform="matrix(11,0,0,11,451.207,482.941)"><path d="M0.453,-0.177c-0.013,0.071 -0.059,0.101 -0.133,0.101c-0.086,0 -0.139,-0.046 -0.142,-0.143l0.41,0c0.003,-0.024 0.004,-0.043 0.004,-0.064c0,-0.154 -0.098,-0.241 -0.273,-0.241c-0.183,-0 -0.285,0.091 -0.285,0.253l-0,0.029c-0,0.166 0.102,0.254 0.283,0.254c0.16,-0 0.255,-0.059 0.277,-0.175l-0.141,-0.014Zm-0.133,-0.26c0.083,0 0.129,0.044 0.129,0.123l-0,0.007l-0.27,0c0.008,-0.085 0.057,-0.13 0.141,-0.13Z" style="fill:#00656c;fill-rule:nonzero;"/></g><g transform="matrix(11,0,0,11,458.109,482.941)"><path d="M0.295,0.01c0.17,0 0.254,-0.055 0.254,-0.154c-0,-0.105 -0.095,-0.136 -0.176,-0.154l-0.08,-0.019c-0.081,-0.019 -0.119,-0.036 -0.119,-0.071c0,-0.035 0.037,-0.051 0.106,-0.051c0.08,-0 0.122,0.023 0.12,0.091l0.134,-0.015c-0.001,-0.106 -0.085,-0.161 -0.254,-0.161c-0.161,0 -0.241,0.056 -0.241,0.153c-0,0.088 0.083,0.123 0.163,0.143l0.081,0.02c0.08,0.02 0.125,0.036 0.125,0.078c-0,0.038 -0.04,0.056 -0.114,0.056c-0.086,-0 -0.133,-0.033 -0.132,-0.106l-0.137,0.016c0.003,0.118 0.091,0.174 0.27,0.174Z" style="fill:#00656c;fill-rule:nonzero;"/></g><g transform="matrix(11,0,0,11,464.437,482.941)"><path d="M0.049,-0l0.142,-0l-0,-0.177l0.069,-0.069l0.13,0.246l0.148,-0l-0.178,-0.324l0.18,-0.189l-0.155,0l-0.202,0.213l-0.008,-0.003c0.012,-0.059 0.016,-0.099 0.016,-0.164l-0,-0.217l-0.142,0l-0,0.684Z" style="fill:#00656c;fill-rule:nonzero;"/></g><g transform="matrix(11,0,0,11,470.452,482.941)"><path d="M0.575,-0.513l-0.142,0l-0,0.239c-0,0.115 -0.055,0.186 -0.144,0.186c-0.067,0 -0.101,-0.035 -0.101,-0.101l0,-0.324l-0.142,0l0,0.358c0,0.108 0.063,0.164 0.181,0.164c0.106,0 0.179,-0.047 0.222,-0.144l0.01,0.004c-0.02,0.058 -0.027,0.093 -0.027,0.131l0.143,0l-0,-0.513Z" style="fill:#00656c;fill-rule:nonzero;"/></g><g transform="matrix(11,0,0,11,312.649,493.941)"><path d="M0.386,0.009c0.146,0 0.223,-0.089 0.223,-0.259l0,-0.013c0,-0.171 -0.077,-0.26 -0.223,-0.26c-0.106,0 -0.176,0.051 -0.21,0.139l-0.01,-0.004c0.018,-0.059 0.025,-0.103 0.025,-0.156l-0,-0.14l-0.142,0l-0,0.684l0.143,-0c-0,-0.028 -0.009,-0.071 -0.025,-0.125l0.01,-0.003c0.034,0.088 0.103,0.137 0.209,0.137Zm-0.054,-0.088c-0.091,0 -0.141,-0.059 -0.141,-0.169l-0,-0.018c-0,-0.11 0.05,-0.17 0.141,-0.17c0.088,-0 0.134,0.057 0.134,0.168l0,0.022c0,0.111 -0.046,0.167 -0.134,0.167Z" style="fill:#00656c;fill-rule:nonzero;"/></g><g transform="matrix(11,0,0,11,319.541,493.941)"><path d="M0.041,0.183c0.215,-0.013 0.284,-0.057 0.357,-0.242l0.171,-0.454l-0.141,0l-0.095,0.282c-0.014,0.039 -0.024,0.078 -0.034,0.124l-0.01,-0c-0.009,-0.046 -0.02,-0.085 -0.035,-0.124l-0.104,-0.282l-0.146,0l0.215,0.518l-0.007,0.021c-0.008,0.02 -0.026,0.031 -0.097,0.036l-0.09,0.007l0.016,0.114Z" style="fill:#00656c;fill-rule:nonzero;"/></g><g transform="matrix(11,0,0,11,325.852,493.941)"><rect x="0.049" y="-0.684" width="0.142" height="0.684" style="fill:#00656c;fill-rule:nonzero;"/></g><g transform="matrix(11,0,0,11,328.49,493.941)"><path d="M0.045,-0.573l0.153,-0l-0,-0.103l-0.153,0l-0,0.103Zm0.005,0.573l0.142,-0l0,-0.513l-0.142,0l0,0.513Z" style="fill:#00656c;fill-rule:nonzero;"/></g><g transform="matrix(11,0,0,11,333.441,493.941)"><path d="M0.049,-0l0.142,-0l-0,-0.238c-0,-0.116 0.054,-0.186 0.144,-0.186c0.067,-0 0.1,0.034 0.1,0.1l0,0.324l0.142,0l0,-0.358c0,-0.107 -0.063,-0.164 -0.18,-0.164c-0.107,0 -0.18,0.047 -0.222,0.144l-0.01,-0.004c0.019,-0.055 0.025,-0.095 0.026,-0.143l-0,-0.159l-0.142,0l-0,0.684Z" style="fill:#00656c;fill-rule:nonzero;"/></g><g transform="matrix(11,0,0,11,340.3,493.941)"><rect x="0.049" y="-0.684" width="0.142" height="0.684" style="fill:#00656c;fill-rule:nonzero;"/></g><g transform="matrix(11,0,0,11,342.938,493.941)"><path d="M0.188,0.013c0.115,-0 0.198,-0.052 0.229,-0.138l0.01,0.002c-0.019,0.095 0.001,0.136 0.113,0.136c0.014,-0 0.028,-0.002 0.04,-0.004l0.017,-0.084l-0.025,-0.001c-0.027,-0 -0.034,-0.007 -0.034,-0.041l-0,-0.235c-0,-0.116 -0.078,-0.172 -0.242,-0.172c-0.175,0 -0.263,0.069 -0.256,0.188l0.14,0.012c-0.006,-0.079 0.034,-0.114 0.113,-0.114c0.07,-0 0.103,0.025 0.103,0.084l0,0.029l-0.138,0.026c-0.139,0.026 -0.231,0.07 -0.231,0.177l0,0.001c0,0.085 0.058,0.134 0.161,0.134Zm0.057,-0.095c-0.048,-0 -0.074,-0.017 -0.074,-0.052l-0,-0.001c-0,-0.051 0.045,-0.071 0.135,-0.089l0.09,-0.017l0,0.024c0,0.078 -0.07,0.135 -0.151,0.135Z" style="fill:#00656c;fill-rule:nonzero;"/></g><g transform="matrix(11,0,0,11,349.228,493.941)"><path d="M0.203,-0l0.17,-0l0.197,-0.513l-0.142,0l-0.086,0.237c-0.017,0.049 -0.032,0.098 -0.047,0.155l-0.009,0c-0.015,-0.057 -0.03,-0.106 -0.048,-0.155l-0.087,-0.237l-0.147,0l0.199,0.513Z" style="fill:#00656c;fill-rule:nonzero;"/></g><g transform="matrix(11,0,0,11,355.544,493.941)"><path d="M0.049,-0l0.142,-0l-0,-0.238c-0,-0.116 0.054,-0.187 0.144,-0.187c0.067,0 0.1,0.035 0.1,0.101l0,0.324l0.142,0l0,-0.358c0,-0.107 -0.063,-0.164 -0.18,-0.164c-0.106,0 -0.179,0.047 -0.222,0.145l-0.01,-0.005c0.02,-0.058 0.026,-0.093 0.026,-0.131l-0.142,0l-0,0.513Z" style="fill:#00656c;fill-rule:nonzero;"/></g><g transform="matrix(11,0,0,11,362.404,493.941)"><path d="M0.102,-0.684l-0.036,0.125l0.108,0l0.058,-0.125l-0.13,0Zm-0.053,0.684l0.142,-0l-0,-0.513l-0.142,0l-0,0.513Z" style="fill:#00656c;fill-rule:nonzero;"/></g><g transform="matrix(11,0,0,11,367.242,493.941)"><path d="M0.295,0.01c0.17,0 0.254,-0.055 0.254,-0.154c-0,-0.105 -0.095,-0.136 -0.176,-0.154l-0.08,-0.019c-0.081,-0.019 -0.119,-0.036 -0.119,-0.071c0,-0.035 0.037,-0.051 0.106,-0.051c0.08,-0 0.122,0.023 0.12,0.091l0.134,-0.015c-0.001,-0.106 -0.085,-0.161 -0.254,-0.161c-0.161,0 -0.241,0.056 -0.241,0.153c-0,0.088 0.083,0.123 0.163,0.143l0.081,0.02c0.08,0.02 0.125,0.036 0.125,0.078c-0,0.038 -0.04,0.056 -0.114,0.056c-0.086,-0 -0.133,-0.033 -0.132,-0.106l-0.137,0.016c0.003,0.118 0.091,0.174 0.27,0.174Z" style="fill:#00656c;fill-rule:nonzero;"/></g><g transform="matrix(11,0,0,11,373.57,493.941)"><path d="M0.045,-0.573l0.153,-0l-0,-0.103l-0.153,0l-0,0.103Zm0.005,0.573l0.142,-0l0,-0.513l-0.142,0l0,0.513Z" style="fill:#00656c;fill-rule:nonzero;"/></g><g transform="matrix(11,0,0,11,376.239,493.941)"><rect x="0.049" y="-0.684" width="0.142" height="0.684" style="fill:#00656c;fill-rule:nonzero;"/></g><g transform="matrix(11,0,0,11,378.877,493.941)"><path d="M0.316,0.012c0.184,0 0.283,-0.093 0.283,-0.265l-0,-0.006c-0,-0.172 -0.099,-0.266 -0.283,-0.266c-0.184,0 -0.282,0.094 -0.282,0.266l-0,0.006c-0,0.172 0.098,0.265 0.282,0.265Zm0,-0.09c-0.09,0 -0.137,-0.056 -0.137,-0.167l0,-0.023c0,-0.111 0.047,-0.167 0.137,-0.167c0.09,-0 0.137,0.056 0.137,0.167l0,0.023c0,0.111 -0.047,0.167 -0.137,0.167Z" style="fill:#00656c;fill-rule:nonzero;"/></g><g transform="matrix(11,0,0,11,385.833,493.941)"><path d="M0.575,-0.513l-0.142,0l-0,0.239c-0,0.115 -0.055,0.186 -0.144,0.186c-0.067,0 -0.101,-0.035 -0.101,-0.101l0,-0.324l-0.142,0l0,0.358c0,0.108 0.063,0.164 0.181,0.164c0.106,0 0.179,-0.047 0.222,-0.144l0.01,0.004c-0.02,0.058 -0.027,0.093 -0.027,0.131l0.143,0l-0,-0.513Z" style="fill:#00656c;fill-rule:nonzero;"/></g><g transform="matrix(11,0,0,11,394.866,493.941)"><path d="M0.263,0.011c0.053,0 0.104,-0.01 0.139,-0.027l0.008,-0.093c-0.032,0.013 -0.064,0.02 -0.094,0.02c-0.051,0 -0.076,-0.022 -0.076,-0.076l0,-0.255l0.17,-0l0,-0.093l-0.17,0l0,-0.15l-0.142,0.037l0,0.113l-0.082,0l0,0.093l0.082,-0l0,0.278c0,0.104 0.055,0.153 0.165,0.153Z" style="fill:#00656c;fill-rule:nonzero;"/></g><g transform="matrix(11,0,0,11,399.577,493.941)"><rect x="0.049" y="-0.684" width="0.142" height="0.684" style="fill:#00656c;fill-rule:nonzero;"/></g><g transform="matrix(11,0,0,11,402.214,493.941)"><path d="M0.188,0.013c0.115,-0 0.198,-0.052 0.229,-0.138l0.01,0.002c-0.019,0.095 0.001,0.136 0.113,0.136c0.014,-0 0.028,-0.002 0.04,-0.004l0.017,-0.084l-0.025,-0.001c-0.027,-0 -0.034,-0.007 -0.034,-0.041l-0,-0.235c-0,-0.116 -0.078,-0.172 -0.242,-0.172c-0.175,0 -0.263,0.069 -0.256,0.188l0.14,0.012c-0.006,-0.079 0.034,-0.114 0.113,-0.114c0.07,-0 0.103,0.025 0.103,0.084l0,0.029l-0.138,0.026c-0.139,0.026 -0.231,0.07 -0.231,0.177l0,0.001c0,0.085 0.058,0.134 0.161,0.134Zm0.057,-0.095c-0.048,-0 -0.074,-0.017 -0.074,-0.052l-0,-0.001c-0,-0.051 0.045,-0.071 0.135,-0.089l0.09,-0.017l0,0.024c0,0.078 -0.07,0.135 -0.151,0.135Z" style="fill:#00656c;fill-rule:nonzero;"/></g><g transform="matrix(11,0,0,11,408.896,493.941)"><path d="M0.049,-0l0.142,-0l-0,-0.177l0.069,-0.069l0.13,0.246l0.148,-0l-0.178,-0.324l0.18,-0.189l-0.155,0l-0.202,0.213l-0.008,-0.003c0.012,-0.059 0.016,-0.099 0.016,-0.164l-0,-0.217l-0.142,0l-0,0.684Z" style="fill:#00656c;fill-rule:nonzero;"/></g><g transform="matrix(11,0,0,11,414.912,493.941)"><path d="M0.575,-0.513l-0.142,0l-0,0.239c-0,0.115 -0.055,0.186 -0.144,0.186c-0.067,0 -0.101,-0.035 -0.101,-0.101l0,-0.324l-0.142,0l0,0.358c0,0.108 0.063,0.164 0.181,0.164c0.106,0 0.179,-0.047 0.222,-0.144l0.01,0.004c-0.02,0.058 -0.027,0.093 -0.027,0.131l0.143,0l-0,-0.513Z" style="fill:#00656c;fill-rule:nonzero;"/></g><g transform="matrix(11,0,0,11,424.053,493.941)"><path d="M0.049,-0l0.142,-0l-0,-0.238c-0,-0.116 0.054,-0.187 0.144,-0.187c0.067,0 0.1,0.035 0.1,0.101l0,0.324l0.142,0l0,-0.358c0,-0.107 -0.063,-0.164 -0.18,-0.164c-0.106,0 -0.179,0.047 -0.222,0.145l-0.01,-0.005c0.02,-0.058 0.026,-0.093 0.026,-0.131l-0.142,0l-0,0.513Z" style="fill:#00656c;fill-rule:nonzero;"/></g><g transform="matrix(11,0,0,11,430.912,493.941)"><path d="M0.188,0.013c0.115,-0 0.198,-0.052 0.229,-0.138l0.01,0.002c-0.019,0.095 0.001,0.136 0.113,0.136c0.014,-0 0.028,-0.002 0.04,-0.004l0.017,-0.084l-0.025,-0.001c-0.027,-0 -0.034,-0.007 -0.034,-0.041l-0,-0.235c-0,-0.116 -0.078,-0.172 -0.242,-0.172c-0.175,0 -0.263,0.069 -0.256,0.188l0.14,0.012c-0.006,-0.079 0.034,-0.114 0.113,-0.114c0.07,-0 0.103,0.025 0.103,0.084l0,0.029l-0.138,0.026c-0.139,0.026 -0.231,0.07 -0.231,0.177l0,0.001c0,0.085 0.058,0.134 0.161,0.134Zm0.057,-0.095c-0.048,-0 -0.074,-0.017 -0.074,-0.052l-0,-0.001c-0,-0.051 0.045,-0.071 0.135,-0.089l0.09,-0.017l0,0.024c0,0.078 -0.07,0.135 -0.151,0.135Z" style="fill:#00656c;fill-rule:nonzero;"/></g><g transform="matrix(11,0,0,11,439.875,493.941)"><path d="M0.051,-0.684l0.109,0.125l0.127,0l0.109,-0.125l-0.103,0l-0.069,0.062l-0.07,-0.062l-0.103,0Zm-0.002,0.684l0.142,0l-0,-0.214c-0,-0.134 0.041,-0.183 0.15,-0.191l0.07,-0.006l-0.017,-0.118c-0.115,0.009 -0.168,0.045 -0.221,0.152l-0.009,-0.005c0.023,-0.068 0.028,-0.096 0.027,-0.131l-0.142,0l-0,0.513Z" style="fill:#00656c;fill-rule:nonzero;"/></g><g transform="matrix(11,0,0,11,444.355,493.941)"><path d="M0.453,-0.177c-0.013,0.071 -0.059,0.101 -0.133,0.101c-0.086,0 -0.139,-0.046 -0.142,-0.143l0.41,0c0.003,-0.024 0.004,-0.043 0.004,-0.064c0,-0.154 -0.098,-0.241 -0.273,-0.241c-0.183,-0 -0.285,0.091 -0.285,0.253l-0,0.029c-0,0.166 0.102,0.254 0.283,0.254c0.16,-0 0.255,-0.059 0.277,-0.175l-0.141,-0.014Zm-0.133,-0.26c0.083,0 0.129,0.044 0.129,0.123l-0,0.007l-0.27,0c0.008,-0.085 0.057,-0.13 0.141,-0.13Z" style="fill:#00656c;fill-rule:nonzero;"/></g><g transform="matrix(11,0,0,11,451.258,493.941)"><path d="M0.115,-0.684l0.109,0.125l0.127,0l0.109,-0.125l-0.103,0l-0.069,0.062l-0.07,-0.062l-0.103,0Zm0.18,0.694c0.17,0 0.254,-0.055 0.254,-0.154c-0,-0.105 -0.095,-0.136 -0.176,-0.154l-0.08,-0.019c-0.081,-0.019 -0.119,-0.036 -0.119,-0.071c0,-0.035 0.037,-0.051 0.106,-0.051c0.08,-0 0.122,0.023 0.12,0.091l0.134,-0.015c-0.001,-0.106 -0.085,-0.161 -0.254,-0.161c-0.161,0 -0.241,0.056 -0.241,0.153c-0,0.088 0.083,0.123 0.163,0.143l0.081,0.02c0.08,0.021 0.125,0.036 0.125,0.078c-0,0.038 -0.04,0.056 -0.114,0.056c-0.086,-0 -0.133,-0.033 -0.132,-0.106l-0.137,0.016c0.003,0.118 0.091,0.174 0.27,0.174Z" style="fill:#00656c;fill-rule:nonzero;"/></g><g transform="matrix(11,0,0,11,457.585,493.941)"><path d="M0.453,-0.177c-0.013,0.071 -0.059,0.101 -0.133,0.101c-0.086,0 -0.139,-0.046 -0.142,-0.143l0.41,0c0.003,-0.024 0.004,-0.043 0.004,-0.064c0,-0.154 -0.098,-0.241 -0.273,-0.241c-0.183,-0 -0.285,0.091 -0.285,0.253l-0,0.029c-0,0.166 0.102,0.254 0.283,0.254c0.16,-0 0.255,-0.059 0.277,-0.175l-0.141,-0.014Zm-0.133,-0.26c0.083,0 0.129,0.044 0.129,0.123l-0,0.007l-0.27,0c0.008,-0.085 0.057,-0.13 0.141,-0.13Z" style="fill:#00656c;fill-rule:nonzero;"/></g><g transform="matrix(11,0,0,11,464.498,493.941)"><path d="M0.049,-0l0.142,-0l-0,-0.238c-0,-0.116 0.054,-0.187 0.144,-0.187c0.067,0 0.1,0.035 0.1,0.101l0,0.324l0.142,0l0,-0.358c0,-0.107 -0.063,-0.164 -0.18,-0.164c-0.106,0 -0.179,0.047 -0.222,0.145l-0.01,-0.005c0.02,-0.058 0.026,-0.093 0.026,-0.131l-0.142,0l-0,0.513Z" style="fill:#00656c;fill-rule:nonzero;"/></g><g transform="matrix(11,0,0,11,471.357,493.941)"><path d="M0.102,-0.684l-0.036,0.125l0.108,0l0.058,-0.125l-0.13,0Zm-0.053,0.684l0.142,-0l-0,-0.513l-0.142,0l-0,0.513Z" style="fill:#00656c;fill-rule:nonzero;"/></g><g transform="matrix(11,0,0,11,350.572,504.941)"><path d="M0.049,-0l0.142,-0l-0,-0.177l0.069,-0.069l0.13,0.246l0.148,-0l-0.178,-0.324l0.18,-0.189l-0.155,0l-0.202,0.213l-0.008,-0.003c0.012,-0.059 0.016,-0.099 0.016,-0.164l-0,-0.217l-0.142,0l-0,0.684Z" style="fill:#00656c;fill-rule:nonzero;"/></g><g transform="matrix(11,0,0,11,356.598,504.941)"><rect x="0.049" y="-0.684" width="0.142" height="0.684" style="fill:#00656c;fill-rule:nonzero;"/></g><g transform="matrix(11,0,0,11,359.236,504.941)"><path d="M0.045,-0.573l0.153,-0l-0,-0.103l-0.153,0l-0,0.103Zm0.005,0.573l0.142,-0l0,-0.513l-0.142,0l0,0.513Z" style="fill:#00656c;fill-rule:nonzero;"/></g><g transform="matrix(11,0,0,11,361.905,504.941)"><path d="M0.049,-0l0.142,-0l-0,-0.234c-0,-0.114 0.047,-0.184 0.126,-0.184c0.057,-0 0.087,0.03 0.087,0.087l0,0.331l0.142,-0l0,-0.241c0,-0.107 0.045,-0.177 0.125,-0.177c0.058,-0 0.088,0.03 0.088,0.086l0,0.332l0.142,-0l0,-0.364c0,-0.103 -0.055,-0.155 -0.162,-0.155c-0.099,0 -0.166,0.046 -0.21,0.147l-0.009,-0.002c0.011,-0.093 -0.04,-0.145 -0.141,-0.145c-0.094,0 -0.156,0.043 -0.204,0.144l-0.01,-0.004c0.021,-0.064 0.027,-0.097 0.026,-0.13l-0.142,-0l-0,0.509Z" style="fill:#00656c;fill-rule:nonzero;"/></g><g transform="matrix(11,0,0,11,372.33,504.941)"><path d="M0.188,0.013c0.115,-0 0.198,-0.052 0.229,-0.138l0.01,0.002c-0.019,0.095 0.001,0.136 0.113,0.136c0.014,-0 0.028,-0.002 0.04,-0.004l0.017,-0.084l-0.025,-0.001c-0.027,-0 -0.034,-0.007 -0.034,-0.041l-0,-0.235c-0,-0.116 -0.078,-0.172 -0.242,-0.172c-0.175,0 -0.263,0.069 -0.256,0.188l0.14,0.012c-0.006,-0.079 0.034,-0.114 0.113,-0.114c0.07,-0 0.103,0.025 0.103,0.084l0,0.029l-0.138,0.026c-0.139,0.026 -0.231,0.07 -0.231,0.177l0,0.001c0,0.085 0.058,0.134 0.161,0.134Zm0.057,-0.095c-0.048,-0 -0.074,-0.017 -0.074,-0.052l-0,-0.001c-0,-0.051 0.045,-0.071 0.135,-0.089l0.09,-0.017l0,0.024c0,0.078 -0.07,0.135 -0.151,0.135Z" style="fill:#00656c;fill-rule:nonzero;"/></g><g transform="matrix(11,0,0,11,378.727,504.941)"><path d="M0.263,0.011c0.053,0 0.104,-0.01 0.139,-0.027l0.008,-0.093c-0.032,0.013 -0.064,0.02 -0.094,0.02c-0.051,0 -0.076,-0.022 -0.076,-0.076l0,-0.255l0.17,-0l0,-0.093l-0.17,0l0,-0.15l-0.142,0.037l0,0.113l-0.082,0l0,0.093l0.082,-0l0,0.278c0,0.104 0.055,0.153 0.165,0.153Z" style="fill:#00656c;fill-rule:nonzero;"/></g><g transform="matrix(11,0,0,11,383.438,504.941)"><path d="M0.045,-0.573l0.153,-0l-0,-0.103l-0.153,0l-0,0.103Zm0.005,0.573l0.142,-0l0,-0.513l-0.142,0l0,0.513Z" style="fill:#00656c;fill-rule:nonzero;"/></g><g transform="matrix(11,0,0,11,386.107,504.941)"><path d="M0.316,0.012c0.167,0 0.261,-0.067 0.275,-0.198l-0.143,-0.016c-0.006,0.082 -0.051,0.124 -0.132,0.124c-0.09,-0 -0.137,-0.057 -0.137,-0.169l0,-0.024c0,-0.109 0.048,-0.164 0.136,-0.164c0.081,-0 0.124,0.045 0.13,0.136l0.142,-0.016c-0.011,-0.138 -0.102,-0.21 -0.272,-0.21c-0.184,0 -0.281,0.09 -0.281,0.263l-0,0.007c-0,0.175 0.096,0.267 0.282,0.267Z" style="fill:#00656c;fill-rule:nonzero;"/></g><g transform="matrix(11,0,0,11,392.966,504.941)"><path d="M0.049,-0l0.142,-0l-0,-0.177l0.069,-0.069l0.13,0.246l0.148,-0l-0.178,-0.324l0.18,-0.189l-0.155,0l-0.202,0.213l-0.008,-0.003c0.012,-0.059 0.016,-0.099 0.016,-0.164l-0,-0.217l-0.142,0l-0,0.684Z" style="fill:#00656c;fill-rule:nonzero;"/></g><g transform="matrix(11,0,0,11,398.568,504.941)"><path d="M0.478,-0.684l-0.136,0l-0.081,0.125l0.103,0l0.114,-0.125Zm-0.025,0.507c-0.013,0.071 -0.059,0.101 -0.133,0.101c-0.086,0 -0.139,-0.046 -0.142,-0.143l0.41,0c0.003,-0.024 0.004,-0.043 0.004,-0.064c0,-0.154 -0.098,-0.241 -0.273,-0.241c-0.183,-0 -0.285,0.091 -0.285,0.253l-0,0.029c-0,0.166 0.102,0.254 0.283,0.254c0.16,-0 0.255,-0.059 0.277,-0.175l-0.141,-0.014Zm-0.133,-0.26c0.083,0 0.129,0.044 0.129,0.123l-0,0.007l-0.27,0c0.008,-0.085 0.057,-0.13 0.141,-0.13Z" style="fill:#00656c;fill-rule:nonzero;"/></g><g transform="matrix(11,0,0,11,407.758,504.941)"><path d="M0.049,-0l0.142,-0l-0,-0.177l0.069,-0.069l0.13,0.246l0.148,-0l-0.178,-0.324l0.18,-0.189l-0.155,0l-0.202,0.213l-0.008,-0.003c0.012,-0.059 0.016,-0.099 0.016,-0.164l-0,-0.217l-0.142,0l-0,0.684Z" style="fill:#00656c;fill-rule:nonzero;"/></g><g transform="matrix(11,0,0,11,413.784,504.941)"><path d="M0.049,-0l0.142,-0l-0,-0.214c-0,-0.134 0.041,-0.183 0.15,-0.191l0.07,-0.006l-0.017,-0.118c-0.115,0.009 -0.168,0.045 -0.221,0.152l-0.009,-0.005c0.023,-0.068 0.028,-0.096 0.027,-0.131l-0.142,0l-0,0.513Z" style="fill:#00656c;fill-rule:nonzero;"/></g><g transform="matrix(11,0,0,11,418.463,504.941)"><path d="M0.045,-0.573l0.153,-0l-0,-0.103l-0.153,0l-0,0.103Zm0.005,0.573l0.142,-0l0,-0.513l-0.142,0l0,0.513Z" style="fill:#00656c;fill-rule:nonzero;"/></g><g transform="matrix(11,0,0,11,421.132,504.941)"><path d="M0.021,-0l0.488,-0l-0,-0.093l-0.221,-0c-0.023,-0 -0.043,0 -0.061,0.001l-0.003,-0.006c0.015,-0.019 0.025,-0.033 0.037,-0.051l0.244,-0.355l-0.003,-0.009l-0.469,0l-0,0.093l0.207,0c0.022,0 0.036,0 0.055,-0.001l0.003,0.007c-0.011,0.015 -0.021,0.027 -0.031,0.044l-0.249,0.362l0.003,0.008Z" style="fill:#00656c;fill-rule:nonzero;"/></g><g transform="matrix(11,0,0,11,426.675,504.941)"><path d="M0.453,-0.177c-0.013,0.071 -0.059,0.101 -0.133,0.101c-0.086,0 -0.139,-0.046 -0.142,-0.143l0.41,0c0.003,-0.024 0.004,-0.043 0.004,-0.064c0,-0.154 -0.098,-0.241 -0.273,-0.241c-0.183,-0 -0.285,0.091 -0.285,0.253l-0,0.029c-0,0.166 0.102,0.254 0.283,0.254c0.16,-0 0.255,-0.059 0.277,-0.175l-0.141,-0.014Zm-0.133,-0.26c0.083,0 0.129,0.044 0.129,0.123l-0,0.007l-0.27,0c0.008,-0.085 0.057,-0.13 0.141,-0.13Z" style="fill:#00656c;fill-rule:nonzero;"/></g><g transform="matrix(11,0,0,11,433.421,504.941)"><rect x="0.041" y="-0.137" width="0.156" height="0.137" style="fill:#00656c;fill-rule:nonzero;"/></g></g><rect x="8.59" y="8.59" width="970.242" height="297.808" style="fill:none;stroke:#00656c;stroke-width:4.17px;"/></svg>